%TF.GenerationSoftware,KiCad,Pcbnew,(5.1.5)-3*%
%TF.CreationDate,2020-03-17T21:32:34+01:00*%
%TF.ProjectId,KicadJE-EuroPowerSupply2-PCB,4b696361-644a-4452-9d45-75726f506f77,Rev A*%
%TF.SameCoordinates,Original*%
%TF.FileFunction,Legend,Bot*%
%TF.FilePolarity,Positive*%
%FSLAX46Y46*%
G04 Gerber Fmt 4.6, Leading zero omitted, Abs format (unit mm)*
G04 Created by KiCad (PCBNEW (5.1.5)-3) date 2020-03-17 21:32:34*
%MOMM*%
%LPD*%
G04 APERTURE LIST*
%ADD10C,0.750000*%
%ADD11C,0.250000*%
%ADD12C,0.120000*%
%ADD13C,1.000000*%
%ADD14C,0.050000*%
%ADD15C,0.150000*%
G04 APERTURE END LIST*
D10*
X98428571Y-62309523D02*
X98428571Y-58309523D01*
X97285714Y-58309523D01*
X97000000Y-58500000D01*
X96857142Y-58690476D01*
X96714285Y-59071428D01*
X96714285Y-59642857D01*
X96857142Y-60023809D01*
X97000000Y-60214285D01*
X97285714Y-60404761D01*
X98428571Y-60404761D01*
X95714285Y-58309523D02*
X95000000Y-62309523D01*
X94428571Y-59452380D01*
X93857142Y-62309523D01*
X93142857Y-58309523D01*
X90285714Y-62309523D02*
X91285714Y-60404761D01*
X92000000Y-62309523D02*
X92000000Y-58309523D01*
X90857142Y-58309523D01*
X90571428Y-58500000D01*
X90428571Y-58690476D01*
X90285714Y-59071428D01*
X90285714Y-59642857D01*
X90428571Y-60023809D01*
X90571428Y-60214285D01*
X90857142Y-60404761D01*
X92000000Y-60404761D01*
X89142857Y-58690476D02*
X89000000Y-58500000D01*
X88714285Y-58309523D01*
X88000000Y-58309523D01*
X87714285Y-58500000D01*
X87571428Y-58690476D01*
X87428571Y-59071428D01*
X87428571Y-59452380D01*
X87571428Y-60023809D01*
X89285714Y-62309523D01*
X87428571Y-62309523D01*
D11*
X98813690Y-51202380D02*
X98813690Y-51916666D01*
X98861309Y-52059523D01*
X98956547Y-52154761D01*
X99099404Y-52202380D01*
X99194642Y-52202380D01*
X98194642Y-52202380D02*
X98289880Y-52154761D01*
X98337500Y-52107142D01*
X98385119Y-52011904D01*
X98385119Y-51726190D01*
X98337500Y-51630952D01*
X98289880Y-51583333D01*
X98194642Y-51535714D01*
X98051785Y-51535714D01*
X97956547Y-51583333D01*
X97908928Y-51630952D01*
X97861309Y-51726190D01*
X97861309Y-52011904D01*
X97908928Y-52107142D01*
X97956547Y-52154761D01*
X98051785Y-52202380D01*
X98194642Y-52202380D01*
X97432738Y-52202380D02*
X97432738Y-51202380D01*
X97004166Y-52202380D02*
X97004166Y-51678571D01*
X97051785Y-51583333D01*
X97147023Y-51535714D01*
X97289880Y-51535714D01*
X97385119Y-51583333D01*
X97432738Y-51630952D01*
X96099404Y-52202380D02*
X96099404Y-51678571D01*
X96147023Y-51583333D01*
X96242261Y-51535714D01*
X96432738Y-51535714D01*
X96527976Y-51583333D01*
X96099404Y-52154761D02*
X96194642Y-52202380D01*
X96432738Y-52202380D01*
X96527976Y-52154761D01*
X96575595Y-52059523D01*
X96575595Y-51964285D01*
X96527976Y-51869047D01*
X96432738Y-51821428D01*
X96194642Y-51821428D01*
X96099404Y-51773809D01*
X95623214Y-51535714D02*
X95623214Y-52202380D01*
X95623214Y-51630952D02*
X95575595Y-51583333D01*
X95480357Y-51535714D01*
X95337500Y-51535714D01*
X95242261Y-51583333D01*
X95194642Y-51678571D01*
X95194642Y-52202380D01*
X94766071Y-52154761D02*
X94670833Y-52202380D01*
X94480357Y-52202380D01*
X94385119Y-52154761D01*
X94337500Y-52059523D01*
X94337500Y-52011904D01*
X94385119Y-51916666D01*
X94480357Y-51869047D01*
X94623214Y-51869047D01*
X94718452Y-51821428D01*
X94766071Y-51726190D01*
X94766071Y-51678571D01*
X94718452Y-51583333D01*
X94623214Y-51535714D01*
X94480357Y-51535714D01*
X94385119Y-51583333D01*
X93527976Y-52154761D02*
X93623214Y-52202380D01*
X93813690Y-52202380D01*
X93908928Y-52154761D01*
X93956547Y-52059523D01*
X93956547Y-51678571D01*
X93908928Y-51583333D01*
X93813690Y-51535714D01*
X93623214Y-51535714D01*
X93527976Y-51583333D01*
X93480357Y-51678571D01*
X93480357Y-51773809D01*
X93956547Y-51869047D01*
X93051785Y-51535714D02*
X93051785Y-52202380D01*
X93051785Y-51630952D02*
X93004166Y-51583333D01*
X92908928Y-51535714D01*
X92766071Y-51535714D01*
X92670833Y-51583333D01*
X92623214Y-51678571D01*
X92623214Y-52202380D01*
X91385119Y-51678571D02*
X91051785Y-51678571D01*
X90908928Y-52202380D02*
X91385119Y-52202380D01*
X91385119Y-51202380D01*
X90908928Y-51202380D01*
X90480357Y-51535714D02*
X90480357Y-52202380D01*
X90480357Y-51630952D02*
X90432738Y-51583333D01*
X90337500Y-51535714D01*
X90194642Y-51535714D01*
X90099404Y-51583333D01*
X90051785Y-51678571D01*
X90051785Y-52202380D01*
X89147023Y-51535714D02*
X89147023Y-52345238D01*
X89194642Y-52440476D01*
X89242261Y-52488095D01*
X89337500Y-52535714D01*
X89480357Y-52535714D01*
X89575595Y-52488095D01*
X89147023Y-52154761D02*
X89242261Y-52202380D01*
X89432738Y-52202380D01*
X89527976Y-52154761D01*
X89575595Y-52107142D01*
X89623214Y-52011904D01*
X89623214Y-51726190D01*
X89575595Y-51630952D01*
X89527976Y-51583333D01*
X89432738Y-51535714D01*
X89242261Y-51535714D01*
X89147023Y-51583333D01*
X88670833Y-52202380D02*
X88670833Y-51535714D01*
X88670833Y-51202380D02*
X88718452Y-51250000D01*
X88670833Y-51297619D01*
X88623214Y-51250000D01*
X88670833Y-51202380D01*
X88670833Y-51297619D01*
X88194642Y-51535714D02*
X88194642Y-52202380D01*
X88194642Y-51630952D02*
X88147023Y-51583333D01*
X88051785Y-51535714D01*
X87908928Y-51535714D01*
X87813690Y-51583333D01*
X87766071Y-51678571D01*
X87766071Y-52202380D01*
X86908928Y-52154761D02*
X87004166Y-52202380D01*
X87194642Y-52202380D01*
X87289880Y-52154761D01*
X87337500Y-52059523D01*
X87337500Y-51678571D01*
X87289880Y-51583333D01*
X87194642Y-51535714D01*
X87004166Y-51535714D01*
X86908928Y-51583333D01*
X86861309Y-51678571D01*
X86861309Y-51773809D01*
X87337500Y-51869047D01*
X86051785Y-52154761D02*
X86147023Y-52202380D01*
X86337500Y-52202380D01*
X86432738Y-52154761D01*
X86480357Y-52059523D01*
X86480357Y-51678571D01*
X86432738Y-51583333D01*
X86337500Y-51535714D01*
X86147023Y-51535714D01*
X86051785Y-51583333D01*
X86004166Y-51678571D01*
X86004166Y-51773809D01*
X86480357Y-51869047D01*
X85575595Y-52202380D02*
X85575595Y-51535714D01*
X85575595Y-51726190D02*
X85527976Y-51630952D01*
X85480357Y-51583333D01*
X85385119Y-51535714D01*
X85289880Y-51535714D01*
X84956547Y-52202380D02*
X84956547Y-51535714D01*
X84956547Y-51202380D02*
X85004166Y-51250000D01*
X84956547Y-51297619D01*
X84908928Y-51250000D01*
X84956547Y-51202380D01*
X84956547Y-51297619D01*
X84480357Y-51535714D02*
X84480357Y-52202380D01*
X84480357Y-51630952D02*
X84432738Y-51583333D01*
X84337500Y-51535714D01*
X84194642Y-51535714D01*
X84099404Y-51583333D01*
X84051785Y-51678571D01*
X84051785Y-52202380D01*
X83147023Y-51535714D02*
X83147023Y-52345238D01*
X83194642Y-52440476D01*
X83242261Y-52488095D01*
X83337500Y-52535714D01*
X83480357Y-52535714D01*
X83575595Y-52488095D01*
X83147023Y-52154761D02*
X83242261Y-52202380D01*
X83432738Y-52202380D01*
X83527976Y-52154761D01*
X83575595Y-52107142D01*
X83623214Y-52011904D01*
X83623214Y-51726190D01*
X83575595Y-51630952D01*
X83527976Y-51583333D01*
X83432738Y-51535714D01*
X83242261Y-51535714D01*
X83147023Y-51583333D01*
X99099404Y-53952380D02*
X99099404Y-52952380D01*
X98718452Y-52952380D01*
X98623214Y-53000000D01*
X98575595Y-53047619D01*
X98527976Y-53142857D01*
X98527976Y-53285714D01*
X98575595Y-53380952D01*
X98623214Y-53428571D01*
X98718452Y-53476190D01*
X99099404Y-53476190D01*
X98194642Y-52952380D02*
X97956547Y-53952380D01*
X97766071Y-53238095D01*
X97575595Y-53952380D01*
X97337500Y-52952380D01*
X96385119Y-53952380D02*
X96718452Y-53476190D01*
X96956547Y-53952380D02*
X96956547Y-52952380D01*
X96575595Y-52952380D01*
X96480357Y-53000000D01*
X96432738Y-53047619D01*
X96385119Y-53142857D01*
X96385119Y-53285714D01*
X96432738Y-53380952D01*
X96480357Y-53428571D01*
X96575595Y-53476190D01*
X96956547Y-53476190D01*
X96004166Y-53047619D02*
X95956547Y-53000000D01*
X95861309Y-52952380D01*
X95623214Y-52952380D01*
X95527976Y-53000000D01*
X95480357Y-53047619D01*
X95432738Y-53142857D01*
X95432738Y-53238095D01*
X95480357Y-53380952D01*
X96051785Y-53952380D01*
X95432738Y-53952380D01*
X94242261Y-53571428D02*
X93480357Y-53571428D01*
X91670833Y-53952380D02*
X92004166Y-53476190D01*
X92242261Y-53952380D02*
X92242261Y-52952380D01*
X91861309Y-52952380D01*
X91766071Y-53000000D01*
X91718452Y-53047619D01*
X91670833Y-53142857D01*
X91670833Y-53285714D01*
X91718452Y-53380952D01*
X91766071Y-53428571D01*
X91861309Y-53476190D01*
X92242261Y-53476190D01*
X90861309Y-53904761D02*
X90956547Y-53952380D01*
X91147023Y-53952380D01*
X91242261Y-53904761D01*
X91289880Y-53809523D01*
X91289880Y-53428571D01*
X91242261Y-53333333D01*
X91147023Y-53285714D01*
X90956547Y-53285714D01*
X90861309Y-53333333D01*
X90813690Y-53428571D01*
X90813690Y-53523809D01*
X91289880Y-53619047D01*
X90480357Y-53285714D02*
X90242261Y-53952380D01*
X90004166Y-53285714D01*
X88908928Y-53666666D02*
X88432738Y-53666666D01*
X89004166Y-53952380D02*
X88670833Y-52952380D01*
X88337500Y-53952380D01*
X98575595Y-55702380D02*
X99147023Y-55702380D01*
X98861309Y-55702380D02*
X98861309Y-54702380D01*
X98956547Y-54845238D01*
X99051785Y-54940476D01*
X99147023Y-54988095D01*
X97670833Y-54702380D02*
X98147023Y-54702380D01*
X98194642Y-55178571D01*
X98147023Y-55130952D01*
X98051785Y-55083333D01*
X97813690Y-55083333D01*
X97718452Y-55130952D01*
X97670833Y-55178571D01*
X97623214Y-55273809D01*
X97623214Y-55511904D01*
X97670833Y-55607142D01*
X97718452Y-55654761D01*
X97813690Y-55702380D01*
X98051785Y-55702380D01*
X98147023Y-55654761D01*
X98194642Y-55607142D01*
X96480357Y-54654761D02*
X97337500Y-55940476D01*
X95956547Y-54702380D02*
X95861309Y-54702380D01*
X95766071Y-54750000D01*
X95718452Y-54797619D01*
X95670833Y-54892857D01*
X95623214Y-55083333D01*
X95623214Y-55321428D01*
X95670833Y-55511904D01*
X95718452Y-55607142D01*
X95766071Y-55654761D01*
X95861309Y-55702380D01*
X95956547Y-55702380D01*
X96051785Y-55654761D01*
X96099404Y-55607142D01*
X96147023Y-55511904D01*
X96194642Y-55321428D01*
X96194642Y-55083333D01*
X96147023Y-54892857D01*
X96099404Y-54797619D01*
X96051785Y-54750000D01*
X95956547Y-54702380D01*
X95289880Y-54702380D02*
X94670833Y-54702380D01*
X95004166Y-55083333D01*
X94861309Y-55083333D01*
X94766071Y-55130952D01*
X94718452Y-55178571D01*
X94670833Y-55273809D01*
X94670833Y-55511904D01*
X94718452Y-55607142D01*
X94766071Y-55654761D01*
X94861309Y-55702380D01*
X95147023Y-55702380D01*
X95242261Y-55654761D01*
X95289880Y-55607142D01*
X94242261Y-55321428D02*
X93480357Y-55321428D01*
X93051785Y-54797619D02*
X93004166Y-54750000D01*
X92908928Y-54702380D01*
X92670833Y-54702380D01*
X92575595Y-54750000D01*
X92527976Y-54797619D01*
X92480357Y-54892857D01*
X92480357Y-54988095D01*
X92527976Y-55130952D01*
X93099404Y-55702380D01*
X92480357Y-55702380D01*
X91861309Y-54702380D02*
X91766071Y-54702380D01*
X91670833Y-54750000D01*
X91623214Y-54797619D01*
X91575595Y-54892857D01*
X91527976Y-55083333D01*
X91527976Y-55321428D01*
X91575595Y-55511904D01*
X91623214Y-55607142D01*
X91670833Y-55654761D01*
X91766071Y-55702380D01*
X91861309Y-55702380D01*
X91956547Y-55654761D01*
X92004166Y-55607142D01*
X92051785Y-55511904D01*
X92099404Y-55321428D01*
X92099404Y-55083333D01*
X92051785Y-54892857D01*
X92004166Y-54797619D01*
X91956547Y-54750000D01*
X91861309Y-54702380D01*
X91147023Y-54797619D02*
X91099404Y-54750000D01*
X91004166Y-54702380D01*
X90766071Y-54702380D01*
X90670833Y-54750000D01*
X90623214Y-54797619D01*
X90575595Y-54892857D01*
X90575595Y-54988095D01*
X90623214Y-55130952D01*
X91194642Y-55702380D01*
X90575595Y-55702380D01*
X89956547Y-54702380D02*
X89861309Y-54702380D01*
X89766071Y-54750000D01*
X89718452Y-54797619D01*
X89670833Y-54892857D01*
X89623214Y-55083333D01*
X89623214Y-55321428D01*
X89670833Y-55511904D01*
X89718452Y-55607142D01*
X89766071Y-55654761D01*
X89861309Y-55702380D01*
X89956547Y-55702380D01*
X90051785Y-55654761D01*
X90099404Y-55607142D01*
X90147023Y-55511904D01*
X90194642Y-55321428D01*
X90194642Y-55083333D01*
X90147023Y-54892857D01*
X90099404Y-54797619D01*
X90051785Y-54750000D01*
X89956547Y-54702380D01*
D10*
X54809523Y-111071428D02*
X50809523Y-111071428D01*
X50809523Y-112214285D01*
X51000000Y-112500000D01*
X51190476Y-112642857D01*
X51571428Y-112785714D01*
X52142857Y-112785714D01*
X52523809Y-112642857D01*
X52714285Y-112500000D01*
X52904761Y-112214285D01*
X52904761Y-111071428D01*
X50809523Y-113785714D02*
X54809523Y-114500000D01*
X51952380Y-115071428D01*
X54809523Y-115642857D01*
X50809523Y-116357142D01*
X54809523Y-119214285D02*
X52904761Y-118214285D01*
X54809523Y-117500000D02*
X50809523Y-117500000D01*
X50809523Y-118642857D01*
X51000000Y-118928571D01*
X51190476Y-119071428D01*
X51571428Y-119214285D01*
X52142857Y-119214285D01*
X52523809Y-119071428D01*
X52714285Y-118928571D01*
X52904761Y-118642857D01*
X52904761Y-117500000D01*
X51190476Y-120357142D02*
X51000000Y-120500000D01*
X50809523Y-120785714D01*
X50809523Y-121500000D01*
X51000000Y-121785714D01*
X51190476Y-121928571D01*
X51571428Y-122071428D01*
X51952380Y-122071428D01*
X52523809Y-121928571D01*
X54809523Y-120214285D01*
X54809523Y-122071428D01*
D12*
X50250000Y-100500000D02*
X50250000Y-101500000D01*
D11*
X68313690Y-50702380D02*
X68313690Y-51416666D01*
X68361309Y-51559523D01*
X68456547Y-51654761D01*
X68599404Y-51702380D01*
X68694642Y-51702380D01*
X67694642Y-51702380D02*
X67789880Y-51654761D01*
X67837500Y-51607142D01*
X67885119Y-51511904D01*
X67885119Y-51226190D01*
X67837500Y-51130952D01*
X67789880Y-51083333D01*
X67694642Y-51035714D01*
X67551785Y-51035714D01*
X67456547Y-51083333D01*
X67408928Y-51130952D01*
X67361309Y-51226190D01*
X67361309Y-51511904D01*
X67408928Y-51607142D01*
X67456547Y-51654761D01*
X67551785Y-51702380D01*
X67694642Y-51702380D01*
X66932738Y-51702380D02*
X66932738Y-50702380D01*
X66504166Y-51702380D02*
X66504166Y-51178571D01*
X66551785Y-51083333D01*
X66647023Y-51035714D01*
X66789880Y-51035714D01*
X66885119Y-51083333D01*
X66932738Y-51130952D01*
X65599404Y-51702380D02*
X65599404Y-51178571D01*
X65647023Y-51083333D01*
X65742261Y-51035714D01*
X65932738Y-51035714D01*
X66027976Y-51083333D01*
X65599404Y-51654761D02*
X65694642Y-51702380D01*
X65932738Y-51702380D01*
X66027976Y-51654761D01*
X66075595Y-51559523D01*
X66075595Y-51464285D01*
X66027976Y-51369047D01*
X65932738Y-51321428D01*
X65694642Y-51321428D01*
X65599404Y-51273809D01*
X65123214Y-51035714D02*
X65123214Y-51702380D01*
X65123214Y-51130952D02*
X65075595Y-51083333D01*
X64980357Y-51035714D01*
X64837500Y-51035714D01*
X64742261Y-51083333D01*
X64694642Y-51178571D01*
X64694642Y-51702380D01*
X64266071Y-51654761D02*
X64170833Y-51702380D01*
X63980357Y-51702380D01*
X63885119Y-51654761D01*
X63837500Y-51559523D01*
X63837500Y-51511904D01*
X63885119Y-51416666D01*
X63980357Y-51369047D01*
X64123214Y-51369047D01*
X64218452Y-51321428D01*
X64266071Y-51226190D01*
X64266071Y-51178571D01*
X64218452Y-51083333D01*
X64123214Y-51035714D01*
X63980357Y-51035714D01*
X63885119Y-51083333D01*
X63027976Y-51654761D02*
X63123214Y-51702380D01*
X63313690Y-51702380D01*
X63408928Y-51654761D01*
X63456547Y-51559523D01*
X63456547Y-51178571D01*
X63408928Y-51083333D01*
X63313690Y-51035714D01*
X63123214Y-51035714D01*
X63027976Y-51083333D01*
X62980357Y-51178571D01*
X62980357Y-51273809D01*
X63456547Y-51369047D01*
X62551785Y-51035714D02*
X62551785Y-51702380D01*
X62551785Y-51130952D02*
X62504166Y-51083333D01*
X62408928Y-51035714D01*
X62266071Y-51035714D01*
X62170833Y-51083333D01*
X62123214Y-51178571D01*
X62123214Y-51702380D01*
X60885119Y-51178571D02*
X60551785Y-51178571D01*
X60408928Y-51702380D02*
X60885119Y-51702380D01*
X60885119Y-50702380D01*
X60408928Y-50702380D01*
X59980357Y-51035714D02*
X59980357Y-51702380D01*
X59980357Y-51130952D02*
X59932738Y-51083333D01*
X59837500Y-51035714D01*
X59694642Y-51035714D01*
X59599404Y-51083333D01*
X59551785Y-51178571D01*
X59551785Y-51702380D01*
X58647023Y-51035714D02*
X58647023Y-51845238D01*
X58694642Y-51940476D01*
X58742261Y-51988095D01*
X58837500Y-52035714D01*
X58980357Y-52035714D01*
X59075595Y-51988095D01*
X58647023Y-51654761D02*
X58742261Y-51702380D01*
X58932738Y-51702380D01*
X59027976Y-51654761D01*
X59075595Y-51607142D01*
X59123214Y-51511904D01*
X59123214Y-51226190D01*
X59075595Y-51130952D01*
X59027976Y-51083333D01*
X58932738Y-51035714D01*
X58742261Y-51035714D01*
X58647023Y-51083333D01*
X58170833Y-51702380D02*
X58170833Y-51035714D01*
X58170833Y-50702380D02*
X58218452Y-50750000D01*
X58170833Y-50797619D01*
X58123214Y-50750000D01*
X58170833Y-50702380D01*
X58170833Y-50797619D01*
X57694642Y-51035714D02*
X57694642Y-51702380D01*
X57694642Y-51130952D02*
X57647023Y-51083333D01*
X57551785Y-51035714D01*
X57408928Y-51035714D01*
X57313690Y-51083333D01*
X57266071Y-51178571D01*
X57266071Y-51702380D01*
X56408928Y-51654761D02*
X56504166Y-51702380D01*
X56694642Y-51702380D01*
X56789880Y-51654761D01*
X56837500Y-51559523D01*
X56837500Y-51178571D01*
X56789880Y-51083333D01*
X56694642Y-51035714D01*
X56504166Y-51035714D01*
X56408928Y-51083333D01*
X56361309Y-51178571D01*
X56361309Y-51273809D01*
X56837500Y-51369047D01*
X55551785Y-51654761D02*
X55647023Y-51702380D01*
X55837500Y-51702380D01*
X55932738Y-51654761D01*
X55980357Y-51559523D01*
X55980357Y-51178571D01*
X55932738Y-51083333D01*
X55837500Y-51035714D01*
X55647023Y-51035714D01*
X55551785Y-51083333D01*
X55504166Y-51178571D01*
X55504166Y-51273809D01*
X55980357Y-51369047D01*
X55075595Y-51702380D02*
X55075595Y-51035714D01*
X55075595Y-51226190D02*
X55027976Y-51130952D01*
X54980357Y-51083333D01*
X54885119Y-51035714D01*
X54789880Y-51035714D01*
X54456547Y-51702380D02*
X54456547Y-51035714D01*
X54456547Y-50702380D02*
X54504166Y-50750000D01*
X54456547Y-50797619D01*
X54408928Y-50750000D01*
X54456547Y-50702380D01*
X54456547Y-50797619D01*
X53980357Y-51035714D02*
X53980357Y-51702380D01*
X53980357Y-51130952D02*
X53932738Y-51083333D01*
X53837500Y-51035714D01*
X53694642Y-51035714D01*
X53599404Y-51083333D01*
X53551785Y-51178571D01*
X53551785Y-51702380D01*
X52647023Y-51035714D02*
X52647023Y-51845238D01*
X52694642Y-51940476D01*
X52742261Y-51988095D01*
X52837500Y-52035714D01*
X52980357Y-52035714D01*
X53075595Y-51988095D01*
X52647023Y-51654761D02*
X52742261Y-51702380D01*
X52932738Y-51702380D01*
X53027976Y-51654761D01*
X53075595Y-51607142D01*
X53123214Y-51511904D01*
X53123214Y-51226190D01*
X53075595Y-51130952D01*
X53027976Y-51083333D01*
X52932738Y-51035714D01*
X52742261Y-51035714D01*
X52647023Y-51083333D01*
X68599404Y-53452380D02*
X68599404Y-52452380D01*
X68218452Y-52452380D01*
X68123214Y-52500000D01*
X68075595Y-52547619D01*
X68027976Y-52642857D01*
X68027976Y-52785714D01*
X68075595Y-52880952D01*
X68123214Y-52928571D01*
X68218452Y-52976190D01*
X68599404Y-52976190D01*
X67694642Y-52452380D02*
X67456547Y-53452380D01*
X67266071Y-52738095D01*
X67075595Y-53452380D01*
X66837500Y-52452380D01*
X65885119Y-53452380D02*
X66218452Y-52976190D01*
X66456547Y-53452380D02*
X66456547Y-52452380D01*
X66075595Y-52452380D01*
X65980357Y-52500000D01*
X65932738Y-52547619D01*
X65885119Y-52642857D01*
X65885119Y-52785714D01*
X65932738Y-52880952D01*
X65980357Y-52928571D01*
X66075595Y-52976190D01*
X66456547Y-52976190D01*
X65504166Y-52547619D02*
X65456547Y-52500000D01*
X65361309Y-52452380D01*
X65123214Y-52452380D01*
X65027976Y-52500000D01*
X64980357Y-52547619D01*
X64932738Y-52642857D01*
X64932738Y-52738095D01*
X64980357Y-52880952D01*
X65551785Y-53452380D01*
X64932738Y-53452380D01*
X63742261Y-53071428D02*
X62980357Y-53071428D01*
X61170833Y-53452380D02*
X61504166Y-52976190D01*
X61742261Y-53452380D02*
X61742261Y-52452380D01*
X61361309Y-52452380D01*
X61266071Y-52500000D01*
X61218452Y-52547619D01*
X61170833Y-52642857D01*
X61170833Y-52785714D01*
X61218452Y-52880952D01*
X61266071Y-52928571D01*
X61361309Y-52976190D01*
X61742261Y-52976190D01*
X60361309Y-53404761D02*
X60456547Y-53452380D01*
X60647023Y-53452380D01*
X60742261Y-53404761D01*
X60789880Y-53309523D01*
X60789880Y-52928571D01*
X60742261Y-52833333D01*
X60647023Y-52785714D01*
X60456547Y-52785714D01*
X60361309Y-52833333D01*
X60313690Y-52928571D01*
X60313690Y-53023809D01*
X60789880Y-53119047D01*
X59980357Y-52785714D02*
X59742261Y-53452380D01*
X59504166Y-52785714D01*
X58408928Y-53166666D02*
X57932738Y-53166666D01*
X58504166Y-53452380D02*
X58170833Y-52452380D01*
X57837500Y-53452380D01*
X68075595Y-55202380D02*
X68647023Y-55202380D01*
X68361309Y-55202380D02*
X68361309Y-54202380D01*
X68456547Y-54345238D01*
X68551785Y-54440476D01*
X68647023Y-54488095D01*
X67170833Y-54202380D02*
X67647023Y-54202380D01*
X67694642Y-54678571D01*
X67647023Y-54630952D01*
X67551785Y-54583333D01*
X67313690Y-54583333D01*
X67218452Y-54630952D01*
X67170833Y-54678571D01*
X67123214Y-54773809D01*
X67123214Y-55011904D01*
X67170833Y-55107142D01*
X67218452Y-55154761D01*
X67313690Y-55202380D01*
X67551785Y-55202380D01*
X67647023Y-55154761D01*
X67694642Y-55107142D01*
X65980357Y-54154761D02*
X66837500Y-55440476D01*
X65456547Y-54202380D02*
X65361309Y-54202380D01*
X65266071Y-54250000D01*
X65218452Y-54297619D01*
X65170833Y-54392857D01*
X65123214Y-54583333D01*
X65123214Y-54821428D01*
X65170833Y-55011904D01*
X65218452Y-55107142D01*
X65266071Y-55154761D01*
X65361309Y-55202380D01*
X65456547Y-55202380D01*
X65551785Y-55154761D01*
X65599404Y-55107142D01*
X65647023Y-55011904D01*
X65694642Y-54821428D01*
X65694642Y-54583333D01*
X65647023Y-54392857D01*
X65599404Y-54297619D01*
X65551785Y-54250000D01*
X65456547Y-54202380D01*
X64789880Y-54202380D02*
X64170833Y-54202380D01*
X64504166Y-54583333D01*
X64361309Y-54583333D01*
X64266071Y-54630952D01*
X64218452Y-54678571D01*
X64170833Y-54773809D01*
X64170833Y-55011904D01*
X64218452Y-55107142D01*
X64266071Y-55154761D01*
X64361309Y-55202380D01*
X64647023Y-55202380D01*
X64742261Y-55154761D01*
X64789880Y-55107142D01*
X63742261Y-54821428D02*
X62980357Y-54821428D01*
X62551785Y-54297619D02*
X62504166Y-54250000D01*
X62408928Y-54202380D01*
X62170833Y-54202380D01*
X62075595Y-54250000D01*
X62027976Y-54297619D01*
X61980357Y-54392857D01*
X61980357Y-54488095D01*
X62027976Y-54630952D01*
X62599404Y-55202380D01*
X61980357Y-55202380D01*
X61361309Y-54202380D02*
X61266071Y-54202380D01*
X61170833Y-54250000D01*
X61123214Y-54297619D01*
X61075595Y-54392857D01*
X61027976Y-54583333D01*
X61027976Y-54821428D01*
X61075595Y-55011904D01*
X61123214Y-55107142D01*
X61170833Y-55154761D01*
X61266071Y-55202380D01*
X61361309Y-55202380D01*
X61456547Y-55154761D01*
X61504166Y-55107142D01*
X61551785Y-55011904D01*
X61599404Y-54821428D01*
X61599404Y-54583333D01*
X61551785Y-54392857D01*
X61504166Y-54297619D01*
X61456547Y-54250000D01*
X61361309Y-54202380D01*
X60647023Y-54297619D02*
X60599404Y-54250000D01*
X60504166Y-54202380D01*
X60266071Y-54202380D01*
X60170833Y-54250000D01*
X60123214Y-54297619D01*
X60075595Y-54392857D01*
X60075595Y-54488095D01*
X60123214Y-54630952D01*
X60694642Y-55202380D01*
X60075595Y-55202380D01*
X59456547Y-54202380D02*
X59361309Y-54202380D01*
X59266071Y-54250000D01*
X59218452Y-54297619D01*
X59170833Y-54392857D01*
X59123214Y-54583333D01*
X59123214Y-54821428D01*
X59170833Y-55011904D01*
X59218452Y-55107142D01*
X59266071Y-55154761D01*
X59361309Y-55202380D01*
X59456547Y-55202380D01*
X59551785Y-55154761D01*
X59599404Y-55107142D01*
X59647023Y-55011904D01*
X59694642Y-54821428D01*
X59694642Y-54583333D01*
X59647023Y-54392857D01*
X59599404Y-54297619D01*
X59551785Y-54250000D01*
X59456547Y-54202380D01*
D13*
X69500000Y-60000000D02*
X70500000Y-60000000D01*
X69500000Y-140000000D02*
X70500000Y-140000000D01*
X70500000Y-60000000D02*
X70500000Y-140000000D01*
X69500000Y-60000000D02*
X69500000Y-140000000D01*
D14*
X50000000Y-150000000D02*
X50000000Y-50000000D01*
X150000000Y-150000000D02*
X50000000Y-150000000D01*
X150000000Y-50000000D02*
X150000000Y-150000000D01*
X50000000Y-50000000D02*
X150000000Y-50000000D01*
D12*
X80540000Y-122046251D02*
X80540000Y-121523747D01*
X81960000Y-122046251D02*
X81960000Y-121523747D01*
X90540000Y-121986252D02*
X90540000Y-121463748D01*
X91960000Y-121986252D02*
X91960000Y-121463748D01*
X111460000Y-121986252D02*
X111460000Y-121463748D01*
X110040000Y-121986252D02*
X110040000Y-121463748D01*
X101040000Y-122011252D02*
X101040000Y-121488748D01*
X102460000Y-122011252D02*
X102460000Y-121488748D01*
X102460000Y-117011252D02*
X102460000Y-116488748D01*
X101040000Y-117011252D02*
X101040000Y-116488748D01*
X110040000Y-116986252D02*
X110040000Y-116463748D01*
X111460000Y-116986252D02*
X111460000Y-116463748D01*
X81960000Y-129986252D02*
X81960000Y-129463748D01*
X80540000Y-129986252D02*
X80540000Y-129463748D01*
X102460000Y-129986252D02*
X102460000Y-129463748D01*
X101040000Y-129986252D02*
X101040000Y-129463748D01*
X111460000Y-130486252D02*
X111460000Y-129963748D01*
X110040000Y-130486252D02*
X110040000Y-129963748D01*
X91960000Y-129986252D02*
X91960000Y-129463748D01*
X90540000Y-129986252D02*
X90540000Y-129463748D01*
X110738748Y-86790000D02*
X111261252Y-86790000D01*
X110738748Y-88210000D02*
X111261252Y-88210000D01*
X120261252Y-86790000D02*
X119738748Y-86790000D01*
X120261252Y-88210000D02*
X119738748Y-88210000D01*
X110885436Y-76590000D02*
X112089564Y-76590000D01*
X110885436Y-78410000D02*
X112089564Y-78410000D01*
X120602064Y-76590000D02*
X119397936Y-76590000D01*
X120602064Y-78410000D02*
X119397936Y-78410000D01*
X143790000Y-115761252D02*
X143790000Y-115238748D01*
X145210000Y-115761252D02*
X145210000Y-115238748D01*
X127885436Y-78410000D02*
X129089564Y-78410000D01*
X127885436Y-76590000D02*
X129089564Y-76590000D01*
X128238748Y-86790000D02*
X128761252Y-86790000D01*
X128238748Y-88210000D02*
X128761252Y-88210000D01*
X134290000Y-97761252D02*
X134290000Y-97238748D01*
X135710000Y-97761252D02*
X135710000Y-97238748D01*
X148290000Y-92213748D02*
X148290000Y-92736252D01*
X149710000Y-92213748D02*
X149710000Y-92736252D01*
X135710000Y-92786252D02*
X135710000Y-92263748D01*
X134290000Y-92786252D02*
X134290000Y-92263748D01*
X141410000Y-62410436D02*
X141410000Y-63614564D01*
X139590000Y-62410436D02*
X139590000Y-63614564D01*
X148290000Y-103736252D02*
X148290000Y-103213748D01*
X149710000Y-103736252D02*
X149710000Y-103213748D01*
X59420000Y-90100000D02*
X61190000Y-90100000D01*
X59420000Y-98700000D02*
X59420000Y-90100000D01*
X64960000Y-98700000D02*
X59420000Y-98700000D01*
X64960000Y-90100000D02*
X64960000Y-98700000D01*
X63190000Y-90100000D02*
X64960000Y-90100000D01*
X61190000Y-90100000D02*
G75*
G03X63190000Y-90100000I1000000J0D01*
G01*
X53000000Y-75250000D02*
X53000000Y-82550000D01*
X53000000Y-82550000D02*
X51000000Y-82550000D01*
X51000000Y-82550000D02*
X51000000Y-75250000D01*
X148000000Y-122750000D02*
X150000000Y-122750000D01*
X150000000Y-122750000D02*
X150000000Y-126650000D01*
X148000000Y-122750000D02*
X148000000Y-126650000D01*
X148000000Y-111750000D02*
X150000000Y-111750000D01*
X150000000Y-111750000D02*
X150000000Y-115650000D01*
X148000000Y-111750000D02*
X148000000Y-115650000D01*
X150000000Y-139750000D02*
X150000000Y-135850000D01*
X148000000Y-139750000D02*
X148000000Y-135850000D01*
X150000000Y-139750000D02*
X148000000Y-139750000D01*
X147500000Y-62750000D02*
X147500000Y-66650000D01*
X149500000Y-62750000D02*
X149500000Y-66650000D01*
X147500000Y-62750000D02*
X149500000Y-62750000D01*
X137000000Y-59250000D02*
X137000000Y-54950000D01*
X137000000Y-54950000D02*
X139000000Y-54950000D01*
X139000000Y-54950000D02*
X139000000Y-59250000D01*
X139000000Y-60700000D02*
X139000000Y-65000000D01*
X137000000Y-60700000D02*
X139000000Y-60700000D01*
X137000000Y-65000000D02*
X137000000Y-60700000D01*
X54710000Y-106386252D02*
X54710000Y-103613748D01*
X51290000Y-106386252D02*
X51290000Y-103613748D01*
X135613748Y-70790000D02*
X138386252Y-70790000D01*
X135613748Y-74210000D02*
X138386252Y-74210000D01*
X138386252Y-80790000D02*
X135613748Y-80790000D01*
X138386252Y-84210000D02*
X135613748Y-84210000D01*
X142102064Y-130860000D02*
X140897936Y-130860000D01*
X142102064Y-128140000D02*
X140897936Y-128140000D01*
X142102064Y-117140000D02*
X140897936Y-117140000D01*
X142102064Y-119860000D02*
X140897936Y-119860000D01*
X142102064Y-139640000D02*
X140897936Y-139640000D01*
X142102064Y-142360000D02*
X140897936Y-142360000D01*
X52710000Y-86261252D02*
X52710000Y-85738748D01*
X51290000Y-86261252D02*
X51290000Y-85738748D01*
X59761252Y-81790000D02*
X59238748Y-81790000D01*
X59761252Y-83210000D02*
X59238748Y-83210000D01*
X55736252Y-126790000D02*
X55213748Y-126790000D01*
X55736252Y-128210000D02*
X55213748Y-128210000D01*
X55761252Y-137710000D02*
X55238748Y-137710000D01*
X55761252Y-136290000D02*
X55238748Y-136290000D01*
X55761252Y-141790000D02*
X55238748Y-141790000D01*
X55761252Y-143210000D02*
X55238748Y-143210000D01*
X126210000Y-59763748D02*
X126210000Y-60286252D01*
X124790000Y-59763748D02*
X124790000Y-60286252D01*
X142790000Y-62761252D02*
X142790000Y-62238748D01*
X144210000Y-62761252D02*
X144210000Y-62238748D01*
X133210000Y-97761252D02*
X133210000Y-97238748D01*
X131790000Y-97761252D02*
X131790000Y-97238748D01*
X142261252Y-89710000D02*
X141738748Y-89710000D01*
X142261252Y-88290000D02*
X141738748Y-88290000D01*
X131790000Y-92761252D02*
X131790000Y-92238748D01*
X133210000Y-92761252D02*
X133210000Y-92238748D01*
X63713748Y-128210000D02*
X64236252Y-128210000D01*
X63713748Y-126790000D02*
X64236252Y-126790000D01*
X63738748Y-143460000D02*
X64261252Y-143460000D01*
X63738748Y-142040000D02*
X64261252Y-142040000D01*
X132953749Y-124790000D02*
X133476253Y-124790000D01*
X132953749Y-126210000D02*
X133476253Y-126210000D01*
X132953749Y-126790000D02*
X133476253Y-126790000D01*
X132953749Y-128210000D02*
X133476253Y-128210000D01*
X132953749Y-130210000D02*
X133476253Y-130210000D01*
X132953749Y-128790000D02*
X133476253Y-128790000D01*
X132953749Y-132210000D02*
X133476253Y-132210000D01*
X132953749Y-130790000D02*
X133476253Y-130790000D01*
X94963748Y-92040000D02*
X95486252Y-92040000D01*
X94963748Y-93460000D02*
X95486252Y-93460000D01*
X91511252Y-92040000D02*
X90988748Y-92040000D01*
X91511252Y-93460000D02*
X90988748Y-93460000D01*
X106738748Y-92040000D02*
X107261252Y-92040000D01*
X106738748Y-93460000D02*
X107261252Y-93460000D01*
X111261252Y-93460000D02*
X110738748Y-93460000D01*
X111261252Y-92040000D02*
X110738748Y-92040000D01*
X132713748Y-141710000D02*
X133236252Y-141710000D01*
X132713748Y-140290000D02*
X133236252Y-140290000D01*
X132713748Y-145710000D02*
X133236252Y-145710000D01*
X132713748Y-144290000D02*
X133236252Y-144290000D01*
X132713748Y-146290000D02*
X133236252Y-146290000D01*
X132713748Y-147710000D02*
X133236252Y-147710000D01*
X132713748Y-142364999D02*
X133236252Y-142364999D01*
X132713748Y-143784999D02*
X133236252Y-143784999D01*
X132988748Y-111290000D02*
X133511252Y-111290000D01*
X132988748Y-112710000D02*
X133511252Y-112710000D01*
X132988748Y-110710000D02*
X133511252Y-110710000D01*
X132988748Y-109290000D02*
X133511252Y-109290000D01*
X132988748Y-114710000D02*
X133511252Y-114710000D01*
X132988748Y-113290000D02*
X133511252Y-113290000D01*
X133013748Y-115290000D02*
X133536252Y-115290000D01*
X133013748Y-116710000D02*
X133536252Y-116710000D01*
X63488748Y-133710000D02*
X64011252Y-133710000D01*
X63488748Y-132290000D02*
X64011252Y-132290000D01*
X102738748Y-93460000D02*
X103261252Y-93460000D01*
X102738748Y-92040000D02*
X103261252Y-92040000D01*
X99486252Y-93460000D02*
X98963748Y-93460000D01*
X99486252Y-92040000D02*
X98963748Y-92040000D01*
D15*
X55425000Y-89750000D02*
X55425000Y-101750000D01*
X50625000Y-89750000D02*
X50625000Y-101750000D01*
X50625000Y-101750000D02*
X55425000Y-101750000D01*
X50625000Y-89750000D02*
X55425000Y-89750000D01*
D12*
X133300000Y-119950000D02*
X132700000Y-119950000D01*
X134000000Y-123400000D02*
X134000000Y-120600000D01*
X132700000Y-124050000D02*
X133300000Y-124050000D01*
X132000000Y-120600000D02*
X132000000Y-123400000D01*
X132000000Y-123350000D02*
G75*
G03X132700000Y-124050000I700000J0D01*
G01*
X133300000Y-124050000D02*
G75*
G03X134000000Y-123350000I0J700000D01*
G01*
X134000000Y-120650000D02*
G75*
G03X133300000Y-119950000I-700000J0D01*
G01*
X132700000Y-119950000D02*
G75*
G03X132000000Y-120650000I0J-700000D01*
G01*
X132700000Y-135450000D02*
G75*
G03X132000000Y-136150000I0J-700000D01*
G01*
X134000000Y-136150000D02*
G75*
G03X133300000Y-135450000I-700000J0D01*
G01*
X133300000Y-139550000D02*
G75*
G03X134000000Y-138850000I0J700000D01*
G01*
X132000000Y-138850000D02*
G75*
G03X132700000Y-139550000I700000J0D01*
G01*
X132000000Y-136100000D02*
X132000000Y-138900000D01*
X132700000Y-139550000D02*
X133300000Y-139550000D01*
X134000000Y-138900000D02*
X134000000Y-136100000D01*
X133300000Y-135450000D02*
X132700000Y-135450000D01*
X97580000Y-99010000D02*
X97580000Y-97550000D01*
X94420000Y-99010000D02*
X94420000Y-95850000D01*
X94420000Y-99010000D02*
X95350000Y-99010000D01*
X97580000Y-99010000D02*
X96650000Y-99010000D01*
X107580000Y-99010000D02*
X106650000Y-99010000D01*
X104420000Y-99010000D02*
X105350000Y-99010000D01*
X104420000Y-99010000D02*
X104420000Y-95850000D01*
X107580000Y-99010000D02*
X107580000Y-97550000D01*
X102580000Y-99010000D02*
X101650000Y-99010000D01*
X99420000Y-99010000D02*
X100350000Y-99010000D01*
X99420000Y-99010000D02*
X99420000Y-95850000D01*
X102580000Y-99010000D02*
X102580000Y-97550000D01*
X64670000Y-89330000D02*
X66000000Y-89330000D01*
X64670000Y-88000000D02*
X64670000Y-89330000D01*
X64670000Y-86730000D02*
X67330000Y-86730000D01*
X67330000Y-86730000D02*
X67330000Y-79050000D01*
X64670000Y-86730000D02*
X64670000Y-79050000D01*
X64670000Y-79050000D02*
X67330000Y-79050000D01*
X60830000Y-144610000D02*
X58170000Y-144610000D01*
X60830000Y-126770000D02*
X60830000Y-144610000D01*
X58170000Y-126770000D02*
X58170000Y-144610000D01*
X60830000Y-126770000D02*
X58170000Y-126770000D01*
X60830000Y-125500000D02*
X60830000Y-124170000D01*
X60830000Y-124170000D02*
X59500000Y-124170000D01*
D15*
X82619047Y-119357142D02*
X82666666Y-119404761D01*
X82809523Y-119452380D01*
X82904761Y-119452380D01*
X83047619Y-119404761D01*
X83142857Y-119309523D01*
X83190476Y-119214285D01*
X83238095Y-119023809D01*
X83238095Y-118880952D01*
X83190476Y-118690476D01*
X83142857Y-118595238D01*
X83047619Y-118500000D01*
X82904761Y-118452380D01*
X82809523Y-118452380D01*
X82666666Y-118500000D01*
X82619047Y-118547619D01*
X81666666Y-119452380D02*
X82238095Y-119452380D01*
X81952380Y-119452380D02*
X81952380Y-118452380D01*
X82047619Y-118595238D01*
X82142857Y-118690476D01*
X82238095Y-118738095D01*
X81047619Y-118452380D02*
X80952380Y-118452380D01*
X80857142Y-118500000D01*
X80809523Y-118547619D01*
X80761904Y-118642857D01*
X80714285Y-118833333D01*
X80714285Y-119071428D01*
X80761904Y-119261904D01*
X80809523Y-119357142D01*
X80857142Y-119404761D01*
X80952380Y-119452380D01*
X81047619Y-119452380D01*
X81142857Y-119404761D01*
X81190476Y-119357142D01*
X81238095Y-119261904D01*
X81285714Y-119071428D01*
X81285714Y-118833333D01*
X81238095Y-118642857D01*
X81190476Y-118547619D01*
X81142857Y-118500000D01*
X81047619Y-118452380D01*
X80333333Y-118547619D02*
X80285714Y-118500000D01*
X80190476Y-118452380D01*
X79952380Y-118452380D01*
X79857142Y-118500000D01*
X79809523Y-118547619D01*
X79761904Y-118642857D01*
X79761904Y-118738095D01*
X79809523Y-118880952D01*
X80380952Y-119452380D01*
X79761904Y-119452380D01*
X92619047Y-119357142D02*
X92666666Y-119404761D01*
X92809523Y-119452380D01*
X92904761Y-119452380D01*
X93047619Y-119404761D01*
X93142857Y-119309523D01*
X93190476Y-119214285D01*
X93238095Y-119023809D01*
X93238095Y-118880952D01*
X93190476Y-118690476D01*
X93142857Y-118595238D01*
X93047619Y-118500000D01*
X92904761Y-118452380D01*
X92809523Y-118452380D01*
X92666666Y-118500000D01*
X92619047Y-118547619D01*
X91666666Y-119452380D02*
X92238095Y-119452380D01*
X91952380Y-119452380D02*
X91952380Y-118452380D01*
X92047619Y-118595238D01*
X92142857Y-118690476D01*
X92238095Y-118738095D01*
X91047619Y-118452380D02*
X90952380Y-118452380D01*
X90857142Y-118500000D01*
X90809523Y-118547619D01*
X90761904Y-118642857D01*
X90714285Y-118833333D01*
X90714285Y-119071428D01*
X90761904Y-119261904D01*
X90809523Y-119357142D01*
X90857142Y-119404761D01*
X90952380Y-119452380D01*
X91047619Y-119452380D01*
X91142857Y-119404761D01*
X91190476Y-119357142D01*
X91238095Y-119261904D01*
X91285714Y-119071428D01*
X91285714Y-118833333D01*
X91238095Y-118642857D01*
X91190476Y-118547619D01*
X91142857Y-118500000D01*
X91047619Y-118452380D01*
X90380952Y-118452380D02*
X89761904Y-118452380D01*
X90095238Y-118833333D01*
X89952380Y-118833333D01*
X89857142Y-118880952D01*
X89809523Y-118928571D01*
X89761904Y-119023809D01*
X89761904Y-119261904D01*
X89809523Y-119357142D01*
X89857142Y-119404761D01*
X89952380Y-119452380D01*
X90238095Y-119452380D01*
X90333333Y-119404761D01*
X90380952Y-119357142D01*
X113119047Y-124857142D02*
X113166666Y-124904761D01*
X113309523Y-124952380D01*
X113404761Y-124952380D01*
X113547619Y-124904761D01*
X113642857Y-124809523D01*
X113690476Y-124714285D01*
X113738095Y-124523809D01*
X113738095Y-124380952D01*
X113690476Y-124190476D01*
X113642857Y-124095238D01*
X113547619Y-124000000D01*
X113404761Y-123952380D01*
X113309523Y-123952380D01*
X113166666Y-124000000D01*
X113119047Y-124047619D01*
X112166666Y-124952380D02*
X112738095Y-124952380D01*
X112452380Y-124952380D02*
X112452380Y-123952380D01*
X112547619Y-124095238D01*
X112642857Y-124190476D01*
X112738095Y-124238095D01*
X111547619Y-123952380D02*
X111452380Y-123952380D01*
X111357142Y-124000000D01*
X111309523Y-124047619D01*
X111261904Y-124142857D01*
X111214285Y-124333333D01*
X111214285Y-124571428D01*
X111261904Y-124761904D01*
X111309523Y-124857142D01*
X111357142Y-124904761D01*
X111452380Y-124952380D01*
X111547619Y-124952380D01*
X111642857Y-124904761D01*
X111690476Y-124857142D01*
X111738095Y-124761904D01*
X111785714Y-124571428D01*
X111785714Y-124333333D01*
X111738095Y-124142857D01*
X111690476Y-124047619D01*
X111642857Y-124000000D01*
X111547619Y-123952380D01*
X110357142Y-124285714D02*
X110357142Y-124952380D01*
X110595238Y-123904761D02*
X110833333Y-124619047D01*
X110214285Y-124619047D01*
X103119047Y-124857142D02*
X103166666Y-124904761D01*
X103309523Y-124952380D01*
X103404761Y-124952380D01*
X103547619Y-124904761D01*
X103642857Y-124809523D01*
X103690476Y-124714285D01*
X103738095Y-124523809D01*
X103738095Y-124380952D01*
X103690476Y-124190476D01*
X103642857Y-124095238D01*
X103547619Y-124000000D01*
X103404761Y-123952380D01*
X103309523Y-123952380D01*
X103166666Y-124000000D01*
X103119047Y-124047619D01*
X102166666Y-124952380D02*
X102738095Y-124952380D01*
X102452380Y-124952380D02*
X102452380Y-123952380D01*
X102547619Y-124095238D01*
X102642857Y-124190476D01*
X102738095Y-124238095D01*
X101547619Y-123952380D02*
X101452380Y-123952380D01*
X101357142Y-124000000D01*
X101309523Y-124047619D01*
X101261904Y-124142857D01*
X101214285Y-124333333D01*
X101214285Y-124571428D01*
X101261904Y-124761904D01*
X101309523Y-124857142D01*
X101357142Y-124904761D01*
X101452380Y-124952380D01*
X101547619Y-124952380D01*
X101642857Y-124904761D01*
X101690476Y-124857142D01*
X101738095Y-124761904D01*
X101785714Y-124571428D01*
X101785714Y-124333333D01*
X101738095Y-124142857D01*
X101690476Y-124047619D01*
X101642857Y-124000000D01*
X101547619Y-123952380D01*
X100309523Y-123952380D02*
X100785714Y-123952380D01*
X100833333Y-124428571D01*
X100785714Y-124380952D01*
X100690476Y-124333333D01*
X100452380Y-124333333D01*
X100357142Y-124380952D01*
X100309523Y-124428571D01*
X100261904Y-124523809D01*
X100261904Y-124761904D01*
X100309523Y-124857142D01*
X100357142Y-124904761D01*
X100452380Y-124952380D01*
X100690476Y-124952380D01*
X100785714Y-124904761D01*
X100833333Y-124857142D01*
X100552380Y-120630952D02*
X100552380Y-120059523D01*
X100552380Y-120345238D02*
X99552380Y-120345238D01*
X99695238Y-120250000D01*
X99790476Y-120154761D01*
X99838095Y-120059523D01*
X99552380Y-121250000D02*
X99552380Y-121345238D01*
X99600000Y-121440476D01*
X99647619Y-121488095D01*
X99742857Y-121535714D01*
X99933333Y-121583333D01*
X100171428Y-121583333D01*
X100361904Y-121535714D01*
X100457142Y-121488095D01*
X100504761Y-121440476D01*
X100552380Y-121345238D01*
X100552380Y-121250000D01*
X100504761Y-121154761D01*
X100457142Y-121107142D01*
X100361904Y-121059523D01*
X100171428Y-121011904D01*
X99933333Y-121011904D01*
X99742857Y-121059523D01*
X99647619Y-121107142D01*
X99600000Y-121154761D01*
X99552380Y-121250000D01*
X99552380Y-122202380D02*
X99552380Y-122297619D01*
X99600000Y-122392857D01*
X99647619Y-122440476D01*
X99742857Y-122488095D01*
X99933333Y-122535714D01*
X100171428Y-122535714D01*
X100361904Y-122488095D01*
X100457142Y-122440476D01*
X100504761Y-122392857D01*
X100552380Y-122297619D01*
X100552380Y-122202380D01*
X100504761Y-122107142D01*
X100457142Y-122059523D01*
X100361904Y-122011904D01*
X100171428Y-121964285D01*
X99933333Y-121964285D01*
X99742857Y-122011904D01*
X99647619Y-122059523D01*
X99600000Y-122107142D01*
X99552380Y-122202380D01*
X99885714Y-122964285D02*
X100552380Y-122964285D01*
X99980952Y-122964285D02*
X99933333Y-123011904D01*
X99885714Y-123107142D01*
X99885714Y-123250000D01*
X99933333Y-123345238D01*
X100028571Y-123392857D01*
X100552380Y-123392857D01*
X102619047Y-114357142D02*
X102666666Y-114404761D01*
X102809523Y-114452380D01*
X102904761Y-114452380D01*
X103047619Y-114404761D01*
X103142857Y-114309523D01*
X103190476Y-114214285D01*
X103238095Y-114023809D01*
X103238095Y-113880952D01*
X103190476Y-113690476D01*
X103142857Y-113595238D01*
X103047619Y-113500000D01*
X102904761Y-113452380D01*
X102809523Y-113452380D01*
X102666666Y-113500000D01*
X102619047Y-113547619D01*
X101666666Y-114452380D02*
X102238095Y-114452380D01*
X101952380Y-114452380D02*
X101952380Y-113452380D01*
X102047619Y-113595238D01*
X102142857Y-113690476D01*
X102238095Y-113738095D01*
X100714285Y-114452380D02*
X101285714Y-114452380D01*
X101000000Y-114452380D02*
X101000000Y-113452380D01*
X101095238Y-113595238D01*
X101190476Y-113690476D01*
X101285714Y-113738095D01*
X100333333Y-113547619D02*
X100285714Y-113500000D01*
X100190476Y-113452380D01*
X99952380Y-113452380D01*
X99857142Y-113500000D01*
X99809523Y-113547619D01*
X99761904Y-113642857D01*
X99761904Y-113738095D01*
X99809523Y-113880952D01*
X100380952Y-114452380D01*
X99761904Y-114452380D01*
X100552380Y-115630952D02*
X100552380Y-115059523D01*
X100552380Y-115345238D02*
X99552380Y-115345238D01*
X99695238Y-115250000D01*
X99790476Y-115154761D01*
X99838095Y-115059523D01*
X99552380Y-116250000D02*
X99552380Y-116345238D01*
X99600000Y-116440476D01*
X99647619Y-116488095D01*
X99742857Y-116535714D01*
X99933333Y-116583333D01*
X100171428Y-116583333D01*
X100361904Y-116535714D01*
X100457142Y-116488095D01*
X100504761Y-116440476D01*
X100552380Y-116345238D01*
X100552380Y-116250000D01*
X100504761Y-116154761D01*
X100457142Y-116107142D01*
X100361904Y-116059523D01*
X100171428Y-116011904D01*
X99933333Y-116011904D01*
X99742857Y-116059523D01*
X99647619Y-116107142D01*
X99600000Y-116154761D01*
X99552380Y-116250000D01*
X99552380Y-117202380D02*
X99552380Y-117297619D01*
X99600000Y-117392857D01*
X99647619Y-117440476D01*
X99742857Y-117488095D01*
X99933333Y-117535714D01*
X100171428Y-117535714D01*
X100361904Y-117488095D01*
X100457142Y-117440476D01*
X100504761Y-117392857D01*
X100552380Y-117297619D01*
X100552380Y-117202380D01*
X100504761Y-117107142D01*
X100457142Y-117059523D01*
X100361904Y-117011904D01*
X100171428Y-116964285D01*
X99933333Y-116964285D01*
X99742857Y-117011904D01*
X99647619Y-117059523D01*
X99600000Y-117107142D01*
X99552380Y-117202380D01*
X99885714Y-117964285D02*
X100552380Y-117964285D01*
X99980952Y-117964285D02*
X99933333Y-118011904D01*
X99885714Y-118107142D01*
X99885714Y-118250000D01*
X99933333Y-118345238D01*
X100028571Y-118392857D01*
X100552380Y-118392857D01*
X112619047Y-114357142D02*
X112666666Y-114404761D01*
X112809523Y-114452380D01*
X112904761Y-114452380D01*
X113047619Y-114404761D01*
X113142857Y-114309523D01*
X113190476Y-114214285D01*
X113238095Y-114023809D01*
X113238095Y-113880952D01*
X113190476Y-113690476D01*
X113142857Y-113595238D01*
X113047619Y-113500000D01*
X112904761Y-113452380D01*
X112809523Y-113452380D01*
X112666666Y-113500000D01*
X112619047Y-113547619D01*
X111666666Y-114452380D02*
X112238095Y-114452380D01*
X111952380Y-114452380D02*
X111952380Y-113452380D01*
X112047619Y-113595238D01*
X112142857Y-113690476D01*
X112238095Y-113738095D01*
X110714285Y-114452380D02*
X111285714Y-114452380D01*
X111000000Y-114452380D02*
X111000000Y-113452380D01*
X111095238Y-113595238D01*
X111190476Y-113690476D01*
X111285714Y-113738095D01*
X110380952Y-113452380D02*
X109761904Y-113452380D01*
X110095238Y-113833333D01*
X109952380Y-113833333D01*
X109857142Y-113880952D01*
X109809523Y-113928571D01*
X109761904Y-114023809D01*
X109761904Y-114261904D01*
X109809523Y-114357142D01*
X109857142Y-114404761D01*
X109952380Y-114452380D01*
X110238095Y-114452380D01*
X110333333Y-114404761D01*
X110380952Y-114357142D01*
X82119047Y-127357142D02*
X82166666Y-127404761D01*
X82309523Y-127452380D01*
X82404761Y-127452380D01*
X82547619Y-127404761D01*
X82642857Y-127309523D01*
X82690476Y-127214285D01*
X82738095Y-127023809D01*
X82738095Y-126880952D01*
X82690476Y-126690476D01*
X82642857Y-126595238D01*
X82547619Y-126500000D01*
X82404761Y-126452380D01*
X82309523Y-126452380D01*
X82166666Y-126500000D01*
X82119047Y-126547619D01*
X81166666Y-127452380D02*
X81738095Y-127452380D01*
X81452380Y-127452380D02*
X81452380Y-126452380D01*
X81547619Y-126595238D01*
X81642857Y-126690476D01*
X81738095Y-126738095D01*
X80214285Y-127452380D02*
X80785714Y-127452380D01*
X80500000Y-127452380D02*
X80500000Y-126452380D01*
X80595238Y-126595238D01*
X80690476Y-126690476D01*
X80785714Y-126738095D01*
X79357142Y-126785714D02*
X79357142Y-127452380D01*
X79595238Y-126404761D02*
X79833333Y-127119047D01*
X79214285Y-127119047D01*
X102619047Y-127357142D02*
X102666666Y-127404761D01*
X102809523Y-127452380D01*
X102904761Y-127452380D01*
X103047619Y-127404761D01*
X103142857Y-127309523D01*
X103190476Y-127214285D01*
X103238095Y-127023809D01*
X103238095Y-126880952D01*
X103190476Y-126690476D01*
X103142857Y-126595238D01*
X103047619Y-126500000D01*
X102904761Y-126452380D01*
X102809523Y-126452380D01*
X102666666Y-126500000D01*
X102619047Y-126547619D01*
X101666666Y-127452380D02*
X102238095Y-127452380D01*
X101952380Y-127452380D02*
X101952380Y-126452380D01*
X102047619Y-126595238D01*
X102142857Y-126690476D01*
X102238095Y-126738095D01*
X100714285Y-127452380D02*
X101285714Y-127452380D01*
X101000000Y-127452380D02*
X101000000Y-126452380D01*
X101095238Y-126595238D01*
X101190476Y-126690476D01*
X101285714Y-126738095D01*
X99809523Y-126452380D02*
X100285714Y-126452380D01*
X100333333Y-126928571D01*
X100285714Y-126880952D01*
X100190476Y-126833333D01*
X99952380Y-126833333D01*
X99857142Y-126880952D01*
X99809523Y-126928571D01*
X99761904Y-127023809D01*
X99761904Y-127261904D01*
X99809523Y-127357142D01*
X99857142Y-127404761D01*
X99952380Y-127452380D01*
X100190476Y-127452380D01*
X100285714Y-127404761D01*
X100333333Y-127357142D01*
X100552380Y-128605952D02*
X100552380Y-128034523D01*
X100552380Y-128320238D02*
X99552380Y-128320238D01*
X99695238Y-128225000D01*
X99790476Y-128129761D01*
X99838095Y-128034523D01*
X99552380Y-129225000D02*
X99552380Y-129320238D01*
X99600000Y-129415476D01*
X99647619Y-129463095D01*
X99742857Y-129510714D01*
X99933333Y-129558333D01*
X100171428Y-129558333D01*
X100361904Y-129510714D01*
X100457142Y-129463095D01*
X100504761Y-129415476D01*
X100552380Y-129320238D01*
X100552380Y-129225000D01*
X100504761Y-129129761D01*
X100457142Y-129082142D01*
X100361904Y-129034523D01*
X100171428Y-128986904D01*
X99933333Y-128986904D01*
X99742857Y-129034523D01*
X99647619Y-129082142D01*
X99600000Y-129129761D01*
X99552380Y-129225000D01*
X99552380Y-130177380D02*
X99552380Y-130272619D01*
X99600000Y-130367857D01*
X99647619Y-130415476D01*
X99742857Y-130463095D01*
X99933333Y-130510714D01*
X100171428Y-130510714D01*
X100361904Y-130463095D01*
X100457142Y-130415476D01*
X100504761Y-130367857D01*
X100552380Y-130272619D01*
X100552380Y-130177380D01*
X100504761Y-130082142D01*
X100457142Y-130034523D01*
X100361904Y-129986904D01*
X100171428Y-129939285D01*
X99933333Y-129939285D01*
X99742857Y-129986904D01*
X99647619Y-130034523D01*
X99600000Y-130082142D01*
X99552380Y-130177380D01*
X99885714Y-130939285D02*
X100552380Y-130939285D01*
X99980952Y-130939285D02*
X99933333Y-130986904D01*
X99885714Y-131082142D01*
X99885714Y-131225000D01*
X99933333Y-131320238D01*
X100028571Y-131367857D01*
X100552380Y-131367857D01*
X113119047Y-127857142D02*
X113166666Y-127904761D01*
X113309523Y-127952380D01*
X113404761Y-127952380D01*
X113547619Y-127904761D01*
X113642857Y-127809523D01*
X113690476Y-127714285D01*
X113738095Y-127523809D01*
X113738095Y-127380952D01*
X113690476Y-127190476D01*
X113642857Y-127095238D01*
X113547619Y-127000000D01*
X113404761Y-126952380D01*
X113309523Y-126952380D01*
X113166666Y-127000000D01*
X113119047Y-127047619D01*
X112166666Y-127952380D02*
X112738095Y-127952380D01*
X112452380Y-127952380D02*
X112452380Y-126952380D01*
X112547619Y-127095238D01*
X112642857Y-127190476D01*
X112738095Y-127238095D01*
X111214285Y-127952380D02*
X111785714Y-127952380D01*
X111500000Y-127952380D02*
X111500000Y-126952380D01*
X111595238Y-127095238D01*
X111690476Y-127190476D01*
X111785714Y-127238095D01*
X110357142Y-126952380D02*
X110547619Y-126952380D01*
X110642857Y-127000000D01*
X110690476Y-127047619D01*
X110785714Y-127190476D01*
X110833333Y-127380952D01*
X110833333Y-127761904D01*
X110785714Y-127857142D01*
X110738095Y-127904761D01*
X110642857Y-127952380D01*
X110452380Y-127952380D01*
X110357142Y-127904761D01*
X110309523Y-127857142D01*
X110261904Y-127761904D01*
X110261904Y-127523809D01*
X110309523Y-127428571D01*
X110357142Y-127380952D01*
X110452380Y-127333333D01*
X110642857Y-127333333D01*
X110738095Y-127380952D01*
X110785714Y-127428571D01*
X110833333Y-127523809D01*
X92619047Y-127357142D02*
X92666666Y-127404761D01*
X92809523Y-127452380D01*
X92904761Y-127452380D01*
X93047619Y-127404761D01*
X93142857Y-127309523D01*
X93190476Y-127214285D01*
X93238095Y-127023809D01*
X93238095Y-126880952D01*
X93190476Y-126690476D01*
X93142857Y-126595238D01*
X93047619Y-126500000D01*
X92904761Y-126452380D01*
X92809523Y-126452380D01*
X92666666Y-126500000D01*
X92619047Y-126547619D01*
X91666666Y-127452380D02*
X92238095Y-127452380D01*
X91952380Y-127452380D02*
X91952380Y-126452380D01*
X92047619Y-126595238D01*
X92142857Y-126690476D01*
X92238095Y-126738095D01*
X90714285Y-127452380D02*
X91285714Y-127452380D01*
X91000000Y-127452380D02*
X91000000Y-126452380D01*
X91095238Y-126595238D01*
X91190476Y-126690476D01*
X91285714Y-126738095D01*
X90380952Y-126452380D02*
X89714285Y-126452380D01*
X90142857Y-127452380D01*
X111357142Y-83380952D02*
X111404761Y-83333333D01*
X111452380Y-83190476D01*
X111452380Y-83095238D01*
X111404761Y-82952380D01*
X111309523Y-82857142D01*
X111214285Y-82809523D01*
X111023809Y-82761904D01*
X110880952Y-82761904D01*
X110690476Y-82809523D01*
X110595238Y-82857142D01*
X110500000Y-82952380D01*
X110452380Y-83095238D01*
X110452380Y-83190476D01*
X110500000Y-83333333D01*
X110547619Y-83380952D01*
X110547619Y-83761904D02*
X110500000Y-83809523D01*
X110452380Y-83904761D01*
X110452380Y-84142857D01*
X110500000Y-84238095D01*
X110547619Y-84285714D01*
X110642857Y-84333333D01*
X110738095Y-84333333D01*
X110880952Y-84285714D01*
X111452380Y-83714285D01*
X111452380Y-84333333D01*
X110452380Y-84952380D02*
X110452380Y-85047619D01*
X110500000Y-85142857D01*
X110547619Y-85190476D01*
X110642857Y-85238095D01*
X110833333Y-85285714D01*
X111071428Y-85285714D01*
X111261904Y-85238095D01*
X111357142Y-85190476D01*
X111404761Y-85142857D01*
X111452380Y-85047619D01*
X111452380Y-84952380D01*
X111404761Y-84857142D01*
X111357142Y-84809523D01*
X111261904Y-84761904D01*
X111071428Y-84714285D01*
X110833333Y-84714285D01*
X110642857Y-84761904D01*
X110547619Y-84809523D01*
X110500000Y-84857142D01*
X110452380Y-84952380D01*
X111452380Y-86238095D02*
X111452380Y-85666666D01*
X111452380Y-85952380D02*
X110452380Y-85952380D01*
X110595238Y-85857142D01*
X110690476Y-85761904D01*
X110738095Y-85666666D01*
X112119047Y-89952380D02*
X112690476Y-89952380D01*
X112404761Y-89952380D02*
X112404761Y-88952380D01*
X112499999Y-89095238D01*
X112595238Y-89190476D01*
X112690476Y-89238095D01*
X111499999Y-88952380D02*
X111404761Y-88952380D01*
X111309523Y-89000000D01*
X111261904Y-89047619D01*
X111214285Y-89142857D01*
X111166666Y-89333333D01*
X111166666Y-89571428D01*
X111214285Y-89761904D01*
X111261904Y-89857142D01*
X111309523Y-89904761D01*
X111404761Y-89952380D01*
X111499999Y-89952380D01*
X111595238Y-89904761D01*
X111642857Y-89857142D01*
X111690476Y-89761904D01*
X111738095Y-89571428D01*
X111738095Y-89333333D01*
X111690476Y-89142857D01*
X111642857Y-89047619D01*
X111595238Y-89000000D01*
X111499999Y-88952380D01*
X110547619Y-88952380D02*
X110452380Y-88952380D01*
X110357142Y-89000000D01*
X110309523Y-89047619D01*
X110261904Y-89142857D01*
X110214285Y-89333333D01*
X110214285Y-89571428D01*
X110261904Y-89761904D01*
X110309523Y-89857142D01*
X110357142Y-89904761D01*
X110452380Y-89952380D01*
X110547619Y-89952380D01*
X110642857Y-89904761D01*
X110690476Y-89857142D01*
X110738095Y-89761904D01*
X110785714Y-89571428D01*
X110785714Y-89333333D01*
X110738095Y-89142857D01*
X110690476Y-89047619D01*
X110642857Y-89000000D01*
X110547619Y-88952380D01*
X109785714Y-89285714D02*
X109785714Y-89952380D01*
X109785714Y-89380952D02*
X109738095Y-89333333D01*
X109642857Y-89285714D01*
X109499999Y-89285714D01*
X109404761Y-89333333D01*
X109357142Y-89428571D01*
X109357142Y-89952380D01*
X120357142Y-83380952D02*
X120404761Y-83333333D01*
X120452380Y-83190476D01*
X120452380Y-83095238D01*
X120404761Y-82952380D01*
X120309523Y-82857142D01*
X120214285Y-82809523D01*
X120023809Y-82761904D01*
X119880952Y-82761904D01*
X119690476Y-82809523D01*
X119595238Y-82857142D01*
X119500000Y-82952380D01*
X119452380Y-83095238D01*
X119452380Y-83190476D01*
X119500000Y-83333333D01*
X119547619Y-83380952D01*
X119547619Y-83761904D02*
X119500000Y-83809523D01*
X119452380Y-83904761D01*
X119452380Y-84142857D01*
X119500000Y-84238095D01*
X119547619Y-84285714D01*
X119642857Y-84333333D01*
X119738095Y-84333333D01*
X119880952Y-84285714D01*
X120452380Y-83714285D01*
X120452380Y-84333333D01*
X119452380Y-84952380D02*
X119452380Y-85047619D01*
X119500000Y-85142857D01*
X119547619Y-85190476D01*
X119642857Y-85238095D01*
X119833333Y-85285714D01*
X120071428Y-85285714D01*
X120261904Y-85238095D01*
X120357142Y-85190476D01*
X120404761Y-85142857D01*
X120452380Y-85047619D01*
X120452380Y-84952380D01*
X120404761Y-84857142D01*
X120357142Y-84809523D01*
X120261904Y-84761904D01*
X120071428Y-84714285D01*
X119833333Y-84714285D01*
X119642857Y-84761904D01*
X119547619Y-84809523D01*
X119500000Y-84857142D01*
X119452380Y-84952380D01*
X119547619Y-85666666D02*
X119500000Y-85714285D01*
X119452380Y-85809523D01*
X119452380Y-86047619D01*
X119500000Y-86142857D01*
X119547619Y-86190476D01*
X119642857Y-86238095D01*
X119738095Y-86238095D01*
X119880952Y-86190476D01*
X120452380Y-85619047D01*
X120452380Y-86238095D01*
X121119047Y-89602380D02*
X121690476Y-89602380D01*
X121404761Y-89602380D02*
X121404761Y-88602380D01*
X121499999Y-88745238D01*
X121595238Y-88840476D01*
X121690476Y-88888095D01*
X120499999Y-88602380D02*
X120404761Y-88602380D01*
X120309523Y-88650000D01*
X120261904Y-88697619D01*
X120214285Y-88792857D01*
X120166666Y-88983333D01*
X120166666Y-89221428D01*
X120214285Y-89411904D01*
X120261904Y-89507142D01*
X120309523Y-89554761D01*
X120404761Y-89602380D01*
X120499999Y-89602380D01*
X120595238Y-89554761D01*
X120642857Y-89507142D01*
X120690476Y-89411904D01*
X120738095Y-89221428D01*
X120738095Y-88983333D01*
X120690476Y-88792857D01*
X120642857Y-88697619D01*
X120595238Y-88650000D01*
X120499999Y-88602380D01*
X119547619Y-88602380D02*
X119452380Y-88602380D01*
X119357142Y-88650000D01*
X119309523Y-88697619D01*
X119261904Y-88792857D01*
X119214285Y-88983333D01*
X119214285Y-89221428D01*
X119261904Y-89411904D01*
X119309523Y-89507142D01*
X119357142Y-89554761D01*
X119452380Y-89602380D01*
X119547619Y-89602380D01*
X119642857Y-89554761D01*
X119690476Y-89507142D01*
X119738095Y-89411904D01*
X119785714Y-89221428D01*
X119785714Y-88983333D01*
X119738095Y-88792857D01*
X119690476Y-88697619D01*
X119642857Y-88650000D01*
X119547619Y-88602380D01*
X118785714Y-88935714D02*
X118785714Y-89602380D01*
X118785714Y-89030952D02*
X118738095Y-88983333D01*
X118642857Y-88935714D01*
X118499999Y-88935714D01*
X118404761Y-88983333D01*
X118357142Y-89078571D01*
X118357142Y-89602380D01*
X112619047Y-75857142D02*
X112666666Y-75904761D01*
X112809523Y-75952380D01*
X112904761Y-75952380D01*
X113047619Y-75904761D01*
X113142857Y-75809523D01*
X113190476Y-75714285D01*
X113238095Y-75523809D01*
X113238095Y-75380952D01*
X113190476Y-75190476D01*
X113142857Y-75095238D01*
X113047619Y-75000000D01*
X112904761Y-74952380D01*
X112809523Y-74952380D01*
X112666666Y-75000000D01*
X112619047Y-75047619D01*
X112238095Y-75047619D02*
X112190476Y-75000000D01*
X112095238Y-74952380D01*
X111857142Y-74952380D01*
X111761904Y-75000000D01*
X111714285Y-75047619D01*
X111666666Y-75142857D01*
X111666666Y-75238095D01*
X111714285Y-75380952D01*
X112285714Y-75952380D01*
X111666666Y-75952380D01*
X111047619Y-74952380D02*
X110952380Y-74952380D01*
X110857142Y-75000000D01*
X110809523Y-75047619D01*
X110761904Y-75142857D01*
X110714285Y-75333333D01*
X110714285Y-75571428D01*
X110761904Y-75761904D01*
X110809523Y-75857142D01*
X110857142Y-75904761D01*
X110952380Y-75952380D01*
X111047619Y-75952380D01*
X111142857Y-75904761D01*
X111190476Y-75857142D01*
X111238095Y-75761904D01*
X111285714Y-75571428D01*
X111285714Y-75333333D01*
X111238095Y-75142857D01*
X111190476Y-75047619D01*
X111142857Y-75000000D01*
X111047619Y-74952380D01*
X110380952Y-74952380D02*
X109761904Y-74952380D01*
X110095238Y-75333333D01*
X109952380Y-75333333D01*
X109857142Y-75380952D01*
X109809523Y-75428571D01*
X109761904Y-75523809D01*
X109761904Y-75761904D01*
X109809523Y-75857142D01*
X109857142Y-75904761D01*
X109952380Y-75952380D01*
X110238095Y-75952380D01*
X110333333Y-75904761D01*
X110380952Y-75857142D01*
X111654166Y-79952380D02*
X112225595Y-79952380D01*
X111939880Y-79952380D02*
X111939880Y-78952380D01*
X112035119Y-79095238D01*
X112130357Y-79190476D01*
X112225595Y-79238095D01*
X110797023Y-79285714D02*
X110797023Y-79952380D01*
X111225595Y-79285714D02*
X111225595Y-79809523D01*
X111177976Y-79904761D01*
X111082738Y-79952380D01*
X110939880Y-79952380D01*
X110844642Y-79904761D01*
X110797023Y-79857142D01*
X121119047Y-76037142D02*
X121166666Y-76084761D01*
X121309523Y-76132380D01*
X121404761Y-76132380D01*
X121547619Y-76084761D01*
X121642857Y-75989523D01*
X121690476Y-75894285D01*
X121738095Y-75703809D01*
X121738095Y-75560952D01*
X121690476Y-75370476D01*
X121642857Y-75275238D01*
X121547619Y-75180000D01*
X121404761Y-75132380D01*
X121309523Y-75132380D01*
X121166666Y-75180000D01*
X121119047Y-75227619D01*
X120738095Y-75227619D02*
X120690476Y-75180000D01*
X120595238Y-75132380D01*
X120357142Y-75132380D01*
X120261904Y-75180000D01*
X120214285Y-75227619D01*
X120166666Y-75322857D01*
X120166666Y-75418095D01*
X120214285Y-75560952D01*
X120785714Y-76132380D01*
X120166666Y-76132380D01*
X119547619Y-75132380D02*
X119452380Y-75132380D01*
X119357142Y-75180000D01*
X119309523Y-75227619D01*
X119261904Y-75322857D01*
X119214285Y-75513333D01*
X119214285Y-75751428D01*
X119261904Y-75941904D01*
X119309523Y-76037142D01*
X119357142Y-76084761D01*
X119452380Y-76132380D01*
X119547619Y-76132380D01*
X119642857Y-76084761D01*
X119690476Y-76037142D01*
X119738095Y-75941904D01*
X119785714Y-75751428D01*
X119785714Y-75513333D01*
X119738095Y-75322857D01*
X119690476Y-75227619D01*
X119642857Y-75180000D01*
X119547619Y-75132380D01*
X118309523Y-75132380D02*
X118785714Y-75132380D01*
X118833333Y-75608571D01*
X118785714Y-75560952D01*
X118690476Y-75513333D01*
X118452380Y-75513333D01*
X118357142Y-75560952D01*
X118309523Y-75608571D01*
X118261904Y-75703809D01*
X118261904Y-75941904D01*
X118309523Y-76037142D01*
X118357142Y-76084761D01*
X118452380Y-76132380D01*
X118690476Y-76132380D01*
X118785714Y-76084761D01*
X118833333Y-76037142D01*
X120166666Y-79772380D02*
X120738095Y-79772380D01*
X120452380Y-79772380D02*
X120452380Y-78772380D01*
X120547619Y-78915238D01*
X120642857Y-79010476D01*
X120738095Y-79058095D01*
X119309523Y-79105714D02*
X119309523Y-79772380D01*
X119738095Y-79105714D02*
X119738095Y-79629523D01*
X119690476Y-79724761D01*
X119595238Y-79772380D01*
X119452380Y-79772380D01*
X119357142Y-79724761D01*
X119309523Y-79677142D01*
X144857142Y-110380952D02*
X144904761Y-110333333D01*
X144952380Y-110190476D01*
X144952380Y-110095238D01*
X144904761Y-109952380D01*
X144809523Y-109857142D01*
X144714285Y-109809523D01*
X144523809Y-109761904D01*
X144380952Y-109761904D01*
X144190476Y-109809523D01*
X144095238Y-109857142D01*
X144000000Y-109952380D01*
X143952380Y-110095238D01*
X143952380Y-110190476D01*
X144000000Y-110333333D01*
X144047619Y-110380952D01*
X144047619Y-110761904D02*
X144000000Y-110809523D01*
X143952380Y-110904761D01*
X143952380Y-111142857D01*
X144000000Y-111238095D01*
X144047619Y-111285714D01*
X144142857Y-111333333D01*
X144238095Y-111333333D01*
X144380952Y-111285714D01*
X144952380Y-110714285D01*
X144952380Y-111333333D01*
X143952380Y-111952380D02*
X143952380Y-112047619D01*
X144000000Y-112142857D01*
X144047619Y-112190476D01*
X144142857Y-112238095D01*
X144333333Y-112285714D01*
X144571428Y-112285714D01*
X144761904Y-112238095D01*
X144857142Y-112190476D01*
X144904761Y-112142857D01*
X144952380Y-112047619D01*
X144952380Y-111952380D01*
X144904761Y-111857142D01*
X144857142Y-111809523D01*
X144761904Y-111761904D01*
X144571428Y-111714285D01*
X144333333Y-111714285D01*
X144142857Y-111761904D01*
X144047619Y-111809523D01*
X144000000Y-111857142D01*
X143952380Y-111952380D01*
X144380952Y-112857142D02*
X144333333Y-112761904D01*
X144285714Y-112714285D01*
X144190476Y-112666666D01*
X144142857Y-112666666D01*
X144047619Y-112714285D01*
X144000000Y-112761904D01*
X143952380Y-112857142D01*
X143952380Y-113047619D01*
X144000000Y-113142857D01*
X144047619Y-113190476D01*
X144142857Y-113238095D01*
X144190476Y-113238095D01*
X144285714Y-113190476D01*
X144333333Y-113142857D01*
X144380952Y-113047619D01*
X144380952Y-112857142D01*
X144428571Y-112761904D01*
X144476190Y-112714285D01*
X144571428Y-112666666D01*
X144761904Y-112666666D01*
X144857142Y-112714285D01*
X144904761Y-112761904D01*
X144952380Y-112857142D01*
X144952380Y-113047619D01*
X144904761Y-113142857D01*
X144857142Y-113190476D01*
X144761904Y-113238095D01*
X144571428Y-113238095D01*
X144476190Y-113190476D01*
X144428571Y-113142857D01*
X144380952Y-113047619D01*
X129619047Y-75857142D02*
X129666666Y-75904761D01*
X129809523Y-75952380D01*
X129904761Y-75952380D01*
X130047619Y-75904761D01*
X130142857Y-75809523D01*
X130190476Y-75714285D01*
X130238095Y-75523809D01*
X130238095Y-75380952D01*
X130190476Y-75190476D01*
X130142857Y-75095238D01*
X130047619Y-75000000D01*
X129904761Y-74952380D01*
X129809523Y-74952380D01*
X129666666Y-75000000D01*
X129619047Y-75047619D01*
X129238095Y-75047619D02*
X129190476Y-75000000D01*
X129095238Y-74952380D01*
X128857142Y-74952380D01*
X128761904Y-75000000D01*
X128714285Y-75047619D01*
X128666666Y-75142857D01*
X128666666Y-75238095D01*
X128714285Y-75380952D01*
X129285714Y-75952380D01*
X128666666Y-75952380D01*
X127714285Y-75952380D02*
X128285714Y-75952380D01*
X128000000Y-75952380D02*
X128000000Y-74952380D01*
X128095238Y-75095238D01*
X128190476Y-75190476D01*
X128285714Y-75238095D01*
X127095238Y-74952380D02*
X127000000Y-74952380D01*
X126904761Y-75000000D01*
X126857142Y-75047619D01*
X126809523Y-75142857D01*
X126761904Y-75333333D01*
X126761904Y-75571428D01*
X126809523Y-75761904D01*
X126857142Y-75857142D01*
X126904761Y-75904761D01*
X127000000Y-75952380D01*
X127095238Y-75952380D01*
X127190476Y-75904761D01*
X127238095Y-75857142D01*
X127285714Y-75761904D01*
X127333333Y-75571428D01*
X127333333Y-75333333D01*
X127285714Y-75142857D01*
X127238095Y-75047619D01*
X127190476Y-75000000D01*
X127095238Y-74952380D01*
X128666666Y-79952380D02*
X129238095Y-79952380D01*
X128952380Y-79952380D02*
X128952380Y-78952380D01*
X129047619Y-79095238D01*
X129142857Y-79190476D01*
X129238095Y-79238095D01*
X127809523Y-79285714D02*
X127809523Y-79952380D01*
X128238095Y-79285714D02*
X128238095Y-79809523D01*
X128190476Y-79904761D01*
X128095238Y-79952380D01*
X127952380Y-79952380D01*
X127857142Y-79904761D01*
X127809523Y-79857142D01*
X128857142Y-83380952D02*
X128904761Y-83333333D01*
X128952380Y-83190476D01*
X128952380Y-83095238D01*
X128904761Y-82952380D01*
X128809523Y-82857142D01*
X128714285Y-82809523D01*
X128523809Y-82761904D01*
X128380952Y-82761904D01*
X128190476Y-82809523D01*
X128095238Y-82857142D01*
X128000000Y-82952380D01*
X127952380Y-83095238D01*
X127952380Y-83190476D01*
X128000000Y-83333333D01*
X128047619Y-83380952D01*
X128047619Y-83761904D02*
X128000000Y-83809523D01*
X127952380Y-83904761D01*
X127952380Y-84142857D01*
X128000000Y-84238095D01*
X128047619Y-84285714D01*
X128142857Y-84333333D01*
X128238095Y-84333333D01*
X128380952Y-84285714D01*
X128952380Y-83714285D01*
X128952380Y-84333333D01*
X128952380Y-85285714D02*
X128952380Y-84714285D01*
X128952380Y-85000000D02*
X127952380Y-85000000D01*
X128095238Y-84904761D01*
X128190476Y-84809523D01*
X128238095Y-84714285D01*
X127952380Y-86190476D02*
X127952380Y-85714285D01*
X128428571Y-85666666D01*
X128380952Y-85714285D01*
X128333333Y-85809523D01*
X128333333Y-86047619D01*
X128380952Y-86142857D01*
X128428571Y-86190476D01*
X128523809Y-86238095D01*
X128761904Y-86238095D01*
X128857142Y-86190476D01*
X128904761Y-86142857D01*
X128952380Y-86047619D01*
X128952380Y-85809523D01*
X128904761Y-85714285D01*
X128857142Y-85666666D01*
X128619047Y-89952380D02*
X129190476Y-89952380D01*
X128904761Y-89952380D02*
X128904761Y-88952380D01*
X128999999Y-89095238D01*
X129095238Y-89190476D01*
X129190476Y-89238095D01*
X127999999Y-88952380D02*
X127904761Y-88952380D01*
X127809523Y-89000000D01*
X127761904Y-89047619D01*
X127714285Y-89142857D01*
X127666666Y-89333333D01*
X127666666Y-89571428D01*
X127714285Y-89761904D01*
X127761904Y-89857142D01*
X127809523Y-89904761D01*
X127904761Y-89952380D01*
X127999999Y-89952380D01*
X128095238Y-89904761D01*
X128142857Y-89857142D01*
X128190476Y-89761904D01*
X128238095Y-89571428D01*
X128238095Y-89333333D01*
X128190476Y-89142857D01*
X128142857Y-89047619D01*
X128095238Y-89000000D01*
X127999999Y-88952380D01*
X127047619Y-88952380D02*
X126952380Y-88952380D01*
X126857142Y-89000000D01*
X126809523Y-89047619D01*
X126761904Y-89142857D01*
X126714285Y-89333333D01*
X126714285Y-89571428D01*
X126761904Y-89761904D01*
X126809523Y-89857142D01*
X126857142Y-89904761D01*
X126952380Y-89952380D01*
X127047619Y-89952380D01*
X127142857Y-89904761D01*
X127190476Y-89857142D01*
X127238095Y-89761904D01*
X127285714Y-89571428D01*
X127285714Y-89333333D01*
X127238095Y-89142857D01*
X127190476Y-89047619D01*
X127142857Y-89000000D01*
X127047619Y-88952380D01*
X126285714Y-89285714D02*
X126285714Y-89952380D01*
X126285714Y-89380952D02*
X126238095Y-89333333D01*
X126142857Y-89285714D01*
X125999999Y-89285714D01*
X125904761Y-89333333D01*
X125857142Y-89428571D01*
X125857142Y-89952380D01*
X134857142Y-100380952D02*
X134904761Y-100333333D01*
X134952380Y-100190476D01*
X134952380Y-100095238D01*
X134904761Y-99952380D01*
X134809523Y-99857142D01*
X134714285Y-99809523D01*
X134523809Y-99761904D01*
X134380952Y-99761904D01*
X134190476Y-99809523D01*
X134095238Y-99857142D01*
X134000000Y-99952380D01*
X133952380Y-100095238D01*
X133952380Y-100190476D01*
X134000000Y-100333333D01*
X134047619Y-100380952D01*
X134047619Y-100761904D02*
X134000000Y-100809523D01*
X133952380Y-100904761D01*
X133952380Y-101142857D01*
X134000000Y-101238095D01*
X134047619Y-101285714D01*
X134142857Y-101333333D01*
X134238095Y-101333333D01*
X134380952Y-101285714D01*
X134952380Y-100714285D01*
X134952380Y-101333333D01*
X134952380Y-102285714D02*
X134952380Y-101714285D01*
X134952380Y-102000000D02*
X133952380Y-102000000D01*
X134095238Y-101904761D01*
X134190476Y-101809523D01*
X134238095Y-101714285D01*
X133952380Y-103142857D02*
X133952380Y-102952380D01*
X134000000Y-102857142D01*
X134047619Y-102809523D01*
X134190476Y-102714285D01*
X134380952Y-102666666D01*
X134761904Y-102666666D01*
X134857142Y-102714285D01*
X134904761Y-102761904D01*
X134952380Y-102857142D01*
X134952380Y-103047619D01*
X134904761Y-103142857D01*
X134857142Y-103190476D01*
X134761904Y-103238095D01*
X134523809Y-103238095D01*
X134428571Y-103190476D01*
X134380952Y-103142857D01*
X134333333Y-103047619D01*
X134333333Y-102857142D01*
X134380952Y-102761904D01*
X134428571Y-102714285D01*
X134523809Y-102666666D01*
X135547619Y-99809523D02*
X135500000Y-99857142D01*
X135452380Y-99952380D01*
X135452380Y-100190476D01*
X135500000Y-100285714D01*
X135547619Y-100333333D01*
X135642857Y-100380952D01*
X135738095Y-100380952D01*
X135880952Y-100333333D01*
X136452380Y-99761904D01*
X136452380Y-100380952D01*
X135547619Y-100761904D02*
X135500000Y-100809523D01*
X135452380Y-100904761D01*
X135452380Y-101142857D01*
X135500000Y-101238095D01*
X135547619Y-101285714D01*
X135642857Y-101333333D01*
X135738095Y-101333333D01*
X135880952Y-101285714D01*
X136452380Y-100714285D01*
X136452380Y-101333333D01*
X135452380Y-101952380D02*
X135452380Y-102047619D01*
X135500000Y-102142857D01*
X135547619Y-102190476D01*
X135642857Y-102238095D01*
X135833333Y-102285714D01*
X136071428Y-102285714D01*
X136261904Y-102238095D01*
X136357142Y-102190476D01*
X136404761Y-102142857D01*
X136452380Y-102047619D01*
X136452380Y-101952380D01*
X136404761Y-101857142D01*
X136357142Y-101809523D01*
X136261904Y-101761904D01*
X136071428Y-101714285D01*
X135833333Y-101714285D01*
X135642857Y-101761904D01*
X135547619Y-101809523D01*
X135500000Y-101857142D01*
X135452380Y-101952380D01*
X135785714Y-102714285D02*
X136452380Y-102714285D01*
X135880952Y-102714285D02*
X135833333Y-102761904D01*
X135785714Y-102857142D01*
X135785714Y-103000000D01*
X135833333Y-103095238D01*
X135928571Y-103142857D01*
X136452380Y-103142857D01*
X149357142Y-87380952D02*
X149404761Y-87333333D01*
X149452380Y-87190476D01*
X149452380Y-87095238D01*
X149404761Y-86952380D01*
X149309523Y-86857142D01*
X149214285Y-86809523D01*
X149023809Y-86761904D01*
X148880952Y-86761904D01*
X148690476Y-86809523D01*
X148595238Y-86857142D01*
X148500000Y-86952380D01*
X148452380Y-87095238D01*
X148452380Y-87190476D01*
X148500000Y-87333333D01*
X148547619Y-87380952D01*
X148547619Y-87761904D02*
X148500000Y-87809523D01*
X148452380Y-87904761D01*
X148452380Y-88142857D01*
X148500000Y-88238095D01*
X148547619Y-88285714D01*
X148642857Y-88333333D01*
X148738095Y-88333333D01*
X148880952Y-88285714D01*
X149452380Y-87714285D01*
X149452380Y-88333333D01*
X149452380Y-89285714D02*
X149452380Y-88714285D01*
X149452380Y-89000000D02*
X148452380Y-89000000D01*
X148595238Y-88904761D01*
X148690476Y-88809523D01*
X148738095Y-88714285D01*
X148452380Y-89619047D02*
X148452380Y-90285714D01*
X149452380Y-89857142D01*
X148547619Y-94784523D02*
X148500000Y-94832142D01*
X148452380Y-94927380D01*
X148452380Y-95165476D01*
X148500000Y-95260714D01*
X148547619Y-95308333D01*
X148642857Y-95355952D01*
X148738095Y-95355952D01*
X148880952Y-95308333D01*
X149452380Y-94736904D01*
X149452380Y-95355952D01*
X148547619Y-95736904D02*
X148500000Y-95784523D01*
X148452380Y-95879761D01*
X148452380Y-96117857D01*
X148500000Y-96213095D01*
X148547619Y-96260714D01*
X148642857Y-96308333D01*
X148738095Y-96308333D01*
X148880952Y-96260714D01*
X149452380Y-95689285D01*
X149452380Y-96308333D01*
X148452380Y-96927380D02*
X148452380Y-97022619D01*
X148500000Y-97117857D01*
X148547619Y-97165476D01*
X148642857Y-97213095D01*
X148833333Y-97260714D01*
X149071428Y-97260714D01*
X149261904Y-97213095D01*
X149357142Y-97165476D01*
X149404761Y-97117857D01*
X149452380Y-97022619D01*
X149452380Y-96927380D01*
X149404761Y-96832142D01*
X149357142Y-96784523D01*
X149261904Y-96736904D01*
X149071428Y-96689285D01*
X148833333Y-96689285D01*
X148642857Y-96736904D01*
X148547619Y-96784523D01*
X148500000Y-96832142D01*
X148452380Y-96927380D01*
X148785714Y-97689285D02*
X149452380Y-97689285D01*
X148880952Y-97689285D02*
X148833333Y-97736904D01*
X148785714Y-97832142D01*
X148785714Y-97975000D01*
X148833333Y-98070238D01*
X148928571Y-98117857D01*
X149452380Y-98117857D01*
X137007142Y-87380952D02*
X137054761Y-87333333D01*
X137102380Y-87190476D01*
X137102380Y-87095238D01*
X137054761Y-86952380D01*
X136959523Y-86857142D01*
X136864285Y-86809523D01*
X136673809Y-86761904D01*
X136530952Y-86761904D01*
X136340476Y-86809523D01*
X136245238Y-86857142D01*
X136150000Y-86952380D01*
X136102380Y-87095238D01*
X136102380Y-87190476D01*
X136150000Y-87333333D01*
X136197619Y-87380952D01*
X136197619Y-87761904D02*
X136150000Y-87809523D01*
X136102380Y-87904761D01*
X136102380Y-88142857D01*
X136150000Y-88238095D01*
X136197619Y-88285714D01*
X136292857Y-88333333D01*
X136388095Y-88333333D01*
X136530952Y-88285714D01*
X137102380Y-87714285D01*
X137102380Y-88333333D01*
X137102380Y-89285714D02*
X137102380Y-88714285D01*
X137102380Y-89000000D02*
X136102380Y-89000000D01*
X136245238Y-88904761D01*
X136340476Y-88809523D01*
X136388095Y-88714285D01*
X136530952Y-89857142D02*
X136483333Y-89761904D01*
X136435714Y-89714285D01*
X136340476Y-89666666D01*
X136292857Y-89666666D01*
X136197619Y-89714285D01*
X136150000Y-89761904D01*
X136102380Y-89857142D01*
X136102380Y-90047619D01*
X136150000Y-90142857D01*
X136197619Y-90190476D01*
X136292857Y-90238095D01*
X136340476Y-90238095D01*
X136435714Y-90190476D01*
X136483333Y-90142857D01*
X136530952Y-90047619D01*
X136530952Y-89857142D01*
X136578571Y-89761904D01*
X136626190Y-89714285D01*
X136721428Y-89666666D01*
X136911904Y-89666666D01*
X137007142Y-89714285D01*
X137054761Y-89761904D01*
X137102380Y-89857142D01*
X137102380Y-90047619D01*
X137054761Y-90142857D01*
X137007142Y-90190476D01*
X136911904Y-90238095D01*
X136721428Y-90238095D01*
X136626190Y-90190476D01*
X136578571Y-90142857D01*
X136530952Y-90047619D01*
X134547619Y-86809523D02*
X134500000Y-86857142D01*
X134452380Y-86952380D01*
X134452380Y-87190476D01*
X134500000Y-87285714D01*
X134547619Y-87333333D01*
X134642857Y-87380952D01*
X134738095Y-87380952D01*
X134880952Y-87333333D01*
X135452380Y-86761904D01*
X135452380Y-87380952D01*
X134547619Y-87761904D02*
X134500000Y-87809523D01*
X134452380Y-87904761D01*
X134452380Y-88142857D01*
X134500000Y-88238095D01*
X134547619Y-88285714D01*
X134642857Y-88333333D01*
X134738095Y-88333333D01*
X134880952Y-88285714D01*
X135452380Y-87714285D01*
X135452380Y-88333333D01*
X134452380Y-88952380D02*
X134452380Y-89047619D01*
X134500000Y-89142857D01*
X134547619Y-89190476D01*
X134642857Y-89238095D01*
X134833333Y-89285714D01*
X135071428Y-89285714D01*
X135261904Y-89238095D01*
X135357142Y-89190476D01*
X135404761Y-89142857D01*
X135452380Y-89047619D01*
X135452380Y-88952380D01*
X135404761Y-88857142D01*
X135357142Y-88809523D01*
X135261904Y-88761904D01*
X135071428Y-88714285D01*
X134833333Y-88714285D01*
X134642857Y-88761904D01*
X134547619Y-88809523D01*
X134500000Y-88857142D01*
X134452380Y-88952380D01*
X134785714Y-89714285D02*
X135452380Y-89714285D01*
X134880952Y-89714285D02*
X134833333Y-89761904D01*
X134785714Y-89857142D01*
X134785714Y-90000000D01*
X134833333Y-90095238D01*
X134928571Y-90142857D01*
X135452380Y-90142857D01*
X140857142Y-56880952D02*
X140904761Y-56833333D01*
X140952380Y-56690476D01*
X140952380Y-56595238D01*
X140904761Y-56452380D01*
X140809523Y-56357142D01*
X140714285Y-56309523D01*
X140523809Y-56261904D01*
X140380952Y-56261904D01*
X140190476Y-56309523D01*
X140095238Y-56357142D01*
X140000000Y-56452380D01*
X139952380Y-56595238D01*
X139952380Y-56690476D01*
X140000000Y-56833333D01*
X140047619Y-56880952D01*
X140047619Y-57261904D02*
X140000000Y-57309523D01*
X139952380Y-57404761D01*
X139952380Y-57642857D01*
X140000000Y-57738095D01*
X140047619Y-57785714D01*
X140142857Y-57833333D01*
X140238095Y-57833333D01*
X140380952Y-57785714D01*
X140952380Y-57214285D01*
X140952380Y-57833333D01*
X140952380Y-58785714D02*
X140952380Y-58214285D01*
X140952380Y-58500000D02*
X139952380Y-58500000D01*
X140095238Y-58404761D01*
X140190476Y-58309523D01*
X140238095Y-58214285D01*
X140952380Y-59261904D02*
X140952380Y-59452380D01*
X140904761Y-59547619D01*
X140857142Y-59595238D01*
X140714285Y-59690476D01*
X140523809Y-59738095D01*
X140142857Y-59738095D01*
X140047619Y-59690476D01*
X140000000Y-59642857D01*
X139952380Y-59547619D01*
X139952380Y-59357142D01*
X140000000Y-59261904D01*
X140047619Y-59214285D01*
X140142857Y-59166666D01*
X140380952Y-59166666D01*
X140476190Y-59214285D01*
X140523809Y-59261904D01*
X140571428Y-59357142D01*
X140571428Y-59547619D01*
X140523809Y-59642857D01*
X140476190Y-59690476D01*
X140380952Y-59738095D01*
X140952380Y-66333333D02*
X140952380Y-65761904D01*
X140952380Y-66047619D02*
X139952380Y-66047619D01*
X140095238Y-65952380D01*
X140190476Y-65857142D01*
X140238095Y-65761904D01*
X140285714Y-67190476D02*
X140952380Y-67190476D01*
X140285714Y-66761904D02*
X140809523Y-66761904D01*
X140904761Y-66809523D01*
X140952380Y-66904761D01*
X140952380Y-67047619D01*
X140904761Y-67142857D01*
X140857142Y-67190476D01*
X149357142Y-98855952D02*
X149404761Y-98808333D01*
X149452380Y-98665476D01*
X149452380Y-98570238D01*
X149404761Y-98427380D01*
X149309523Y-98332142D01*
X149214285Y-98284523D01*
X149023809Y-98236904D01*
X148880952Y-98236904D01*
X148690476Y-98284523D01*
X148595238Y-98332142D01*
X148500000Y-98427380D01*
X148452380Y-98570238D01*
X148452380Y-98665476D01*
X148500000Y-98808333D01*
X148547619Y-98855952D01*
X148547619Y-99236904D02*
X148500000Y-99284523D01*
X148452380Y-99379761D01*
X148452380Y-99617857D01*
X148500000Y-99713095D01*
X148547619Y-99760714D01*
X148642857Y-99808333D01*
X148738095Y-99808333D01*
X148880952Y-99760714D01*
X149452380Y-99189285D01*
X149452380Y-99808333D01*
X148547619Y-100189285D02*
X148500000Y-100236904D01*
X148452380Y-100332142D01*
X148452380Y-100570238D01*
X148500000Y-100665476D01*
X148547619Y-100713095D01*
X148642857Y-100760714D01*
X148738095Y-100760714D01*
X148880952Y-100713095D01*
X149452380Y-100141666D01*
X149452380Y-100760714D01*
X148452380Y-101379761D02*
X148452380Y-101475000D01*
X148500000Y-101570238D01*
X148547619Y-101617857D01*
X148642857Y-101665476D01*
X148833333Y-101713095D01*
X149071428Y-101713095D01*
X149261904Y-101665476D01*
X149357142Y-101617857D01*
X149404761Y-101570238D01*
X149452380Y-101475000D01*
X149452380Y-101379761D01*
X149404761Y-101284523D01*
X149357142Y-101236904D01*
X149261904Y-101189285D01*
X149071428Y-101141666D01*
X148833333Y-101141666D01*
X148642857Y-101189285D01*
X148547619Y-101236904D01*
X148500000Y-101284523D01*
X148452380Y-101379761D01*
X148547619Y-105809523D02*
X148500000Y-105857142D01*
X148452380Y-105952380D01*
X148452380Y-106190476D01*
X148500000Y-106285714D01*
X148547619Y-106333333D01*
X148642857Y-106380952D01*
X148738095Y-106380952D01*
X148880952Y-106333333D01*
X149452380Y-105761904D01*
X149452380Y-106380952D01*
X148547619Y-106761904D02*
X148500000Y-106809523D01*
X148452380Y-106904761D01*
X148452380Y-107142857D01*
X148500000Y-107238095D01*
X148547619Y-107285714D01*
X148642857Y-107333333D01*
X148738095Y-107333333D01*
X148880952Y-107285714D01*
X149452380Y-106714285D01*
X149452380Y-107333333D01*
X148452380Y-107952380D02*
X148452380Y-108047619D01*
X148500000Y-108142857D01*
X148547619Y-108190476D01*
X148642857Y-108238095D01*
X148833333Y-108285714D01*
X149071428Y-108285714D01*
X149261904Y-108238095D01*
X149357142Y-108190476D01*
X149404761Y-108142857D01*
X149452380Y-108047619D01*
X149452380Y-107952380D01*
X149404761Y-107857142D01*
X149357142Y-107809523D01*
X149261904Y-107761904D01*
X149071428Y-107714285D01*
X148833333Y-107714285D01*
X148642857Y-107761904D01*
X148547619Y-107809523D01*
X148500000Y-107857142D01*
X148452380Y-107952380D01*
X148785714Y-108714285D02*
X149452380Y-108714285D01*
X148880952Y-108714285D02*
X148833333Y-108761904D01*
X148785714Y-108857142D01*
X148785714Y-109000000D01*
X148833333Y-109095238D01*
X148928571Y-109142857D01*
X149452380Y-109142857D01*
X63890476Y-89752380D02*
X63890476Y-88752380D01*
X63652380Y-88752380D01*
X63509523Y-88800000D01*
X63414285Y-88895238D01*
X63366666Y-88990476D01*
X63319047Y-89180952D01*
X63319047Y-89323809D01*
X63366666Y-89514285D01*
X63414285Y-89609523D01*
X63509523Y-89704761D01*
X63652380Y-89752380D01*
X63890476Y-89752380D01*
X62366666Y-89752380D02*
X62938095Y-89752380D01*
X62652380Y-89752380D02*
X62652380Y-88752380D01*
X62747619Y-88895238D01*
X62842857Y-88990476D01*
X62938095Y-89038095D01*
X61747619Y-88752380D02*
X61652380Y-88752380D01*
X61557142Y-88800000D01*
X61509523Y-88847619D01*
X61461904Y-88942857D01*
X61414285Y-89133333D01*
X61414285Y-89371428D01*
X61461904Y-89561904D01*
X61509523Y-89657142D01*
X61557142Y-89704761D01*
X61652380Y-89752380D01*
X61747619Y-89752380D01*
X61842857Y-89704761D01*
X61890476Y-89657142D01*
X61938095Y-89561904D01*
X61985714Y-89371428D01*
X61985714Y-89133333D01*
X61938095Y-88942857D01*
X61890476Y-88847619D01*
X61842857Y-88800000D01*
X61747619Y-88752380D01*
X60461904Y-89752380D02*
X61033333Y-89752380D01*
X60747619Y-89752380D02*
X60747619Y-88752380D01*
X60842857Y-88895238D01*
X60938095Y-88990476D01*
X61033333Y-89038095D01*
X67928571Y-91333333D02*
X67976190Y-91476190D01*
X68023809Y-91523809D01*
X68119047Y-91571428D01*
X68261904Y-91571428D01*
X68357142Y-91523809D01*
X68404761Y-91476190D01*
X68452380Y-91380952D01*
X68452380Y-91000000D01*
X67452380Y-91000000D01*
X67452380Y-91333333D01*
X67500000Y-91428571D01*
X67547619Y-91476190D01*
X67642857Y-91523809D01*
X67738095Y-91523809D01*
X67833333Y-91476190D01*
X67880952Y-91428571D01*
X67928571Y-91333333D01*
X67928571Y-91000000D01*
X68452380Y-92523809D02*
X68452380Y-91952380D01*
X68452380Y-92238095D02*
X67452380Y-92238095D01*
X67595238Y-92142857D01*
X67690476Y-92047619D01*
X67738095Y-91952380D01*
X67547619Y-92904761D02*
X67500000Y-92952380D01*
X67452380Y-93047619D01*
X67452380Y-93285714D01*
X67500000Y-93380952D01*
X67547619Y-93428571D01*
X67642857Y-93476190D01*
X67738095Y-93476190D01*
X67880952Y-93428571D01*
X68452380Y-92857142D01*
X68452380Y-93476190D01*
X67452380Y-94380952D02*
X67452380Y-93904761D01*
X67928571Y-93857142D01*
X67880952Y-93904761D01*
X67833333Y-94000000D01*
X67833333Y-94238095D01*
X67880952Y-94333333D01*
X67928571Y-94380952D01*
X68023809Y-94428571D01*
X68261904Y-94428571D01*
X68357142Y-94380952D01*
X68404761Y-94333333D01*
X68452380Y-94238095D01*
X68452380Y-94000000D01*
X68404761Y-93904761D01*
X68357142Y-93857142D01*
X68357142Y-95428571D02*
X68404761Y-95380952D01*
X68452380Y-95238095D01*
X68452380Y-95142857D01*
X68404761Y-95000000D01*
X68309523Y-94904761D01*
X68214285Y-94857142D01*
X68023809Y-94809523D01*
X67880952Y-94809523D01*
X67690476Y-94857142D01*
X67595238Y-94904761D01*
X67500000Y-95000000D01*
X67452380Y-95142857D01*
X67452380Y-95238095D01*
X67500000Y-95380952D01*
X67547619Y-95428571D01*
X67880952Y-96000000D02*
X67833333Y-95904761D01*
X67785714Y-95857142D01*
X67690476Y-95809523D01*
X67642857Y-95809523D01*
X67547619Y-95857142D01*
X67500000Y-95904761D01*
X67452380Y-96000000D01*
X67452380Y-96190476D01*
X67500000Y-96285714D01*
X67547619Y-96333333D01*
X67642857Y-96380952D01*
X67690476Y-96380952D01*
X67785714Y-96333333D01*
X67833333Y-96285714D01*
X67880952Y-96190476D01*
X67880952Y-96000000D01*
X67928571Y-95904761D01*
X67976190Y-95857142D01*
X68071428Y-95809523D01*
X68261904Y-95809523D01*
X68357142Y-95857142D01*
X68404761Y-95904761D01*
X68452380Y-96000000D01*
X68452380Y-96190476D01*
X68404761Y-96285714D01*
X68357142Y-96333333D01*
X68261904Y-96380952D01*
X68071428Y-96380952D01*
X67976190Y-96333333D01*
X67928571Y-96285714D01*
X67880952Y-96190476D01*
X67452380Y-97000000D02*
X67452380Y-97095238D01*
X67500000Y-97190476D01*
X67547619Y-97238095D01*
X67642857Y-97285714D01*
X67833333Y-97333333D01*
X68071428Y-97333333D01*
X68261904Y-97285714D01*
X68357142Y-97238095D01*
X68404761Y-97190476D01*
X68452380Y-97095238D01*
X68452380Y-97000000D01*
X68404761Y-96904761D01*
X68357142Y-96857142D01*
X68261904Y-96809523D01*
X68071428Y-96761904D01*
X67833333Y-96761904D01*
X67642857Y-96809523D01*
X67547619Y-96857142D01*
X67500000Y-96904761D01*
X67452380Y-97000000D01*
X67452380Y-97952380D02*
X67452380Y-98047619D01*
X67500000Y-98142857D01*
X67547619Y-98190476D01*
X67642857Y-98238095D01*
X67833333Y-98285714D01*
X68071428Y-98285714D01*
X68261904Y-98238095D01*
X68357142Y-98190476D01*
X68404761Y-98142857D01*
X68452380Y-98047619D01*
X68452380Y-97952380D01*
X68404761Y-97857142D01*
X68357142Y-97809523D01*
X68261904Y-97761904D01*
X68071428Y-97714285D01*
X67833333Y-97714285D01*
X67642857Y-97761904D01*
X67547619Y-97809523D01*
X67500000Y-97857142D01*
X67452380Y-97952380D01*
X68452380Y-98714285D02*
X67452380Y-98714285D01*
X67452380Y-98952380D01*
X67500000Y-99095238D01*
X67595238Y-99190476D01*
X67690476Y-99238095D01*
X67880952Y-99285714D01*
X68023809Y-99285714D01*
X68214285Y-99238095D01*
X68309523Y-99190476D01*
X68404761Y-99095238D01*
X68452380Y-98952380D01*
X68452380Y-98714285D01*
X68452380Y-99714285D02*
X67452380Y-99714285D01*
X68166666Y-100047619D01*
X67452380Y-100380952D01*
X68452380Y-100380952D01*
X68071428Y-101619047D02*
X68071428Y-102380952D01*
X68452380Y-103619047D02*
X67452380Y-103619047D01*
X67452380Y-103857142D01*
X67500000Y-104000000D01*
X67595238Y-104095238D01*
X67690476Y-104142857D01*
X67880952Y-104190476D01*
X68023809Y-104190476D01*
X68214285Y-104142857D01*
X68309523Y-104095238D01*
X68404761Y-104000000D01*
X68452380Y-103857142D01*
X68452380Y-103619047D01*
X67928571Y-104952380D02*
X67976190Y-105095238D01*
X68023809Y-105142857D01*
X68119047Y-105190476D01*
X68261904Y-105190476D01*
X68357142Y-105142857D01*
X68404761Y-105095238D01*
X68452380Y-105000000D01*
X68452380Y-104619047D01*
X67452380Y-104619047D01*
X67452380Y-104952380D01*
X67500000Y-105047619D01*
X67547619Y-105095238D01*
X67642857Y-105142857D01*
X67738095Y-105142857D01*
X67833333Y-105095238D01*
X67880952Y-105047619D01*
X67928571Y-104952380D01*
X67928571Y-104619047D01*
X68452380Y-106142857D02*
X68452380Y-105571428D01*
X68452380Y-105857142D02*
X67452380Y-105857142D01*
X67595238Y-105761904D01*
X67690476Y-105666666D01*
X67738095Y-105571428D01*
X67452380Y-106761904D02*
X67452380Y-106857142D01*
X67500000Y-106952380D01*
X67547619Y-107000000D01*
X67642857Y-107047619D01*
X67833333Y-107095238D01*
X68071428Y-107095238D01*
X68261904Y-107047619D01*
X68357142Y-107000000D01*
X68404761Y-106952380D01*
X68452380Y-106857142D01*
X68452380Y-106761904D01*
X68404761Y-106666666D01*
X68357142Y-106619047D01*
X68261904Y-106571428D01*
X68071428Y-106523809D01*
X67833333Y-106523809D01*
X67642857Y-106571428D01*
X67547619Y-106619047D01*
X67500000Y-106666666D01*
X67452380Y-106761904D01*
X67452380Y-107428571D02*
X67452380Y-108095238D01*
X68452380Y-107666666D01*
X51547619Y-73190476D02*
X52547619Y-73190476D01*
X52547619Y-72952380D01*
X52500000Y-72809523D01*
X52404761Y-72714285D01*
X52309523Y-72666666D01*
X52119047Y-72619047D01*
X51976190Y-72619047D01*
X51785714Y-72666666D01*
X51690476Y-72714285D01*
X51595238Y-72809523D01*
X51547619Y-72952380D01*
X51547619Y-73190476D01*
X51547619Y-71666666D02*
X51547619Y-72238095D01*
X51547619Y-71952380D02*
X52547619Y-71952380D01*
X52404761Y-72047619D01*
X52309523Y-72142857D01*
X52261904Y-72238095D01*
X52547619Y-71047619D02*
X52547619Y-70952380D01*
X52500000Y-70857142D01*
X52452380Y-70809523D01*
X52357142Y-70761904D01*
X52166666Y-70714285D01*
X51928571Y-70714285D01*
X51738095Y-70761904D01*
X51642857Y-70809523D01*
X51595238Y-70857142D01*
X51547619Y-70952380D01*
X51547619Y-71047619D01*
X51595238Y-71142857D01*
X51642857Y-71190476D01*
X51738095Y-71238095D01*
X51928571Y-71285714D01*
X52166666Y-71285714D01*
X52357142Y-71238095D01*
X52452380Y-71190476D01*
X52500000Y-71142857D01*
X52547619Y-71047619D01*
X52452380Y-70333333D02*
X52500000Y-70285714D01*
X52547619Y-70190476D01*
X52547619Y-69952380D01*
X52500000Y-69857142D01*
X52452380Y-69809523D01*
X52357142Y-69761904D01*
X52261904Y-69761904D01*
X52119047Y-69809523D01*
X51547619Y-70380952D01*
X51547619Y-69761904D01*
X53547619Y-76357142D02*
X53500000Y-76404761D01*
X53452380Y-76500000D01*
X53452380Y-76738095D01*
X53500000Y-76833333D01*
X53547619Y-76880952D01*
X53642857Y-76928571D01*
X53738095Y-76928571D01*
X53880952Y-76880952D01*
X54452380Y-76309523D01*
X54452380Y-76928571D01*
X53452380Y-77261904D02*
X53452380Y-77928571D01*
X54452380Y-77500000D01*
X53785714Y-78214285D02*
X54452380Y-78452380D01*
X53785714Y-78690476D01*
X149452380Y-127309523D02*
X148452380Y-127309523D01*
X148452380Y-127547619D01*
X148500000Y-127690476D01*
X148595238Y-127785714D01*
X148690476Y-127833333D01*
X148880952Y-127880952D01*
X149023809Y-127880952D01*
X149214285Y-127833333D01*
X149309523Y-127785714D01*
X149404761Y-127690476D01*
X149452380Y-127547619D01*
X149452380Y-127309523D01*
X148547619Y-128261904D02*
X148500000Y-128309523D01*
X148452380Y-128404761D01*
X148452380Y-128642857D01*
X148500000Y-128738095D01*
X148547619Y-128785714D01*
X148642857Y-128833333D01*
X148738095Y-128833333D01*
X148880952Y-128785714D01*
X149452380Y-128214285D01*
X149452380Y-128833333D01*
X148452380Y-129452380D02*
X148452380Y-129547619D01*
X148500000Y-129642857D01*
X148547619Y-129690476D01*
X148642857Y-129738095D01*
X148833333Y-129785714D01*
X149071428Y-129785714D01*
X149261904Y-129738095D01*
X149357142Y-129690476D01*
X149404761Y-129642857D01*
X149452380Y-129547619D01*
X149452380Y-129452380D01*
X149404761Y-129357142D01*
X149357142Y-129309523D01*
X149261904Y-129261904D01*
X149071428Y-129214285D01*
X148833333Y-129214285D01*
X148642857Y-129261904D01*
X148547619Y-129309523D01*
X148500000Y-129357142D01*
X148452380Y-129452380D01*
X149452380Y-130738095D02*
X149452380Y-130166666D01*
X149452380Y-130452380D02*
X148452380Y-130452380D01*
X148595238Y-130357142D01*
X148690476Y-130261904D01*
X148738095Y-130166666D01*
X149452380Y-116809523D02*
X148452380Y-116809523D01*
X148452380Y-117047619D01*
X148500000Y-117190476D01*
X148595238Y-117285714D01*
X148690476Y-117333333D01*
X148880952Y-117380952D01*
X149023809Y-117380952D01*
X149214285Y-117333333D01*
X149309523Y-117285714D01*
X149404761Y-117190476D01*
X149452380Y-117047619D01*
X149452380Y-116809523D01*
X148547619Y-117761904D02*
X148500000Y-117809523D01*
X148452380Y-117904761D01*
X148452380Y-118142857D01*
X148500000Y-118238095D01*
X148547619Y-118285714D01*
X148642857Y-118333333D01*
X148738095Y-118333333D01*
X148880952Y-118285714D01*
X149452380Y-117714285D01*
X149452380Y-118333333D01*
X148452380Y-118952380D02*
X148452380Y-119047619D01*
X148500000Y-119142857D01*
X148547619Y-119190476D01*
X148642857Y-119238095D01*
X148833333Y-119285714D01*
X149071428Y-119285714D01*
X149261904Y-119238095D01*
X149357142Y-119190476D01*
X149404761Y-119142857D01*
X149452380Y-119047619D01*
X149452380Y-118952380D01*
X149404761Y-118857142D01*
X149357142Y-118809523D01*
X149261904Y-118761904D01*
X149071428Y-118714285D01*
X148833333Y-118714285D01*
X148642857Y-118761904D01*
X148547619Y-118809523D01*
X148500000Y-118857142D01*
X148452380Y-118952380D01*
X148547619Y-119666666D02*
X148500000Y-119714285D01*
X148452380Y-119809523D01*
X148452380Y-120047619D01*
X148500000Y-120142857D01*
X148547619Y-120190476D01*
X148642857Y-120238095D01*
X148738095Y-120238095D01*
X148880952Y-120190476D01*
X149452380Y-119619047D01*
X149452380Y-120238095D01*
X149452380Y-131309523D02*
X148452380Y-131309523D01*
X148452380Y-131547619D01*
X148500000Y-131690476D01*
X148595238Y-131785714D01*
X148690476Y-131833333D01*
X148880952Y-131880952D01*
X149023809Y-131880952D01*
X149214285Y-131833333D01*
X149309523Y-131785714D01*
X149404761Y-131690476D01*
X149452380Y-131547619D01*
X149452380Y-131309523D01*
X148547619Y-132261904D02*
X148500000Y-132309523D01*
X148452380Y-132404761D01*
X148452380Y-132642857D01*
X148500000Y-132738095D01*
X148547619Y-132785714D01*
X148642857Y-132833333D01*
X148738095Y-132833333D01*
X148880952Y-132785714D01*
X149452380Y-132214285D01*
X149452380Y-132833333D01*
X148452380Y-133452380D02*
X148452380Y-133547619D01*
X148500000Y-133642857D01*
X148547619Y-133690476D01*
X148642857Y-133738095D01*
X148833333Y-133785714D01*
X149071428Y-133785714D01*
X149261904Y-133738095D01*
X149357142Y-133690476D01*
X149404761Y-133642857D01*
X149452380Y-133547619D01*
X149452380Y-133452380D01*
X149404761Y-133357142D01*
X149357142Y-133309523D01*
X149261904Y-133261904D01*
X149071428Y-133214285D01*
X148833333Y-133214285D01*
X148642857Y-133261904D01*
X148547619Y-133309523D01*
X148500000Y-133357142D01*
X148452380Y-133452380D01*
X148452380Y-134119047D02*
X148452380Y-134738095D01*
X148833333Y-134404761D01*
X148833333Y-134547619D01*
X148880952Y-134642857D01*
X148928571Y-134690476D01*
X149023809Y-134738095D01*
X149261904Y-134738095D01*
X149357142Y-134690476D01*
X149404761Y-134642857D01*
X149452380Y-134547619D01*
X149452380Y-134261904D01*
X149404761Y-134166666D01*
X149357142Y-134119047D01*
X148952380Y-58809523D02*
X147952380Y-58809523D01*
X147952380Y-59047619D01*
X148000000Y-59190476D01*
X148095238Y-59285714D01*
X148190476Y-59333333D01*
X148380952Y-59380952D01*
X148523809Y-59380952D01*
X148714285Y-59333333D01*
X148809523Y-59285714D01*
X148904761Y-59190476D01*
X148952380Y-59047619D01*
X148952380Y-58809523D01*
X148047619Y-59761904D02*
X148000000Y-59809523D01*
X147952380Y-59904761D01*
X147952380Y-60142857D01*
X148000000Y-60238095D01*
X148047619Y-60285714D01*
X148142857Y-60333333D01*
X148238095Y-60333333D01*
X148380952Y-60285714D01*
X148952380Y-59714285D01*
X148952380Y-60333333D01*
X147952380Y-60952380D02*
X147952380Y-61047619D01*
X148000000Y-61142857D01*
X148047619Y-61190476D01*
X148142857Y-61238095D01*
X148333333Y-61285714D01*
X148571428Y-61285714D01*
X148761904Y-61238095D01*
X148857142Y-61190476D01*
X148904761Y-61142857D01*
X148952380Y-61047619D01*
X148952380Y-60952380D01*
X148904761Y-60857142D01*
X148857142Y-60809523D01*
X148761904Y-60761904D01*
X148571428Y-60714285D01*
X148333333Y-60714285D01*
X148142857Y-60761904D01*
X148047619Y-60809523D01*
X148000000Y-60857142D01*
X147952380Y-60952380D01*
X148285714Y-62142857D02*
X148952380Y-62142857D01*
X147904761Y-61904761D02*
X148619047Y-61666666D01*
X148619047Y-62285714D01*
X136452380Y-54309523D02*
X135452380Y-54309523D01*
X135452380Y-54547619D01*
X135500000Y-54690476D01*
X135595238Y-54785714D01*
X135690476Y-54833333D01*
X135880952Y-54880952D01*
X136023809Y-54880952D01*
X136214285Y-54833333D01*
X136309523Y-54785714D01*
X136404761Y-54690476D01*
X136452380Y-54547619D01*
X136452380Y-54309523D01*
X135547619Y-55261904D02*
X135500000Y-55309523D01*
X135452380Y-55404761D01*
X135452380Y-55642857D01*
X135500000Y-55738095D01*
X135547619Y-55785714D01*
X135642857Y-55833333D01*
X135738095Y-55833333D01*
X135880952Y-55785714D01*
X136452380Y-55214285D01*
X136452380Y-55833333D01*
X135452380Y-56452380D02*
X135452380Y-56547619D01*
X135500000Y-56642857D01*
X135547619Y-56690476D01*
X135642857Y-56738095D01*
X135833333Y-56785714D01*
X136071428Y-56785714D01*
X136261904Y-56738095D01*
X136357142Y-56690476D01*
X136404761Y-56642857D01*
X136452380Y-56547619D01*
X136452380Y-56452380D01*
X136404761Y-56357142D01*
X136357142Y-56309523D01*
X136261904Y-56261904D01*
X136071428Y-56214285D01*
X135833333Y-56214285D01*
X135642857Y-56261904D01*
X135547619Y-56309523D01*
X135500000Y-56357142D01*
X135452380Y-56452380D01*
X135452380Y-57690476D02*
X135452380Y-57214285D01*
X135928571Y-57166666D01*
X135880952Y-57214285D01*
X135833333Y-57309523D01*
X135833333Y-57547619D01*
X135880952Y-57642857D01*
X135928571Y-57690476D01*
X136023809Y-57738095D01*
X136261904Y-57738095D01*
X136357142Y-57690476D01*
X136404761Y-57642857D01*
X136452380Y-57547619D01*
X136452380Y-57309523D01*
X136404761Y-57214285D01*
X136357142Y-57166666D01*
X136452380Y-59428571D02*
X136452380Y-58857142D01*
X136452380Y-59142857D02*
X135452380Y-59142857D01*
X135595238Y-59047619D01*
X135690476Y-58952380D01*
X135738095Y-58857142D01*
X135452380Y-60333333D02*
X135452380Y-59857142D01*
X135928571Y-59809523D01*
X135880952Y-59857142D01*
X135833333Y-59952380D01*
X135833333Y-60190476D01*
X135880952Y-60285714D01*
X135928571Y-60333333D01*
X136023809Y-60380952D01*
X136261904Y-60380952D01*
X136357142Y-60333333D01*
X136404761Y-60285714D01*
X136452380Y-60190476D01*
X136452380Y-59952380D01*
X136404761Y-59857142D01*
X136357142Y-59809523D01*
X135785714Y-60714285D02*
X136452380Y-60952380D01*
X135785714Y-61190476D01*
X136452380Y-61559523D02*
X135452380Y-61559523D01*
X135452380Y-61797619D01*
X135500000Y-61940476D01*
X135595238Y-62035714D01*
X135690476Y-62083333D01*
X135880952Y-62130952D01*
X136023809Y-62130952D01*
X136214285Y-62083333D01*
X136309523Y-62035714D01*
X136404761Y-61940476D01*
X136452380Y-61797619D01*
X136452380Y-61559523D01*
X135547619Y-62511904D02*
X135500000Y-62559523D01*
X135452380Y-62654761D01*
X135452380Y-62892857D01*
X135500000Y-62988095D01*
X135547619Y-63035714D01*
X135642857Y-63083333D01*
X135738095Y-63083333D01*
X135880952Y-63035714D01*
X136452380Y-62464285D01*
X136452380Y-63083333D01*
X135452380Y-63702380D02*
X135452380Y-63797619D01*
X135500000Y-63892857D01*
X135547619Y-63940476D01*
X135642857Y-63988095D01*
X135833333Y-64035714D01*
X136071428Y-64035714D01*
X136261904Y-63988095D01*
X136357142Y-63940476D01*
X136404761Y-63892857D01*
X136452380Y-63797619D01*
X136452380Y-63702380D01*
X136404761Y-63607142D01*
X136357142Y-63559523D01*
X136261904Y-63511904D01*
X136071428Y-63464285D01*
X135833333Y-63464285D01*
X135642857Y-63511904D01*
X135547619Y-63559523D01*
X135500000Y-63607142D01*
X135452380Y-63702380D01*
X135452380Y-64369047D02*
X135452380Y-65035714D01*
X136452380Y-64607142D01*
X136452380Y-66428571D02*
X136452380Y-65857142D01*
X136452380Y-66142857D02*
X135452380Y-66142857D01*
X135595238Y-66047619D01*
X135690476Y-65952380D01*
X135738095Y-65857142D01*
X135452380Y-67333333D02*
X135452380Y-66857142D01*
X135928571Y-66809523D01*
X135880952Y-66857142D01*
X135833333Y-66952380D01*
X135833333Y-67190476D01*
X135880952Y-67285714D01*
X135928571Y-67333333D01*
X136023809Y-67380952D01*
X136261904Y-67380952D01*
X136357142Y-67333333D01*
X136404761Y-67285714D01*
X136452380Y-67190476D01*
X136452380Y-66952380D01*
X136404761Y-66857142D01*
X136357142Y-66809523D01*
X135785714Y-67714285D02*
X136452380Y-67952380D01*
X135785714Y-68190476D01*
X55578571Y-103714285D02*
X55578571Y-103380952D01*
X56102380Y-103380952D02*
X55102380Y-103380952D01*
X55102380Y-103857142D01*
X56102380Y-104761904D02*
X56102380Y-104190476D01*
X56102380Y-104476190D02*
X55102380Y-104476190D01*
X55245238Y-104380952D01*
X55340476Y-104285714D01*
X55388095Y-104190476D01*
X55102380Y-105380952D02*
X55102380Y-105476190D01*
X55150000Y-105571428D01*
X55197619Y-105619047D01*
X55292857Y-105666666D01*
X55483333Y-105714285D01*
X55721428Y-105714285D01*
X55911904Y-105666666D01*
X56007142Y-105619047D01*
X56054761Y-105571428D01*
X56102380Y-105476190D01*
X56102380Y-105380952D01*
X56054761Y-105285714D01*
X56007142Y-105238095D01*
X55911904Y-105190476D01*
X55721428Y-105142857D01*
X55483333Y-105142857D01*
X55292857Y-105190476D01*
X55197619Y-105238095D01*
X55150000Y-105285714D01*
X55102380Y-105380952D01*
X56102380Y-106666666D02*
X56102380Y-106095238D01*
X56102380Y-106380952D02*
X55102380Y-106380952D01*
X55245238Y-106285714D01*
X55340476Y-106190476D01*
X55388095Y-106095238D01*
X55380952Y-108452380D02*
X54714285Y-108452380D01*
X55142857Y-109452380D01*
X53857142Y-108452380D02*
X54333333Y-108452380D01*
X54380952Y-108928571D01*
X54333333Y-108880952D01*
X54238095Y-108833333D01*
X54000000Y-108833333D01*
X53904761Y-108880952D01*
X53857142Y-108928571D01*
X53809523Y-109023809D01*
X53809523Y-109261904D01*
X53857142Y-109357142D01*
X53904761Y-109404761D01*
X54000000Y-109452380D01*
X54238095Y-109452380D01*
X54333333Y-109404761D01*
X54380952Y-109357142D01*
X53190476Y-108452380D02*
X53095238Y-108452380D01*
X53000000Y-108500000D01*
X52952380Y-108547619D01*
X52904761Y-108642857D01*
X52857142Y-108833333D01*
X52857142Y-109071428D01*
X52904761Y-109261904D01*
X52952380Y-109357142D01*
X53000000Y-109404761D01*
X53095238Y-109452380D01*
X53190476Y-109452380D01*
X53285714Y-109404761D01*
X53333333Y-109357142D01*
X53380952Y-109261904D01*
X53428571Y-109071428D01*
X53428571Y-108833333D01*
X53380952Y-108642857D01*
X53333333Y-108547619D01*
X53285714Y-108500000D01*
X53190476Y-108452380D01*
X52428571Y-109452380D02*
X52428571Y-108785714D01*
X52428571Y-108880952D02*
X52380952Y-108833333D01*
X52285714Y-108785714D01*
X52142857Y-108785714D01*
X52047619Y-108833333D01*
X52000000Y-108928571D01*
X52000000Y-109452380D01*
X52000000Y-108928571D02*
X51952380Y-108833333D01*
X51857142Y-108785714D01*
X51714285Y-108785714D01*
X51619047Y-108833333D01*
X51571428Y-108928571D01*
X51571428Y-109452380D01*
X51142857Y-109166666D02*
X50666666Y-109166666D01*
X51238095Y-109452380D02*
X50904761Y-108452380D01*
X50571428Y-109452380D01*
X138285714Y-69928571D02*
X138619047Y-69928571D01*
X138619047Y-70452380D02*
X138619047Y-69452380D01*
X138142857Y-69452380D01*
X137238095Y-70452380D02*
X137809523Y-70452380D01*
X137523809Y-70452380D02*
X137523809Y-69452380D01*
X137619047Y-69595238D01*
X137714285Y-69690476D01*
X137809523Y-69738095D01*
X136619047Y-69452380D02*
X136523809Y-69452380D01*
X136428571Y-69500000D01*
X136380952Y-69547619D01*
X136333333Y-69642857D01*
X136285714Y-69833333D01*
X136285714Y-70071428D01*
X136333333Y-70261904D01*
X136380952Y-70357142D01*
X136428571Y-70404761D01*
X136523809Y-70452380D01*
X136619047Y-70452380D01*
X136714285Y-70404761D01*
X136761904Y-70357142D01*
X136809523Y-70261904D01*
X136857142Y-70071428D01*
X136857142Y-69833333D01*
X136809523Y-69642857D01*
X136761904Y-69547619D01*
X136714285Y-69500000D01*
X136619047Y-69452380D01*
X135904761Y-69547619D02*
X135857142Y-69500000D01*
X135761904Y-69452380D01*
X135523809Y-69452380D01*
X135428571Y-69500000D01*
X135380952Y-69547619D01*
X135333333Y-69642857D01*
X135333333Y-69738095D01*
X135380952Y-69880952D01*
X135952380Y-70452380D01*
X135333333Y-70452380D01*
X139380952Y-74952380D02*
X138714285Y-74952380D01*
X139142857Y-75952380D01*
X137857142Y-74952380D02*
X138333333Y-74952380D01*
X138380952Y-75428571D01*
X138333333Y-75380952D01*
X138238095Y-75333333D01*
X138000000Y-75333333D01*
X137904761Y-75380952D01*
X137857142Y-75428571D01*
X137809523Y-75523809D01*
X137809523Y-75761904D01*
X137857142Y-75857142D01*
X137904761Y-75904761D01*
X138000000Y-75952380D01*
X138238095Y-75952380D01*
X138333333Y-75904761D01*
X138380952Y-75857142D01*
X137190476Y-74952380D02*
X137095238Y-74952380D01*
X137000000Y-75000000D01*
X136952380Y-75047619D01*
X136904761Y-75142857D01*
X136857142Y-75333333D01*
X136857142Y-75571428D01*
X136904761Y-75761904D01*
X136952380Y-75857142D01*
X137000000Y-75904761D01*
X137095238Y-75952380D01*
X137190476Y-75952380D01*
X137285714Y-75904761D01*
X137333333Y-75857142D01*
X137380952Y-75761904D01*
X137428571Y-75571428D01*
X137428571Y-75333333D01*
X137380952Y-75142857D01*
X137333333Y-75047619D01*
X137285714Y-75000000D01*
X137190476Y-74952380D01*
X136428571Y-75952380D02*
X136428571Y-75285714D01*
X136428571Y-75380952D02*
X136380952Y-75333333D01*
X136285714Y-75285714D01*
X136142857Y-75285714D01*
X136047619Y-75333333D01*
X136000000Y-75428571D01*
X136000000Y-75952380D01*
X136000000Y-75428571D02*
X135952380Y-75333333D01*
X135857142Y-75285714D01*
X135714285Y-75285714D01*
X135619047Y-75333333D01*
X135571428Y-75428571D01*
X135571428Y-75952380D01*
X135142857Y-75666666D02*
X134666666Y-75666666D01*
X135238095Y-75952380D02*
X134904761Y-74952380D01*
X134571428Y-75952380D01*
X138285714Y-79778571D02*
X138619047Y-79778571D01*
X138619047Y-80302380D02*
X138619047Y-79302380D01*
X138142857Y-79302380D01*
X137238095Y-80302380D02*
X137809523Y-80302380D01*
X137523809Y-80302380D02*
X137523809Y-79302380D01*
X137619047Y-79445238D01*
X137714285Y-79540476D01*
X137809523Y-79588095D01*
X136619047Y-79302380D02*
X136523809Y-79302380D01*
X136428571Y-79350000D01*
X136380952Y-79397619D01*
X136333333Y-79492857D01*
X136285714Y-79683333D01*
X136285714Y-79921428D01*
X136333333Y-80111904D01*
X136380952Y-80207142D01*
X136428571Y-80254761D01*
X136523809Y-80302380D01*
X136619047Y-80302380D01*
X136714285Y-80254761D01*
X136761904Y-80207142D01*
X136809523Y-80111904D01*
X136857142Y-79921428D01*
X136857142Y-79683333D01*
X136809523Y-79492857D01*
X136761904Y-79397619D01*
X136714285Y-79350000D01*
X136619047Y-79302380D01*
X135952380Y-79302380D02*
X135333333Y-79302380D01*
X135666666Y-79683333D01*
X135523809Y-79683333D01*
X135428571Y-79730952D01*
X135380952Y-79778571D01*
X135333333Y-79873809D01*
X135333333Y-80111904D01*
X135380952Y-80207142D01*
X135428571Y-80254761D01*
X135523809Y-80302380D01*
X135809523Y-80302380D01*
X135904761Y-80254761D01*
X135952380Y-80207142D01*
X139380952Y-84602380D02*
X138714285Y-84602380D01*
X139142857Y-85602380D01*
X137857142Y-84602380D02*
X138333333Y-84602380D01*
X138380952Y-85078571D01*
X138333333Y-85030952D01*
X138238095Y-84983333D01*
X138000000Y-84983333D01*
X137904761Y-85030952D01*
X137857142Y-85078571D01*
X137809523Y-85173809D01*
X137809523Y-85411904D01*
X137857142Y-85507142D01*
X137904761Y-85554761D01*
X138000000Y-85602380D01*
X138238095Y-85602380D01*
X138333333Y-85554761D01*
X138380952Y-85507142D01*
X137190476Y-84602380D02*
X137095238Y-84602380D01*
X137000000Y-84650000D01*
X136952380Y-84697619D01*
X136904761Y-84792857D01*
X136857142Y-84983333D01*
X136857142Y-85221428D01*
X136904761Y-85411904D01*
X136952380Y-85507142D01*
X137000000Y-85554761D01*
X137095238Y-85602380D01*
X137190476Y-85602380D01*
X137285714Y-85554761D01*
X137333333Y-85507142D01*
X137380952Y-85411904D01*
X137428571Y-85221428D01*
X137428571Y-84983333D01*
X137380952Y-84792857D01*
X137333333Y-84697619D01*
X137285714Y-84650000D01*
X137190476Y-84602380D01*
X136428571Y-85602380D02*
X136428571Y-84935714D01*
X136428571Y-85030952D02*
X136380952Y-84983333D01*
X136285714Y-84935714D01*
X136142857Y-84935714D01*
X136047619Y-84983333D01*
X136000000Y-85078571D01*
X136000000Y-85602380D01*
X136000000Y-85078571D02*
X135952380Y-84983333D01*
X135857142Y-84935714D01*
X135714285Y-84935714D01*
X135619047Y-84983333D01*
X135571428Y-85078571D01*
X135571428Y-85602380D01*
X135142857Y-85316666D02*
X134666666Y-85316666D01*
X135238095Y-85602380D02*
X134904761Y-84602380D01*
X134571428Y-85602380D01*
X142785714Y-127148571D02*
X143119047Y-127148571D01*
X143119047Y-127672380D02*
X143119047Y-126672380D01*
X142642857Y-126672380D01*
X142309523Y-126767619D02*
X142261904Y-126720000D01*
X142166666Y-126672380D01*
X141928571Y-126672380D01*
X141833333Y-126720000D01*
X141785714Y-126767619D01*
X141738095Y-126862857D01*
X141738095Y-126958095D01*
X141785714Y-127100952D01*
X142357142Y-127672380D01*
X141738095Y-127672380D01*
X141119047Y-126672380D02*
X141023809Y-126672380D01*
X140928571Y-126720000D01*
X140880952Y-126767619D01*
X140833333Y-126862857D01*
X140785714Y-127053333D01*
X140785714Y-127291428D01*
X140833333Y-127481904D01*
X140880952Y-127577142D01*
X140928571Y-127624761D01*
X141023809Y-127672380D01*
X141119047Y-127672380D01*
X141214285Y-127624761D01*
X141261904Y-127577142D01*
X141309523Y-127481904D01*
X141357142Y-127291428D01*
X141357142Y-127053333D01*
X141309523Y-126862857D01*
X141261904Y-126767619D01*
X141214285Y-126720000D01*
X141119047Y-126672380D01*
X139833333Y-127672380D02*
X140404761Y-127672380D01*
X140119047Y-127672380D02*
X140119047Y-126672380D01*
X140214285Y-126815238D01*
X140309523Y-126910476D01*
X140404761Y-126958095D01*
X143880952Y-131232380D02*
X143214285Y-131232380D01*
X143642857Y-132232380D01*
X142357142Y-131232380D02*
X142833333Y-131232380D01*
X142880952Y-131708571D01*
X142833333Y-131660952D01*
X142738095Y-131613333D01*
X142500000Y-131613333D01*
X142404761Y-131660952D01*
X142357142Y-131708571D01*
X142309523Y-131803809D01*
X142309523Y-132041904D01*
X142357142Y-132137142D01*
X142404761Y-132184761D01*
X142500000Y-132232380D01*
X142738095Y-132232380D01*
X142833333Y-132184761D01*
X142880952Y-132137142D01*
X141690476Y-131232380D02*
X141595238Y-131232380D01*
X141500000Y-131280000D01*
X141452380Y-131327619D01*
X141404761Y-131422857D01*
X141357142Y-131613333D01*
X141357142Y-131851428D01*
X141404761Y-132041904D01*
X141452380Y-132137142D01*
X141500000Y-132184761D01*
X141595238Y-132232380D01*
X141690476Y-132232380D01*
X141785714Y-132184761D01*
X141833333Y-132137142D01*
X141880952Y-132041904D01*
X141928571Y-131851428D01*
X141928571Y-131613333D01*
X141880952Y-131422857D01*
X141833333Y-131327619D01*
X141785714Y-131280000D01*
X141690476Y-131232380D01*
X140928571Y-132232380D02*
X140928571Y-131565714D01*
X140928571Y-131660952D02*
X140880952Y-131613333D01*
X140785714Y-131565714D01*
X140642857Y-131565714D01*
X140547619Y-131613333D01*
X140500000Y-131708571D01*
X140500000Y-132232380D01*
X140500000Y-131708571D02*
X140452380Y-131613333D01*
X140357142Y-131565714D01*
X140214285Y-131565714D01*
X140119047Y-131613333D01*
X140071428Y-131708571D01*
X140071428Y-132232380D01*
X139642857Y-131946666D02*
X139166666Y-131946666D01*
X139738095Y-132232380D02*
X139404761Y-131232380D01*
X139071428Y-132232380D01*
X142785714Y-116148571D02*
X143119047Y-116148571D01*
X143119047Y-116672380D02*
X143119047Y-115672380D01*
X142642857Y-115672380D01*
X142309523Y-115767619D02*
X142261904Y-115720000D01*
X142166666Y-115672380D01*
X141928571Y-115672380D01*
X141833333Y-115720000D01*
X141785714Y-115767619D01*
X141738095Y-115862857D01*
X141738095Y-115958095D01*
X141785714Y-116100952D01*
X142357142Y-116672380D01*
X141738095Y-116672380D01*
X141119047Y-115672380D02*
X141023809Y-115672380D01*
X140928571Y-115720000D01*
X140880952Y-115767619D01*
X140833333Y-115862857D01*
X140785714Y-116053333D01*
X140785714Y-116291428D01*
X140833333Y-116481904D01*
X140880952Y-116577142D01*
X140928571Y-116624761D01*
X141023809Y-116672380D01*
X141119047Y-116672380D01*
X141214285Y-116624761D01*
X141261904Y-116577142D01*
X141309523Y-116481904D01*
X141357142Y-116291428D01*
X141357142Y-116053333D01*
X141309523Y-115862857D01*
X141261904Y-115767619D01*
X141214285Y-115720000D01*
X141119047Y-115672380D01*
X140404761Y-115767619D02*
X140357142Y-115720000D01*
X140261904Y-115672380D01*
X140023809Y-115672380D01*
X139928571Y-115720000D01*
X139880952Y-115767619D01*
X139833333Y-115862857D01*
X139833333Y-115958095D01*
X139880952Y-116100952D01*
X140452380Y-116672380D01*
X139833333Y-116672380D01*
X143880952Y-120232380D02*
X143214285Y-120232380D01*
X143642857Y-121232380D01*
X142357142Y-120232380D02*
X142833333Y-120232380D01*
X142880952Y-120708571D01*
X142833333Y-120660952D01*
X142738095Y-120613333D01*
X142500000Y-120613333D01*
X142404761Y-120660952D01*
X142357142Y-120708571D01*
X142309523Y-120803809D01*
X142309523Y-121041904D01*
X142357142Y-121137142D01*
X142404761Y-121184761D01*
X142500000Y-121232380D01*
X142738095Y-121232380D01*
X142833333Y-121184761D01*
X142880952Y-121137142D01*
X141690476Y-120232380D02*
X141595238Y-120232380D01*
X141500000Y-120280000D01*
X141452380Y-120327619D01*
X141404761Y-120422857D01*
X141357142Y-120613333D01*
X141357142Y-120851428D01*
X141404761Y-121041904D01*
X141452380Y-121137142D01*
X141500000Y-121184761D01*
X141595238Y-121232380D01*
X141690476Y-121232380D01*
X141785714Y-121184761D01*
X141833333Y-121137142D01*
X141880952Y-121041904D01*
X141928571Y-120851428D01*
X141928571Y-120613333D01*
X141880952Y-120422857D01*
X141833333Y-120327619D01*
X141785714Y-120280000D01*
X141690476Y-120232380D01*
X140928571Y-121232380D02*
X140928571Y-120565714D01*
X140928571Y-120660952D02*
X140880952Y-120613333D01*
X140785714Y-120565714D01*
X140642857Y-120565714D01*
X140547619Y-120613333D01*
X140500000Y-120708571D01*
X140500000Y-121232380D01*
X140500000Y-120708571D02*
X140452380Y-120613333D01*
X140357142Y-120565714D01*
X140214285Y-120565714D01*
X140119047Y-120613333D01*
X140071428Y-120708571D01*
X140071428Y-121232380D01*
X139642857Y-120946666D02*
X139166666Y-120946666D01*
X139738095Y-121232380D02*
X139404761Y-120232380D01*
X139071428Y-121232380D01*
X142785714Y-138648571D02*
X143119047Y-138648571D01*
X143119047Y-139172380D02*
X143119047Y-138172380D01*
X142642857Y-138172380D01*
X142309523Y-138267619D02*
X142261904Y-138220000D01*
X142166666Y-138172380D01*
X141928571Y-138172380D01*
X141833333Y-138220000D01*
X141785714Y-138267619D01*
X141738095Y-138362857D01*
X141738095Y-138458095D01*
X141785714Y-138600952D01*
X142357142Y-139172380D01*
X141738095Y-139172380D01*
X141119047Y-138172380D02*
X141023809Y-138172380D01*
X140928571Y-138220000D01*
X140880952Y-138267619D01*
X140833333Y-138362857D01*
X140785714Y-138553333D01*
X140785714Y-138791428D01*
X140833333Y-138981904D01*
X140880952Y-139077142D01*
X140928571Y-139124761D01*
X141023809Y-139172380D01*
X141119047Y-139172380D01*
X141214285Y-139124761D01*
X141261904Y-139077142D01*
X141309523Y-138981904D01*
X141357142Y-138791428D01*
X141357142Y-138553333D01*
X141309523Y-138362857D01*
X141261904Y-138267619D01*
X141214285Y-138220000D01*
X141119047Y-138172380D01*
X140452380Y-138172380D02*
X139833333Y-138172380D01*
X140166666Y-138553333D01*
X140023809Y-138553333D01*
X139928571Y-138600952D01*
X139880952Y-138648571D01*
X139833333Y-138743809D01*
X139833333Y-138981904D01*
X139880952Y-139077142D01*
X139928571Y-139124761D01*
X140023809Y-139172380D01*
X140309523Y-139172380D01*
X140404761Y-139124761D01*
X140452380Y-139077142D01*
X54102380Y-84880952D02*
X53626190Y-84547619D01*
X54102380Y-84309523D02*
X53102380Y-84309523D01*
X53102380Y-84690476D01*
X53150000Y-84785714D01*
X53197619Y-84833333D01*
X53292857Y-84880952D01*
X53435714Y-84880952D01*
X53530952Y-84833333D01*
X53578571Y-84785714D01*
X53626190Y-84690476D01*
X53626190Y-84309523D01*
X54102380Y-85833333D02*
X54102380Y-85261904D01*
X54102380Y-85547619D02*
X53102380Y-85547619D01*
X53245238Y-85452380D01*
X53340476Y-85357142D01*
X53388095Y-85261904D01*
X53102380Y-86452380D02*
X53102380Y-86547619D01*
X53150000Y-86642857D01*
X53197619Y-86690476D01*
X53292857Y-86738095D01*
X53483333Y-86785714D01*
X53721428Y-86785714D01*
X53911904Y-86738095D01*
X54007142Y-86690476D01*
X54054761Y-86642857D01*
X54102380Y-86547619D01*
X54102380Y-86452380D01*
X54054761Y-86357142D01*
X54007142Y-86309523D01*
X53911904Y-86261904D01*
X53721428Y-86214285D01*
X53483333Y-86214285D01*
X53292857Y-86261904D01*
X53197619Y-86309523D01*
X53150000Y-86357142D01*
X53102380Y-86452380D01*
X54102380Y-87738095D02*
X54102380Y-87166666D01*
X54102380Y-87452380D02*
X53102380Y-87452380D01*
X53245238Y-87357142D01*
X53340476Y-87261904D01*
X53388095Y-87166666D01*
X55452380Y-85500000D02*
X55452380Y-84928571D01*
X55452380Y-85214285D02*
X54452380Y-85214285D01*
X54595238Y-85119047D01*
X54690476Y-85023809D01*
X54738095Y-84928571D01*
X54452380Y-86119047D02*
X54452380Y-86214285D01*
X54500000Y-86309523D01*
X54547619Y-86357142D01*
X54642857Y-86404761D01*
X54833333Y-86452380D01*
X55071428Y-86452380D01*
X55261904Y-86404761D01*
X55357142Y-86357142D01*
X55404761Y-86309523D01*
X55452380Y-86214285D01*
X55452380Y-86119047D01*
X55404761Y-86023809D01*
X55357142Y-85976190D01*
X55261904Y-85928571D01*
X55071428Y-85880952D01*
X54833333Y-85880952D01*
X54642857Y-85928571D01*
X54547619Y-85976190D01*
X54500000Y-86023809D01*
X54452380Y-86119047D01*
X55452380Y-86880952D02*
X54785714Y-86880952D01*
X54976190Y-86880952D02*
X54880952Y-86928571D01*
X54833333Y-86976190D01*
X54785714Y-87071428D01*
X54785714Y-87166666D01*
X60619047Y-81302380D02*
X60952380Y-80826190D01*
X61190476Y-81302380D02*
X61190476Y-80302380D01*
X60809523Y-80302380D01*
X60714285Y-80350000D01*
X60666666Y-80397619D01*
X60619047Y-80492857D01*
X60619047Y-80635714D01*
X60666666Y-80730952D01*
X60714285Y-80778571D01*
X60809523Y-80826190D01*
X61190476Y-80826190D01*
X59666666Y-81302380D02*
X60238095Y-81302380D01*
X59952380Y-81302380D02*
X59952380Y-80302380D01*
X60047619Y-80445238D01*
X60142857Y-80540476D01*
X60238095Y-80588095D01*
X59047619Y-80302380D02*
X58952380Y-80302380D01*
X58857142Y-80350000D01*
X58809523Y-80397619D01*
X58761904Y-80492857D01*
X58714285Y-80683333D01*
X58714285Y-80921428D01*
X58761904Y-81111904D01*
X58809523Y-81207142D01*
X58857142Y-81254761D01*
X58952380Y-81302380D01*
X59047619Y-81302380D01*
X59142857Y-81254761D01*
X59190476Y-81207142D01*
X59238095Y-81111904D01*
X59285714Y-80921428D01*
X59285714Y-80683333D01*
X59238095Y-80492857D01*
X59190476Y-80397619D01*
X59142857Y-80350000D01*
X59047619Y-80302380D01*
X58333333Y-80397619D02*
X58285714Y-80350000D01*
X58190476Y-80302380D01*
X57952380Y-80302380D01*
X57857142Y-80350000D01*
X57809523Y-80397619D01*
X57761904Y-80492857D01*
X57761904Y-80588095D01*
X57809523Y-80730952D01*
X58380952Y-81302380D01*
X57761904Y-81302380D01*
X56619047Y-129702380D02*
X56952380Y-129226190D01*
X57190476Y-129702380D02*
X57190476Y-128702380D01*
X56809523Y-128702380D01*
X56714285Y-128750000D01*
X56666666Y-128797619D01*
X56619047Y-128892857D01*
X56619047Y-129035714D01*
X56666666Y-129130952D01*
X56714285Y-129178571D01*
X56809523Y-129226190D01*
X57190476Y-129226190D01*
X55666666Y-129702380D02*
X56238095Y-129702380D01*
X55952380Y-129702380D02*
X55952380Y-128702380D01*
X56047619Y-128845238D01*
X56142857Y-128940476D01*
X56238095Y-128988095D01*
X55047619Y-128702380D02*
X54952380Y-128702380D01*
X54857142Y-128750000D01*
X54809523Y-128797619D01*
X54761904Y-128892857D01*
X54714285Y-129083333D01*
X54714285Y-129321428D01*
X54761904Y-129511904D01*
X54809523Y-129607142D01*
X54857142Y-129654761D01*
X54952380Y-129702380D01*
X55047619Y-129702380D01*
X55142857Y-129654761D01*
X55190476Y-129607142D01*
X55238095Y-129511904D01*
X55285714Y-129321428D01*
X55285714Y-129083333D01*
X55238095Y-128892857D01*
X55190476Y-128797619D01*
X55142857Y-128750000D01*
X55047619Y-128702380D01*
X54380952Y-128702380D02*
X53761904Y-128702380D01*
X54095238Y-129083333D01*
X53952380Y-129083333D01*
X53857142Y-129130952D01*
X53809523Y-129178571D01*
X53761904Y-129273809D01*
X53761904Y-129511904D01*
X53809523Y-129607142D01*
X53857142Y-129654761D01*
X53952380Y-129702380D01*
X54238095Y-129702380D01*
X54333333Y-129654761D01*
X54380952Y-129607142D01*
X52165476Y-127285714D02*
X52165476Y-127952380D01*
X52403571Y-126904761D02*
X52641666Y-127619047D01*
X52022619Y-127619047D01*
X51641666Y-127952380D02*
X51641666Y-126952380D01*
X51546428Y-127571428D02*
X51260714Y-127952380D01*
X51260714Y-127285714D02*
X51641666Y-127666666D01*
X50927380Y-126952380D02*
X50260714Y-126952380D01*
X50689285Y-127952380D01*
X56619047Y-139452380D02*
X56952380Y-138976190D01*
X57190476Y-139452380D02*
X57190476Y-138452380D01*
X56809523Y-138452380D01*
X56714285Y-138500000D01*
X56666666Y-138547619D01*
X56619047Y-138642857D01*
X56619047Y-138785714D01*
X56666666Y-138880952D01*
X56714285Y-138928571D01*
X56809523Y-138976190D01*
X57190476Y-138976190D01*
X55666666Y-139452380D02*
X56238095Y-139452380D01*
X55952380Y-139452380D02*
X55952380Y-138452380D01*
X56047619Y-138595238D01*
X56142857Y-138690476D01*
X56238095Y-138738095D01*
X55047619Y-138452380D02*
X54952380Y-138452380D01*
X54857142Y-138500000D01*
X54809523Y-138547619D01*
X54761904Y-138642857D01*
X54714285Y-138833333D01*
X54714285Y-139071428D01*
X54761904Y-139261904D01*
X54809523Y-139357142D01*
X54857142Y-139404761D01*
X54952380Y-139452380D01*
X55047619Y-139452380D01*
X55142857Y-139404761D01*
X55190476Y-139357142D01*
X55238095Y-139261904D01*
X55285714Y-139071428D01*
X55285714Y-138833333D01*
X55238095Y-138642857D01*
X55190476Y-138547619D01*
X55142857Y-138500000D01*
X55047619Y-138452380D01*
X53857142Y-138785714D02*
X53857142Y-139452380D01*
X54095238Y-138404761D02*
X54333333Y-139119047D01*
X53714285Y-139119047D01*
X52595238Y-137452380D02*
X53166666Y-137452380D01*
X52880952Y-137452380D02*
X52880952Y-136452380D01*
X52976190Y-136595238D01*
X53071428Y-136690476D01*
X53166666Y-136738095D01*
X52166666Y-137452380D02*
X52166666Y-136452380D01*
X52071428Y-137071428D02*
X51785714Y-137452380D01*
X51785714Y-136785714D02*
X52166666Y-137166666D01*
X50880952Y-136452380D02*
X51357142Y-136452380D01*
X51404761Y-136928571D01*
X51357142Y-136880952D01*
X51261904Y-136833333D01*
X51023809Y-136833333D01*
X50928571Y-136880952D01*
X50880952Y-136928571D01*
X50833333Y-137023809D01*
X50833333Y-137261904D01*
X50880952Y-137357142D01*
X50928571Y-137404761D01*
X51023809Y-137452380D01*
X51261904Y-137452380D01*
X51357142Y-137404761D01*
X51404761Y-137357142D01*
X56619047Y-141452380D02*
X56952380Y-140976190D01*
X57190476Y-141452380D02*
X57190476Y-140452380D01*
X56809523Y-140452380D01*
X56714285Y-140500000D01*
X56666666Y-140547619D01*
X56619047Y-140642857D01*
X56619047Y-140785714D01*
X56666666Y-140880952D01*
X56714285Y-140928571D01*
X56809523Y-140976190D01*
X57190476Y-140976190D01*
X55666666Y-141452380D02*
X56238095Y-141452380D01*
X55952380Y-141452380D02*
X55952380Y-140452380D01*
X56047619Y-140595238D01*
X56142857Y-140690476D01*
X56238095Y-140738095D01*
X55047619Y-140452380D02*
X54952380Y-140452380D01*
X54857142Y-140500000D01*
X54809523Y-140547619D01*
X54761904Y-140642857D01*
X54714285Y-140833333D01*
X54714285Y-141071428D01*
X54761904Y-141261904D01*
X54809523Y-141357142D01*
X54857142Y-141404761D01*
X54952380Y-141452380D01*
X55047619Y-141452380D01*
X55142857Y-141404761D01*
X55190476Y-141357142D01*
X55238095Y-141261904D01*
X55285714Y-141071428D01*
X55285714Y-140833333D01*
X55238095Y-140642857D01*
X55190476Y-140547619D01*
X55142857Y-140500000D01*
X55047619Y-140452380D01*
X53809523Y-140452380D02*
X54285714Y-140452380D01*
X54333333Y-140928571D01*
X54285714Y-140880952D01*
X54190476Y-140833333D01*
X53952380Y-140833333D01*
X53857142Y-140880952D01*
X53809523Y-140928571D01*
X53761904Y-141023809D01*
X53761904Y-141261904D01*
X53809523Y-141357142D01*
X53857142Y-141404761D01*
X53952380Y-141452380D01*
X54190476Y-141452380D01*
X54285714Y-141404761D01*
X54333333Y-141357142D01*
X52690476Y-142285714D02*
X52690476Y-142952380D01*
X52928571Y-141904761D02*
X53166666Y-142619047D01*
X52547619Y-142619047D01*
X52166666Y-142952380D02*
X52166666Y-141952380D01*
X52071428Y-142571428D02*
X51785714Y-142952380D01*
X51785714Y-142285714D02*
X52166666Y-142666666D01*
X51452380Y-141952380D02*
X50785714Y-141952380D01*
X51214285Y-142952380D01*
X126619047Y-57952380D02*
X126952380Y-57476190D01*
X127190476Y-57952380D02*
X127190476Y-56952380D01*
X126809523Y-56952380D01*
X126714285Y-57000000D01*
X126666666Y-57047619D01*
X126619047Y-57142857D01*
X126619047Y-57285714D01*
X126666666Y-57380952D01*
X126714285Y-57428571D01*
X126809523Y-57476190D01*
X127190476Y-57476190D01*
X126238095Y-57047619D02*
X126190476Y-57000000D01*
X126095238Y-56952380D01*
X125857142Y-56952380D01*
X125761904Y-57000000D01*
X125714285Y-57047619D01*
X125666666Y-57142857D01*
X125666666Y-57238095D01*
X125714285Y-57380952D01*
X126285714Y-57952380D01*
X125666666Y-57952380D01*
X125047619Y-56952380D02*
X124952380Y-56952380D01*
X124857142Y-57000000D01*
X124809523Y-57047619D01*
X124761904Y-57142857D01*
X124714285Y-57333333D01*
X124714285Y-57571428D01*
X124761904Y-57761904D01*
X124809523Y-57857142D01*
X124857142Y-57904761D01*
X124952380Y-57952380D01*
X125047619Y-57952380D01*
X125142857Y-57904761D01*
X125190476Y-57857142D01*
X125238095Y-57761904D01*
X125285714Y-57571428D01*
X125285714Y-57333333D01*
X125238095Y-57142857D01*
X125190476Y-57047619D01*
X125142857Y-57000000D01*
X125047619Y-56952380D01*
X123761904Y-57952380D02*
X124333333Y-57952380D01*
X124047619Y-57952380D02*
X124047619Y-56952380D01*
X124142857Y-57095238D01*
X124238095Y-57190476D01*
X124333333Y-57238095D01*
X126047619Y-61952380D02*
X125952380Y-61952380D01*
X125857142Y-62000000D01*
X125809523Y-62047619D01*
X125761904Y-62142857D01*
X125714285Y-62333333D01*
X125714285Y-62571428D01*
X125761904Y-62761904D01*
X125809523Y-62857142D01*
X125857142Y-62904761D01*
X125952380Y-62952380D01*
X126047619Y-62952380D01*
X126142857Y-62904761D01*
X126190476Y-62857142D01*
X126238095Y-62761904D01*
X126285714Y-62571428D01*
X126285714Y-62333333D01*
X126238095Y-62142857D01*
X126190476Y-62047619D01*
X126142857Y-62000000D01*
X126047619Y-61952380D01*
X124714285Y-62952380D02*
X125047619Y-62476190D01*
X125285714Y-62952380D02*
X125285714Y-61952380D01*
X124904761Y-61952380D01*
X124809523Y-62000000D01*
X124761904Y-62047619D01*
X124714285Y-62142857D01*
X124714285Y-62285714D01*
X124761904Y-62380952D01*
X124809523Y-62428571D01*
X124904761Y-62476190D01*
X125285714Y-62476190D01*
X142952380Y-56880952D02*
X142476190Y-56547619D01*
X142952380Y-56309523D02*
X141952380Y-56309523D01*
X141952380Y-56690476D01*
X142000000Y-56785714D01*
X142047619Y-56833333D01*
X142142857Y-56880952D01*
X142285714Y-56880952D01*
X142380952Y-56833333D01*
X142428571Y-56785714D01*
X142476190Y-56690476D01*
X142476190Y-56309523D01*
X142047619Y-57261904D02*
X142000000Y-57309523D01*
X141952380Y-57404761D01*
X141952380Y-57642857D01*
X142000000Y-57738095D01*
X142047619Y-57785714D01*
X142142857Y-57833333D01*
X142238095Y-57833333D01*
X142380952Y-57785714D01*
X142952380Y-57214285D01*
X142952380Y-57833333D01*
X141952380Y-58452380D02*
X141952380Y-58547619D01*
X142000000Y-58642857D01*
X142047619Y-58690476D01*
X142142857Y-58738095D01*
X142333333Y-58785714D01*
X142571428Y-58785714D01*
X142761904Y-58738095D01*
X142857142Y-58690476D01*
X142904761Y-58642857D01*
X142952380Y-58547619D01*
X142952380Y-58452380D01*
X142904761Y-58357142D01*
X142857142Y-58309523D01*
X142761904Y-58261904D01*
X142571428Y-58214285D01*
X142333333Y-58214285D01*
X142142857Y-58261904D01*
X142047619Y-58309523D01*
X142000000Y-58357142D01*
X141952380Y-58452380D01*
X141952380Y-59119047D02*
X141952380Y-59738095D01*
X142333333Y-59404761D01*
X142333333Y-59547619D01*
X142380952Y-59642857D01*
X142428571Y-59690476D01*
X142523809Y-59738095D01*
X142761904Y-59738095D01*
X142857142Y-59690476D01*
X142904761Y-59642857D01*
X142952380Y-59547619D01*
X142952380Y-59261904D01*
X142904761Y-59166666D01*
X142857142Y-59119047D01*
X143952380Y-65523809D02*
X143952380Y-64952380D01*
X143952380Y-65238095D02*
X142952380Y-65238095D01*
X143095238Y-65142857D01*
X143190476Y-65047619D01*
X143238095Y-64952380D01*
X142952380Y-66142857D02*
X142952380Y-66238095D01*
X143000000Y-66333333D01*
X143047619Y-66380952D01*
X143142857Y-66428571D01*
X143333333Y-66476190D01*
X143571428Y-66476190D01*
X143761904Y-66428571D01*
X143857142Y-66380952D01*
X143904761Y-66333333D01*
X143952380Y-66238095D01*
X143952380Y-66142857D01*
X143904761Y-66047619D01*
X143857142Y-66000000D01*
X143761904Y-65952380D01*
X143571428Y-65904761D01*
X143333333Y-65904761D01*
X143142857Y-65952380D01*
X143047619Y-66000000D01*
X143000000Y-66047619D01*
X142952380Y-66142857D01*
X142952380Y-67095238D02*
X142952380Y-67190476D01*
X143000000Y-67285714D01*
X143047619Y-67333333D01*
X143142857Y-67380952D01*
X143333333Y-67428571D01*
X143571428Y-67428571D01*
X143761904Y-67380952D01*
X143857142Y-67333333D01*
X143904761Y-67285714D01*
X143952380Y-67190476D01*
X143952380Y-67095238D01*
X143904761Y-67000000D01*
X143857142Y-66952380D01*
X143761904Y-66904761D01*
X143571428Y-66857142D01*
X143333333Y-66857142D01*
X143142857Y-66904761D01*
X143047619Y-66952380D01*
X143000000Y-67000000D01*
X142952380Y-67095238D01*
X143952380Y-67857142D02*
X143285714Y-67857142D01*
X143476190Y-67857142D02*
X143380952Y-67904761D01*
X143333333Y-67952380D01*
X143285714Y-68047619D01*
X143285714Y-68142857D01*
X131452380Y-100380952D02*
X130976190Y-100047619D01*
X131452380Y-99809523D02*
X130452380Y-99809523D01*
X130452380Y-100190476D01*
X130500000Y-100285714D01*
X130547619Y-100333333D01*
X130642857Y-100380952D01*
X130785714Y-100380952D01*
X130880952Y-100333333D01*
X130928571Y-100285714D01*
X130976190Y-100190476D01*
X130976190Y-99809523D01*
X130547619Y-100761904D02*
X130500000Y-100809523D01*
X130452380Y-100904761D01*
X130452380Y-101142857D01*
X130500000Y-101238095D01*
X130547619Y-101285714D01*
X130642857Y-101333333D01*
X130738095Y-101333333D01*
X130880952Y-101285714D01*
X131452380Y-100714285D01*
X131452380Y-101333333D01*
X130452380Y-101952380D02*
X130452380Y-102047619D01*
X130500000Y-102142857D01*
X130547619Y-102190476D01*
X130642857Y-102238095D01*
X130833333Y-102285714D01*
X131071428Y-102285714D01*
X131261904Y-102238095D01*
X131357142Y-102190476D01*
X131404761Y-102142857D01*
X131452380Y-102047619D01*
X131452380Y-101952380D01*
X131404761Y-101857142D01*
X131357142Y-101809523D01*
X131261904Y-101761904D01*
X131071428Y-101714285D01*
X130833333Y-101714285D01*
X130642857Y-101761904D01*
X130547619Y-101809523D01*
X130500000Y-101857142D01*
X130452380Y-101952380D01*
X130785714Y-103142857D02*
X131452380Y-103142857D01*
X130404761Y-102904761D02*
X131119047Y-102666666D01*
X131119047Y-103285714D01*
X132285714Y-100333333D02*
X132952380Y-100333333D01*
X131904761Y-100095238D02*
X132619047Y-99857142D01*
X132619047Y-100476190D01*
X132952380Y-100857142D02*
X131952380Y-100857142D01*
X132571428Y-100952380D02*
X132952380Y-101238095D01*
X132285714Y-101238095D02*
X132666666Y-100857142D01*
X131952380Y-101571428D02*
X131952380Y-102238095D01*
X132952380Y-101809523D01*
X131952380Y-102809523D02*
X131952380Y-102904761D01*
X132000000Y-103000000D01*
X132047619Y-103047619D01*
X132142857Y-103095238D01*
X132333333Y-103142857D01*
X132571428Y-103142857D01*
X132761904Y-103095238D01*
X132857142Y-103047619D01*
X132904761Y-103000000D01*
X132952380Y-102904761D01*
X132952380Y-102809523D01*
X132904761Y-102714285D01*
X132857142Y-102666666D01*
X132761904Y-102619047D01*
X132571428Y-102571428D01*
X132333333Y-102571428D01*
X132142857Y-102619047D01*
X132047619Y-102666666D01*
X132000000Y-102714285D01*
X131952380Y-102809523D01*
X143119047Y-87802380D02*
X143452380Y-87326190D01*
X143690476Y-87802380D02*
X143690476Y-86802380D01*
X143309523Y-86802380D01*
X143214285Y-86850000D01*
X143166666Y-86897619D01*
X143119047Y-86992857D01*
X143119047Y-87135714D01*
X143166666Y-87230952D01*
X143214285Y-87278571D01*
X143309523Y-87326190D01*
X143690476Y-87326190D01*
X142738095Y-86897619D02*
X142690476Y-86850000D01*
X142595238Y-86802380D01*
X142357142Y-86802380D01*
X142261904Y-86850000D01*
X142214285Y-86897619D01*
X142166666Y-86992857D01*
X142166666Y-87088095D01*
X142214285Y-87230952D01*
X142785714Y-87802380D01*
X142166666Y-87802380D01*
X141547619Y-86802380D02*
X141452380Y-86802380D01*
X141357142Y-86850000D01*
X141309523Y-86897619D01*
X141261904Y-86992857D01*
X141214285Y-87183333D01*
X141214285Y-87421428D01*
X141261904Y-87611904D01*
X141309523Y-87707142D01*
X141357142Y-87754761D01*
X141452380Y-87802380D01*
X141547619Y-87802380D01*
X141642857Y-87754761D01*
X141690476Y-87707142D01*
X141738095Y-87611904D01*
X141785714Y-87421428D01*
X141785714Y-87183333D01*
X141738095Y-86992857D01*
X141690476Y-86897619D01*
X141642857Y-86850000D01*
X141547619Y-86802380D01*
X140357142Y-86802380D02*
X140547619Y-86802380D01*
X140642857Y-86850000D01*
X140690476Y-86897619D01*
X140785714Y-87040476D01*
X140833333Y-87230952D01*
X140833333Y-87611904D01*
X140785714Y-87707142D01*
X140738095Y-87754761D01*
X140642857Y-87802380D01*
X140452380Y-87802380D01*
X140357142Y-87754761D01*
X140309523Y-87707142D01*
X140261904Y-87611904D01*
X140261904Y-87373809D01*
X140309523Y-87278571D01*
X140357142Y-87230952D01*
X140452380Y-87183333D01*
X140642857Y-87183333D01*
X140738095Y-87230952D01*
X140785714Y-87278571D01*
X140833333Y-87373809D01*
X143595238Y-85452380D02*
X142976190Y-85452380D01*
X143309523Y-85833333D01*
X143166666Y-85833333D01*
X143071428Y-85880952D01*
X143023809Y-85928571D01*
X142976190Y-86023809D01*
X142976190Y-86261904D01*
X143023809Y-86357142D01*
X143071428Y-86404761D01*
X143166666Y-86452380D01*
X143452380Y-86452380D01*
X143547619Y-86404761D01*
X143595238Y-86357142D01*
X142642857Y-85452380D02*
X142023809Y-85452380D01*
X142357142Y-85833333D01*
X142214285Y-85833333D01*
X142119047Y-85880952D01*
X142071428Y-85928571D01*
X142023809Y-86023809D01*
X142023809Y-86261904D01*
X142071428Y-86357142D01*
X142119047Y-86404761D01*
X142214285Y-86452380D01*
X142500000Y-86452380D01*
X142595238Y-86404761D01*
X142642857Y-86357142D01*
X141404761Y-85452380D02*
X141309523Y-85452380D01*
X141214285Y-85500000D01*
X141166666Y-85547619D01*
X141119047Y-85642857D01*
X141071428Y-85833333D01*
X141071428Y-86071428D01*
X141119047Y-86261904D01*
X141166666Y-86357142D01*
X141214285Y-86404761D01*
X141309523Y-86452380D01*
X141404761Y-86452380D01*
X141500000Y-86404761D01*
X141547619Y-86357142D01*
X141595238Y-86261904D01*
X141642857Y-86071428D01*
X141642857Y-85833333D01*
X141595238Y-85642857D01*
X141547619Y-85547619D01*
X141500000Y-85500000D01*
X141404761Y-85452380D01*
X140642857Y-86452380D02*
X140642857Y-85785714D01*
X140642857Y-85976190D02*
X140595238Y-85880952D01*
X140547619Y-85833333D01*
X140452380Y-85785714D01*
X140357142Y-85785714D01*
X131452380Y-87380952D02*
X130976190Y-87047619D01*
X131452380Y-86809523D02*
X130452380Y-86809523D01*
X130452380Y-87190476D01*
X130500000Y-87285714D01*
X130547619Y-87333333D01*
X130642857Y-87380952D01*
X130785714Y-87380952D01*
X130880952Y-87333333D01*
X130928571Y-87285714D01*
X130976190Y-87190476D01*
X130976190Y-86809523D01*
X130547619Y-87761904D02*
X130500000Y-87809523D01*
X130452380Y-87904761D01*
X130452380Y-88142857D01*
X130500000Y-88238095D01*
X130547619Y-88285714D01*
X130642857Y-88333333D01*
X130738095Y-88333333D01*
X130880952Y-88285714D01*
X131452380Y-87714285D01*
X131452380Y-88333333D01*
X130452380Y-88952380D02*
X130452380Y-89047619D01*
X130500000Y-89142857D01*
X130547619Y-89190476D01*
X130642857Y-89238095D01*
X130833333Y-89285714D01*
X131071428Y-89285714D01*
X131261904Y-89238095D01*
X131357142Y-89190476D01*
X131404761Y-89142857D01*
X131452380Y-89047619D01*
X131452380Y-88952380D01*
X131404761Y-88857142D01*
X131357142Y-88809523D01*
X131261904Y-88761904D01*
X131071428Y-88714285D01*
X130833333Y-88714285D01*
X130642857Y-88761904D01*
X130547619Y-88809523D01*
X130500000Y-88857142D01*
X130452380Y-88952380D01*
X130452380Y-89619047D02*
X130452380Y-90285714D01*
X131452380Y-89857142D01*
X132285714Y-87333333D02*
X132952380Y-87333333D01*
X131904761Y-87095238D02*
X132619047Y-86857142D01*
X132619047Y-87476190D01*
X132952380Y-87857142D02*
X131952380Y-87857142D01*
X132571428Y-87952380D02*
X132952380Y-88238095D01*
X132285714Y-88238095D02*
X132666666Y-87857142D01*
X131952380Y-88571428D02*
X131952380Y-89238095D01*
X132952380Y-88809523D01*
X131952380Y-89809523D02*
X131952380Y-89904761D01*
X132000000Y-90000000D01*
X132047619Y-90047619D01*
X132142857Y-90095238D01*
X132333333Y-90142857D01*
X132571428Y-90142857D01*
X132761904Y-90095238D01*
X132857142Y-90047619D01*
X132904761Y-90000000D01*
X132952380Y-89904761D01*
X132952380Y-89809523D01*
X132904761Y-89714285D01*
X132857142Y-89666666D01*
X132761904Y-89619047D01*
X132571428Y-89571428D01*
X132333333Y-89571428D01*
X132142857Y-89619047D01*
X132047619Y-89666666D01*
X132000000Y-89714285D01*
X131952380Y-89809523D01*
X65094047Y-129702380D02*
X65427380Y-129226190D01*
X65665476Y-129702380D02*
X65665476Y-128702380D01*
X65284523Y-128702380D01*
X65189285Y-128750000D01*
X65141666Y-128797619D01*
X65094047Y-128892857D01*
X65094047Y-129035714D01*
X65141666Y-129130952D01*
X65189285Y-129178571D01*
X65284523Y-129226190D01*
X65665476Y-129226190D01*
X64713095Y-128797619D02*
X64665476Y-128750000D01*
X64570238Y-128702380D01*
X64332142Y-128702380D01*
X64236904Y-128750000D01*
X64189285Y-128797619D01*
X64141666Y-128892857D01*
X64141666Y-128988095D01*
X64189285Y-129130952D01*
X64760714Y-129702380D01*
X64141666Y-129702380D01*
X63189285Y-129702380D02*
X63760714Y-129702380D01*
X63475000Y-129702380D02*
X63475000Y-128702380D01*
X63570238Y-128845238D01*
X63665476Y-128940476D01*
X63760714Y-128988095D01*
X62284523Y-128702380D02*
X62760714Y-128702380D01*
X62808333Y-129178571D01*
X62760714Y-129130952D01*
X62665476Y-129083333D01*
X62427380Y-129083333D01*
X62332142Y-129130952D01*
X62284523Y-129178571D01*
X62236904Y-129273809D01*
X62236904Y-129511904D01*
X62284523Y-129607142D01*
X62332142Y-129654761D01*
X62427380Y-129702380D01*
X62665476Y-129702380D01*
X62760714Y-129654761D01*
X62808333Y-129607142D01*
X67094047Y-127952380D02*
X67665476Y-127952380D01*
X67379761Y-127952380D02*
X67379761Y-126952380D01*
X67475000Y-127095238D01*
X67570238Y-127190476D01*
X67665476Y-127238095D01*
X66665476Y-127952380D02*
X66665476Y-126952380D01*
X66570238Y-127571428D02*
X66284523Y-127952380D01*
X66284523Y-127285714D02*
X66665476Y-127666666D01*
X65119047Y-141452380D02*
X65452380Y-140976190D01*
X65690476Y-141452380D02*
X65690476Y-140452380D01*
X65309523Y-140452380D01*
X65214285Y-140500000D01*
X65166666Y-140547619D01*
X65119047Y-140642857D01*
X65119047Y-140785714D01*
X65166666Y-140880952D01*
X65214285Y-140928571D01*
X65309523Y-140976190D01*
X65690476Y-140976190D01*
X64738095Y-140547619D02*
X64690476Y-140500000D01*
X64595238Y-140452380D01*
X64357142Y-140452380D01*
X64261904Y-140500000D01*
X64214285Y-140547619D01*
X64166666Y-140642857D01*
X64166666Y-140738095D01*
X64214285Y-140880952D01*
X64785714Y-141452380D01*
X64166666Y-141452380D01*
X63214285Y-141452380D02*
X63785714Y-141452380D01*
X63500000Y-141452380D02*
X63500000Y-140452380D01*
X63595238Y-140595238D01*
X63690476Y-140690476D01*
X63785714Y-140738095D01*
X62357142Y-140452380D02*
X62547619Y-140452380D01*
X62642857Y-140500000D01*
X62690476Y-140547619D01*
X62785714Y-140690476D01*
X62833333Y-140880952D01*
X62833333Y-141261904D01*
X62785714Y-141357142D01*
X62738095Y-141404761D01*
X62642857Y-141452380D01*
X62452380Y-141452380D01*
X62357142Y-141404761D01*
X62309523Y-141357142D01*
X62261904Y-141261904D01*
X62261904Y-141023809D01*
X62309523Y-140928571D01*
X62357142Y-140880952D01*
X62452380Y-140833333D01*
X62642857Y-140833333D01*
X62738095Y-140880952D01*
X62785714Y-140928571D01*
X62833333Y-141023809D01*
X67119047Y-143202380D02*
X67690476Y-143202380D01*
X67404761Y-143202380D02*
X67404761Y-142202380D01*
X67500000Y-142345238D01*
X67595238Y-142440476D01*
X67690476Y-142488095D01*
X66690476Y-143202380D02*
X66690476Y-142202380D01*
X66595238Y-142821428D02*
X66309523Y-143202380D01*
X66309523Y-142535714D02*
X66690476Y-142916666D01*
X138119047Y-125952380D02*
X138452380Y-125476190D01*
X138690476Y-125952380D02*
X138690476Y-124952380D01*
X138309523Y-124952380D01*
X138214285Y-125000000D01*
X138166666Y-125047619D01*
X138119047Y-125142857D01*
X138119047Y-125285714D01*
X138166666Y-125380952D01*
X138214285Y-125428571D01*
X138309523Y-125476190D01*
X138690476Y-125476190D01*
X137738095Y-125047619D02*
X137690476Y-125000000D01*
X137595238Y-124952380D01*
X137357142Y-124952380D01*
X137261904Y-125000000D01*
X137214285Y-125047619D01*
X137166666Y-125142857D01*
X137166666Y-125238095D01*
X137214285Y-125380952D01*
X137785714Y-125952380D01*
X137166666Y-125952380D01*
X136214285Y-125952380D02*
X136785714Y-125952380D01*
X136500000Y-125952380D02*
X136500000Y-124952380D01*
X136595238Y-125095238D01*
X136690476Y-125190476D01*
X136785714Y-125238095D01*
X135880952Y-124952380D02*
X135214285Y-124952380D01*
X135642857Y-125952380D01*
X138169047Y-128217381D02*
X138502380Y-127741191D01*
X138740476Y-128217381D02*
X138740476Y-127217381D01*
X138359523Y-127217381D01*
X138264285Y-127265001D01*
X138216666Y-127312620D01*
X138169047Y-127407858D01*
X138169047Y-127550715D01*
X138216666Y-127645953D01*
X138264285Y-127693572D01*
X138359523Y-127741191D01*
X138740476Y-127741191D01*
X137788095Y-127312620D02*
X137740476Y-127265001D01*
X137645238Y-127217381D01*
X137407142Y-127217381D01*
X137311904Y-127265001D01*
X137264285Y-127312620D01*
X137216666Y-127407858D01*
X137216666Y-127503096D01*
X137264285Y-127645953D01*
X137835714Y-128217381D01*
X137216666Y-128217381D01*
X136264285Y-128217381D02*
X136835714Y-128217381D01*
X136550000Y-128217381D02*
X136550000Y-127217381D01*
X136645238Y-127360239D01*
X136740476Y-127455477D01*
X136835714Y-127503096D01*
X135692857Y-127645953D02*
X135788095Y-127598334D01*
X135835714Y-127550715D01*
X135883333Y-127455477D01*
X135883333Y-127407858D01*
X135835714Y-127312620D01*
X135788095Y-127265001D01*
X135692857Y-127217381D01*
X135502380Y-127217381D01*
X135407142Y-127265001D01*
X135359523Y-127312620D01*
X135311904Y-127407858D01*
X135311904Y-127455477D01*
X135359523Y-127550715D01*
X135407142Y-127598334D01*
X135502380Y-127645953D01*
X135692857Y-127645953D01*
X135788095Y-127693572D01*
X135835714Y-127741191D01*
X135883333Y-127836429D01*
X135883333Y-128026905D01*
X135835714Y-128122143D01*
X135788095Y-128169762D01*
X135692857Y-128217381D01*
X135502380Y-128217381D01*
X135407142Y-128169762D01*
X135359523Y-128122143D01*
X135311904Y-128026905D01*
X135311904Y-127836429D01*
X135359523Y-127741191D01*
X135407142Y-127693572D01*
X135502380Y-127645953D01*
X138239047Y-130027381D02*
X138572380Y-129551191D01*
X138810476Y-130027381D02*
X138810476Y-129027381D01*
X138429523Y-129027381D01*
X138334285Y-129075001D01*
X138286666Y-129122620D01*
X138239047Y-129217858D01*
X138239047Y-129360715D01*
X138286666Y-129455953D01*
X138334285Y-129503572D01*
X138429523Y-129551191D01*
X138810476Y-129551191D01*
X137858095Y-129122620D02*
X137810476Y-129075001D01*
X137715238Y-129027381D01*
X137477142Y-129027381D01*
X137381904Y-129075001D01*
X137334285Y-129122620D01*
X137286666Y-129217858D01*
X137286666Y-129313096D01*
X137334285Y-129455953D01*
X137905714Y-130027381D01*
X137286666Y-130027381D01*
X136334285Y-130027381D02*
X136905714Y-130027381D01*
X136620000Y-130027381D02*
X136620000Y-129027381D01*
X136715238Y-129170239D01*
X136810476Y-129265477D01*
X136905714Y-129313096D01*
X135858095Y-130027381D02*
X135667619Y-130027381D01*
X135572380Y-129979762D01*
X135524761Y-129932143D01*
X135429523Y-129789286D01*
X135381904Y-129598810D01*
X135381904Y-129217858D01*
X135429523Y-129122620D01*
X135477142Y-129075001D01*
X135572380Y-129027381D01*
X135762857Y-129027381D01*
X135858095Y-129075001D01*
X135905714Y-129122620D01*
X135953333Y-129217858D01*
X135953333Y-129455953D01*
X135905714Y-129551191D01*
X135858095Y-129598810D01*
X135762857Y-129646429D01*
X135572380Y-129646429D01*
X135477142Y-129598810D01*
X135429523Y-129551191D01*
X135381904Y-129455953D01*
X138334048Y-131952380D02*
X138667381Y-131476190D01*
X138905477Y-131952380D02*
X138905477Y-130952380D01*
X138524524Y-130952380D01*
X138429286Y-131000000D01*
X138381667Y-131047619D01*
X138334048Y-131142857D01*
X138334048Y-131285714D01*
X138381667Y-131380952D01*
X138429286Y-131428571D01*
X138524524Y-131476190D01*
X138905477Y-131476190D01*
X137953096Y-131047619D02*
X137905477Y-131000000D01*
X137810239Y-130952380D01*
X137572143Y-130952380D01*
X137476905Y-131000000D01*
X137429286Y-131047619D01*
X137381667Y-131142857D01*
X137381667Y-131238095D01*
X137429286Y-131380952D01*
X138000715Y-131952380D01*
X137381667Y-131952380D01*
X137000715Y-131047619D02*
X136953096Y-131000000D01*
X136857858Y-130952380D01*
X136619762Y-130952380D01*
X136524524Y-131000000D01*
X136476905Y-131047619D01*
X136429286Y-131142857D01*
X136429286Y-131238095D01*
X136476905Y-131380952D01*
X137048334Y-131952380D01*
X136429286Y-131952380D01*
X135810239Y-130952380D02*
X135715001Y-130952380D01*
X135619762Y-131000000D01*
X135572143Y-131047619D01*
X135524524Y-131142857D01*
X135476905Y-131333333D01*
X135476905Y-131571428D01*
X135524524Y-131761904D01*
X135572143Y-131857142D01*
X135619762Y-131904761D01*
X135715001Y-131952380D01*
X135810239Y-131952380D01*
X135905477Y-131904761D01*
X135953096Y-131857142D01*
X136000715Y-131761904D01*
X136048334Y-131571428D01*
X136048334Y-131333333D01*
X136000715Y-131142857D01*
X135953096Y-131047619D01*
X135905477Y-131000000D01*
X135810239Y-130952380D01*
X96119047Y-91452380D02*
X96452380Y-90976190D01*
X96690476Y-91452380D02*
X96690476Y-90452380D01*
X96309523Y-90452380D01*
X96214285Y-90500000D01*
X96166666Y-90547619D01*
X96119047Y-90642857D01*
X96119047Y-90785714D01*
X96166666Y-90880952D01*
X96214285Y-90928571D01*
X96309523Y-90976190D01*
X96690476Y-90976190D01*
X95738095Y-90547619D02*
X95690476Y-90500000D01*
X95595238Y-90452380D01*
X95357142Y-90452380D01*
X95261904Y-90500000D01*
X95214285Y-90547619D01*
X95166666Y-90642857D01*
X95166666Y-90738095D01*
X95214285Y-90880952D01*
X95785714Y-91452380D01*
X95166666Y-91452380D01*
X94785714Y-90547619D02*
X94738095Y-90500000D01*
X94642857Y-90452380D01*
X94404761Y-90452380D01*
X94309523Y-90500000D01*
X94261904Y-90547619D01*
X94214285Y-90642857D01*
X94214285Y-90738095D01*
X94261904Y-90880952D01*
X94833333Y-91452380D01*
X94214285Y-91452380D01*
X93261904Y-91452380D02*
X93833333Y-91452380D01*
X93547619Y-91452380D02*
X93547619Y-90452380D01*
X93642857Y-90595238D01*
X93738095Y-90690476D01*
X93833333Y-90738095D01*
X96142857Y-93952380D02*
X96619047Y-93952380D01*
X96666666Y-94428571D01*
X96619047Y-94380952D01*
X96523809Y-94333333D01*
X96285714Y-94333333D01*
X96190476Y-94380952D01*
X96142857Y-94428571D01*
X96095238Y-94523809D01*
X96095238Y-94761904D01*
X96142857Y-94857142D01*
X96190476Y-94904761D01*
X96285714Y-94952380D01*
X96523809Y-94952380D01*
X96619047Y-94904761D01*
X96666666Y-94857142D01*
X95666666Y-94952380D02*
X95666666Y-93952380D01*
X95571428Y-94571428D02*
X95285714Y-94952380D01*
X95285714Y-94285714D02*
X95666666Y-94666666D01*
X94428571Y-93952380D02*
X94619047Y-93952380D01*
X94714285Y-94000000D01*
X94761904Y-94047619D01*
X94857142Y-94190476D01*
X94904761Y-94380952D01*
X94904761Y-94761904D01*
X94857142Y-94857142D01*
X94809523Y-94904761D01*
X94714285Y-94952380D01*
X94523809Y-94952380D01*
X94428571Y-94904761D01*
X94380952Y-94857142D01*
X94333333Y-94761904D01*
X94333333Y-94523809D01*
X94380952Y-94428571D01*
X94428571Y-94380952D01*
X94523809Y-94333333D01*
X94714285Y-94333333D01*
X94809523Y-94380952D01*
X94857142Y-94428571D01*
X94904761Y-94523809D01*
X92369047Y-91552380D02*
X92702380Y-91076190D01*
X92940476Y-91552380D02*
X92940476Y-90552380D01*
X92559523Y-90552380D01*
X92464285Y-90600000D01*
X92416666Y-90647619D01*
X92369047Y-90742857D01*
X92369047Y-90885714D01*
X92416666Y-90980952D01*
X92464285Y-91028571D01*
X92559523Y-91076190D01*
X92940476Y-91076190D01*
X91988095Y-90647619D02*
X91940476Y-90600000D01*
X91845238Y-90552380D01*
X91607142Y-90552380D01*
X91511904Y-90600000D01*
X91464285Y-90647619D01*
X91416666Y-90742857D01*
X91416666Y-90838095D01*
X91464285Y-90980952D01*
X92035714Y-91552380D01*
X91416666Y-91552380D01*
X91035714Y-90647619D02*
X90988095Y-90600000D01*
X90892857Y-90552380D01*
X90654761Y-90552380D01*
X90559523Y-90600000D01*
X90511904Y-90647619D01*
X90464285Y-90742857D01*
X90464285Y-90838095D01*
X90511904Y-90980952D01*
X91083333Y-91552380D01*
X90464285Y-91552380D01*
X90083333Y-90647619D02*
X90035714Y-90600000D01*
X89940476Y-90552380D01*
X89702380Y-90552380D01*
X89607142Y-90600000D01*
X89559523Y-90647619D01*
X89511904Y-90742857D01*
X89511904Y-90838095D01*
X89559523Y-90980952D01*
X90130952Y-91552380D01*
X89511904Y-91552380D01*
X92321428Y-94852380D02*
X92892857Y-94852380D01*
X92607142Y-94852380D02*
X92607142Y-93852380D01*
X92702380Y-93995238D01*
X92797619Y-94090476D01*
X92892857Y-94138095D01*
X91702380Y-93852380D02*
X91607142Y-93852380D01*
X91511904Y-93900000D01*
X91464285Y-93947619D01*
X91416666Y-94042857D01*
X91369047Y-94233333D01*
X91369047Y-94471428D01*
X91416666Y-94661904D01*
X91464285Y-94757142D01*
X91511904Y-94804761D01*
X91607142Y-94852380D01*
X91702380Y-94852380D01*
X91797619Y-94804761D01*
X91845238Y-94757142D01*
X91892857Y-94661904D01*
X91940476Y-94471428D01*
X91940476Y-94233333D01*
X91892857Y-94042857D01*
X91845238Y-93947619D01*
X91797619Y-93900000D01*
X91702380Y-93852380D01*
X90750000Y-93852380D02*
X90654761Y-93852380D01*
X90559523Y-93900000D01*
X90511904Y-93947619D01*
X90464285Y-94042857D01*
X90416666Y-94233333D01*
X90416666Y-94471428D01*
X90464285Y-94661904D01*
X90511904Y-94757142D01*
X90559523Y-94804761D01*
X90654761Y-94852380D01*
X90750000Y-94852380D01*
X90845238Y-94804761D01*
X90892857Y-94757142D01*
X90940476Y-94661904D01*
X90988095Y-94471428D01*
X90988095Y-94233333D01*
X90940476Y-94042857D01*
X90892857Y-93947619D01*
X90845238Y-93900000D01*
X90750000Y-93852380D01*
X89988095Y-94852380D02*
X89988095Y-93852380D01*
X89892857Y-94471428D02*
X89607142Y-94852380D01*
X89607142Y-94185714D02*
X89988095Y-94566666D01*
X108119047Y-91452380D02*
X108452380Y-90976190D01*
X108690476Y-91452380D02*
X108690476Y-90452380D01*
X108309523Y-90452380D01*
X108214285Y-90500000D01*
X108166666Y-90547619D01*
X108119047Y-90642857D01*
X108119047Y-90785714D01*
X108166666Y-90880952D01*
X108214285Y-90928571D01*
X108309523Y-90976190D01*
X108690476Y-90976190D01*
X107738095Y-90547619D02*
X107690476Y-90500000D01*
X107595238Y-90452380D01*
X107357142Y-90452380D01*
X107261904Y-90500000D01*
X107214285Y-90547619D01*
X107166666Y-90642857D01*
X107166666Y-90738095D01*
X107214285Y-90880952D01*
X107785714Y-91452380D01*
X107166666Y-91452380D01*
X106785714Y-90547619D02*
X106738095Y-90500000D01*
X106642857Y-90452380D01*
X106404761Y-90452380D01*
X106309523Y-90500000D01*
X106261904Y-90547619D01*
X106214285Y-90642857D01*
X106214285Y-90738095D01*
X106261904Y-90880952D01*
X106833333Y-91452380D01*
X106214285Y-91452380D01*
X105880952Y-90452380D02*
X105261904Y-90452380D01*
X105595238Y-90833333D01*
X105452380Y-90833333D01*
X105357142Y-90880952D01*
X105309523Y-90928571D01*
X105261904Y-91023809D01*
X105261904Y-91261904D01*
X105309523Y-91357142D01*
X105357142Y-91404761D01*
X105452380Y-91452380D01*
X105738095Y-91452380D01*
X105833333Y-91404761D01*
X105880952Y-91357142D01*
X108071428Y-94952380D02*
X108642857Y-94952380D01*
X108357142Y-94952380D02*
X108357142Y-93952380D01*
X108452380Y-94095238D01*
X108547619Y-94190476D01*
X108642857Y-94238095D01*
X107452380Y-93952380D02*
X107357142Y-93952380D01*
X107261904Y-94000000D01*
X107214285Y-94047619D01*
X107166666Y-94142857D01*
X107119047Y-94333333D01*
X107119047Y-94571428D01*
X107166666Y-94761904D01*
X107214285Y-94857142D01*
X107261904Y-94904761D01*
X107357142Y-94952380D01*
X107452380Y-94952380D01*
X107547619Y-94904761D01*
X107595238Y-94857142D01*
X107642857Y-94761904D01*
X107690476Y-94571428D01*
X107690476Y-94333333D01*
X107642857Y-94142857D01*
X107595238Y-94047619D01*
X107547619Y-94000000D01*
X107452380Y-93952380D01*
X106500000Y-93952380D02*
X106404761Y-93952380D01*
X106309523Y-94000000D01*
X106261904Y-94047619D01*
X106214285Y-94142857D01*
X106166666Y-94333333D01*
X106166666Y-94571428D01*
X106214285Y-94761904D01*
X106261904Y-94857142D01*
X106309523Y-94904761D01*
X106404761Y-94952380D01*
X106500000Y-94952380D01*
X106595238Y-94904761D01*
X106642857Y-94857142D01*
X106690476Y-94761904D01*
X106738095Y-94571428D01*
X106738095Y-94333333D01*
X106690476Y-94142857D01*
X106642857Y-94047619D01*
X106595238Y-94000000D01*
X106500000Y-93952380D01*
X105738095Y-94952380D02*
X105738095Y-93952380D01*
X105642857Y-94571428D02*
X105357142Y-94952380D01*
X105357142Y-94285714D02*
X105738095Y-94666666D01*
X112119047Y-91552380D02*
X112452380Y-91076190D01*
X112690476Y-91552380D02*
X112690476Y-90552380D01*
X112309523Y-90552380D01*
X112214285Y-90600000D01*
X112166666Y-90647619D01*
X112119047Y-90742857D01*
X112119047Y-90885714D01*
X112166666Y-90980952D01*
X112214285Y-91028571D01*
X112309523Y-91076190D01*
X112690476Y-91076190D01*
X111738095Y-90647619D02*
X111690476Y-90600000D01*
X111595238Y-90552380D01*
X111357142Y-90552380D01*
X111261904Y-90600000D01*
X111214285Y-90647619D01*
X111166666Y-90742857D01*
X111166666Y-90838095D01*
X111214285Y-90980952D01*
X111785714Y-91552380D01*
X111166666Y-91552380D01*
X110785714Y-90647619D02*
X110738095Y-90600000D01*
X110642857Y-90552380D01*
X110404761Y-90552380D01*
X110309523Y-90600000D01*
X110261904Y-90647619D01*
X110214285Y-90742857D01*
X110214285Y-90838095D01*
X110261904Y-90980952D01*
X110833333Y-91552380D01*
X110214285Y-91552380D01*
X109357142Y-90885714D02*
X109357142Y-91552380D01*
X109595238Y-90504761D02*
X109833333Y-91219047D01*
X109214285Y-91219047D01*
X111690476Y-94185714D02*
X111690476Y-94852380D01*
X111928571Y-93804761D02*
X112166666Y-94519047D01*
X111547619Y-94519047D01*
X111166666Y-94852380D02*
X111166666Y-93852380D01*
X111071428Y-94471428D02*
X110785714Y-94852380D01*
X110785714Y-94185714D02*
X111166666Y-94566666D01*
X110452380Y-93852380D02*
X109785714Y-93852380D01*
X110214285Y-94852380D01*
X138119047Y-141452380D02*
X138452380Y-140976190D01*
X138690476Y-141452380D02*
X138690476Y-140452380D01*
X138309523Y-140452380D01*
X138214285Y-140500000D01*
X138166666Y-140547619D01*
X138119047Y-140642857D01*
X138119047Y-140785714D01*
X138166666Y-140880952D01*
X138214285Y-140928571D01*
X138309523Y-140976190D01*
X138690476Y-140976190D01*
X137738095Y-140547619D02*
X137690476Y-140500000D01*
X137595238Y-140452380D01*
X137357142Y-140452380D01*
X137261904Y-140500000D01*
X137214285Y-140547619D01*
X137166666Y-140642857D01*
X137166666Y-140738095D01*
X137214285Y-140880952D01*
X137785714Y-141452380D01*
X137166666Y-141452380D01*
X136785714Y-140547619D02*
X136738095Y-140500000D01*
X136642857Y-140452380D01*
X136404761Y-140452380D01*
X136309523Y-140500000D01*
X136261904Y-140547619D01*
X136214285Y-140642857D01*
X136214285Y-140738095D01*
X136261904Y-140880952D01*
X136833333Y-141452380D01*
X136214285Y-141452380D01*
X135309523Y-140452380D02*
X135785714Y-140452380D01*
X135833333Y-140928571D01*
X135785714Y-140880952D01*
X135690476Y-140833333D01*
X135452380Y-140833333D01*
X135357142Y-140880952D01*
X135309523Y-140928571D01*
X135261904Y-141023809D01*
X135261904Y-141261904D01*
X135309523Y-141357142D01*
X135357142Y-141404761D01*
X135452380Y-141452380D01*
X135690476Y-141452380D01*
X135785714Y-141404761D01*
X135833333Y-141357142D01*
X138119047Y-145452380D02*
X138452380Y-144976190D01*
X138690476Y-145452380D02*
X138690476Y-144452380D01*
X138309523Y-144452380D01*
X138214285Y-144500000D01*
X138166666Y-144547619D01*
X138119047Y-144642857D01*
X138119047Y-144785714D01*
X138166666Y-144880952D01*
X138214285Y-144928571D01*
X138309523Y-144976190D01*
X138690476Y-144976190D01*
X137738095Y-144547619D02*
X137690476Y-144500000D01*
X137595238Y-144452380D01*
X137357142Y-144452380D01*
X137261904Y-144500000D01*
X137214285Y-144547619D01*
X137166666Y-144642857D01*
X137166666Y-144738095D01*
X137214285Y-144880952D01*
X137785714Y-145452380D01*
X137166666Y-145452380D01*
X136785714Y-144547619D02*
X136738095Y-144500000D01*
X136642857Y-144452380D01*
X136404761Y-144452380D01*
X136309523Y-144500000D01*
X136261904Y-144547619D01*
X136214285Y-144642857D01*
X136214285Y-144738095D01*
X136261904Y-144880952D01*
X136833333Y-145452380D01*
X136214285Y-145452380D01*
X135357142Y-144452380D02*
X135547619Y-144452380D01*
X135642857Y-144500000D01*
X135690476Y-144547619D01*
X135785714Y-144690476D01*
X135833333Y-144880952D01*
X135833333Y-145261904D01*
X135785714Y-145357142D01*
X135738095Y-145404761D01*
X135642857Y-145452380D01*
X135452380Y-145452380D01*
X135357142Y-145404761D01*
X135309523Y-145357142D01*
X135261904Y-145261904D01*
X135261904Y-145023809D01*
X135309523Y-144928571D01*
X135357142Y-144880952D01*
X135452380Y-144833333D01*
X135642857Y-144833333D01*
X135738095Y-144880952D01*
X135785714Y-144928571D01*
X135833333Y-145023809D01*
X138119047Y-147452380D02*
X138452380Y-146976190D01*
X138690476Y-147452380D02*
X138690476Y-146452380D01*
X138309523Y-146452380D01*
X138214285Y-146500000D01*
X138166666Y-146547619D01*
X138119047Y-146642857D01*
X138119047Y-146785714D01*
X138166666Y-146880952D01*
X138214285Y-146928571D01*
X138309523Y-146976190D01*
X138690476Y-146976190D01*
X137738095Y-146547619D02*
X137690476Y-146500000D01*
X137595238Y-146452380D01*
X137357142Y-146452380D01*
X137261904Y-146500000D01*
X137214285Y-146547619D01*
X137166666Y-146642857D01*
X137166666Y-146738095D01*
X137214285Y-146880952D01*
X137785714Y-147452380D01*
X137166666Y-147452380D01*
X136785714Y-146547619D02*
X136738095Y-146500000D01*
X136642857Y-146452380D01*
X136404761Y-146452380D01*
X136309523Y-146500000D01*
X136261904Y-146547619D01*
X136214285Y-146642857D01*
X136214285Y-146738095D01*
X136261904Y-146880952D01*
X136833333Y-147452380D01*
X136214285Y-147452380D01*
X135880952Y-146452380D02*
X135214285Y-146452380D01*
X135642857Y-147452380D01*
X138119047Y-143452380D02*
X138452380Y-142976190D01*
X138690476Y-143452380D02*
X138690476Y-142452380D01*
X138309523Y-142452380D01*
X138214285Y-142500000D01*
X138166666Y-142547619D01*
X138119047Y-142642857D01*
X138119047Y-142785714D01*
X138166666Y-142880952D01*
X138214285Y-142928571D01*
X138309523Y-142976190D01*
X138690476Y-142976190D01*
X137738095Y-142547619D02*
X137690476Y-142500000D01*
X137595238Y-142452380D01*
X137357142Y-142452380D01*
X137261904Y-142500000D01*
X137214285Y-142547619D01*
X137166666Y-142642857D01*
X137166666Y-142738095D01*
X137214285Y-142880952D01*
X137785714Y-143452380D01*
X137166666Y-143452380D01*
X136785714Y-142547619D02*
X136738095Y-142500000D01*
X136642857Y-142452380D01*
X136404761Y-142452380D01*
X136309523Y-142500000D01*
X136261904Y-142547619D01*
X136214285Y-142642857D01*
X136214285Y-142738095D01*
X136261904Y-142880952D01*
X136833333Y-143452380D01*
X136214285Y-143452380D01*
X135642857Y-142880952D02*
X135738095Y-142833333D01*
X135785714Y-142785714D01*
X135833333Y-142690476D01*
X135833333Y-142642857D01*
X135785714Y-142547619D01*
X135738095Y-142500000D01*
X135642857Y-142452380D01*
X135452380Y-142452380D01*
X135357142Y-142500000D01*
X135309523Y-142547619D01*
X135261904Y-142642857D01*
X135261904Y-142690476D01*
X135309523Y-142785714D01*
X135357142Y-142833333D01*
X135452380Y-142880952D01*
X135642857Y-142880952D01*
X135738095Y-142928571D01*
X135785714Y-142976190D01*
X135833333Y-143071428D01*
X135833333Y-143261904D01*
X135785714Y-143357142D01*
X135738095Y-143404761D01*
X135642857Y-143452380D01*
X135452380Y-143452380D01*
X135357142Y-143404761D01*
X135309523Y-143357142D01*
X135261904Y-143261904D01*
X135261904Y-143071428D01*
X135309523Y-142976190D01*
X135357142Y-142928571D01*
X135452380Y-142880952D01*
X138369047Y-112452380D02*
X138702380Y-111976190D01*
X138940476Y-112452380D02*
X138940476Y-111452380D01*
X138559523Y-111452380D01*
X138464285Y-111500000D01*
X138416666Y-111547619D01*
X138369047Y-111642857D01*
X138369047Y-111785714D01*
X138416666Y-111880952D01*
X138464285Y-111928571D01*
X138559523Y-111976190D01*
X138940476Y-111976190D01*
X137988095Y-111547619D02*
X137940476Y-111500000D01*
X137845238Y-111452380D01*
X137607142Y-111452380D01*
X137511904Y-111500000D01*
X137464285Y-111547619D01*
X137416666Y-111642857D01*
X137416666Y-111738095D01*
X137464285Y-111880952D01*
X138035714Y-112452380D01*
X137416666Y-112452380D01*
X137035714Y-111547619D02*
X136988095Y-111500000D01*
X136892857Y-111452380D01*
X136654761Y-111452380D01*
X136559523Y-111500000D01*
X136511904Y-111547619D01*
X136464285Y-111642857D01*
X136464285Y-111738095D01*
X136511904Y-111880952D01*
X137083333Y-112452380D01*
X136464285Y-112452380D01*
X135988095Y-112452380D02*
X135797619Y-112452380D01*
X135702380Y-112404761D01*
X135654761Y-112357142D01*
X135559523Y-112214285D01*
X135511904Y-112023809D01*
X135511904Y-111642857D01*
X135559523Y-111547619D01*
X135607142Y-111500000D01*
X135702380Y-111452380D01*
X135892857Y-111452380D01*
X135988095Y-111500000D01*
X136035714Y-111547619D01*
X136083333Y-111642857D01*
X136083333Y-111880952D01*
X136035714Y-111976190D01*
X135988095Y-112023809D01*
X135892857Y-112071428D01*
X135702380Y-112071428D01*
X135607142Y-112023809D01*
X135559523Y-111976190D01*
X135511904Y-111880952D01*
X138369047Y-110452380D02*
X138702380Y-109976190D01*
X138940476Y-110452380D02*
X138940476Y-109452380D01*
X138559523Y-109452380D01*
X138464285Y-109500000D01*
X138416666Y-109547619D01*
X138369047Y-109642857D01*
X138369047Y-109785714D01*
X138416666Y-109880952D01*
X138464285Y-109928571D01*
X138559523Y-109976190D01*
X138940476Y-109976190D01*
X137988095Y-109547619D02*
X137940476Y-109500000D01*
X137845238Y-109452380D01*
X137607142Y-109452380D01*
X137511904Y-109500000D01*
X137464285Y-109547619D01*
X137416666Y-109642857D01*
X137416666Y-109738095D01*
X137464285Y-109880952D01*
X138035714Y-110452380D01*
X137416666Y-110452380D01*
X137083333Y-109452380D02*
X136464285Y-109452380D01*
X136797619Y-109833333D01*
X136654761Y-109833333D01*
X136559523Y-109880952D01*
X136511904Y-109928571D01*
X136464285Y-110023809D01*
X136464285Y-110261904D01*
X136511904Y-110357142D01*
X136559523Y-110404761D01*
X136654761Y-110452380D01*
X136940476Y-110452380D01*
X137035714Y-110404761D01*
X137083333Y-110357142D01*
X135845238Y-109452380D02*
X135750000Y-109452380D01*
X135654761Y-109500000D01*
X135607142Y-109547619D01*
X135559523Y-109642857D01*
X135511904Y-109833333D01*
X135511904Y-110071428D01*
X135559523Y-110261904D01*
X135607142Y-110357142D01*
X135654761Y-110404761D01*
X135750000Y-110452380D01*
X135845238Y-110452380D01*
X135940476Y-110404761D01*
X135988095Y-110357142D01*
X136035714Y-110261904D01*
X136083333Y-110071428D01*
X136083333Y-109833333D01*
X136035714Y-109642857D01*
X135988095Y-109547619D01*
X135940476Y-109500000D01*
X135845238Y-109452380D01*
X138369047Y-114452380D02*
X138702380Y-113976190D01*
X138940476Y-114452380D02*
X138940476Y-113452380D01*
X138559523Y-113452380D01*
X138464285Y-113500000D01*
X138416666Y-113547619D01*
X138369047Y-113642857D01*
X138369047Y-113785714D01*
X138416666Y-113880952D01*
X138464285Y-113928571D01*
X138559523Y-113976190D01*
X138940476Y-113976190D01*
X137988095Y-113547619D02*
X137940476Y-113500000D01*
X137845238Y-113452380D01*
X137607142Y-113452380D01*
X137511904Y-113500000D01*
X137464285Y-113547619D01*
X137416666Y-113642857D01*
X137416666Y-113738095D01*
X137464285Y-113880952D01*
X138035714Y-114452380D01*
X137416666Y-114452380D01*
X137083333Y-113452380D02*
X136464285Y-113452380D01*
X136797619Y-113833333D01*
X136654761Y-113833333D01*
X136559523Y-113880952D01*
X136511904Y-113928571D01*
X136464285Y-114023809D01*
X136464285Y-114261904D01*
X136511904Y-114357142D01*
X136559523Y-114404761D01*
X136654761Y-114452380D01*
X136940476Y-114452380D01*
X137035714Y-114404761D01*
X137083333Y-114357142D01*
X135511904Y-114452380D02*
X136083333Y-114452380D01*
X135797619Y-114452380D02*
X135797619Y-113452380D01*
X135892857Y-113595238D01*
X135988095Y-113690476D01*
X136083333Y-113738095D01*
X138369047Y-116452380D02*
X138702380Y-115976190D01*
X138940476Y-116452380D02*
X138940476Y-115452380D01*
X138559523Y-115452380D01*
X138464285Y-115500000D01*
X138416666Y-115547619D01*
X138369047Y-115642857D01*
X138369047Y-115785714D01*
X138416666Y-115880952D01*
X138464285Y-115928571D01*
X138559523Y-115976190D01*
X138940476Y-115976190D01*
X137988095Y-115547619D02*
X137940476Y-115500000D01*
X137845238Y-115452380D01*
X137607142Y-115452380D01*
X137511904Y-115500000D01*
X137464285Y-115547619D01*
X137416666Y-115642857D01*
X137416666Y-115738095D01*
X137464285Y-115880952D01*
X138035714Y-116452380D01*
X137416666Y-116452380D01*
X137083333Y-115452380D02*
X136464285Y-115452380D01*
X136797619Y-115833333D01*
X136654761Y-115833333D01*
X136559523Y-115880952D01*
X136511904Y-115928571D01*
X136464285Y-116023809D01*
X136464285Y-116261904D01*
X136511904Y-116357142D01*
X136559523Y-116404761D01*
X136654761Y-116452380D01*
X136940476Y-116452380D01*
X137035714Y-116404761D01*
X137083333Y-116357142D01*
X136083333Y-115547619D02*
X136035714Y-115500000D01*
X135940476Y-115452380D01*
X135702380Y-115452380D01*
X135607142Y-115500000D01*
X135559523Y-115547619D01*
X135511904Y-115642857D01*
X135511904Y-115738095D01*
X135559523Y-115880952D01*
X136130952Y-116452380D01*
X135511904Y-116452380D01*
X64869047Y-131952380D02*
X65202380Y-131476190D01*
X65440476Y-131952380D02*
X65440476Y-130952380D01*
X65059523Y-130952380D01*
X64964285Y-131000000D01*
X64916666Y-131047619D01*
X64869047Y-131142857D01*
X64869047Y-131285714D01*
X64916666Y-131380952D01*
X64964285Y-131428571D01*
X65059523Y-131476190D01*
X65440476Y-131476190D01*
X64488095Y-131047619D02*
X64440476Y-131000000D01*
X64345238Y-130952380D01*
X64107142Y-130952380D01*
X64011904Y-131000000D01*
X63964285Y-131047619D01*
X63916666Y-131142857D01*
X63916666Y-131238095D01*
X63964285Y-131380952D01*
X64535714Y-131952380D01*
X63916666Y-131952380D01*
X63583333Y-130952380D02*
X62964285Y-130952380D01*
X63297619Y-131333333D01*
X63154761Y-131333333D01*
X63059523Y-131380952D01*
X63011904Y-131428571D01*
X62964285Y-131523809D01*
X62964285Y-131761904D01*
X63011904Y-131857142D01*
X63059523Y-131904761D01*
X63154761Y-131952380D01*
X63440476Y-131952380D01*
X63535714Y-131904761D01*
X63583333Y-131857142D01*
X62630952Y-130952380D02*
X62011904Y-130952380D01*
X62345238Y-131333333D01*
X62202380Y-131333333D01*
X62107142Y-131380952D01*
X62059523Y-131428571D01*
X62011904Y-131523809D01*
X62011904Y-131761904D01*
X62059523Y-131857142D01*
X62107142Y-131904761D01*
X62202380Y-131952380D01*
X62488095Y-131952380D01*
X62583333Y-131904761D01*
X62630952Y-131857142D01*
X66869047Y-133452380D02*
X67440476Y-133452380D01*
X67154761Y-133452380D02*
X67154761Y-132452380D01*
X67250000Y-132595238D01*
X67345238Y-132690476D01*
X67440476Y-132738095D01*
X66440476Y-133452380D02*
X66440476Y-132452380D01*
X66345238Y-133071428D02*
X66059523Y-133452380D01*
X66059523Y-132785714D02*
X66440476Y-133166666D01*
X104119047Y-91452380D02*
X104452380Y-90976190D01*
X104690476Y-91452380D02*
X104690476Y-90452380D01*
X104309523Y-90452380D01*
X104214285Y-90500000D01*
X104166666Y-90547619D01*
X104119047Y-90642857D01*
X104119047Y-90785714D01*
X104166666Y-90880952D01*
X104214285Y-90928571D01*
X104309523Y-90976190D01*
X104690476Y-90976190D01*
X103738095Y-90547619D02*
X103690476Y-90500000D01*
X103595238Y-90452380D01*
X103357142Y-90452380D01*
X103261904Y-90500000D01*
X103214285Y-90547619D01*
X103166666Y-90642857D01*
X103166666Y-90738095D01*
X103214285Y-90880952D01*
X103785714Y-91452380D01*
X103166666Y-91452380D01*
X102833333Y-90452380D02*
X102214285Y-90452380D01*
X102547619Y-90833333D01*
X102404761Y-90833333D01*
X102309523Y-90880952D01*
X102261904Y-90928571D01*
X102214285Y-91023809D01*
X102214285Y-91261904D01*
X102261904Y-91357142D01*
X102309523Y-91404761D01*
X102404761Y-91452380D01*
X102690476Y-91452380D01*
X102785714Y-91404761D01*
X102833333Y-91357142D01*
X101357142Y-90785714D02*
X101357142Y-91452380D01*
X101595238Y-90404761D02*
X101833333Y-91119047D01*
X101214285Y-91119047D01*
X104095238Y-94952380D02*
X104666666Y-94952380D01*
X104380952Y-94952380D02*
X104380952Y-93952380D01*
X104476190Y-94095238D01*
X104571428Y-94190476D01*
X104666666Y-94238095D01*
X103190476Y-93952380D02*
X103666666Y-93952380D01*
X103714285Y-94428571D01*
X103666666Y-94380952D01*
X103571428Y-94333333D01*
X103333333Y-94333333D01*
X103238095Y-94380952D01*
X103190476Y-94428571D01*
X103142857Y-94523809D01*
X103142857Y-94761904D01*
X103190476Y-94857142D01*
X103238095Y-94904761D01*
X103333333Y-94952380D01*
X103571428Y-94952380D01*
X103666666Y-94904761D01*
X103714285Y-94857142D01*
X102714285Y-94952380D02*
X102714285Y-93952380D01*
X102619047Y-94571428D02*
X102333333Y-94952380D01*
X102333333Y-94285714D02*
X102714285Y-94666666D01*
X100344047Y-91552380D02*
X100677380Y-91076190D01*
X100915476Y-91552380D02*
X100915476Y-90552380D01*
X100534523Y-90552380D01*
X100439285Y-90600000D01*
X100391666Y-90647619D01*
X100344047Y-90742857D01*
X100344047Y-90885714D01*
X100391666Y-90980952D01*
X100439285Y-91028571D01*
X100534523Y-91076190D01*
X100915476Y-91076190D01*
X99963095Y-90647619D02*
X99915476Y-90600000D01*
X99820238Y-90552380D01*
X99582142Y-90552380D01*
X99486904Y-90600000D01*
X99439285Y-90647619D01*
X99391666Y-90742857D01*
X99391666Y-90838095D01*
X99439285Y-90980952D01*
X100010714Y-91552380D01*
X99391666Y-91552380D01*
X99058333Y-90552380D02*
X98439285Y-90552380D01*
X98772619Y-90933333D01*
X98629761Y-90933333D01*
X98534523Y-90980952D01*
X98486904Y-91028571D01*
X98439285Y-91123809D01*
X98439285Y-91361904D01*
X98486904Y-91457142D01*
X98534523Y-91504761D01*
X98629761Y-91552380D01*
X98915476Y-91552380D01*
X99010714Y-91504761D01*
X99058333Y-91457142D01*
X97534523Y-90552380D02*
X98010714Y-90552380D01*
X98058333Y-91028571D01*
X98010714Y-90980952D01*
X97915476Y-90933333D01*
X97677380Y-90933333D01*
X97582142Y-90980952D01*
X97534523Y-91028571D01*
X97486904Y-91123809D01*
X97486904Y-91361904D01*
X97534523Y-91457142D01*
X97582142Y-91504761D01*
X97677380Y-91552380D01*
X97915476Y-91552380D01*
X98010714Y-91504761D01*
X98058333Y-91457142D01*
X100071428Y-94952380D02*
X100642857Y-94952380D01*
X100357142Y-94952380D02*
X100357142Y-93952380D01*
X100452380Y-94095238D01*
X100547619Y-94190476D01*
X100642857Y-94238095D01*
X99452380Y-93952380D02*
X99357142Y-93952380D01*
X99261904Y-94000000D01*
X99214285Y-94047619D01*
X99166666Y-94142857D01*
X99119047Y-94333333D01*
X99119047Y-94571428D01*
X99166666Y-94761904D01*
X99214285Y-94857142D01*
X99261904Y-94904761D01*
X99357142Y-94952380D01*
X99452380Y-94952380D01*
X99547619Y-94904761D01*
X99595238Y-94857142D01*
X99642857Y-94761904D01*
X99690476Y-94571428D01*
X99690476Y-94333333D01*
X99642857Y-94142857D01*
X99595238Y-94047619D01*
X99547619Y-94000000D01*
X99452380Y-93952380D01*
X98500000Y-93952380D02*
X98404761Y-93952380D01*
X98309523Y-94000000D01*
X98261904Y-94047619D01*
X98214285Y-94142857D01*
X98166666Y-94333333D01*
X98166666Y-94571428D01*
X98214285Y-94761904D01*
X98261904Y-94857142D01*
X98309523Y-94904761D01*
X98404761Y-94952380D01*
X98500000Y-94952380D01*
X98595238Y-94904761D01*
X98642857Y-94857142D01*
X98690476Y-94761904D01*
X98738095Y-94571428D01*
X98738095Y-94333333D01*
X98690476Y-94142857D01*
X98642857Y-94047619D01*
X98595238Y-94000000D01*
X98500000Y-93952380D01*
X97738095Y-94952380D02*
X97738095Y-93952380D01*
X97642857Y-94571428D02*
X97357142Y-94952380D01*
X97357142Y-94285714D02*
X97738095Y-94666666D01*
X56877380Y-94202380D02*
X56401190Y-93869047D01*
X56877380Y-93630952D02*
X55877380Y-93630952D01*
X55877380Y-94011904D01*
X55925000Y-94107142D01*
X55972619Y-94154761D01*
X56067857Y-94202380D01*
X56210714Y-94202380D01*
X56305952Y-94154761D01*
X56353571Y-94107142D01*
X56401190Y-94011904D01*
X56401190Y-93630952D01*
X55877380Y-94488095D02*
X56877380Y-94821428D01*
X55877380Y-95154761D01*
X56877380Y-96011904D02*
X56877380Y-95440476D01*
X56877380Y-95726190D02*
X55877380Y-95726190D01*
X56020238Y-95630952D01*
X56115476Y-95535714D01*
X56163095Y-95440476D01*
X55877380Y-96630952D02*
X55877380Y-96726190D01*
X55925000Y-96821428D01*
X55972619Y-96869047D01*
X56067857Y-96916666D01*
X56258333Y-96964285D01*
X56496428Y-96964285D01*
X56686904Y-96916666D01*
X56782142Y-96869047D01*
X56829761Y-96821428D01*
X56877380Y-96726190D01*
X56877380Y-96630952D01*
X56829761Y-96535714D01*
X56782142Y-96488095D01*
X56686904Y-96440476D01*
X56496428Y-96392857D01*
X56258333Y-96392857D01*
X56067857Y-96440476D01*
X55972619Y-96488095D01*
X55925000Y-96535714D01*
X55877380Y-96630952D01*
X56877380Y-97916666D02*
X56877380Y-97345238D01*
X56877380Y-97630952D02*
X55877380Y-97630952D01*
X56020238Y-97535714D01*
X56115476Y-97440476D01*
X56163095Y-97345238D01*
X53952380Y-92214285D02*
X54952380Y-92547619D01*
X53952380Y-92880952D01*
X54952380Y-93642857D02*
X54428571Y-93642857D01*
X54333333Y-93595238D01*
X54285714Y-93500000D01*
X54285714Y-93309523D01*
X54333333Y-93214285D01*
X54904761Y-93642857D02*
X54952380Y-93547619D01*
X54952380Y-93309523D01*
X54904761Y-93214285D01*
X54809523Y-93166666D01*
X54714285Y-93166666D01*
X54619047Y-93214285D01*
X54571428Y-93309523D01*
X54571428Y-93547619D01*
X54523809Y-93642857D01*
X54952380Y-94119047D02*
X54285714Y-94119047D01*
X54476190Y-94119047D02*
X54380952Y-94166666D01*
X54333333Y-94214285D01*
X54285714Y-94309523D01*
X54285714Y-94404761D01*
X54952380Y-94738095D02*
X54285714Y-94738095D01*
X53952380Y-94738095D02*
X54000000Y-94690476D01*
X54047619Y-94738095D01*
X54000000Y-94785714D01*
X53952380Y-94738095D01*
X54047619Y-94738095D01*
X54904761Y-95166666D02*
X54952380Y-95261904D01*
X54952380Y-95452380D01*
X54904761Y-95547619D01*
X54809523Y-95595238D01*
X54761904Y-95595238D01*
X54666666Y-95547619D01*
X54619047Y-95452380D01*
X54619047Y-95309523D01*
X54571428Y-95214285D01*
X54476190Y-95166666D01*
X54428571Y-95166666D01*
X54333333Y-95214285D01*
X54285714Y-95309523D01*
X54285714Y-95452380D01*
X54333333Y-95547619D01*
X54285714Y-95880952D02*
X54285714Y-96261904D01*
X53952380Y-96023809D02*
X54809523Y-96023809D01*
X54904761Y-96071428D01*
X54952380Y-96166666D01*
X54952380Y-96261904D01*
X54952380Y-96738095D02*
X54904761Y-96642857D01*
X54857142Y-96595238D01*
X54761904Y-96547619D01*
X54476190Y-96547619D01*
X54380952Y-96595238D01*
X54333333Y-96642857D01*
X54285714Y-96738095D01*
X54285714Y-96880952D01*
X54333333Y-96976190D01*
X54380952Y-97023809D01*
X54476190Y-97071428D01*
X54761904Y-97071428D01*
X54857142Y-97023809D01*
X54904761Y-96976190D01*
X54952380Y-96880952D01*
X54952380Y-96738095D01*
X54952380Y-97500000D02*
X54285714Y-97500000D01*
X54476190Y-97500000D02*
X54380952Y-97547619D01*
X54333333Y-97595238D01*
X54285714Y-97690476D01*
X54285714Y-97785714D01*
X130652380Y-120214285D02*
X131366666Y-120214285D01*
X131509523Y-120166666D01*
X131604761Y-120071428D01*
X131652380Y-119928571D01*
X131652380Y-119833333D01*
X131652380Y-120690476D02*
X130652380Y-120690476D01*
X130652380Y-121071428D01*
X130700000Y-121166666D01*
X130747619Y-121214285D01*
X130842857Y-121261904D01*
X130985714Y-121261904D01*
X131080952Y-121214285D01*
X131128571Y-121166666D01*
X131176190Y-121071428D01*
X131176190Y-120690476D01*
X130747619Y-121642857D02*
X130700000Y-121690476D01*
X130652380Y-121785714D01*
X130652380Y-122023809D01*
X130700000Y-122119047D01*
X130747619Y-122166666D01*
X130842857Y-122214285D01*
X130938095Y-122214285D01*
X131080952Y-122166666D01*
X131652380Y-121595238D01*
X131652380Y-122214285D01*
X130652380Y-122833333D02*
X130652380Y-122928571D01*
X130700000Y-123023809D01*
X130747619Y-123071428D01*
X130842857Y-123119047D01*
X131033333Y-123166666D01*
X131271428Y-123166666D01*
X131461904Y-123119047D01*
X131557142Y-123071428D01*
X131604761Y-123023809D01*
X131652380Y-122928571D01*
X131652380Y-122833333D01*
X131604761Y-122738095D01*
X131557142Y-122690476D01*
X131461904Y-122642857D01*
X131271428Y-122595238D01*
X131033333Y-122595238D01*
X130842857Y-122642857D01*
X130747619Y-122690476D01*
X130700000Y-122738095D01*
X130652380Y-122833333D01*
X131652380Y-124119047D02*
X131652380Y-123547619D01*
X131652380Y-123833333D02*
X130652380Y-123833333D01*
X130795238Y-123738095D01*
X130890476Y-123642857D01*
X130938095Y-123547619D01*
X134452380Y-123166666D02*
X134452380Y-123785714D01*
X134833333Y-123452380D01*
X134833333Y-123595238D01*
X134880952Y-123690476D01*
X134928571Y-123738095D01*
X135023809Y-123785714D01*
X135261904Y-123785714D01*
X135357142Y-123738095D01*
X135404761Y-123690476D01*
X135452380Y-123595238D01*
X135452380Y-123309523D01*
X135404761Y-123214285D01*
X135357142Y-123166666D01*
X135452380Y-120785714D02*
X135452380Y-120214285D01*
X135452380Y-120500000D02*
X134452380Y-120500000D01*
X134595238Y-120404761D01*
X134690476Y-120309523D01*
X134738095Y-120214285D01*
X130652380Y-135714285D02*
X131366666Y-135714285D01*
X131509523Y-135666666D01*
X131604761Y-135571428D01*
X131652380Y-135428571D01*
X131652380Y-135333333D01*
X131652380Y-136190476D02*
X130652380Y-136190476D01*
X130652380Y-136571428D01*
X130700000Y-136666666D01*
X130747619Y-136714285D01*
X130842857Y-136761904D01*
X130985714Y-136761904D01*
X131080952Y-136714285D01*
X131128571Y-136666666D01*
X131176190Y-136571428D01*
X131176190Y-136190476D01*
X130747619Y-137142857D02*
X130700000Y-137190476D01*
X130652380Y-137285714D01*
X130652380Y-137523809D01*
X130700000Y-137619047D01*
X130747619Y-137666666D01*
X130842857Y-137714285D01*
X130938095Y-137714285D01*
X131080952Y-137666666D01*
X131652380Y-137095238D01*
X131652380Y-137714285D01*
X130652380Y-138333333D02*
X130652380Y-138428571D01*
X130700000Y-138523809D01*
X130747619Y-138571428D01*
X130842857Y-138619047D01*
X131033333Y-138666666D01*
X131271428Y-138666666D01*
X131461904Y-138619047D01*
X131557142Y-138571428D01*
X131604761Y-138523809D01*
X131652380Y-138428571D01*
X131652380Y-138333333D01*
X131604761Y-138238095D01*
X131557142Y-138190476D01*
X131461904Y-138142857D01*
X131271428Y-138095238D01*
X131033333Y-138095238D01*
X130842857Y-138142857D01*
X130747619Y-138190476D01*
X130700000Y-138238095D01*
X130652380Y-138333333D01*
X130747619Y-139047619D02*
X130700000Y-139095238D01*
X130652380Y-139190476D01*
X130652380Y-139428571D01*
X130700000Y-139523809D01*
X130747619Y-139571428D01*
X130842857Y-139619047D01*
X130938095Y-139619047D01*
X131080952Y-139571428D01*
X131652380Y-139000000D01*
X131652380Y-139619047D01*
X135452380Y-136285714D02*
X135452380Y-135714285D01*
X135452380Y-136000000D02*
X134452380Y-136000000D01*
X134595238Y-135904761D01*
X134690476Y-135809523D01*
X134738095Y-135714285D01*
X134452380Y-138666666D02*
X134452380Y-139285714D01*
X134833333Y-138952380D01*
X134833333Y-139095238D01*
X134880952Y-139190476D01*
X134928571Y-139238095D01*
X135023809Y-139285714D01*
X135261904Y-139285714D01*
X135357142Y-139238095D01*
X135404761Y-139190476D01*
X135452380Y-139095238D01*
X135452380Y-138809523D01*
X135404761Y-138714285D01*
X135357142Y-138666666D01*
X94047619Y-97202380D02*
X94000000Y-97107142D01*
X93904761Y-97011904D01*
X93761904Y-96869047D01*
X93714285Y-96773809D01*
X93714285Y-96678571D01*
X93952380Y-96726190D02*
X93904761Y-96630952D01*
X93809523Y-96535714D01*
X93619047Y-96488095D01*
X93285714Y-96488095D01*
X93095238Y-96535714D01*
X93000000Y-96630952D01*
X92952380Y-96726190D01*
X92952380Y-96916666D01*
X93000000Y-97011904D01*
X93095238Y-97107142D01*
X93285714Y-97154761D01*
X93619047Y-97154761D01*
X93809523Y-97107142D01*
X93904761Y-97011904D01*
X93952380Y-96916666D01*
X93952380Y-96726190D01*
X93047619Y-97535714D02*
X93000000Y-97583333D01*
X92952380Y-97678571D01*
X92952380Y-97916666D01*
X93000000Y-98011904D01*
X93047619Y-98059523D01*
X93142857Y-98107142D01*
X93238095Y-98107142D01*
X93380952Y-98059523D01*
X93952380Y-97488095D01*
X93952380Y-98107142D01*
X92952380Y-98726190D02*
X92952380Y-98821428D01*
X93000000Y-98916666D01*
X93047619Y-98964285D01*
X93142857Y-99011904D01*
X93333333Y-99059523D01*
X93571428Y-99059523D01*
X93761904Y-99011904D01*
X93857142Y-98964285D01*
X93904761Y-98916666D01*
X93952380Y-98821428D01*
X93952380Y-98726190D01*
X93904761Y-98630952D01*
X93857142Y-98583333D01*
X93761904Y-98535714D01*
X93571428Y-98488095D01*
X93333333Y-98488095D01*
X93142857Y-98535714D01*
X93047619Y-98583333D01*
X93000000Y-98630952D01*
X92952380Y-98726190D01*
X93285714Y-99916666D02*
X93952380Y-99916666D01*
X92904761Y-99678571D02*
X93619047Y-99440476D01*
X93619047Y-100059523D01*
X97119047Y-104452380D02*
X97119047Y-103452380D01*
X96785714Y-104166666D01*
X96452380Y-103452380D01*
X96452380Y-104452380D01*
X95976190Y-104452380D02*
X95976190Y-103452380D01*
X95642857Y-104166666D01*
X95309523Y-103452380D01*
X95309523Y-104452380D01*
X94500000Y-103928571D02*
X94357142Y-103976190D01*
X94309523Y-104023809D01*
X94261904Y-104119047D01*
X94261904Y-104261904D01*
X94309523Y-104357142D01*
X94357142Y-104404761D01*
X94452380Y-104452380D01*
X94833333Y-104452380D01*
X94833333Y-103452380D01*
X94500000Y-103452380D01*
X94404761Y-103500000D01*
X94357142Y-103547619D01*
X94309523Y-103642857D01*
X94309523Y-103738095D01*
X94357142Y-103833333D01*
X94404761Y-103880952D01*
X94500000Y-103928571D01*
X94833333Y-103928571D01*
X93976190Y-103452380D02*
X93404761Y-103452380D01*
X93690476Y-104452380D02*
X93690476Y-103452380D01*
X93119047Y-103547619D02*
X93071428Y-103500000D01*
X92976190Y-103452380D01*
X92738095Y-103452380D01*
X92642857Y-103500000D01*
X92595238Y-103547619D01*
X92547619Y-103642857D01*
X92547619Y-103738095D01*
X92595238Y-103880952D01*
X93166666Y-104452380D01*
X92547619Y-104452380D01*
X92071428Y-104452380D02*
X91880952Y-104452380D01*
X91785714Y-104404761D01*
X91738095Y-104357142D01*
X91642857Y-104214285D01*
X91595238Y-104023809D01*
X91595238Y-103642857D01*
X91642857Y-103547619D01*
X91690476Y-103500000D01*
X91785714Y-103452380D01*
X91976190Y-103452380D01*
X92071428Y-103500000D01*
X92119047Y-103547619D01*
X92166666Y-103642857D01*
X92166666Y-103880952D01*
X92119047Y-103976190D01*
X92071428Y-104023809D01*
X91976190Y-104071428D01*
X91785714Y-104071428D01*
X91690476Y-104023809D01*
X91642857Y-103976190D01*
X91595238Y-103880952D01*
X90976190Y-103452380D02*
X90880952Y-103452380D01*
X90785714Y-103500000D01*
X90738095Y-103547619D01*
X90690476Y-103642857D01*
X90642857Y-103833333D01*
X90642857Y-104071428D01*
X90690476Y-104261904D01*
X90738095Y-104357142D01*
X90785714Y-104404761D01*
X90880952Y-104452380D01*
X90976190Y-104452380D01*
X91071428Y-104404761D01*
X91119047Y-104357142D01*
X91166666Y-104261904D01*
X91214285Y-104071428D01*
X91214285Y-103833333D01*
X91166666Y-103642857D01*
X91119047Y-103547619D01*
X91071428Y-103500000D01*
X90976190Y-103452380D01*
X90309523Y-103452380D02*
X89642857Y-103452380D01*
X90071428Y-104452380D01*
X89309523Y-104166666D02*
X88833333Y-104166666D01*
X89404761Y-104452380D02*
X89071428Y-103452380D01*
X88738095Y-104452380D01*
X104047619Y-97202380D02*
X104000000Y-97107142D01*
X103904761Y-97011904D01*
X103761904Y-96869047D01*
X103714285Y-96773809D01*
X103714285Y-96678571D01*
X103952380Y-96726190D02*
X103904761Y-96630952D01*
X103809523Y-96535714D01*
X103619047Y-96488095D01*
X103285714Y-96488095D01*
X103095238Y-96535714D01*
X103000000Y-96630952D01*
X102952380Y-96726190D01*
X102952380Y-96916666D01*
X103000000Y-97011904D01*
X103095238Y-97107142D01*
X103285714Y-97154761D01*
X103619047Y-97154761D01*
X103809523Y-97107142D01*
X103904761Y-97011904D01*
X103952380Y-96916666D01*
X103952380Y-96726190D01*
X103047619Y-97535714D02*
X103000000Y-97583333D01*
X102952380Y-97678571D01*
X102952380Y-97916666D01*
X103000000Y-98011904D01*
X103047619Y-98059523D01*
X103142857Y-98107142D01*
X103238095Y-98107142D01*
X103380952Y-98059523D01*
X103952380Y-97488095D01*
X103952380Y-98107142D01*
X102952380Y-98726190D02*
X102952380Y-98821428D01*
X103000000Y-98916666D01*
X103047619Y-98964285D01*
X103142857Y-99011904D01*
X103333333Y-99059523D01*
X103571428Y-99059523D01*
X103761904Y-99011904D01*
X103857142Y-98964285D01*
X103904761Y-98916666D01*
X103952380Y-98821428D01*
X103952380Y-98726190D01*
X103904761Y-98630952D01*
X103857142Y-98583333D01*
X103761904Y-98535714D01*
X103571428Y-98488095D01*
X103333333Y-98488095D01*
X103142857Y-98535714D01*
X103047619Y-98583333D01*
X103000000Y-98630952D01*
X102952380Y-98726190D01*
X102952380Y-99964285D02*
X102952380Y-99488095D01*
X103428571Y-99440476D01*
X103380952Y-99488095D01*
X103333333Y-99583333D01*
X103333333Y-99821428D01*
X103380952Y-99916666D01*
X103428571Y-99964285D01*
X103523809Y-100011904D01*
X103761904Y-100011904D01*
X103857142Y-99964285D01*
X103904761Y-99916666D01*
X103952380Y-99821428D01*
X103952380Y-99583333D01*
X103904761Y-99488095D01*
X103857142Y-99440476D01*
X110119047Y-104452380D02*
X110119047Y-103452380D01*
X109785714Y-104166666D01*
X109452380Y-103452380D01*
X109452380Y-104452380D01*
X108976190Y-104452380D02*
X108976190Y-103452380D01*
X108642857Y-104166666D01*
X108309523Y-103452380D01*
X108309523Y-104452380D01*
X107500000Y-103928571D02*
X107357142Y-103976190D01*
X107309523Y-104023809D01*
X107261904Y-104119047D01*
X107261904Y-104261904D01*
X107309523Y-104357142D01*
X107357142Y-104404761D01*
X107452380Y-104452380D01*
X107833333Y-104452380D01*
X107833333Y-103452380D01*
X107500000Y-103452380D01*
X107404761Y-103500000D01*
X107357142Y-103547619D01*
X107309523Y-103642857D01*
X107309523Y-103738095D01*
X107357142Y-103833333D01*
X107404761Y-103880952D01*
X107500000Y-103928571D01*
X107833333Y-103928571D01*
X106976190Y-103452380D02*
X106404761Y-103452380D01*
X106690476Y-104452380D02*
X106690476Y-103452380D01*
X106119047Y-103547619D02*
X106071428Y-103500000D01*
X105976190Y-103452380D01*
X105738095Y-103452380D01*
X105642857Y-103500000D01*
X105595238Y-103547619D01*
X105547619Y-103642857D01*
X105547619Y-103738095D01*
X105595238Y-103880952D01*
X106166666Y-104452380D01*
X105547619Y-104452380D01*
X105166666Y-103547619D02*
X105119047Y-103500000D01*
X105023809Y-103452380D01*
X104785714Y-103452380D01*
X104690476Y-103500000D01*
X104642857Y-103547619D01*
X104595238Y-103642857D01*
X104595238Y-103738095D01*
X104642857Y-103880952D01*
X105214285Y-104452380D01*
X104595238Y-104452380D01*
X104214285Y-103547619D02*
X104166666Y-103500000D01*
X104071428Y-103452380D01*
X103833333Y-103452380D01*
X103738095Y-103500000D01*
X103690476Y-103547619D01*
X103642857Y-103642857D01*
X103642857Y-103738095D01*
X103690476Y-103880952D01*
X104261904Y-104452380D01*
X103642857Y-104452380D01*
X103261904Y-103547619D02*
X103214285Y-103500000D01*
X103119047Y-103452380D01*
X102880952Y-103452380D01*
X102785714Y-103500000D01*
X102738095Y-103547619D01*
X102690476Y-103642857D01*
X102690476Y-103738095D01*
X102738095Y-103880952D01*
X103309523Y-104452380D01*
X102690476Y-104452380D01*
X102309523Y-104166666D02*
X101833333Y-104166666D01*
X102404761Y-104452380D02*
X102071428Y-103452380D01*
X101738095Y-104452380D01*
X99047619Y-97202380D02*
X99000000Y-97107142D01*
X98904761Y-97011904D01*
X98761904Y-96869047D01*
X98714285Y-96773809D01*
X98714285Y-96678571D01*
X98952380Y-96726190D02*
X98904761Y-96630952D01*
X98809523Y-96535714D01*
X98619047Y-96488095D01*
X98285714Y-96488095D01*
X98095238Y-96535714D01*
X98000000Y-96630952D01*
X97952380Y-96726190D01*
X97952380Y-96916666D01*
X98000000Y-97011904D01*
X98095238Y-97107142D01*
X98285714Y-97154761D01*
X98619047Y-97154761D01*
X98809523Y-97107142D01*
X98904761Y-97011904D01*
X98952380Y-96916666D01*
X98952380Y-96726190D01*
X98047619Y-97535714D02*
X98000000Y-97583333D01*
X97952380Y-97678571D01*
X97952380Y-97916666D01*
X98000000Y-98011904D01*
X98047619Y-98059523D01*
X98142857Y-98107142D01*
X98238095Y-98107142D01*
X98380952Y-98059523D01*
X98952380Y-97488095D01*
X98952380Y-98107142D01*
X97952380Y-98726190D02*
X97952380Y-98821428D01*
X98000000Y-98916666D01*
X98047619Y-98964285D01*
X98142857Y-99011904D01*
X98333333Y-99059523D01*
X98571428Y-99059523D01*
X98761904Y-99011904D01*
X98857142Y-98964285D01*
X98904761Y-98916666D01*
X98952380Y-98821428D01*
X98952380Y-98726190D01*
X98904761Y-98630952D01*
X98857142Y-98583333D01*
X98761904Y-98535714D01*
X98571428Y-98488095D01*
X98333333Y-98488095D01*
X98142857Y-98535714D01*
X98047619Y-98583333D01*
X98000000Y-98630952D01*
X97952380Y-98726190D01*
X97952380Y-99916666D02*
X97952380Y-99726190D01*
X98000000Y-99630952D01*
X98047619Y-99583333D01*
X98190476Y-99488095D01*
X98380952Y-99440476D01*
X98761904Y-99440476D01*
X98857142Y-99488095D01*
X98904761Y-99535714D01*
X98952380Y-99630952D01*
X98952380Y-99821428D01*
X98904761Y-99916666D01*
X98857142Y-99964285D01*
X98761904Y-100011904D01*
X98523809Y-100011904D01*
X98428571Y-99964285D01*
X98380952Y-99916666D01*
X98333333Y-99821428D01*
X98333333Y-99630952D01*
X98380952Y-99535714D01*
X98428571Y-99488095D01*
X98523809Y-99440476D01*
X105119047Y-106452380D02*
X105119047Y-105452380D01*
X104785714Y-106166666D01*
X104452380Y-105452380D01*
X104452380Y-106452380D01*
X103976190Y-106452380D02*
X103976190Y-105452380D01*
X103642857Y-106166666D01*
X103309523Y-105452380D01*
X103309523Y-106452380D01*
X102500000Y-105928571D02*
X102357142Y-105976190D01*
X102309523Y-106023809D01*
X102261904Y-106119047D01*
X102261904Y-106261904D01*
X102309523Y-106357142D01*
X102357142Y-106404761D01*
X102452380Y-106452380D01*
X102833333Y-106452380D01*
X102833333Y-105452380D01*
X102500000Y-105452380D01*
X102404761Y-105500000D01*
X102357142Y-105547619D01*
X102309523Y-105642857D01*
X102309523Y-105738095D01*
X102357142Y-105833333D01*
X102404761Y-105880952D01*
X102500000Y-105928571D01*
X102833333Y-105928571D01*
X101976190Y-105452380D02*
X101404761Y-105452380D01*
X101690476Y-106452380D02*
X101690476Y-105452380D01*
X101119047Y-105547619D02*
X101071428Y-105500000D01*
X100976190Y-105452380D01*
X100738095Y-105452380D01*
X100642857Y-105500000D01*
X100595238Y-105547619D01*
X100547619Y-105642857D01*
X100547619Y-105738095D01*
X100595238Y-105880952D01*
X101166666Y-106452380D01*
X100547619Y-106452380D01*
X100071428Y-106452380D02*
X99880952Y-106452380D01*
X99785714Y-106404761D01*
X99738095Y-106357142D01*
X99642857Y-106214285D01*
X99595238Y-106023809D01*
X99595238Y-105642857D01*
X99642857Y-105547619D01*
X99690476Y-105500000D01*
X99785714Y-105452380D01*
X99976190Y-105452380D01*
X100071428Y-105500000D01*
X100119047Y-105547619D01*
X100166666Y-105642857D01*
X100166666Y-105880952D01*
X100119047Y-105976190D01*
X100071428Y-106023809D01*
X99976190Y-106071428D01*
X99785714Y-106071428D01*
X99690476Y-106023809D01*
X99642857Y-105976190D01*
X99595238Y-105880952D01*
X98976190Y-105452380D02*
X98880952Y-105452380D01*
X98785714Y-105500000D01*
X98738095Y-105547619D01*
X98690476Y-105642857D01*
X98642857Y-105833333D01*
X98642857Y-106071428D01*
X98690476Y-106261904D01*
X98738095Y-106357142D01*
X98785714Y-106404761D01*
X98880952Y-106452380D01*
X98976190Y-106452380D01*
X99071428Y-106404761D01*
X99119047Y-106357142D01*
X99166666Y-106261904D01*
X99214285Y-106071428D01*
X99214285Y-105833333D01*
X99166666Y-105642857D01*
X99119047Y-105547619D01*
X99071428Y-105500000D01*
X98976190Y-105452380D01*
X98309523Y-105452380D02*
X97642857Y-105452380D01*
X98071428Y-106452380D01*
X97309523Y-106166666D02*
X96833333Y-106166666D01*
X97404761Y-106452380D02*
X97071428Y-105452380D01*
X96738095Y-106452380D01*
X67285714Y-76952380D02*
X67285714Y-77666666D01*
X67333333Y-77809523D01*
X67428571Y-77904761D01*
X67571428Y-77952380D01*
X67666666Y-77952380D01*
X66285714Y-77952380D02*
X66857142Y-77952380D01*
X66571428Y-77952380D02*
X66571428Y-76952380D01*
X66666666Y-77095238D01*
X66761904Y-77190476D01*
X66857142Y-77238095D01*
X65666666Y-76952380D02*
X65571428Y-76952380D01*
X65476190Y-77000000D01*
X65428571Y-77047619D01*
X65380952Y-77142857D01*
X65333333Y-77333333D01*
X65333333Y-77571428D01*
X65380952Y-77761904D01*
X65428571Y-77857142D01*
X65476190Y-77904761D01*
X65571428Y-77952380D01*
X65666666Y-77952380D01*
X65761904Y-77904761D01*
X65809523Y-77857142D01*
X65857142Y-77761904D01*
X65904761Y-77571428D01*
X65904761Y-77333333D01*
X65857142Y-77142857D01*
X65809523Y-77047619D01*
X65761904Y-77000000D01*
X65666666Y-76952380D01*
X65000000Y-76952380D02*
X64333333Y-76952380D01*
X64761904Y-77952380D01*
X60785714Y-122622380D02*
X60785714Y-123336666D01*
X60833333Y-123479523D01*
X60928571Y-123574761D01*
X61071428Y-123622380D01*
X61166666Y-123622380D01*
X59785714Y-123622380D02*
X60357142Y-123622380D01*
X60071428Y-123622380D02*
X60071428Y-122622380D01*
X60166666Y-122765238D01*
X60261904Y-122860476D01*
X60357142Y-122908095D01*
X59166666Y-122622380D02*
X59071428Y-122622380D01*
X58976190Y-122670000D01*
X58928571Y-122717619D01*
X58880952Y-122812857D01*
X58833333Y-123003333D01*
X58833333Y-123241428D01*
X58880952Y-123431904D01*
X58928571Y-123527142D01*
X58976190Y-123574761D01*
X59071428Y-123622380D01*
X59166666Y-123622380D01*
X59261904Y-123574761D01*
X59309523Y-123527142D01*
X59357142Y-123431904D01*
X59404761Y-123241428D01*
X59404761Y-123003333D01*
X59357142Y-122812857D01*
X59309523Y-122717619D01*
X59261904Y-122670000D01*
X59166666Y-122622380D01*
X58357142Y-123622380D02*
X58166666Y-123622380D01*
X58071428Y-123574761D01*
X58023809Y-123527142D01*
X57928571Y-123384285D01*
X57880952Y-123193809D01*
X57880952Y-122812857D01*
X57928571Y-122717619D01*
X57976190Y-122670000D01*
X58071428Y-122622380D01*
X58261904Y-122622380D01*
X58357142Y-122670000D01*
X58404761Y-122717619D01*
X58452380Y-122812857D01*
X58452380Y-123050952D01*
X58404761Y-123146190D01*
X58357142Y-123193809D01*
X58261904Y-123241428D01*
X58071428Y-123241428D01*
X57976190Y-123193809D01*
X57928571Y-123146190D01*
X57880952Y-123050952D01*
M02*
