M48
; DRILL file {KiCad (5.1.5)-3} date 17/03/2020 21:32:37
; FORMAT={-:-/ absolute / metric / decimal}
; #@! TF.CreationDate,2020-03-17T21:32:37+01:00
; #@! TF.GenerationSoftware,Kicad,Pcbnew,(5.1.5)-3
; #@! TF.FileFunction,Plated,1,2,PTH
FMAT,2
METRIC
T1C0.400
T2C0.500
T3C0.700
T4C0.800
T5C0.900
T6C1.000
T7C1.016
T8C1.100
T9C1.320
T10C3.200
%
G90
G05
T1
X72.5Y-78.0
X72.5Y-93.0
X73.0Y-58.5
X73.0Y-116.0
X73.0Y-140.0
X76.0Y-89.0
X76.0Y-119.5
X79.5Y-51.5
X82.0Y-92.0
X84.5Y-148.5
X86.0Y-99.0
X86.5Y-112.5
X86.5Y-119.5
X87.0Y-89.0
X87.0Y-92.0
X89.0Y-89.0
X89.0Y-92.0
X89.0Y-99.0
X89.5Y-112.5
X89.5Y-119.5
X92.5Y-99.0
X94.0Y-105.0
X97.0Y-105.0
X97.029Y-101.48
X98.141Y-103.771
X99.5Y-99.0
X100.0Y-114.0
X100.0Y-116.0
X100.0Y-119.0
X101.0Y-105.0
X101.5Y-112.245
X102.0Y-132.0
X102.0Y-148.0
X103.0Y-129.85
X103.5Y-114.0
X103.5Y-116.0
X103.5Y-119.0
X104.0Y-89.0
X104.5Y-82.5
X105.5Y-108.225
X106.25Y-51.5
X106.25Y-54.0
X106.5Y-84.5
X106.5Y-91.0
X106.5Y-106.5
X107.5Y-107.5
X109.0Y-99.0
X110.0Y-105.0
X110.0Y-106.5
X110.826Y-133.174
X111.0Y-107.5
X111.0Y-114.0
X111.246Y-108.65
X112.0Y-119.69
X112.099Y-131.901
X112.5Y-110.5
X112.5Y-121.5
X112.699Y-114.699
X113.006Y-119.15
X113.5Y-121.0
X113.651Y-116.151
X114.5Y-110.5
X114.5Y-148.0
X119.05Y-108.65
X119.199Y-110.801
X119.5Y-95.0
X119.5Y-100.0
X119.5Y-105.0
X121.5Y-105.0
X121.5Y-115.0
X121.5Y-120.0
X121.5Y-130.0
X121.5Y-135.0
X121.5Y-138.0
X121.5Y-141.0
X124.5Y-62.5
X124.5Y-64.0
X124.5Y-95.0
X124.5Y-100.0
X125.5Y-88.5
X125.5Y-110.5
X125.5Y-113.0
X126.5Y-62.5
X126.5Y-95.0
X126.5Y-100.0
X127.5Y-105.0
X128.5Y-90.0
X128.5Y-100.5
X128.5Y-108.5
X128.5Y-112.9
X128.5Y-119.0
X128.671Y-123.9
X129.0Y-102.5
X129.5Y-105.0
X129.5Y-111.15
X129.5Y-112.85
X131.0Y-82.5
X131.0Y-148.5
X131.25Y-70.25
X131.5Y-68.0
X131.5Y-100.5
X131.5Y-107.5
X132.0Y-71.0
X132.453Y-69.047
X132.5Y-83.5
X132.5Y-88.5
X133.5Y-70.0
X134.5Y-117.5
X136.0Y-63.5
X136.0Y-127.0
X136.0Y-135.0
X136.0Y-138.5
X136.13Y-121.37
X136.5Y-52.5
X136.5Y-111.5
X136.5Y-113.0
X137.0Y-107.5
X137.0Y-109.5
X137.5Y-88.2
X138.5Y-88.2
X139.0Y-51.5
X141.5Y-148.5
X144.5Y-135.0
X144.5Y-137.0
X145.5Y-98.5
X147.0Y-119.5
X147.0Y-130.5
X147.0Y-141.0
X148.0Y-69.5
X148.0Y-84.5
X148.0Y-107.5
X148.0Y-109.5
X148.5Y-58.5
X148.5Y-98.5
T2
X62.1Y-66.5
X62.803Y-64.803
X62.803Y-68.197
X64.5Y-64.1
X64.5Y-68.9
X66.197Y-64.803
X66.197Y-68.197
X66.9Y-66.5
X73.6Y-145.0
X74.303Y-143.303
X74.303Y-146.697
X76.0Y-142.6
X76.0Y-147.4
X77.697Y-143.303
X77.697Y-146.697
X78.4Y-145.0
X62.1Y-115.0
X62.803Y-113.303
X62.803Y-116.697
X64.5Y-112.6
X64.5Y-117.4
X66.197Y-113.303
X66.197Y-116.697
X66.9Y-115.0
X73.6Y-55.0
X74.303Y-53.303
X74.303Y-56.697
X76.0Y-52.6
X76.0Y-57.4
X77.697Y-53.303
X77.697Y-56.697
X78.4Y-55.0
X143.6Y-145.0
X144.303Y-143.303
X144.303Y-146.697
X146.0Y-142.6
X146.0Y-147.4
X147.697Y-143.303
X147.697Y-146.697
X148.4Y-145.0
X143.6Y-55.0
X144.303Y-53.303
X144.303Y-56.697
X146.0Y-52.6
X146.0Y-57.4
X147.697Y-53.303
X147.697Y-56.697
X148.4Y-55.0
T3
X140.46Y-102.5
X143.0Y-102.5
X130.5Y-80.42
X130.5Y-85.5
X121.9Y-80.42
X121.9Y-85.5
X113.3Y-80.42
X113.3Y-85.5
X140.46Y-91.5
X143.0Y-91.5
X117.6Y-80.42
X117.6Y-85.5
X126.2Y-80.42
X126.2Y-85.5
X109.0Y-80.42
X109.0Y-85.5
T4
X127.0Y-131.0
X127.0Y-134.8
X129.88Y-91.38
X129.88Y-93.92
X129.88Y-96.46
X129.88Y-99.0
X137.5Y-91.38
X137.5Y-93.92
X137.5Y-96.46
X137.5Y-99.0
X127.0Y-120.5
X127.0Y-124.3
X58.38Y-92.0
X58.38Y-97.08
X66.0Y-92.0
X66.0Y-97.08
X84.4Y-55.1
X84.4Y-94.75
X101.75Y-55.1
X101.75Y-94.75
X52.0Y-92.0
X54.05Y-99.5
X127.0Y-110.0
X127.0Y-113.8
X116.4Y-54.5
X116.4Y-69.5
X125.6Y-54.5
X125.6Y-69.5
T5
X58.5Y-85.0
X61.04Y-85.0
X63.0Y-125.0
X65.54Y-125.0
X63.0Y-145.0
X65.54Y-145.0
X54.0Y-135.0
X56.54Y-135.0
X54.0Y-145.0
X56.54Y-145.0
X54.0Y-125.0
X56.54Y-125.0
X63.0Y-135.0
X65.54Y-135.0
T6
X66.0Y-80.38
X66.0Y-82.92
X66.0Y-85.46
X66.0Y-88.0
X73.5Y-80.38
X73.5Y-82.92
X73.5Y-85.46
X73.5Y-88.0
X59.5Y-125.5
X59.5Y-128.04
X59.5Y-130.58
X59.5Y-133.12
X59.5Y-135.66
X59.5Y-138.2
X59.5Y-140.74
X59.5Y-143.28
X117.5Y-109.5
X117.5Y-114.5
X93.38Y-102.25
X95.92Y-102.25
X98.46Y-102.25
X101.0Y-102.25
X103.54Y-102.25
X106.08Y-102.25
X108.62Y-102.25
X111.16Y-102.25
X82.5Y-106.0
X87.5Y-106.0
X117.5Y-130.5
X117.5Y-135.5
X117.5Y-120.0
X117.5Y-125.0
T7
X74.71Y-120.59
X74.71Y-123.13
X74.71Y-125.67
X74.71Y-128.21
X74.71Y-130.75
X77.25Y-120.59
X77.25Y-123.13
X77.25Y-125.67
X77.25Y-128.21
X77.25Y-130.75
X105.71Y-112.97
X105.71Y-115.51
X105.71Y-118.05
X105.71Y-120.59
X105.71Y-123.13
X105.71Y-125.67
X105.71Y-128.21
X105.71Y-130.75
X108.25Y-112.97
X108.25Y-115.51
X108.25Y-118.05
X108.25Y-120.59
X108.25Y-123.13
X108.25Y-125.67
X108.25Y-128.21
X108.25Y-130.75
X85.21Y-120.59
X85.21Y-123.13
X85.21Y-125.67
X85.21Y-128.21
X85.21Y-130.75
X87.75Y-120.59
X87.75Y-123.13
X87.75Y-125.67
X87.75Y-128.21
X87.75Y-130.75
X95.21Y-112.97
X95.21Y-115.51
X95.21Y-118.05
X95.21Y-120.59
X95.21Y-123.13
X95.21Y-125.67
X95.21Y-128.21
X95.21Y-130.75
X97.75Y-112.97
X97.75Y-115.51
X97.75Y-118.05
X97.75Y-120.59
X97.75Y-123.13
X97.75Y-125.67
X97.75Y-128.21
X97.75Y-130.75
T8
X147.0Y-100.02
X147.0Y-102.56
X147.0Y-105.1
X147.0Y-122.5
X147.0Y-125.04
X147.0Y-127.58
X147.0Y-133.5
X147.0Y-136.04
X147.0Y-138.58
X147.0Y-88.86
X147.0Y-91.4
X147.0Y-93.94
X146.5Y-61.0
X146.5Y-63.54
X146.5Y-66.08
X147.0Y-111.5
X147.0Y-114.04
X147.0Y-116.58
T9
X88.175Y-143.355
X93.175Y-143.355
X98.175Y-143.355
X105.475Y-143.345
X110.475Y-143.345
X143.5Y-72.5
X143.5Y-77.5
X143.5Y-82.5
T10
X64.5Y-66.5
X76.0Y-145.0
X64.5Y-115.0
X76.0Y-55.0
X146.0Y-145.0
X146.0Y-55.0
T6
G00X56.75Y-54.0
M15
G01X55.25Y-54.0
M16
G05
G00X56.75Y-63.0
M15
G01X55.25Y-63.0
M16
G05
G00X57.0Y-57.85
M15
G01X57.0Y-59.15
M16
G05
G00X63.0Y-57.5
M15
G01X63.0Y-59.5
M16
G05
G00X60.65Y-100.3
M15
G01X59.35Y-100.3
M16
G05
G00X60.65Y-105.0
M15
G01X59.35Y-105.0
M16
G05
G00X60.65Y-109.7
M15
G01X59.35Y-109.7
M16
G05
G00X56.75Y-70.5
M15
G01X55.25Y-70.5
M16
G05
G00X56.75Y-79.5
M15
G01X55.25Y-79.5
M16
G05
G00X57.0Y-74.35
M15
G01X57.0Y-75.65
M16
G05
G00X63.0Y-74.0
M15
G01X63.0Y-76.0
M16
G05
T0
M30
