%TF.GenerationSoftware,KiCad,Pcbnew,(5.1.5)-3*%
%TF.CreationDate,2020-03-17T21:32:34+01:00*%
%TF.ProjectId,KicadJE-EuroPowerSupply2-PCB,4b696361-644a-4452-9d45-75726f506f77,Rev A*%
%TF.SameCoordinates,Original*%
%TF.FileFunction,Paste,Top*%
%TF.FilePolarity,Positive*%
%FSLAX46Y46*%
G04 Gerber Fmt 4.6, Leading zero omitted, Abs format (unit mm)*
G04 Created by KiCad (PCBNEW (5.1.5)-3) date 2020-03-17 21:32:34*
%MOMM*%
%LPD*%
G04 APERTURE LIST*
%ADD10C,1.000000*%
%ADD11C,0.050000*%
%ADD12C,0.150000*%
%ADD13R,2.200000X1.200000*%
%ADD14R,3.050000X2.750000*%
G04 APERTURE END LIST*
D10*
X69500000Y-60000000D02*
X70500000Y-60000000D01*
X69500000Y-140000000D02*
X70500000Y-140000000D01*
X70500000Y-60000000D02*
X70500000Y-140000000D01*
X69500000Y-60000000D02*
X69500000Y-140000000D01*
D11*
X50000000Y-150000000D02*
X50000000Y-50000000D01*
X150000000Y-150000000D02*
X50000000Y-150000000D01*
X150000000Y-50000000D02*
X150000000Y-150000000D01*
X50000000Y-50000000D02*
X150000000Y-50000000D01*
D12*
G36*
X107849505Y-53301204D02*
G01*
X107873773Y-53304804D01*
X107897572Y-53310765D01*
X107920671Y-53319030D01*
X107942850Y-53329520D01*
X107963893Y-53342132D01*
X107983599Y-53356747D01*
X108001777Y-53373223D01*
X108018253Y-53391401D01*
X108032868Y-53411107D01*
X108045480Y-53432150D01*
X108055970Y-53454329D01*
X108064235Y-53477428D01*
X108070196Y-53501227D01*
X108073796Y-53525495D01*
X108075000Y-53549999D01*
X108075000Y-54450001D01*
X108073796Y-54474505D01*
X108070196Y-54498773D01*
X108064235Y-54522572D01*
X108055970Y-54545671D01*
X108045480Y-54567850D01*
X108032868Y-54588893D01*
X108018253Y-54608599D01*
X108001777Y-54626777D01*
X107983599Y-54643253D01*
X107963893Y-54657868D01*
X107942850Y-54670480D01*
X107920671Y-54680970D01*
X107897572Y-54689235D01*
X107873773Y-54695196D01*
X107849505Y-54698796D01*
X107825001Y-54700000D01*
X107174999Y-54700000D01*
X107150495Y-54698796D01*
X107126227Y-54695196D01*
X107102428Y-54689235D01*
X107079329Y-54680970D01*
X107057150Y-54670480D01*
X107036107Y-54657868D01*
X107016401Y-54643253D01*
X106998223Y-54626777D01*
X106981747Y-54608599D01*
X106967132Y-54588893D01*
X106954520Y-54567850D01*
X106944030Y-54545671D01*
X106935765Y-54522572D01*
X106929804Y-54498773D01*
X106926204Y-54474505D01*
X106925000Y-54450001D01*
X106925000Y-53549999D01*
X106926204Y-53525495D01*
X106929804Y-53501227D01*
X106935765Y-53477428D01*
X106944030Y-53454329D01*
X106954520Y-53432150D01*
X106967132Y-53411107D01*
X106981747Y-53391401D01*
X106998223Y-53373223D01*
X107016401Y-53356747D01*
X107036107Y-53342132D01*
X107057150Y-53329520D01*
X107079329Y-53319030D01*
X107102428Y-53310765D01*
X107126227Y-53304804D01*
X107150495Y-53301204D01*
X107174999Y-53300000D01*
X107825001Y-53300000D01*
X107849505Y-53301204D01*
G37*
G36*
X109899505Y-53301204D02*
G01*
X109923773Y-53304804D01*
X109947572Y-53310765D01*
X109970671Y-53319030D01*
X109992850Y-53329520D01*
X110013893Y-53342132D01*
X110033599Y-53356747D01*
X110051777Y-53373223D01*
X110068253Y-53391401D01*
X110082868Y-53411107D01*
X110095480Y-53432150D01*
X110105970Y-53454329D01*
X110114235Y-53477428D01*
X110120196Y-53501227D01*
X110123796Y-53525495D01*
X110125000Y-53549999D01*
X110125000Y-54450001D01*
X110123796Y-54474505D01*
X110120196Y-54498773D01*
X110114235Y-54522572D01*
X110105970Y-54545671D01*
X110095480Y-54567850D01*
X110082868Y-54588893D01*
X110068253Y-54608599D01*
X110051777Y-54626777D01*
X110033599Y-54643253D01*
X110013893Y-54657868D01*
X109992850Y-54670480D01*
X109970671Y-54680970D01*
X109947572Y-54689235D01*
X109923773Y-54695196D01*
X109899505Y-54698796D01*
X109875001Y-54700000D01*
X109224999Y-54700000D01*
X109200495Y-54698796D01*
X109176227Y-54695196D01*
X109152428Y-54689235D01*
X109129329Y-54680970D01*
X109107150Y-54670480D01*
X109086107Y-54657868D01*
X109066401Y-54643253D01*
X109048223Y-54626777D01*
X109031747Y-54608599D01*
X109017132Y-54588893D01*
X109004520Y-54567850D01*
X108994030Y-54545671D01*
X108985765Y-54522572D01*
X108979804Y-54498773D01*
X108976204Y-54474505D01*
X108975000Y-54450001D01*
X108975000Y-53549999D01*
X108976204Y-53525495D01*
X108979804Y-53501227D01*
X108985765Y-53477428D01*
X108994030Y-53454329D01*
X109004520Y-53432150D01*
X109017132Y-53411107D01*
X109031747Y-53391401D01*
X109048223Y-53373223D01*
X109066401Y-53356747D01*
X109086107Y-53342132D01*
X109107150Y-53329520D01*
X109129329Y-53319030D01*
X109152428Y-53310765D01*
X109176227Y-53304804D01*
X109200495Y-53301204D01*
X109224999Y-53300000D01*
X109875001Y-53300000D01*
X109899505Y-53301204D01*
G37*
G36*
X109899505Y-50801204D02*
G01*
X109923773Y-50804804D01*
X109947572Y-50810765D01*
X109970671Y-50819030D01*
X109992850Y-50829520D01*
X110013893Y-50842132D01*
X110033599Y-50856747D01*
X110051777Y-50873223D01*
X110068253Y-50891401D01*
X110082868Y-50911107D01*
X110095480Y-50932150D01*
X110105970Y-50954329D01*
X110114235Y-50977428D01*
X110120196Y-51001227D01*
X110123796Y-51025495D01*
X110125000Y-51049999D01*
X110125000Y-51950001D01*
X110123796Y-51974505D01*
X110120196Y-51998773D01*
X110114235Y-52022572D01*
X110105970Y-52045671D01*
X110095480Y-52067850D01*
X110082868Y-52088893D01*
X110068253Y-52108599D01*
X110051777Y-52126777D01*
X110033599Y-52143253D01*
X110013893Y-52157868D01*
X109992850Y-52170480D01*
X109970671Y-52180970D01*
X109947572Y-52189235D01*
X109923773Y-52195196D01*
X109899505Y-52198796D01*
X109875001Y-52200000D01*
X109224999Y-52200000D01*
X109200495Y-52198796D01*
X109176227Y-52195196D01*
X109152428Y-52189235D01*
X109129329Y-52180970D01*
X109107150Y-52170480D01*
X109086107Y-52157868D01*
X109066401Y-52143253D01*
X109048223Y-52126777D01*
X109031747Y-52108599D01*
X109017132Y-52088893D01*
X109004520Y-52067850D01*
X108994030Y-52045671D01*
X108985765Y-52022572D01*
X108979804Y-51998773D01*
X108976204Y-51974505D01*
X108975000Y-51950001D01*
X108975000Y-51049999D01*
X108976204Y-51025495D01*
X108979804Y-51001227D01*
X108985765Y-50977428D01*
X108994030Y-50954329D01*
X109004520Y-50932150D01*
X109017132Y-50911107D01*
X109031747Y-50891401D01*
X109048223Y-50873223D01*
X109066401Y-50856747D01*
X109086107Y-50842132D01*
X109107150Y-50829520D01*
X109129329Y-50819030D01*
X109152428Y-50810765D01*
X109176227Y-50804804D01*
X109200495Y-50801204D01*
X109224999Y-50800000D01*
X109875001Y-50800000D01*
X109899505Y-50801204D01*
G37*
G36*
X107849505Y-50801204D02*
G01*
X107873773Y-50804804D01*
X107897572Y-50810765D01*
X107920671Y-50819030D01*
X107942850Y-50829520D01*
X107963893Y-50842132D01*
X107983599Y-50856747D01*
X108001777Y-50873223D01*
X108018253Y-50891401D01*
X108032868Y-50911107D01*
X108045480Y-50932150D01*
X108055970Y-50954329D01*
X108064235Y-50977428D01*
X108070196Y-51001227D01*
X108073796Y-51025495D01*
X108075000Y-51049999D01*
X108075000Y-51950001D01*
X108073796Y-51974505D01*
X108070196Y-51998773D01*
X108064235Y-52022572D01*
X108055970Y-52045671D01*
X108045480Y-52067850D01*
X108032868Y-52088893D01*
X108018253Y-52108599D01*
X108001777Y-52126777D01*
X107983599Y-52143253D01*
X107963893Y-52157868D01*
X107942850Y-52170480D01*
X107920671Y-52180970D01*
X107897572Y-52189235D01*
X107873773Y-52195196D01*
X107849505Y-52198796D01*
X107825001Y-52200000D01*
X107174999Y-52200000D01*
X107150495Y-52198796D01*
X107126227Y-52195196D01*
X107102428Y-52189235D01*
X107079329Y-52180970D01*
X107057150Y-52170480D01*
X107036107Y-52157868D01*
X107016401Y-52143253D01*
X106998223Y-52126777D01*
X106981747Y-52108599D01*
X106967132Y-52088893D01*
X106954520Y-52067850D01*
X106944030Y-52045671D01*
X106935765Y-52022572D01*
X106929804Y-51998773D01*
X106926204Y-51974505D01*
X106925000Y-51950001D01*
X106925000Y-51049999D01*
X106926204Y-51025495D01*
X106929804Y-51001227D01*
X106935765Y-50977428D01*
X106944030Y-50954329D01*
X106954520Y-50932150D01*
X106967132Y-50911107D01*
X106981747Y-50891401D01*
X106998223Y-50873223D01*
X107016401Y-50856747D01*
X107036107Y-50842132D01*
X107057150Y-50829520D01*
X107079329Y-50819030D01*
X107102428Y-50810765D01*
X107126227Y-50804804D01*
X107150495Y-50801204D01*
X107174999Y-50800000D01*
X107825001Y-50800000D01*
X107849505Y-50801204D01*
G37*
D13*
X134300000Y-111720000D03*
X134300000Y-114000000D03*
X134300000Y-116280000D03*
D14*
X142275000Y-115525000D03*
X138925000Y-112475000D03*
X142275000Y-112475000D03*
X138925000Y-115525000D03*
D13*
X134300000Y-122720000D03*
X134300000Y-125000000D03*
X134300000Y-127280000D03*
D14*
X142275000Y-126525000D03*
X138925000Y-123475000D03*
X142275000Y-123475000D03*
X138925000Y-126525000D03*
X138650000Y-137950001D03*
X142000000Y-134900001D03*
X138650000Y-134900001D03*
X142000000Y-137950001D03*
D13*
X134025000Y-138705001D03*
X134025000Y-136425001D03*
X134025000Y-134145001D03*
M02*
