%TF.GenerationSoftware,KiCad,Pcbnew,(5.1.5)-3*%
%TF.CreationDate,2020-03-17T21:32:34+01:00*%
%TF.ProjectId,KicadJE-EuroPowerSupply2-PCB,4b696361-644a-4452-9d45-75726f506f77,Rev A*%
%TF.SameCoordinates,Original*%
%TF.FileFunction,Soldermask,Top*%
%TF.FilePolarity,Negative*%
%FSLAX46Y46*%
G04 Gerber Fmt 4.6, Leading zero omitted, Abs format (unit mm)*
G04 Created by KiCad (PCBNEW (5.1.5)-3) date 2020-03-17 21:32:34*
%MOMM*%
%LPD*%
G04 APERTURE LIST*
%ADD10C,1.000000*%
%ADD11C,0.050000*%
%ADD12C,0.150000*%
G04 APERTURE END LIST*
D10*
X69500000Y-60000000D02*
X70500000Y-60000000D01*
X69500000Y-140000000D02*
X70500000Y-140000000D01*
X70500000Y-60000000D02*
X70500000Y-140000000D01*
X69500000Y-60000000D02*
X69500000Y-140000000D01*
D11*
X50000000Y-150000000D02*
X50000000Y-50000000D01*
X150000000Y-150000000D02*
X50000000Y-150000000D01*
X150000000Y-50000000D02*
X150000000Y-150000000D01*
X50000000Y-50000000D02*
X150000000Y-50000000D01*
D12*
G36*
X76634239Y-141811467D02*
G01*
X76948282Y-141873934D01*
X77539926Y-142119001D01*
X78072392Y-142474784D01*
X78525216Y-142927608D01*
X78880999Y-143460074D01*
X79126066Y-144051718D01*
X79151782Y-144181000D01*
X79251000Y-144679803D01*
X79251000Y-145320197D01*
X79194105Y-145606225D01*
X79126066Y-145948282D01*
X78880999Y-146539926D01*
X78525216Y-147072392D01*
X78072392Y-147525216D01*
X77539926Y-147880999D01*
X76948282Y-148126066D01*
X76634239Y-148188533D01*
X76320197Y-148251000D01*
X75679803Y-148251000D01*
X75365761Y-148188533D01*
X75051718Y-148126066D01*
X74460074Y-147880999D01*
X73927608Y-147525216D01*
X73474784Y-147072392D01*
X73119001Y-146539926D01*
X72873934Y-145948282D01*
X72805895Y-145606225D01*
X72749000Y-145320197D01*
X72749000Y-144679803D01*
X72848218Y-144181000D01*
X72873934Y-144051718D01*
X73119001Y-143460074D01*
X73474784Y-142927608D01*
X73927608Y-142474784D01*
X74460074Y-142119001D01*
X75051718Y-141873934D01*
X75365761Y-141811467D01*
X75679803Y-141749000D01*
X76320197Y-141749000D01*
X76634239Y-141811467D01*
G37*
G36*
X146634239Y-141811467D02*
G01*
X146948282Y-141873934D01*
X147539926Y-142119001D01*
X148072392Y-142474784D01*
X148525216Y-142927608D01*
X148880999Y-143460074D01*
X149126066Y-144051718D01*
X149151782Y-144181000D01*
X149251000Y-144679803D01*
X149251000Y-145320197D01*
X149194105Y-145606225D01*
X149126066Y-145948282D01*
X148880999Y-146539926D01*
X148525216Y-147072392D01*
X148072392Y-147525216D01*
X147539926Y-147880999D01*
X146948282Y-148126066D01*
X146634239Y-148188533D01*
X146320197Y-148251000D01*
X145679803Y-148251000D01*
X145365761Y-148188533D01*
X145051718Y-148126066D01*
X144460074Y-147880999D01*
X143927608Y-147525216D01*
X143474784Y-147072392D01*
X143119001Y-146539926D01*
X142873934Y-145948282D01*
X142805895Y-145606225D01*
X142749000Y-145320197D01*
X142749000Y-144679803D01*
X142848218Y-144181000D01*
X142873934Y-144051718D01*
X143119001Y-143460074D01*
X143474784Y-142927608D01*
X143927608Y-142474784D01*
X144460074Y-142119001D01*
X145051718Y-141873934D01*
X145365761Y-141811467D01*
X145679803Y-141749000D01*
X146320197Y-141749000D01*
X146634239Y-141811467D01*
G37*
G36*
X54951000Y-145951000D02*
G01*
X53049000Y-145951000D01*
X53049000Y-144049000D01*
X54951000Y-144049000D01*
X54951000Y-145951000D01*
G37*
G36*
X56817395Y-144085546D02*
G01*
X56990466Y-144157234D01*
X56990467Y-144157235D01*
X57146227Y-144261310D01*
X57278690Y-144393773D01*
X57331081Y-144472182D01*
X57382766Y-144549534D01*
X57454454Y-144722605D01*
X57491000Y-144906333D01*
X57491000Y-145093667D01*
X57454454Y-145277395D01*
X57382766Y-145450466D01*
X57382765Y-145450467D01*
X57278690Y-145606227D01*
X57146227Y-145738690D01*
X57067818Y-145791081D01*
X56990466Y-145842766D01*
X56817395Y-145914454D01*
X56633667Y-145951000D01*
X56446333Y-145951000D01*
X56262605Y-145914454D01*
X56089534Y-145842766D01*
X56012182Y-145791081D01*
X55933773Y-145738690D01*
X55801310Y-145606227D01*
X55697235Y-145450467D01*
X55697234Y-145450466D01*
X55625546Y-145277395D01*
X55589000Y-145093667D01*
X55589000Y-144906333D01*
X55625546Y-144722605D01*
X55697234Y-144549534D01*
X55748919Y-144472182D01*
X55801310Y-144393773D01*
X55933773Y-144261310D01*
X56089533Y-144157235D01*
X56089534Y-144157234D01*
X56262605Y-144085546D01*
X56446333Y-144049000D01*
X56633667Y-144049000D01*
X56817395Y-144085546D01*
G37*
G36*
X65817395Y-144085546D02*
G01*
X65990466Y-144157234D01*
X65990467Y-144157235D01*
X66146227Y-144261310D01*
X66278690Y-144393773D01*
X66331081Y-144472182D01*
X66382766Y-144549534D01*
X66454454Y-144722605D01*
X66491000Y-144906333D01*
X66491000Y-145093667D01*
X66454454Y-145277395D01*
X66382766Y-145450466D01*
X66382765Y-145450467D01*
X66278690Y-145606227D01*
X66146227Y-145738690D01*
X66067818Y-145791081D01*
X65990466Y-145842766D01*
X65817395Y-145914454D01*
X65633667Y-145951000D01*
X65446333Y-145951000D01*
X65262605Y-145914454D01*
X65089534Y-145842766D01*
X65012182Y-145791081D01*
X64933773Y-145738690D01*
X64801310Y-145606227D01*
X64697235Y-145450467D01*
X64697234Y-145450466D01*
X64625546Y-145277395D01*
X64589000Y-145093667D01*
X64589000Y-144906333D01*
X64625546Y-144722605D01*
X64697234Y-144549534D01*
X64748919Y-144472182D01*
X64801310Y-144393773D01*
X64933773Y-144261310D01*
X65089533Y-144157235D01*
X65089534Y-144157234D01*
X65262605Y-144085546D01*
X65446333Y-144049000D01*
X65633667Y-144049000D01*
X65817395Y-144085546D01*
G37*
G36*
X63951000Y-145951000D02*
G01*
X62049000Y-145951000D01*
X62049000Y-144049000D01*
X63951000Y-144049000D01*
X63951000Y-145951000D01*
G37*
G36*
X98379072Y-141339064D02*
G01*
X98575301Y-141398590D01*
X98756147Y-141495254D01*
X98797438Y-141529141D01*
X98914661Y-141625341D01*
X99044749Y-141783856D01*
X99136066Y-141954698D01*
X99141412Y-141964700D01*
X99200938Y-142160929D01*
X99216001Y-142313869D01*
X99216001Y-144396133D01*
X99200938Y-144549073D01*
X99141412Y-144745302D01*
X99141411Y-144745304D01*
X99044749Y-144926146D01*
X98914661Y-145084661D01*
X98756146Y-145214749D01*
X98594011Y-145301412D01*
X98575302Y-145311412D01*
X98379073Y-145370938D01*
X98175001Y-145391037D01*
X97970930Y-145370938D01*
X97774701Y-145311412D01*
X97755992Y-145301412D01*
X97593857Y-145214749D01*
X97435342Y-145084661D01*
X97305254Y-144926146D01*
X97208592Y-144745304D01*
X97208591Y-144745302D01*
X97149065Y-144549073D01*
X97134002Y-144396133D01*
X97134001Y-142313870D01*
X97134136Y-142312504D01*
X97149064Y-142160932D01*
X97149064Y-142160930D01*
X97208590Y-141964701D01*
X97305254Y-141783855D01*
X97339141Y-141742564D01*
X97435341Y-141625341D01*
X97593856Y-141495253D01*
X97774698Y-141398591D01*
X97774700Y-141398590D01*
X97970929Y-141339064D01*
X98175001Y-141318965D01*
X98379072Y-141339064D01*
G37*
G36*
X93379072Y-141339064D02*
G01*
X93575301Y-141398590D01*
X93756147Y-141495254D01*
X93797438Y-141529141D01*
X93914661Y-141625341D01*
X94044749Y-141783856D01*
X94136066Y-141954698D01*
X94141412Y-141964700D01*
X94200938Y-142160929D01*
X94216001Y-142313869D01*
X94216001Y-144396133D01*
X94200938Y-144549073D01*
X94141412Y-144745302D01*
X94141411Y-144745304D01*
X94044749Y-144926146D01*
X93914661Y-145084661D01*
X93756146Y-145214749D01*
X93594011Y-145301412D01*
X93575302Y-145311412D01*
X93379073Y-145370938D01*
X93175001Y-145391037D01*
X92970930Y-145370938D01*
X92774701Y-145311412D01*
X92755992Y-145301412D01*
X92593857Y-145214749D01*
X92435342Y-145084661D01*
X92305254Y-144926146D01*
X92208592Y-144745304D01*
X92208591Y-144745302D01*
X92149065Y-144549073D01*
X92134002Y-144396133D01*
X92134001Y-142313870D01*
X92134136Y-142312504D01*
X92149064Y-142160932D01*
X92149064Y-142160930D01*
X92208590Y-141964701D01*
X92305254Y-141783855D01*
X92339141Y-141742564D01*
X92435341Y-141625341D01*
X92593856Y-141495253D01*
X92774698Y-141398591D01*
X92774700Y-141398590D01*
X92970929Y-141339064D01*
X93175001Y-141318965D01*
X93379072Y-141339064D01*
G37*
G36*
X89216001Y-145386001D02*
G01*
X87134001Y-145386001D01*
X87134001Y-141324001D01*
X89216001Y-141324001D01*
X89216001Y-145386001D01*
G37*
G36*
X110679072Y-141329064D02*
G01*
X110875301Y-141388590D01*
X111056147Y-141485254D01*
X111068332Y-141495254D01*
X111214661Y-141615341D01*
X111344749Y-141773856D01*
X111398242Y-141873934D01*
X111441412Y-141954700D01*
X111500938Y-142150929D01*
X111516001Y-142303869D01*
X111516001Y-144386133D01*
X111500938Y-144539073D01*
X111441412Y-144735302D01*
X111441411Y-144735304D01*
X111344749Y-144916146D01*
X111214661Y-145074661D01*
X111056146Y-145204749D01*
X110920233Y-145277396D01*
X110875302Y-145301412D01*
X110679073Y-145360938D01*
X110475001Y-145381037D01*
X110270930Y-145360938D01*
X110074701Y-145301412D01*
X110029770Y-145277396D01*
X109893857Y-145204749D01*
X109735342Y-145074661D01*
X109605254Y-144916146D01*
X109508592Y-144735304D01*
X109508591Y-144735302D01*
X109449065Y-144539073D01*
X109434002Y-144386133D01*
X109434001Y-142303870D01*
X109449064Y-142150930D01*
X109508590Y-141954701D01*
X109605254Y-141773855D01*
X109639141Y-141732564D01*
X109735341Y-141615341D01*
X109893856Y-141485253D01*
X110074698Y-141388591D01*
X110074700Y-141388590D01*
X110270929Y-141329064D01*
X110475001Y-141308965D01*
X110679072Y-141329064D01*
G37*
G36*
X106516001Y-145376001D02*
G01*
X104434001Y-145376001D01*
X104434001Y-141314001D01*
X106516001Y-141314001D01*
X106516001Y-145376001D01*
G37*
G36*
X59613512Y-142383927D02*
G01*
X59762812Y-142413624D01*
X59926784Y-142481544D01*
X60074354Y-142580147D01*
X60199853Y-142705646D01*
X60298456Y-142853216D01*
X60366376Y-143017188D01*
X60401000Y-143191259D01*
X60401000Y-143368741D01*
X60366376Y-143542812D01*
X60298456Y-143706784D01*
X60199853Y-143854354D01*
X60074354Y-143979853D01*
X59926784Y-144078456D01*
X59762812Y-144146376D01*
X59613512Y-144176073D01*
X59588742Y-144181000D01*
X59411258Y-144181000D01*
X59386488Y-144176073D01*
X59237188Y-144146376D01*
X59073216Y-144078456D01*
X58925646Y-143979853D01*
X58800147Y-143854354D01*
X58701544Y-143706784D01*
X58633624Y-143542812D01*
X58599000Y-143368741D01*
X58599000Y-143191259D01*
X58633624Y-143017188D01*
X58701544Y-142853216D01*
X58800147Y-142705646D01*
X58925646Y-142580147D01*
X59073216Y-142481544D01*
X59237188Y-142413624D01*
X59386488Y-142383927D01*
X59411258Y-142379000D01*
X59588742Y-142379000D01*
X59613512Y-142383927D01*
G37*
G36*
X59613512Y-139843927D02*
G01*
X59762812Y-139873624D01*
X59926784Y-139941544D01*
X60074354Y-140040147D01*
X60199853Y-140165646D01*
X60298456Y-140313216D01*
X60366376Y-140477188D01*
X60401000Y-140651259D01*
X60401000Y-140828741D01*
X60366376Y-141002812D01*
X60298456Y-141166784D01*
X60199853Y-141314354D01*
X60074354Y-141439853D01*
X59926784Y-141538456D01*
X59762812Y-141606376D01*
X59613512Y-141636073D01*
X59588742Y-141641000D01*
X59411258Y-141641000D01*
X59386488Y-141636073D01*
X59237188Y-141606376D01*
X59073216Y-141538456D01*
X58925646Y-141439853D01*
X58800147Y-141314354D01*
X58701544Y-141166784D01*
X58633624Y-141002812D01*
X58599000Y-140828741D01*
X58599000Y-140651259D01*
X58633624Y-140477188D01*
X58701544Y-140313216D01*
X58800147Y-140165646D01*
X58925646Y-140040147D01*
X59073216Y-139941544D01*
X59237188Y-139873624D01*
X59386488Y-139843927D01*
X59411258Y-139839000D01*
X59588742Y-139839000D01*
X59613512Y-139843927D01*
G37*
G36*
X147145936Y-137581340D02*
G01*
X147244220Y-137591020D01*
X147433381Y-137648401D01*
X147607712Y-137741583D01*
X147760515Y-137866985D01*
X147885917Y-138019788D01*
X147979099Y-138194119D01*
X148036480Y-138383280D01*
X148055855Y-138580000D01*
X148036480Y-138776720D01*
X147979099Y-138965881D01*
X147885917Y-139140212D01*
X147760515Y-139293015D01*
X147607712Y-139418417D01*
X147433381Y-139511599D01*
X147244220Y-139568980D01*
X147145936Y-139578660D01*
X147096795Y-139583500D01*
X146903205Y-139583500D01*
X146854064Y-139578660D01*
X146755780Y-139568980D01*
X146566619Y-139511599D01*
X146392288Y-139418417D01*
X146239485Y-139293015D01*
X146114083Y-139140212D01*
X146020901Y-138965881D01*
X145963520Y-138776720D01*
X145944145Y-138580000D01*
X145963520Y-138383280D01*
X146020901Y-138194119D01*
X146114083Y-138019788D01*
X146239485Y-137866985D01*
X146392288Y-137741583D01*
X146566619Y-137648401D01*
X146755780Y-137591020D01*
X146854064Y-137581340D01*
X146903205Y-137576500D01*
X147096795Y-137576500D01*
X147145936Y-137581340D01*
G37*
G36*
X143576000Y-139376001D02*
G01*
X137074000Y-139376001D01*
X137074000Y-133474001D01*
X143576000Y-133474001D01*
X143576000Y-139376001D01*
G37*
G36*
X135176000Y-139356001D02*
G01*
X132874000Y-139356001D01*
X132874000Y-138054001D01*
X135176000Y-138054001D01*
X135176000Y-139356001D01*
G37*
G36*
X59613512Y-137303927D02*
G01*
X59762812Y-137333624D01*
X59926784Y-137401544D01*
X60074354Y-137500147D01*
X60199853Y-137625646D01*
X60298456Y-137773216D01*
X60366376Y-137937188D01*
X60401000Y-138111259D01*
X60401000Y-138288741D01*
X60366376Y-138462812D01*
X60298456Y-138626784D01*
X60199853Y-138774354D01*
X60074354Y-138899853D01*
X59926784Y-138998456D01*
X59762812Y-139066376D01*
X59613512Y-139096073D01*
X59588742Y-139101000D01*
X59411258Y-139101000D01*
X59386488Y-139096073D01*
X59237188Y-139066376D01*
X59073216Y-138998456D01*
X58925646Y-138899853D01*
X58800147Y-138774354D01*
X58701544Y-138626784D01*
X58633624Y-138462812D01*
X58599000Y-138288741D01*
X58599000Y-138111259D01*
X58633624Y-137937188D01*
X58701544Y-137773216D01*
X58800147Y-137625646D01*
X58925646Y-137500147D01*
X59073216Y-137401544D01*
X59237188Y-137333624D01*
X59386488Y-137303927D01*
X59411258Y-137299000D01*
X59588742Y-137299000D01*
X59613512Y-137303927D01*
G37*
G36*
X135176000Y-137076001D02*
G01*
X132874000Y-137076001D01*
X132874000Y-135774001D01*
X135176000Y-135774001D01*
X135176000Y-137076001D01*
G37*
G36*
X147145936Y-135041340D02*
G01*
X147244220Y-135051020D01*
X147433381Y-135108401D01*
X147607712Y-135201583D01*
X147760515Y-135326985D01*
X147885917Y-135479788D01*
X147979099Y-135654119D01*
X148036480Y-135843280D01*
X148055855Y-136040000D01*
X148036480Y-136236720D01*
X147979099Y-136425881D01*
X147885917Y-136600212D01*
X147760515Y-136753015D01*
X147607712Y-136878417D01*
X147433381Y-136971599D01*
X147244220Y-137028980D01*
X147145936Y-137038660D01*
X147096795Y-137043500D01*
X146903205Y-137043500D01*
X146854064Y-137038660D01*
X146755780Y-137028980D01*
X146566619Y-136971599D01*
X146392288Y-136878417D01*
X146239485Y-136753015D01*
X146114083Y-136600212D01*
X146020901Y-136425881D01*
X145963520Y-136236720D01*
X145944145Y-136040000D01*
X145963520Y-135843280D01*
X146020901Y-135654119D01*
X146114083Y-135479788D01*
X146239485Y-135326985D01*
X146392288Y-135201583D01*
X146566619Y-135108401D01*
X146755780Y-135051020D01*
X146854064Y-135041340D01*
X146903205Y-135036500D01*
X147096795Y-135036500D01*
X147145936Y-135041340D01*
G37*
G36*
X59613512Y-134763927D02*
G01*
X59762812Y-134793624D01*
X59926784Y-134861544D01*
X60074354Y-134960147D01*
X60199853Y-135085646D01*
X60298456Y-135233216D01*
X60366376Y-135397188D01*
X60396073Y-135546488D01*
X60397597Y-135554148D01*
X60401000Y-135571259D01*
X60401000Y-135748741D01*
X60366376Y-135922812D01*
X60298456Y-136086784D01*
X60199853Y-136234354D01*
X60074354Y-136359853D01*
X59926784Y-136458456D01*
X59762812Y-136526376D01*
X59613512Y-136556073D01*
X59588742Y-136561000D01*
X59411258Y-136561000D01*
X59386488Y-136556073D01*
X59237188Y-136526376D01*
X59073216Y-136458456D01*
X58925646Y-136359853D01*
X58800147Y-136234354D01*
X58701544Y-136086784D01*
X58633624Y-135922812D01*
X58599000Y-135748741D01*
X58599000Y-135571259D01*
X58602404Y-135554148D01*
X58603927Y-135546488D01*
X58633624Y-135397188D01*
X58701544Y-135233216D01*
X58800147Y-135085646D01*
X58925646Y-134960147D01*
X59073216Y-134861544D01*
X59237188Y-134793624D01*
X59386488Y-134763927D01*
X59411258Y-134759000D01*
X59588742Y-134759000D01*
X59613512Y-134763927D01*
G37*
G36*
X117806564Y-134489389D02*
G01*
X117957170Y-134551772D01*
X117997835Y-134568616D01*
X118169973Y-134683635D01*
X118316365Y-134830027D01*
X118431385Y-135002167D01*
X118510611Y-135193436D01*
X118551000Y-135396484D01*
X118551000Y-135603516D01*
X118510611Y-135806564D01*
X118450784Y-135951000D01*
X118431384Y-135997835D01*
X118316365Y-136169973D01*
X118169973Y-136316365D01*
X117997835Y-136431384D01*
X117997834Y-136431385D01*
X117997833Y-136431385D01*
X117806564Y-136510611D01*
X117603516Y-136551000D01*
X117396484Y-136551000D01*
X117193436Y-136510611D01*
X117002167Y-136431385D01*
X117002166Y-136431385D01*
X117002165Y-136431384D01*
X116830027Y-136316365D01*
X116683635Y-136169973D01*
X116568616Y-135997835D01*
X116549216Y-135951000D01*
X116489389Y-135806564D01*
X116449000Y-135603516D01*
X116449000Y-135396484D01*
X116489389Y-135193436D01*
X116568615Y-135002167D01*
X116683635Y-134830027D01*
X116830027Y-134683635D01*
X117002165Y-134568616D01*
X117042830Y-134551772D01*
X117193436Y-134489389D01*
X117396484Y-134449000D01*
X117603516Y-134449000D01*
X117806564Y-134489389D01*
G37*
G36*
X65817395Y-134085546D02*
G01*
X65990466Y-134157234D01*
X65990467Y-134157235D01*
X66146227Y-134261310D01*
X66278690Y-134393773D01*
X66278691Y-134393775D01*
X66382766Y-134549534D01*
X66454454Y-134722605D01*
X66491000Y-134906333D01*
X66491000Y-135093667D01*
X66454454Y-135277395D01*
X66382766Y-135450466D01*
X66363173Y-135479789D01*
X66278690Y-135606227D01*
X66146227Y-135738690D01*
X66131183Y-135748742D01*
X65990466Y-135842766D01*
X65817395Y-135914454D01*
X65633667Y-135951000D01*
X65446333Y-135951000D01*
X65262605Y-135914454D01*
X65089534Y-135842766D01*
X64948817Y-135748742D01*
X64933773Y-135738690D01*
X64801310Y-135606227D01*
X64716827Y-135479789D01*
X64697234Y-135450466D01*
X64625546Y-135277395D01*
X64589000Y-135093667D01*
X64589000Y-134906333D01*
X64625546Y-134722605D01*
X64697234Y-134549534D01*
X64801309Y-134393775D01*
X64801310Y-134393773D01*
X64933773Y-134261310D01*
X65089533Y-134157235D01*
X65089534Y-134157234D01*
X65262605Y-134085546D01*
X65446333Y-134049000D01*
X65633667Y-134049000D01*
X65817395Y-134085546D01*
G37*
G36*
X63951000Y-135951000D02*
G01*
X62049000Y-135951000D01*
X62049000Y-134049000D01*
X63951000Y-134049000D01*
X63951000Y-135951000D01*
G37*
G36*
X56817395Y-134085546D02*
G01*
X56990466Y-134157234D01*
X56990467Y-134157235D01*
X57146227Y-134261310D01*
X57278690Y-134393773D01*
X57278691Y-134393775D01*
X57382766Y-134549534D01*
X57454454Y-134722605D01*
X57491000Y-134906333D01*
X57491000Y-135093667D01*
X57454454Y-135277395D01*
X57382766Y-135450466D01*
X57363173Y-135479789D01*
X57278690Y-135606227D01*
X57146227Y-135738690D01*
X57131183Y-135748742D01*
X56990466Y-135842766D01*
X56817395Y-135914454D01*
X56633667Y-135951000D01*
X56446333Y-135951000D01*
X56262605Y-135914454D01*
X56089534Y-135842766D01*
X55948817Y-135748742D01*
X55933773Y-135738690D01*
X55801310Y-135606227D01*
X55716827Y-135479789D01*
X55697234Y-135450466D01*
X55625546Y-135277395D01*
X55589000Y-135093667D01*
X55589000Y-134906333D01*
X55625546Y-134722605D01*
X55697234Y-134549534D01*
X55801309Y-134393775D01*
X55801310Y-134393773D01*
X55933773Y-134261310D01*
X56089533Y-134157235D01*
X56089534Y-134157234D01*
X56262605Y-134085546D01*
X56446333Y-134049000D01*
X56633667Y-134049000D01*
X56817395Y-134085546D01*
G37*
G36*
X54951000Y-135951000D02*
G01*
X53049000Y-135951000D01*
X53049000Y-134049000D01*
X54951000Y-134049000D01*
X54951000Y-135951000D01*
G37*
G36*
X127248228Y-133981703D02*
G01*
X127403100Y-134045853D01*
X127542481Y-134138985D01*
X127661015Y-134257519D01*
X127754147Y-134396900D01*
X127818297Y-134551772D01*
X127851000Y-134716184D01*
X127851000Y-134883816D01*
X127818297Y-135048228D01*
X127754147Y-135203100D01*
X127661015Y-135342481D01*
X127542481Y-135461015D01*
X127403100Y-135554147D01*
X127248228Y-135618297D01*
X127083816Y-135651000D01*
X126916184Y-135651000D01*
X126751772Y-135618297D01*
X126596900Y-135554147D01*
X126457519Y-135461015D01*
X126338985Y-135342481D01*
X126245853Y-135203100D01*
X126181703Y-135048228D01*
X126149000Y-134883816D01*
X126149000Y-134716184D01*
X126181703Y-134551772D01*
X126245853Y-134396900D01*
X126338985Y-134257519D01*
X126457519Y-134138985D01*
X126596900Y-134045853D01*
X126751772Y-133981703D01*
X126916184Y-133949000D01*
X127083816Y-133949000D01*
X127248228Y-133981703D01*
G37*
G36*
X135176000Y-134796001D02*
G01*
X132874000Y-134796001D01*
X132874000Y-133494001D01*
X135176000Y-133494001D01*
X135176000Y-134796001D01*
G37*
G36*
X148051000Y-134503500D02*
G01*
X145949000Y-134503500D01*
X145949000Y-132496500D01*
X148051000Y-132496500D01*
X148051000Y-134503500D01*
G37*
G36*
X59613512Y-132223927D02*
G01*
X59762812Y-132253624D01*
X59926784Y-132321544D01*
X60074354Y-132420147D01*
X60199853Y-132545646D01*
X60298456Y-132693216D01*
X60366376Y-132857188D01*
X60401000Y-133031259D01*
X60401000Y-133208741D01*
X60366376Y-133382812D01*
X60298456Y-133546784D01*
X60199853Y-133694354D01*
X60074354Y-133819853D01*
X59926784Y-133918456D01*
X59762812Y-133986376D01*
X59613512Y-134016073D01*
X59588742Y-134021000D01*
X59411258Y-134021000D01*
X59386488Y-134016073D01*
X59237188Y-133986376D01*
X59073216Y-133918456D01*
X58925646Y-133819853D01*
X58800147Y-133694354D01*
X58701544Y-133546784D01*
X58633624Y-133382812D01*
X58599000Y-133208741D01*
X58599000Y-133031259D01*
X58633624Y-132857188D01*
X58701544Y-132693216D01*
X58800147Y-132545646D01*
X58925646Y-132420147D01*
X59073216Y-132321544D01*
X59237188Y-132253624D01*
X59386488Y-132223927D01*
X59411258Y-132219000D01*
X59588742Y-132219000D01*
X59613512Y-132223927D01*
G37*
G36*
X127851000Y-131851000D02*
G01*
X126149000Y-131851000D01*
X126149000Y-130149000D01*
X127851000Y-130149000D01*
X127851000Y-131851000D01*
G37*
G36*
X105976778Y-129870547D02*
G01*
X106143224Y-129939491D01*
X106293022Y-130039583D01*
X106420417Y-130166978D01*
X106520509Y-130316776D01*
X106589453Y-130483222D01*
X106624600Y-130659918D01*
X106624600Y-130840082D01*
X106589453Y-131016778D01*
X106520509Y-131183224D01*
X106420417Y-131333022D01*
X106293022Y-131460417D01*
X106143224Y-131560509D01*
X105976778Y-131629453D01*
X105800082Y-131664600D01*
X105619918Y-131664600D01*
X105443222Y-131629453D01*
X105276776Y-131560509D01*
X105126978Y-131460417D01*
X104999583Y-131333022D01*
X104899491Y-131183224D01*
X104830547Y-131016778D01*
X104795400Y-130840082D01*
X104795400Y-130659918D01*
X104830547Y-130483222D01*
X104899491Y-130316776D01*
X104999583Y-130166978D01*
X105126978Y-130039583D01*
X105276776Y-129939491D01*
X105443222Y-129870547D01*
X105619918Y-129835400D01*
X105800082Y-129835400D01*
X105976778Y-129870547D01*
G37*
G36*
X98664600Y-131664600D02*
G01*
X96835400Y-131664600D01*
X96835400Y-129835400D01*
X98664600Y-129835400D01*
X98664600Y-131664600D01*
G37*
G36*
X85476778Y-129870547D02*
G01*
X85643224Y-129939491D01*
X85793022Y-130039583D01*
X85920417Y-130166978D01*
X86020509Y-130316776D01*
X86089453Y-130483222D01*
X86124600Y-130659918D01*
X86124600Y-130840082D01*
X86089453Y-131016778D01*
X86020509Y-131183224D01*
X85920417Y-131333022D01*
X85793022Y-131460417D01*
X85643224Y-131560509D01*
X85476778Y-131629453D01*
X85300082Y-131664600D01*
X85119918Y-131664600D01*
X84943222Y-131629453D01*
X84776776Y-131560509D01*
X84626978Y-131460417D01*
X84499583Y-131333022D01*
X84399491Y-131183224D01*
X84330547Y-131016778D01*
X84295400Y-130840082D01*
X84295400Y-130659918D01*
X84330547Y-130483222D01*
X84399491Y-130316776D01*
X84499583Y-130166978D01*
X84626978Y-130039583D01*
X84776776Y-129939491D01*
X84943222Y-129870547D01*
X85119918Y-129835400D01*
X85300082Y-129835400D01*
X85476778Y-129870547D01*
G37*
G36*
X88664600Y-131664600D02*
G01*
X86835400Y-131664600D01*
X86835400Y-129835400D01*
X88664600Y-129835400D01*
X88664600Y-131664600D01*
G37*
G36*
X95476778Y-129870547D02*
G01*
X95643224Y-129939491D01*
X95793022Y-130039583D01*
X95920417Y-130166978D01*
X96020509Y-130316776D01*
X96089453Y-130483222D01*
X96124600Y-130659918D01*
X96124600Y-130840082D01*
X96089453Y-131016778D01*
X96020509Y-131183224D01*
X95920417Y-131333022D01*
X95793022Y-131460417D01*
X95643224Y-131560509D01*
X95476778Y-131629453D01*
X95300082Y-131664600D01*
X95119918Y-131664600D01*
X94943222Y-131629453D01*
X94776776Y-131560509D01*
X94626978Y-131460417D01*
X94499583Y-131333022D01*
X94399491Y-131183224D01*
X94330547Y-131016778D01*
X94295400Y-130840082D01*
X94295400Y-130659918D01*
X94330547Y-130483222D01*
X94399491Y-130316776D01*
X94499583Y-130166978D01*
X94626978Y-130039583D01*
X94776776Y-129939491D01*
X94943222Y-129870547D01*
X95119918Y-129835400D01*
X95300082Y-129835400D01*
X95476778Y-129870547D01*
G37*
G36*
X78164600Y-131664600D02*
G01*
X76335400Y-131664600D01*
X76335400Y-129835400D01*
X78164600Y-129835400D01*
X78164600Y-131664600D01*
G37*
G36*
X74976778Y-129870547D02*
G01*
X75143224Y-129939491D01*
X75293022Y-130039583D01*
X75420417Y-130166978D01*
X75520509Y-130316776D01*
X75589453Y-130483222D01*
X75624600Y-130659918D01*
X75624600Y-130840082D01*
X75589453Y-131016778D01*
X75520509Y-131183224D01*
X75420417Y-131333022D01*
X75293022Y-131460417D01*
X75143224Y-131560509D01*
X74976778Y-131629453D01*
X74800082Y-131664600D01*
X74619918Y-131664600D01*
X74443222Y-131629453D01*
X74276776Y-131560509D01*
X74126978Y-131460417D01*
X73999583Y-131333022D01*
X73899491Y-131183224D01*
X73830547Y-131016778D01*
X73795400Y-130840082D01*
X73795400Y-130659918D01*
X73830547Y-130483222D01*
X73899491Y-130316776D01*
X73999583Y-130166978D01*
X74126978Y-130039583D01*
X74276776Y-129939491D01*
X74443222Y-129870547D01*
X74619918Y-129835400D01*
X74800082Y-129835400D01*
X74976778Y-129870547D01*
G37*
G36*
X109164600Y-131664600D02*
G01*
X107335400Y-131664600D01*
X107335400Y-129835400D01*
X109164600Y-129835400D01*
X109164600Y-131664600D01*
G37*
G36*
X118551000Y-131551000D02*
G01*
X116449000Y-131551000D01*
X116449000Y-129449000D01*
X118551000Y-129449000D01*
X118551000Y-131551000D01*
G37*
G36*
X59613512Y-129683927D02*
G01*
X59762812Y-129713624D01*
X59926784Y-129781544D01*
X60074354Y-129880147D01*
X60199853Y-130005646D01*
X60298456Y-130153216D01*
X60366376Y-130317188D01*
X60396073Y-130466488D01*
X60399402Y-130483222D01*
X60401000Y-130491259D01*
X60401000Y-130668741D01*
X60366376Y-130842812D01*
X60298456Y-131006784D01*
X60199853Y-131154354D01*
X60074354Y-131279853D01*
X59926784Y-131378456D01*
X59762812Y-131446376D01*
X59613512Y-131476073D01*
X59588742Y-131481000D01*
X59411258Y-131481000D01*
X59386488Y-131476073D01*
X59237188Y-131446376D01*
X59073216Y-131378456D01*
X58925646Y-131279853D01*
X58800147Y-131154354D01*
X58701544Y-131006784D01*
X58633624Y-130842812D01*
X58599000Y-130668741D01*
X58599000Y-130491259D01*
X58600599Y-130483222D01*
X58603927Y-130466488D01*
X58633624Y-130317188D01*
X58701544Y-130153216D01*
X58800147Y-130005646D01*
X58925646Y-129880147D01*
X59073216Y-129781544D01*
X59237188Y-129713624D01*
X59386488Y-129683927D01*
X59411258Y-129679000D01*
X59588742Y-129679000D01*
X59613512Y-129683927D01*
G37*
G36*
X74976778Y-127330547D02*
G01*
X75143224Y-127399491D01*
X75293022Y-127499583D01*
X75420417Y-127626978D01*
X75520509Y-127776776D01*
X75589453Y-127943222D01*
X75624600Y-128119918D01*
X75624600Y-128300082D01*
X75589453Y-128476778D01*
X75520509Y-128643224D01*
X75420417Y-128793022D01*
X75293022Y-128920417D01*
X75143224Y-129020509D01*
X74976778Y-129089453D01*
X74800082Y-129124600D01*
X74619918Y-129124600D01*
X74443222Y-129089453D01*
X74276776Y-129020509D01*
X74126978Y-128920417D01*
X73999583Y-128793022D01*
X73899491Y-128643224D01*
X73830547Y-128476778D01*
X73795400Y-128300082D01*
X73795400Y-128119918D01*
X73830547Y-127943222D01*
X73899491Y-127776776D01*
X73999583Y-127626978D01*
X74126978Y-127499583D01*
X74276776Y-127399491D01*
X74443222Y-127330547D01*
X74619918Y-127295400D01*
X74800082Y-127295400D01*
X74976778Y-127330547D01*
G37*
G36*
X105976778Y-127330547D02*
G01*
X106143224Y-127399491D01*
X106293022Y-127499583D01*
X106420417Y-127626978D01*
X106520509Y-127776776D01*
X106589453Y-127943222D01*
X106624600Y-128119918D01*
X106624600Y-128300082D01*
X106589453Y-128476778D01*
X106520509Y-128643224D01*
X106420417Y-128793022D01*
X106293022Y-128920417D01*
X106143224Y-129020509D01*
X105976778Y-129089453D01*
X105800082Y-129124600D01*
X105619918Y-129124600D01*
X105443222Y-129089453D01*
X105276776Y-129020509D01*
X105126978Y-128920417D01*
X104999583Y-128793022D01*
X104899491Y-128643224D01*
X104830547Y-128476778D01*
X104795400Y-128300082D01*
X104795400Y-128119918D01*
X104830547Y-127943222D01*
X104899491Y-127776776D01*
X104999583Y-127626978D01*
X105126978Y-127499583D01*
X105276776Y-127399491D01*
X105443222Y-127330547D01*
X105619918Y-127295400D01*
X105800082Y-127295400D01*
X105976778Y-127330547D01*
G37*
G36*
X108516778Y-127330547D02*
G01*
X108683224Y-127399491D01*
X108833022Y-127499583D01*
X108960417Y-127626978D01*
X109060509Y-127776776D01*
X109129453Y-127943222D01*
X109164600Y-128119918D01*
X109164600Y-128300082D01*
X109129453Y-128476778D01*
X109060509Y-128643224D01*
X108960417Y-128793022D01*
X108833022Y-128920417D01*
X108683224Y-129020509D01*
X108516778Y-129089453D01*
X108340082Y-129124600D01*
X108159918Y-129124600D01*
X107983222Y-129089453D01*
X107816776Y-129020509D01*
X107666978Y-128920417D01*
X107539583Y-128793022D01*
X107439491Y-128643224D01*
X107370547Y-128476778D01*
X107335400Y-128300082D01*
X107335400Y-128119918D01*
X107370547Y-127943222D01*
X107439491Y-127776776D01*
X107539583Y-127626978D01*
X107666978Y-127499583D01*
X107816776Y-127399491D01*
X107983222Y-127330547D01*
X108159918Y-127295400D01*
X108340082Y-127295400D01*
X108516778Y-127330547D01*
G37*
G36*
X85476778Y-127330547D02*
G01*
X85643224Y-127399491D01*
X85793022Y-127499583D01*
X85920417Y-127626978D01*
X86020509Y-127776776D01*
X86089453Y-127943222D01*
X86124600Y-128119918D01*
X86124600Y-128300082D01*
X86089453Y-128476778D01*
X86020509Y-128643224D01*
X85920417Y-128793022D01*
X85793022Y-128920417D01*
X85643224Y-129020509D01*
X85476778Y-129089453D01*
X85300082Y-129124600D01*
X85119918Y-129124600D01*
X84943222Y-129089453D01*
X84776776Y-129020509D01*
X84626978Y-128920417D01*
X84499583Y-128793022D01*
X84399491Y-128643224D01*
X84330547Y-128476778D01*
X84295400Y-128300082D01*
X84295400Y-128119918D01*
X84330547Y-127943222D01*
X84399491Y-127776776D01*
X84499583Y-127626978D01*
X84626978Y-127499583D01*
X84776776Y-127399491D01*
X84943222Y-127330547D01*
X85119918Y-127295400D01*
X85300082Y-127295400D01*
X85476778Y-127330547D01*
G37*
G36*
X88016778Y-127330547D02*
G01*
X88183224Y-127399491D01*
X88333022Y-127499583D01*
X88460417Y-127626978D01*
X88560509Y-127776776D01*
X88629453Y-127943222D01*
X88664600Y-128119918D01*
X88664600Y-128300082D01*
X88629453Y-128476778D01*
X88560509Y-128643224D01*
X88460417Y-128793022D01*
X88333022Y-128920417D01*
X88183224Y-129020509D01*
X88016778Y-129089453D01*
X87840082Y-129124600D01*
X87659918Y-129124600D01*
X87483222Y-129089453D01*
X87316776Y-129020509D01*
X87166978Y-128920417D01*
X87039583Y-128793022D01*
X86939491Y-128643224D01*
X86870547Y-128476778D01*
X86835400Y-128300082D01*
X86835400Y-128119918D01*
X86870547Y-127943222D01*
X86939491Y-127776776D01*
X87039583Y-127626978D01*
X87166978Y-127499583D01*
X87316776Y-127399491D01*
X87483222Y-127330547D01*
X87659918Y-127295400D01*
X87840082Y-127295400D01*
X88016778Y-127330547D01*
G37*
G36*
X77516778Y-127330547D02*
G01*
X77683224Y-127399491D01*
X77833022Y-127499583D01*
X77960417Y-127626978D01*
X78060509Y-127776776D01*
X78129453Y-127943222D01*
X78164600Y-128119918D01*
X78164600Y-128300082D01*
X78129453Y-128476778D01*
X78060509Y-128643224D01*
X77960417Y-128793022D01*
X77833022Y-128920417D01*
X77683224Y-129020509D01*
X77516778Y-129089453D01*
X77340082Y-129124600D01*
X77159918Y-129124600D01*
X76983222Y-129089453D01*
X76816776Y-129020509D01*
X76666978Y-128920417D01*
X76539583Y-128793022D01*
X76439491Y-128643224D01*
X76370547Y-128476778D01*
X76335400Y-128300082D01*
X76335400Y-128119918D01*
X76370547Y-127943222D01*
X76439491Y-127776776D01*
X76539583Y-127626978D01*
X76666978Y-127499583D01*
X76816776Y-127399491D01*
X76983222Y-127330547D01*
X77159918Y-127295400D01*
X77340082Y-127295400D01*
X77516778Y-127330547D01*
G37*
G36*
X98016778Y-127330547D02*
G01*
X98183224Y-127399491D01*
X98333022Y-127499583D01*
X98460417Y-127626978D01*
X98560509Y-127776776D01*
X98629453Y-127943222D01*
X98664600Y-128119918D01*
X98664600Y-128300082D01*
X98629453Y-128476778D01*
X98560509Y-128643224D01*
X98460417Y-128793022D01*
X98333022Y-128920417D01*
X98183224Y-129020509D01*
X98016778Y-129089453D01*
X97840082Y-129124600D01*
X97659918Y-129124600D01*
X97483222Y-129089453D01*
X97316776Y-129020509D01*
X97166978Y-128920417D01*
X97039583Y-128793022D01*
X96939491Y-128643224D01*
X96870547Y-128476778D01*
X96835400Y-128300082D01*
X96835400Y-128119918D01*
X96870547Y-127943222D01*
X96939491Y-127776776D01*
X97039583Y-127626978D01*
X97166978Y-127499583D01*
X97316776Y-127399491D01*
X97483222Y-127330547D01*
X97659918Y-127295400D01*
X97840082Y-127295400D01*
X98016778Y-127330547D01*
G37*
G36*
X95476778Y-127330547D02*
G01*
X95643224Y-127399491D01*
X95793022Y-127499583D01*
X95920417Y-127626978D01*
X96020509Y-127776776D01*
X96089453Y-127943222D01*
X96124600Y-128119918D01*
X96124600Y-128300082D01*
X96089453Y-128476778D01*
X96020509Y-128643224D01*
X95920417Y-128793022D01*
X95793022Y-128920417D01*
X95643224Y-129020509D01*
X95476778Y-129089453D01*
X95300082Y-129124600D01*
X95119918Y-129124600D01*
X94943222Y-129089453D01*
X94776776Y-129020509D01*
X94626978Y-128920417D01*
X94499583Y-128793022D01*
X94399491Y-128643224D01*
X94330547Y-128476778D01*
X94295400Y-128300082D01*
X94295400Y-128119918D01*
X94330547Y-127943222D01*
X94399491Y-127776776D01*
X94499583Y-127626978D01*
X94626978Y-127499583D01*
X94776776Y-127399491D01*
X94943222Y-127330547D01*
X95119918Y-127295400D01*
X95300082Y-127295400D01*
X95476778Y-127330547D01*
G37*
G36*
X59613512Y-127143927D02*
G01*
X59762812Y-127173624D01*
X59926784Y-127241544D01*
X60074354Y-127340147D01*
X60199853Y-127465646D01*
X60298456Y-127613216D01*
X60366376Y-127777188D01*
X60396073Y-127926488D01*
X60400949Y-127951000D01*
X60401000Y-127951259D01*
X60401000Y-128128741D01*
X60366376Y-128302812D01*
X60298456Y-128466784D01*
X60199853Y-128614354D01*
X60074354Y-128739853D01*
X59926784Y-128838456D01*
X59762812Y-128906376D01*
X59613512Y-128936073D01*
X59588742Y-128941000D01*
X59411258Y-128941000D01*
X59386488Y-128936073D01*
X59237188Y-128906376D01*
X59073216Y-128838456D01*
X58925646Y-128739853D01*
X58800147Y-128614354D01*
X58701544Y-128466784D01*
X58633624Y-128302812D01*
X58599000Y-128128741D01*
X58599000Y-127951259D01*
X58599052Y-127951000D01*
X58603927Y-127926488D01*
X58633624Y-127777188D01*
X58701544Y-127613216D01*
X58800147Y-127465646D01*
X58925646Y-127340147D01*
X59073216Y-127241544D01*
X59237188Y-127173624D01*
X59386488Y-127143927D01*
X59411258Y-127139000D01*
X59588742Y-127139000D01*
X59613512Y-127143927D01*
G37*
G36*
X147145936Y-126581340D02*
G01*
X147244220Y-126591020D01*
X147433381Y-126648401D01*
X147607712Y-126741583D01*
X147760515Y-126866985D01*
X147885917Y-127019788D01*
X147979099Y-127194119D01*
X148036480Y-127383280D01*
X148055855Y-127580000D01*
X148036480Y-127776720D01*
X147979099Y-127965881D01*
X147885917Y-128140212D01*
X147760515Y-128293015D01*
X147607712Y-128418417D01*
X147433381Y-128511599D01*
X147244220Y-128568980D01*
X147145936Y-128578660D01*
X147096795Y-128583500D01*
X146903205Y-128583500D01*
X146854064Y-128578660D01*
X146755780Y-128568980D01*
X146566619Y-128511599D01*
X146392288Y-128418417D01*
X146239485Y-128293015D01*
X146114083Y-128140212D01*
X146020901Y-127965881D01*
X145963520Y-127776720D01*
X145944145Y-127580000D01*
X145963520Y-127383280D01*
X146020901Y-127194119D01*
X146114083Y-127019788D01*
X146239485Y-126866985D01*
X146392288Y-126741583D01*
X146566619Y-126648401D01*
X146755780Y-126591020D01*
X146854064Y-126581340D01*
X146903205Y-126576500D01*
X147096795Y-126576500D01*
X147145936Y-126581340D01*
G37*
G36*
X143851000Y-127951000D02*
G01*
X137349000Y-127951000D01*
X137349000Y-122049000D01*
X143851000Y-122049000D01*
X143851000Y-127951000D01*
G37*
G36*
X135451000Y-127931000D02*
G01*
X133149000Y-127931000D01*
X133149000Y-126629000D01*
X135451000Y-126629000D01*
X135451000Y-127931000D01*
G37*
G36*
X98016778Y-124790547D02*
G01*
X98183224Y-124859491D01*
X98333022Y-124959583D01*
X98460417Y-125086978D01*
X98560509Y-125236776D01*
X98629453Y-125403222D01*
X98664600Y-125579918D01*
X98664600Y-125760082D01*
X98629453Y-125936778D01*
X98560509Y-126103224D01*
X98460417Y-126253022D01*
X98333022Y-126380417D01*
X98183224Y-126480509D01*
X98016778Y-126549453D01*
X97840082Y-126584600D01*
X97659918Y-126584600D01*
X97483222Y-126549453D01*
X97316776Y-126480509D01*
X97166978Y-126380417D01*
X97039583Y-126253022D01*
X96939491Y-126103224D01*
X96870547Y-125936778D01*
X96835400Y-125760082D01*
X96835400Y-125579918D01*
X96870547Y-125403222D01*
X96939491Y-125236776D01*
X97039583Y-125086978D01*
X97166978Y-124959583D01*
X97316776Y-124859491D01*
X97483222Y-124790547D01*
X97659918Y-124755400D01*
X97840082Y-124755400D01*
X98016778Y-124790547D01*
G37*
G36*
X77516778Y-124790547D02*
G01*
X77683224Y-124859491D01*
X77833022Y-124959583D01*
X77960417Y-125086978D01*
X78060509Y-125236776D01*
X78129453Y-125403222D01*
X78164600Y-125579918D01*
X78164600Y-125760082D01*
X78129453Y-125936778D01*
X78060509Y-126103224D01*
X77960417Y-126253022D01*
X77833022Y-126380417D01*
X77683224Y-126480509D01*
X77516778Y-126549453D01*
X77340082Y-126584600D01*
X77159918Y-126584600D01*
X76983222Y-126549453D01*
X76816776Y-126480509D01*
X76666978Y-126380417D01*
X76539583Y-126253022D01*
X76439491Y-126103224D01*
X76370547Y-125936778D01*
X76335400Y-125760082D01*
X76335400Y-125579918D01*
X76370547Y-125403222D01*
X76439491Y-125236776D01*
X76539583Y-125086978D01*
X76666978Y-124959583D01*
X76816776Y-124859491D01*
X76983222Y-124790547D01*
X77159918Y-124755400D01*
X77340082Y-124755400D01*
X77516778Y-124790547D01*
G37*
G36*
X74976778Y-124790547D02*
G01*
X75143224Y-124859491D01*
X75293022Y-124959583D01*
X75420417Y-125086978D01*
X75520509Y-125236776D01*
X75589453Y-125403222D01*
X75624600Y-125579918D01*
X75624600Y-125760082D01*
X75589453Y-125936778D01*
X75520509Y-126103224D01*
X75420417Y-126253022D01*
X75293022Y-126380417D01*
X75143224Y-126480509D01*
X74976778Y-126549453D01*
X74800082Y-126584600D01*
X74619918Y-126584600D01*
X74443222Y-126549453D01*
X74276776Y-126480509D01*
X74126978Y-126380417D01*
X73999583Y-126253022D01*
X73899491Y-126103224D01*
X73830547Y-125936778D01*
X73795400Y-125760082D01*
X73795400Y-125579918D01*
X73830547Y-125403222D01*
X73899491Y-125236776D01*
X73999583Y-125086978D01*
X74126978Y-124959583D01*
X74276776Y-124859491D01*
X74443222Y-124790547D01*
X74619918Y-124755400D01*
X74800082Y-124755400D01*
X74976778Y-124790547D01*
G37*
G36*
X85476778Y-124790547D02*
G01*
X85643224Y-124859491D01*
X85793022Y-124959583D01*
X85920417Y-125086978D01*
X86020509Y-125236776D01*
X86089453Y-125403222D01*
X86124600Y-125579918D01*
X86124600Y-125760082D01*
X86089453Y-125936778D01*
X86020509Y-126103224D01*
X85920417Y-126253022D01*
X85793022Y-126380417D01*
X85643224Y-126480509D01*
X85476778Y-126549453D01*
X85300082Y-126584600D01*
X85119918Y-126584600D01*
X84943222Y-126549453D01*
X84776776Y-126480509D01*
X84626978Y-126380417D01*
X84499583Y-126253022D01*
X84399491Y-126103224D01*
X84330547Y-125936778D01*
X84295400Y-125760082D01*
X84295400Y-125579918D01*
X84330547Y-125403222D01*
X84399491Y-125236776D01*
X84499583Y-125086978D01*
X84626978Y-124959583D01*
X84776776Y-124859491D01*
X84943222Y-124790547D01*
X85119918Y-124755400D01*
X85300082Y-124755400D01*
X85476778Y-124790547D01*
G37*
G36*
X108516778Y-124790547D02*
G01*
X108683224Y-124859491D01*
X108833022Y-124959583D01*
X108960417Y-125086978D01*
X109060509Y-125236776D01*
X109129453Y-125403222D01*
X109164600Y-125579918D01*
X109164600Y-125760082D01*
X109129453Y-125936778D01*
X109060509Y-126103224D01*
X108960417Y-126253022D01*
X108833022Y-126380417D01*
X108683224Y-126480509D01*
X108516778Y-126549453D01*
X108340082Y-126584600D01*
X108159918Y-126584600D01*
X107983222Y-126549453D01*
X107816776Y-126480509D01*
X107666978Y-126380417D01*
X107539583Y-126253022D01*
X107439491Y-126103224D01*
X107370547Y-125936778D01*
X107335400Y-125760082D01*
X107335400Y-125579918D01*
X107370547Y-125403222D01*
X107439491Y-125236776D01*
X107539583Y-125086978D01*
X107666978Y-124959583D01*
X107816776Y-124859491D01*
X107983222Y-124790547D01*
X108159918Y-124755400D01*
X108340082Y-124755400D01*
X108516778Y-124790547D01*
G37*
G36*
X105976778Y-124790547D02*
G01*
X106143224Y-124859491D01*
X106293022Y-124959583D01*
X106420417Y-125086978D01*
X106520509Y-125236776D01*
X106589453Y-125403222D01*
X106624600Y-125579918D01*
X106624600Y-125760082D01*
X106589453Y-125936778D01*
X106520509Y-126103224D01*
X106420417Y-126253022D01*
X106293022Y-126380417D01*
X106143224Y-126480509D01*
X105976778Y-126549453D01*
X105800082Y-126584600D01*
X105619918Y-126584600D01*
X105443222Y-126549453D01*
X105276776Y-126480509D01*
X105126978Y-126380417D01*
X104999583Y-126253022D01*
X104899491Y-126103224D01*
X104830547Y-125936778D01*
X104795400Y-125760082D01*
X104795400Y-125579918D01*
X104830547Y-125403222D01*
X104899491Y-125236776D01*
X104999583Y-125086978D01*
X105126978Y-124959583D01*
X105276776Y-124859491D01*
X105443222Y-124790547D01*
X105619918Y-124755400D01*
X105800082Y-124755400D01*
X105976778Y-124790547D01*
G37*
G36*
X95476778Y-124790547D02*
G01*
X95643224Y-124859491D01*
X95793022Y-124959583D01*
X95920417Y-125086978D01*
X96020509Y-125236776D01*
X96089453Y-125403222D01*
X96124600Y-125579918D01*
X96124600Y-125760082D01*
X96089453Y-125936778D01*
X96020509Y-126103224D01*
X95920417Y-126253022D01*
X95793022Y-126380417D01*
X95643224Y-126480509D01*
X95476778Y-126549453D01*
X95300082Y-126584600D01*
X95119918Y-126584600D01*
X94943222Y-126549453D01*
X94776776Y-126480509D01*
X94626978Y-126380417D01*
X94499583Y-126253022D01*
X94399491Y-126103224D01*
X94330547Y-125936778D01*
X94295400Y-125760082D01*
X94295400Y-125579918D01*
X94330547Y-125403222D01*
X94399491Y-125236776D01*
X94499583Y-125086978D01*
X94626978Y-124959583D01*
X94776776Y-124859491D01*
X94943222Y-124790547D01*
X95119918Y-124755400D01*
X95300082Y-124755400D01*
X95476778Y-124790547D01*
G37*
G36*
X88016778Y-124790547D02*
G01*
X88183224Y-124859491D01*
X88333022Y-124959583D01*
X88460417Y-125086978D01*
X88560509Y-125236776D01*
X88629453Y-125403222D01*
X88664600Y-125579918D01*
X88664600Y-125760082D01*
X88629453Y-125936778D01*
X88560509Y-126103224D01*
X88460417Y-126253022D01*
X88333022Y-126380417D01*
X88183224Y-126480509D01*
X88016778Y-126549453D01*
X87840082Y-126584600D01*
X87659918Y-126584600D01*
X87483222Y-126549453D01*
X87316776Y-126480509D01*
X87166978Y-126380417D01*
X87039583Y-126253022D01*
X86939491Y-126103224D01*
X86870547Y-125936778D01*
X86835400Y-125760082D01*
X86835400Y-125579918D01*
X86870547Y-125403222D01*
X86939491Y-125236776D01*
X87039583Y-125086978D01*
X87166978Y-124959583D01*
X87316776Y-124859491D01*
X87483222Y-124790547D01*
X87659918Y-124755400D01*
X87840082Y-124755400D01*
X88016778Y-124790547D01*
G37*
G36*
X60401000Y-126401000D02*
G01*
X58599000Y-126401000D01*
X58599000Y-124599000D01*
X60401000Y-124599000D01*
X60401000Y-126401000D01*
G37*
G36*
X117806564Y-123989389D02*
G01*
X117957170Y-124051772D01*
X117997835Y-124068616D01*
X118023174Y-124085547D01*
X118169973Y-124183635D01*
X118316365Y-124330027D01*
X118431385Y-124502167D01*
X118510611Y-124693436D01*
X118551000Y-124896484D01*
X118551000Y-125103516D01*
X118510611Y-125306564D01*
X118431385Y-125497833D01*
X118431384Y-125497835D01*
X118316365Y-125669973D01*
X118169973Y-125816365D01*
X117997835Y-125931384D01*
X117997834Y-125931385D01*
X117997833Y-125931385D01*
X117806564Y-126010611D01*
X117603516Y-126051000D01*
X117396484Y-126051000D01*
X117193436Y-126010611D01*
X117002167Y-125931385D01*
X117002166Y-125931385D01*
X117002165Y-125931384D01*
X116830027Y-125816365D01*
X116683635Y-125669973D01*
X116568616Y-125497835D01*
X116568615Y-125497833D01*
X116489389Y-125306564D01*
X116449000Y-125103516D01*
X116449000Y-124896484D01*
X116489389Y-124693436D01*
X116568615Y-124502167D01*
X116683635Y-124330027D01*
X116830027Y-124183635D01*
X116976826Y-124085547D01*
X117002165Y-124068616D01*
X117042830Y-124051772D01*
X117193436Y-123989389D01*
X117396484Y-123949000D01*
X117603516Y-123949000D01*
X117806564Y-123989389D01*
G37*
G36*
X147145936Y-124041340D02*
G01*
X147244220Y-124051020D01*
X147433381Y-124108401D01*
X147607712Y-124201583D01*
X147760515Y-124326985D01*
X147885917Y-124479788D01*
X147979099Y-124654119D01*
X148036480Y-124843280D01*
X148055855Y-125040000D01*
X148036480Y-125236720D01*
X147979099Y-125425881D01*
X147885917Y-125600212D01*
X147760515Y-125753015D01*
X147607712Y-125878417D01*
X147433381Y-125971599D01*
X147244220Y-126028980D01*
X147145936Y-126038660D01*
X147096795Y-126043500D01*
X146903205Y-126043500D01*
X146854064Y-126038660D01*
X146755780Y-126028980D01*
X146566619Y-125971599D01*
X146392288Y-125878417D01*
X146239485Y-125753015D01*
X146114083Y-125600212D01*
X146020901Y-125425881D01*
X145963520Y-125236720D01*
X145944145Y-125040000D01*
X145963520Y-124843280D01*
X146020901Y-124654119D01*
X146114083Y-124479788D01*
X146239485Y-124326985D01*
X146392288Y-124201583D01*
X146566619Y-124108401D01*
X146755780Y-124051020D01*
X146854064Y-124041340D01*
X146903205Y-124036500D01*
X147096795Y-124036500D01*
X147145936Y-124041340D01*
G37*
G36*
X63951000Y-125951000D02*
G01*
X62049000Y-125951000D01*
X62049000Y-124049000D01*
X63951000Y-124049000D01*
X63951000Y-125951000D01*
G37*
G36*
X65817395Y-124085546D02*
G01*
X65990466Y-124157234D01*
X65990467Y-124157235D01*
X66146227Y-124261310D01*
X66278690Y-124393773D01*
X66278691Y-124393775D01*
X66382766Y-124549534D01*
X66454454Y-124722605D01*
X66491000Y-124906333D01*
X66491000Y-125093667D01*
X66454454Y-125277395D01*
X66382766Y-125450466D01*
X66382765Y-125450467D01*
X66278690Y-125606227D01*
X66146227Y-125738690D01*
X66124788Y-125753015D01*
X65990466Y-125842766D01*
X65817395Y-125914454D01*
X65633667Y-125951000D01*
X65446333Y-125951000D01*
X65262605Y-125914454D01*
X65089534Y-125842766D01*
X64955212Y-125753015D01*
X64933773Y-125738690D01*
X64801310Y-125606227D01*
X64697235Y-125450467D01*
X64697234Y-125450466D01*
X64625546Y-125277395D01*
X64589000Y-125093667D01*
X64589000Y-124906333D01*
X64625546Y-124722605D01*
X64697234Y-124549534D01*
X64801309Y-124393775D01*
X64801310Y-124393773D01*
X64933773Y-124261310D01*
X65089533Y-124157235D01*
X65089534Y-124157234D01*
X65262605Y-124085546D01*
X65446333Y-124049000D01*
X65633667Y-124049000D01*
X65817395Y-124085546D01*
G37*
G36*
X56817395Y-124085546D02*
G01*
X56990466Y-124157234D01*
X56990467Y-124157235D01*
X57146227Y-124261310D01*
X57278690Y-124393773D01*
X57278691Y-124393775D01*
X57382766Y-124549534D01*
X57454454Y-124722605D01*
X57491000Y-124906333D01*
X57491000Y-125093667D01*
X57454454Y-125277395D01*
X57382766Y-125450466D01*
X57382765Y-125450467D01*
X57278690Y-125606227D01*
X57146227Y-125738690D01*
X57124788Y-125753015D01*
X56990466Y-125842766D01*
X56817395Y-125914454D01*
X56633667Y-125951000D01*
X56446333Y-125951000D01*
X56262605Y-125914454D01*
X56089534Y-125842766D01*
X55955212Y-125753015D01*
X55933773Y-125738690D01*
X55801310Y-125606227D01*
X55697235Y-125450467D01*
X55697234Y-125450466D01*
X55625546Y-125277395D01*
X55589000Y-125093667D01*
X55589000Y-124906333D01*
X55625546Y-124722605D01*
X55697234Y-124549534D01*
X55801309Y-124393775D01*
X55801310Y-124393773D01*
X55933773Y-124261310D01*
X56089533Y-124157235D01*
X56089534Y-124157234D01*
X56262605Y-124085546D01*
X56446333Y-124049000D01*
X56633667Y-124049000D01*
X56817395Y-124085546D01*
G37*
G36*
X54951000Y-125951000D02*
G01*
X53049000Y-125951000D01*
X53049000Y-124049000D01*
X54951000Y-124049000D01*
X54951000Y-125951000D01*
G37*
G36*
X135451000Y-125651000D02*
G01*
X133149000Y-125651000D01*
X133149000Y-124349000D01*
X135451000Y-124349000D01*
X135451000Y-125651000D01*
G37*
G36*
X127248228Y-123481703D02*
G01*
X127403100Y-123545853D01*
X127542481Y-123638985D01*
X127661015Y-123757519D01*
X127754147Y-123896900D01*
X127818297Y-124051772D01*
X127851000Y-124216184D01*
X127851000Y-124383816D01*
X127818297Y-124548228D01*
X127754147Y-124703100D01*
X127661015Y-124842481D01*
X127542481Y-124961015D01*
X127403100Y-125054147D01*
X127248228Y-125118297D01*
X127083816Y-125151000D01*
X126916184Y-125151000D01*
X126751772Y-125118297D01*
X126596900Y-125054147D01*
X126457519Y-124961015D01*
X126338985Y-124842481D01*
X126245853Y-124703100D01*
X126181703Y-124548228D01*
X126149000Y-124383816D01*
X126149000Y-124216184D01*
X126181703Y-124051772D01*
X126245853Y-123896900D01*
X126338985Y-123757519D01*
X126457519Y-123638985D01*
X126596900Y-123545853D01*
X126751772Y-123481703D01*
X126916184Y-123449000D01*
X127083816Y-123449000D01*
X127248228Y-123481703D01*
G37*
G36*
X74976778Y-122250547D02*
G01*
X75143224Y-122319491D01*
X75293022Y-122419583D01*
X75420417Y-122546978D01*
X75520509Y-122696776D01*
X75589453Y-122863222D01*
X75624600Y-123039918D01*
X75624600Y-123220082D01*
X75589453Y-123396778D01*
X75520509Y-123563224D01*
X75420417Y-123713022D01*
X75293022Y-123840417D01*
X75143224Y-123940509D01*
X74976778Y-124009453D01*
X74800082Y-124044600D01*
X74619918Y-124044600D01*
X74443222Y-124009453D01*
X74276776Y-123940509D01*
X74126978Y-123840417D01*
X73999583Y-123713022D01*
X73899491Y-123563224D01*
X73830547Y-123396778D01*
X73795400Y-123220082D01*
X73795400Y-123039918D01*
X73830547Y-122863222D01*
X73899491Y-122696776D01*
X73999583Y-122546978D01*
X74126978Y-122419583D01*
X74276776Y-122319491D01*
X74443222Y-122250547D01*
X74619918Y-122215400D01*
X74800082Y-122215400D01*
X74976778Y-122250547D01*
G37*
G36*
X108516778Y-122250547D02*
G01*
X108683224Y-122319491D01*
X108833022Y-122419583D01*
X108960417Y-122546978D01*
X109060509Y-122696776D01*
X109129453Y-122863222D01*
X109164600Y-123039918D01*
X109164600Y-123220082D01*
X109129453Y-123396778D01*
X109060509Y-123563224D01*
X108960417Y-123713022D01*
X108833022Y-123840417D01*
X108683224Y-123940509D01*
X108516778Y-124009453D01*
X108340082Y-124044600D01*
X108159918Y-124044600D01*
X107983222Y-124009453D01*
X107816776Y-123940509D01*
X107666978Y-123840417D01*
X107539583Y-123713022D01*
X107439491Y-123563224D01*
X107370547Y-123396778D01*
X107335400Y-123220082D01*
X107335400Y-123039918D01*
X107370547Y-122863222D01*
X107439491Y-122696776D01*
X107539583Y-122546978D01*
X107666978Y-122419583D01*
X107816776Y-122319491D01*
X107983222Y-122250547D01*
X108159918Y-122215400D01*
X108340082Y-122215400D01*
X108516778Y-122250547D01*
G37*
G36*
X105976778Y-122250547D02*
G01*
X106143224Y-122319491D01*
X106293022Y-122419583D01*
X106420417Y-122546978D01*
X106520509Y-122696776D01*
X106589453Y-122863222D01*
X106624600Y-123039918D01*
X106624600Y-123220082D01*
X106589453Y-123396778D01*
X106520509Y-123563224D01*
X106420417Y-123713022D01*
X106293022Y-123840417D01*
X106143224Y-123940509D01*
X105976778Y-124009453D01*
X105800082Y-124044600D01*
X105619918Y-124044600D01*
X105443222Y-124009453D01*
X105276776Y-123940509D01*
X105126978Y-123840417D01*
X104999583Y-123713022D01*
X104899491Y-123563224D01*
X104830547Y-123396778D01*
X104795400Y-123220082D01*
X104795400Y-123039918D01*
X104830547Y-122863222D01*
X104899491Y-122696776D01*
X104999583Y-122546978D01*
X105126978Y-122419583D01*
X105276776Y-122319491D01*
X105443222Y-122250547D01*
X105619918Y-122215400D01*
X105800082Y-122215400D01*
X105976778Y-122250547D01*
G37*
G36*
X85476778Y-122250547D02*
G01*
X85643224Y-122319491D01*
X85793022Y-122419583D01*
X85920417Y-122546978D01*
X86020509Y-122696776D01*
X86089453Y-122863222D01*
X86124600Y-123039918D01*
X86124600Y-123220082D01*
X86089453Y-123396778D01*
X86020509Y-123563224D01*
X85920417Y-123713022D01*
X85793022Y-123840417D01*
X85643224Y-123940509D01*
X85476778Y-124009453D01*
X85300082Y-124044600D01*
X85119918Y-124044600D01*
X84943222Y-124009453D01*
X84776776Y-123940509D01*
X84626978Y-123840417D01*
X84499583Y-123713022D01*
X84399491Y-123563224D01*
X84330547Y-123396778D01*
X84295400Y-123220082D01*
X84295400Y-123039918D01*
X84330547Y-122863222D01*
X84399491Y-122696776D01*
X84499583Y-122546978D01*
X84626978Y-122419583D01*
X84776776Y-122319491D01*
X84943222Y-122250547D01*
X85119918Y-122215400D01*
X85300082Y-122215400D01*
X85476778Y-122250547D01*
G37*
G36*
X88016778Y-122250547D02*
G01*
X88183224Y-122319491D01*
X88333022Y-122419583D01*
X88460417Y-122546978D01*
X88560509Y-122696776D01*
X88629453Y-122863222D01*
X88664600Y-123039918D01*
X88664600Y-123220082D01*
X88629453Y-123396778D01*
X88560509Y-123563224D01*
X88460417Y-123713022D01*
X88333022Y-123840417D01*
X88183224Y-123940509D01*
X88016778Y-124009453D01*
X87840082Y-124044600D01*
X87659918Y-124044600D01*
X87483222Y-124009453D01*
X87316776Y-123940509D01*
X87166978Y-123840417D01*
X87039583Y-123713022D01*
X86939491Y-123563224D01*
X86870547Y-123396778D01*
X86835400Y-123220082D01*
X86835400Y-123039918D01*
X86870547Y-122863222D01*
X86939491Y-122696776D01*
X87039583Y-122546978D01*
X87166978Y-122419583D01*
X87316776Y-122319491D01*
X87483222Y-122250547D01*
X87659918Y-122215400D01*
X87840082Y-122215400D01*
X88016778Y-122250547D01*
G37*
G36*
X95476778Y-122250547D02*
G01*
X95643224Y-122319491D01*
X95793022Y-122419583D01*
X95920417Y-122546978D01*
X96020509Y-122696776D01*
X96089453Y-122863222D01*
X96124600Y-123039918D01*
X96124600Y-123220082D01*
X96089453Y-123396778D01*
X96020509Y-123563224D01*
X95920417Y-123713022D01*
X95793022Y-123840417D01*
X95643224Y-123940509D01*
X95476778Y-124009453D01*
X95300082Y-124044600D01*
X95119918Y-124044600D01*
X94943222Y-124009453D01*
X94776776Y-123940509D01*
X94626978Y-123840417D01*
X94499583Y-123713022D01*
X94399491Y-123563224D01*
X94330547Y-123396778D01*
X94295400Y-123220082D01*
X94295400Y-123039918D01*
X94330547Y-122863222D01*
X94399491Y-122696776D01*
X94499583Y-122546978D01*
X94626978Y-122419583D01*
X94776776Y-122319491D01*
X94943222Y-122250547D01*
X95119918Y-122215400D01*
X95300082Y-122215400D01*
X95476778Y-122250547D01*
G37*
G36*
X98016778Y-122250547D02*
G01*
X98183224Y-122319491D01*
X98333022Y-122419583D01*
X98460417Y-122546978D01*
X98560509Y-122696776D01*
X98629453Y-122863222D01*
X98664600Y-123039918D01*
X98664600Y-123220082D01*
X98629453Y-123396778D01*
X98560509Y-123563224D01*
X98460417Y-123713022D01*
X98333022Y-123840417D01*
X98183224Y-123940509D01*
X98016778Y-124009453D01*
X97840082Y-124044600D01*
X97659918Y-124044600D01*
X97483222Y-124009453D01*
X97316776Y-123940509D01*
X97166978Y-123840417D01*
X97039583Y-123713022D01*
X96939491Y-123563224D01*
X96870547Y-123396778D01*
X96835400Y-123220082D01*
X96835400Y-123039918D01*
X96870547Y-122863222D01*
X96939491Y-122696776D01*
X97039583Y-122546978D01*
X97166978Y-122419583D01*
X97316776Y-122319491D01*
X97483222Y-122250547D01*
X97659918Y-122215400D01*
X97840082Y-122215400D01*
X98016778Y-122250547D01*
G37*
G36*
X77516778Y-122250547D02*
G01*
X77683224Y-122319491D01*
X77833022Y-122419583D01*
X77960417Y-122546978D01*
X78060509Y-122696776D01*
X78129453Y-122863222D01*
X78164600Y-123039918D01*
X78164600Y-123220082D01*
X78129453Y-123396778D01*
X78060509Y-123563224D01*
X77960417Y-123713022D01*
X77833022Y-123840417D01*
X77683224Y-123940509D01*
X77516778Y-124009453D01*
X77340082Y-124044600D01*
X77159918Y-124044600D01*
X76983222Y-124009453D01*
X76816776Y-123940509D01*
X76666978Y-123840417D01*
X76539583Y-123713022D01*
X76439491Y-123563224D01*
X76370547Y-123396778D01*
X76335400Y-123220082D01*
X76335400Y-123039918D01*
X76370547Y-122863222D01*
X76439491Y-122696776D01*
X76539583Y-122546978D01*
X76666978Y-122419583D01*
X76816776Y-122319491D01*
X76983222Y-122250547D01*
X77159918Y-122215400D01*
X77340082Y-122215400D01*
X77516778Y-122250547D01*
G37*
G36*
X148051000Y-123503500D02*
G01*
X145949000Y-123503500D01*
X145949000Y-121496500D01*
X148051000Y-121496500D01*
X148051000Y-123503500D01*
G37*
G36*
X135451000Y-123371000D02*
G01*
X133149000Y-123371000D01*
X133149000Y-122069000D01*
X135451000Y-122069000D01*
X135451000Y-123371000D01*
G37*
G36*
X74976778Y-119710547D02*
G01*
X75143224Y-119779491D01*
X75293022Y-119879583D01*
X75420417Y-120006978D01*
X75520509Y-120156776D01*
X75589453Y-120323222D01*
X75624600Y-120499918D01*
X75624600Y-120680082D01*
X75589453Y-120856778D01*
X75520509Y-121023224D01*
X75420417Y-121173022D01*
X75293022Y-121300417D01*
X75143224Y-121400509D01*
X74976778Y-121469453D01*
X74800082Y-121504600D01*
X74619918Y-121504600D01*
X74443222Y-121469453D01*
X74276776Y-121400509D01*
X74126978Y-121300417D01*
X73999583Y-121173022D01*
X73899491Y-121023224D01*
X73830547Y-120856778D01*
X73795400Y-120680082D01*
X73795400Y-120499918D01*
X73830547Y-120323222D01*
X73899491Y-120156776D01*
X73999583Y-120006978D01*
X74126978Y-119879583D01*
X74276776Y-119779491D01*
X74443222Y-119710547D01*
X74619918Y-119675400D01*
X74800082Y-119675400D01*
X74976778Y-119710547D01*
G37*
G36*
X77516778Y-119710547D02*
G01*
X77683224Y-119779491D01*
X77833022Y-119879583D01*
X77960417Y-120006978D01*
X78060509Y-120156776D01*
X78129453Y-120323222D01*
X78164600Y-120499918D01*
X78164600Y-120680082D01*
X78129453Y-120856778D01*
X78060509Y-121023224D01*
X77960417Y-121173022D01*
X77833022Y-121300417D01*
X77683224Y-121400509D01*
X77516778Y-121469453D01*
X77340082Y-121504600D01*
X77159918Y-121504600D01*
X76983222Y-121469453D01*
X76816776Y-121400509D01*
X76666978Y-121300417D01*
X76539583Y-121173022D01*
X76439491Y-121023224D01*
X76370547Y-120856778D01*
X76335400Y-120680082D01*
X76335400Y-120499918D01*
X76370547Y-120323222D01*
X76439491Y-120156776D01*
X76539583Y-120006978D01*
X76666978Y-119879583D01*
X76816776Y-119779491D01*
X76983222Y-119710547D01*
X77159918Y-119675400D01*
X77340082Y-119675400D01*
X77516778Y-119710547D01*
G37*
G36*
X85476778Y-119710547D02*
G01*
X85643224Y-119779491D01*
X85793022Y-119879583D01*
X85920417Y-120006978D01*
X86020509Y-120156776D01*
X86089453Y-120323222D01*
X86124600Y-120499918D01*
X86124600Y-120680082D01*
X86089453Y-120856778D01*
X86020509Y-121023224D01*
X85920417Y-121173022D01*
X85793022Y-121300417D01*
X85643224Y-121400509D01*
X85476778Y-121469453D01*
X85300082Y-121504600D01*
X85119918Y-121504600D01*
X84943222Y-121469453D01*
X84776776Y-121400509D01*
X84626978Y-121300417D01*
X84499583Y-121173022D01*
X84399491Y-121023224D01*
X84330547Y-120856778D01*
X84295400Y-120680082D01*
X84295400Y-120499918D01*
X84330547Y-120323222D01*
X84399491Y-120156776D01*
X84499583Y-120006978D01*
X84626978Y-119879583D01*
X84776776Y-119779491D01*
X84943222Y-119710547D01*
X85119918Y-119675400D01*
X85300082Y-119675400D01*
X85476778Y-119710547D01*
G37*
G36*
X88016778Y-119710547D02*
G01*
X88183224Y-119779491D01*
X88333022Y-119879583D01*
X88460417Y-120006978D01*
X88560509Y-120156776D01*
X88629453Y-120323222D01*
X88664600Y-120499918D01*
X88664600Y-120680082D01*
X88629453Y-120856778D01*
X88560509Y-121023224D01*
X88460417Y-121173022D01*
X88333022Y-121300417D01*
X88183224Y-121400509D01*
X88016778Y-121469453D01*
X87840082Y-121504600D01*
X87659918Y-121504600D01*
X87483222Y-121469453D01*
X87316776Y-121400509D01*
X87166978Y-121300417D01*
X87039583Y-121173022D01*
X86939491Y-121023224D01*
X86870547Y-120856778D01*
X86835400Y-120680082D01*
X86835400Y-120499918D01*
X86870547Y-120323222D01*
X86939491Y-120156776D01*
X87039583Y-120006978D01*
X87166978Y-119879583D01*
X87316776Y-119779491D01*
X87483222Y-119710547D01*
X87659918Y-119675400D01*
X87840082Y-119675400D01*
X88016778Y-119710547D01*
G37*
G36*
X98016778Y-119710547D02*
G01*
X98183224Y-119779491D01*
X98333022Y-119879583D01*
X98460417Y-120006978D01*
X98560509Y-120156776D01*
X98629453Y-120323222D01*
X98664600Y-120499918D01*
X98664600Y-120680082D01*
X98629453Y-120856778D01*
X98560509Y-121023224D01*
X98460417Y-121173022D01*
X98333022Y-121300417D01*
X98183224Y-121400509D01*
X98016778Y-121469453D01*
X97840082Y-121504600D01*
X97659918Y-121504600D01*
X97483222Y-121469453D01*
X97316776Y-121400509D01*
X97166978Y-121300417D01*
X97039583Y-121173022D01*
X96939491Y-121023224D01*
X96870547Y-120856778D01*
X96835400Y-120680082D01*
X96835400Y-120499918D01*
X96870547Y-120323222D01*
X96939491Y-120156776D01*
X97039583Y-120006978D01*
X97166978Y-119879583D01*
X97316776Y-119779491D01*
X97483222Y-119710547D01*
X97659918Y-119675400D01*
X97840082Y-119675400D01*
X98016778Y-119710547D01*
G37*
G36*
X105976778Y-119710547D02*
G01*
X106143224Y-119779491D01*
X106293022Y-119879583D01*
X106420417Y-120006978D01*
X106520509Y-120156776D01*
X106589453Y-120323222D01*
X106624600Y-120499918D01*
X106624600Y-120680082D01*
X106589453Y-120856778D01*
X106520509Y-121023224D01*
X106420417Y-121173022D01*
X106293022Y-121300417D01*
X106143224Y-121400509D01*
X105976778Y-121469453D01*
X105800082Y-121504600D01*
X105619918Y-121504600D01*
X105443222Y-121469453D01*
X105276776Y-121400509D01*
X105126978Y-121300417D01*
X104999583Y-121173022D01*
X104899491Y-121023224D01*
X104830547Y-120856778D01*
X104795400Y-120680082D01*
X104795400Y-120499918D01*
X104830547Y-120323222D01*
X104899491Y-120156776D01*
X104999583Y-120006978D01*
X105126978Y-119879583D01*
X105276776Y-119779491D01*
X105443222Y-119710547D01*
X105619918Y-119675400D01*
X105800082Y-119675400D01*
X105976778Y-119710547D01*
G37*
G36*
X108516778Y-119710547D02*
G01*
X108683224Y-119779491D01*
X108833022Y-119879583D01*
X108960417Y-120006978D01*
X109060509Y-120156776D01*
X109129453Y-120323222D01*
X109164600Y-120499918D01*
X109164600Y-120680082D01*
X109129453Y-120856778D01*
X109060509Y-121023224D01*
X108960417Y-121173022D01*
X108833022Y-121300417D01*
X108683224Y-121400509D01*
X108516778Y-121469453D01*
X108340082Y-121504600D01*
X108159918Y-121504600D01*
X107983222Y-121469453D01*
X107816776Y-121400509D01*
X107666978Y-121300417D01*
X107539583Y-121173022D01*
X107439491Y-121023224D01*
X107370547Y-120856778D01*
X107335400Y-120680082D01*
X107335400Y-120499918D01*
X107370547Y-120323222D01*
X107439491Y-120156776D01*
X107539583Y-120006978D01*
X107666978Y-119879583D01*
X107816776Y-119779491D01*
X107983222Y-119710547D01*
X108159918Y-119675400D01*
X108340082Y-119675400D01*
X108516778Y-119710547D01*
G37*
G36*
X95476778Y-119710547D02*
G01*
X95643224Y-119779491D01*
X95793022Y-119879583D01*
X95920417Y-120006978D01*
X96020509Y-120156776D01*
X96089453Y-120323222D01*
X96124600Y-120499918D01*
X96124600Y-120680082D01*
X96089453Y-120856778D01*
X96020509Y-121023224D01*
X95920417Y-121173022D01*
X95793022Y-121300417D01*
X95643224Y-121400509D01*
X95476778Y-121469453D01*
X95300082Y-121504600D01*
X95119918Y-121504600D01*
X94943222Y-121469453D01*
X94776776Y-121400509D01*
X94626978Y-121300417D01*
X94499583Y-121173022D01*
X94399491Y-121023224D01*
X94330547Y-120856778D01*
X94295400Y-120680082D01*
X94295400Y-120499918D01*
X94330547Y-120323222D01*
X94399491Y-120156776D01*
X94499583Y-120006978D01*
X94626978Y-119879583D01*
X94776776Y-119779491D01*
X94943222Y-119710547D01*
X95119918Y-119675400D01*
X95300082Y-119675400D01*
X95476778Y-119710547D01*
G37*
G36*
X127851000Y-121351000D02*
G01*
X126149000Y-121351000D01*
X126149000Y-119649000D01*
X127851000Y-119649000D01*
X127851000Y-121351000D01*
G37*
G36*
X118551000Y-121051000D02*
G01*
X116449000Y-121051000D01*
X116449000Y-118949000D01*
X118551000Y-118949000D01*
X118551000Y-121051000D01*
G37*
G36*
X108516778Y-117170547D02*
G01*
X108683224Y-117239491D01*
X108833022Y-117339583D01*
X108960417Y-117466978D01*
X109060509Y-117616776D01*
X109129453Y-117783222D01*
X109164600Y-117959918D01*
X109164600Y-118140082D01*
X109129453Y-118316778D01*
X109060509Y-118483224D01*
X108960417Y-118633022D01*
X108833022Y-118760417D01*
X108683224Y-118860509D01*
X108516778Y-118929453D01*
X108340082Y-118964600D01*
X108159918Y-118964600D01*
X107983222Y-118929453D01*
X107816776Y-118860509D01*
X107666978Y-118760417D01*
X107539583Y-118633022D01*
X107439491Y-118483224D01*
X107370547Y-118316778D01*
X107335400Y-118140082D01*
X107335400Y-117959918D01*
X107370547Y-117783222D01*
X107439491Y-117616776D01*
X107539583Y-117466978D01*
X107666978Y-117339583D01*
X107816776Y-117239491D01*
X107983222Y-117170547D01*
X108159918Y-117135400D01*
X108340082Y-117135400D01*
X108516778Y-117170547D01*
G37*
G36*
X105976778Y-117170547D02*
G01*
X106143224Y-117239491D01*
X106293022Y-117339583D01*
X106420417Y-117466978D01*
X106520509Y-117616776D01*
X106589453Y-117783222D01*
X106624600Y-117959918D01*
X106624600Y-118140082D01*
X106589453Y-118316778D01*
X106520509Y-118483224D01*
X106420417Y-118633022D01*
X106293022Y-118760417D01*
X106143224Y-118860509D01*
X105976778Y-118929453D01*
X105800082Y-118964600D01*
X105619918Y-118964600D01*
X105443222Y-118929453D01*
X105276776Y-118860509D01*
X105126978Y-118760417D01*
X104999583Y-118633022D01*
X104899491Y-118483224D01*
X104830547Y-118316778D01*
X104795400Y-118140082D01*
X104795400Y-117959918D01*
X104830547Y-117783222D01*
X104899491Y-117616776D01*
X104999583Y-117466978D01*
X105126978Y-117339583D01*
X105276776Y-117239491D01*
X105443222Y-117170547D01*
X105619918Y-117135400D01*
X105800082Y-117135400D01*
X105976778Y-117170547D01*
G37*
G36*
X95476778Y-117170547D02*
G01*
X95643224Y-117239491D01*
X95793022Y-117339583D01*
X95920417Y-117466978D01*
X96020509Y-117616776D01*
X96089453Y-117783222D01*
X96124600Y-117959918D01*
X96124600Y-118140082D01*
X96089453Y-118316778D01*
X96020509Y-118483224D01*
X95920417Y-118633022D01*
X95793022Y-118760417D01*
X95643224Y-118860509D01*
X95476778Y-118929453D01*
X95300082Y-118964600D01*
X95119918Y-118964600D01*
X94943222Y-118929453D01*
X94776776Y-118860509D01*
X94626978Y-118760417D01*
X94499583Y-118633022D01*
X94399491Y-118483224D01*
X94330547Y-118316778D01*
X94295400Y-118140082D01*
X94295400Y-117959918D01*
X94330547Y-117783222D01*
X94399491Y-117616776D01*
X94499583Y-117466978D01*
X94626978Y-117339583D01*
X94776776Y-117239491D01*
X94943222Y-117170547D01*
X95119918Y-117135400D01*
X95300082Y-117135400D01*
X95476778Y-117170547D01*
G37*
G36*
X98016778Y-117170547D02*
G01*
X98183224Y-117239491D01*
X98333022Y-117339583D01*
X98460417Y-117466978D01*
X98560509Y-117616776D01*
X98629453Y-117783222D01*
X98664600Y-117959918D01*
X98664600Y-118140082D01*
X98629453Y-118316778D01*
X98560509Y-118483224D01*
X98460417Y-118633022D01*
X98333022Y-118760417D01*
X98183224Y-118860509D01*
X98016778Y-118929453D01*
X97840082Y-118964600D01*
X97659918Y-118964600D01*
X97483222Y-118929453D01*
X97316776Y-118860509D01*
X97166978Y-118760417D01*
X97039583Y-118633022D01*
X96939491Y-118483224D01*
X96870547Y-118316778D01*
X96835400Y-118140082D01*
X96835400Y-117959918D01*
X96870547Y-117783222D01*
X96939491Y-117616776D01*
X97039583Y-117466978D01*
X97166978Y-117339583D01*
X97316776Y-117239491D01*
X97483222Y-117170547D01*
X97659918Y-117135400D01*
X97840082Y-117135400D01*
X98016778Y-117170547D01*
G37*
G36*
X65134239Y-111811467D02*
G01*
X65448282Y-111873934D01*
X66039926Y-112119001D01*
X66572392Y-112474784D01*
X67025216Y-112927608D01*
X67380999Y-113460074D01*
X67626066Y-114051718D01*
X67626066Y-114051719D01*
X67751000Y-114679803D01*
X67751000Y-115320197D01*
X67713124Y-115510610D01*
X67626066Y-115948282D01*
X67380999Y-116539926D01*
X67025216Y-117072392D01*
X66572392Y-117525216D01*
X66039926Y-117880999D01*
X65448282Y-118126066D01*
X65134239Y-118188533D01*
X64820197Y-118251000D01*
X64179803Y-118251000D01*
X63865761Y-118188533D01*
X63551718Y-118126066D01*
X62960074Y-117880999D01*
X62427608Y-117525216D01*
X61974784Y-117072392D01*
X61619001Y-116539926D01*
X61373934Y-115948282D01*
X61286876Y-115510610D01*
X61249000Y-115320197D01*
X61249000Y-114679803D01*
X61373934Y-114051719D01*
X61373934Y-114051718D01*
X61619001Y-113460074D01*
X61974784Y-112927608D01*
X62427608Y-112474784D01*
X62960074Y-112119001D01*
X63551718Y-111873934D01*
X63865761Y-111811467D01*
X64179803Y-111749000D01*
X64820197Y-111749000D01*
X65134239Y-111811467D01*
G37*
G36*
X147145936Y-115581340D02*
G01*
X147244220Y-115591020D01*
X147433381Y-115648401D01*
X147607712Y-115741583D01*
X147760515Y-115866985D01*
X147885917Y-116019788D01*
X147979099Y-116194119D01*
X148036480Y-116383280D01*
X148055855Y-116580000D01*
X148036480Y-116776720D01*
X147979099Y-116965881D01*
X147885917Y-117140212D01*
X147760515Y-117293015D01*
X147607712Y-117418417D01*
X147433381Y-117511599D01*
X147244220Y-117568980D01*
X147145936Y-117578660D01*
X147096795Y-117583500D01*
X146903205Y-117583500D01*
X146854064Y-117578660D01*
X146755780Y-117568980D01*
X146566619Y-117511599D01*
X146392288Y-117418417D01*
X146239485Y-117293015D01*
X146114083Y-117140212D01*
X146020901Y-116965881D01*
X145963520Y-116776720D01*
X145944145Y-116580000D01*
X145963520Y-116383280D01*
X146020901Y-116194119D01*
X146114083Y-116019788D01*
X146239485Y-115866985D01*
X146392288Y-115741583D01*
X146566619Y-115648401D01*
X146755780Y-115591020D01*
X146854064Y-115581340D01*
X146903205Y-115576500D01*
X147096795Y-115576500D01*
X147145936Y-115581340D01*
G37*
G36*
X143851000Y-116951000D02*
G01*
X137349000Y-116951000D01*
X137349000Y-111049000D01*
X143851000Y-111049000D01*
X143851000Y-116951000D01*
G37*
G36*
X135451000Y-116931000D02*
G01*
X133149000Y-116931000D01*
X133149000Y-115629000D01*
X135451000Y-115629000D01*
X135451000Y-116931000D01*
G37*
G36*
X108516778Y-114630547D02*
G01*
X108683224Y-114699491D01*
X108833022Y-114799583D01*
X108960417Y-114926978D01*
X109060509Y-115076776D01*
X109129453Y-115243222D01*
X109164600Y-115419918D01*
X109164600Y-115600082D01*
X109129453Y-115776778D01*
X109060509Y-115943224D01*
X108960417Y-116093022D01*
X108833022Y-116220417D01*
X108683224Y-116320509D01*
X108516778Y-116389453D01*
X108340082Y-116424600D01*
X108159918Y-116424600D01*
X107983222Y-116389453D01*
X107816776Y-116320509D01*
X107666978Y-116220417D01*
X107539583Y-116093022D01*
X107439491Y-115943224D01*
X107370547Y-115776778D01*
X107335400Y-115600082D01*
X107335400Y-115419918D01*
X107370547Y-115243222D01*
X107439491Y-115076776D01*
X107539583Y-114926978D01*
X107666978Y-114799583D01*
X107816776Y-114699491D01*
X107983222Y-114630547D01*
X108159918Y-114595400D01*
X108340082Y-114595400D01*
X108516778Y-114630547D01*
G37*
G36*
X98016778Y-114630547D02*
G01*
X98183224Y-114699491D01*
X98333022Y-114799583D01*
X98460417Y-114926978D01*
X98560509Y-115076776D01*
X98629453Y-115243222D01*
X98664600Y-115419918D01*
X98664600Y-115600082D01*
X98629453Y-115776778D01*
X98560509Y-115943224D01*
X98460417Y-116093022D01*
X98333022Y-116220417D01*
X98183224Y-116320509D01*
X98016778Y-116389453D01*
X97840082Y-116424600D01*
X97659918Y-116424600D01*
X97483222Y-116389453D01*
X97316776Y-116320509D01*
X97166978Y-116220417D01*
X97039583Y-116093022D01*
X96939491Y-115943224D01*
X96870547Y-115776778D01*
X96835400Y-115600082D01*
X96835400Y-115419918D01*
X96870547Y-115243222D01*
X96939491Y-115076776D01*
X97039583Y-114926978D01*
X97166978Y-114799583D01*
X97316776Y-114699491D01*
X97483222Y-114630547D01*
X97659918Y-114595400D01*
X97840082Y-114595400D01*
X98016778Y-114630547D01*
G37*
G36*
X95476778Y-114630547D02*
G01*
X95643224Y-114699491D01*
X95793022Y-114799583D01*
X95920417Y-114926978D01*
X96020509Y-115076776D01*
X96089453Y-115243222D01*
X96124600Y-115419918D01*
X96124600Y-115600082D01*
X96089453Y-115776778D01*
X96020509Y-115943224D01*
X95920417Y-116093022D01*
X95793022Y-116220417D01*
X95643224Y-116320509D01*
X95476778Y-116389453D01*
X95300082Y-116424600D01*
X95119918Y-116424600D01*
X94943222Y-116389453D01*
X94776776Y-116320509D01*
X94626978Y-116220417D01*
X94499583Y-116093022D01*
X94399491Y-115943224D01*
X94330547Y-115776778D01*
X94295400Y-115600082D01*
X94295400Y-115419918D01*
X94330547Y-115243222D01*
X94399491Y-115076776D01*
X94499583Y-114926978D01*
X94626978Y-114799583D01*
X94776776Y-114699491D01*
X94943222Y-114630547D01*
X95119918Y-114595400D01*
X95300082Y-114595400D01*
X95476778Y-114630547D01*
G37*
G36*
X105976778Y-114630547D02*
G01*
X106143224Y-114699491D01*
X106293022Y-114799583D01*
X106420417Y-114926978D01*
X106520509Y-115076776D01*
X106589453Y-115243222D01*
X106624600Y-115419918D01*
X106624600Y-115600082D01*
X106589453Y-115776778D01*
X106520509Y-115943224D01*
X106420417Y-116093022D01*
X106293022Y-116220417D01*
X106143224Y-116320509D01*
X105976778Y-116389453D01*
X105800082Y-116424600D01*
X105619918Y-116424600D01*
X105443222Y-116389453D01*
X105276776Y-116320509D01*
X105126978Y-116220417D01*
X104999583Y-116093022D01*
X104899491Y-115943224D01*
X104830547Y-115776778D01*
X104795400Y-115600082D01*
X104795400Y-115419918D01*
X104830547Y-115243222D01*
X104899491Y-115076776D01*
X104999583Y-114926978D01*
X105126978Y-114799583D01*
X105276776Y-114699491D01*
X105443222Y-114630547D01*
X105619918Y-114595400D01*
X105800082Y-114595400D01*
X105976778Y-114630547D01*
G37*
G36*
X117806564Y-113489389D02*
G01*
X117960190Y-113553023D01*
X117997835Y-113568616D01*
X118169973Y-113683635D01*
X118316365Y-113830027D01*
X118352830Y-113884600D01*
X118431385Y-114002167D01*
X118510611Y-114193436D01*
X118551000Y-114396484D01*
X118551000Y-114603516D01*
X118510611Y-114806564D01*
X118442252Y-114971598D01*
X118431384Y-114997835D01*
X118316365Y-115169973D01*
X118169973Y-115316365D01*
X117997835Y-115431384D01*
X117997834Y-115431385D01*
X117997833Y-115431385D01*
X117806564Y-115510611D01*
X117603516Y-115551000D01*
X117396484Y-115551000D01*
X117193436Y-115510611D01*
X117002167Y-115431385D01*
X117002166Y-115431385D01*
X117002165Y-115431384D01*
X116830027Y-115316365D01*
X116683635Y-115169973D01*
X116568616Y-114997835D01*
X116557748Y-114971598D01*
X116489389Y-114806564D01*
X116449000Y-114603516D01*
X116449000Y-114396484D01*
X116489389Y-114193436D01*
X116568615Y-114002167D01*
X116647171Y-113884600D01*
X116683635Y-113830027D01*
X116830027Y-113683635D01*
X117002165Y-113568616D01*
X117039810Y-113553023D01*
X117193436Y-113489389D01*
X117396484Y-113449000D01*
X117603516Y-113449000D01*
X117806564Y-113489389D01*
G37*
G36*
X147145936Y-113041340D02*
G01*
X147244220Y-113051020D01*
X147433381Y-113108401D01*
X147607712Y-113201583D01*
X147760515Y-113326985D01*
X147885917Y-113479788D01*
X147979099Y-113654119D01*
X148036480Y-113843280D01*
X148055855Y-114040000D01*
X148036480Y-114236720D01*
X147979099Y-114425881D01*
X147885917Y-114600212D01*
X147760515Y-114753015D01*
X147607712Y-114878417D01*
X147433381Y-114971599D01*
X147244220Y-115028980D01*
X147145936Y-115038660D01*
X147096795Y-115043500D01*
X146903205Y-115043500D01*
X146854064Y-115038660D01*
X146755780Y-115028980D01*
X146566619Y-114971599D01*
X146392288Y-114878417D01*
X146239485Y-114753015D01*
X146114083Y-114600212D01*
X146020901Y-114425881D01*
X145963520Y-114236720D01*
X145944145Y-114040000D01*
X145963520Y-113843280D01*
X146020901Y-113654119D01*
X146114083Y-113479788D01*
X146239485Y-113326985D01*
X146392288Y-113201583D01*
X146566619Y-113108401D01*
X146755780Y-113051020D01*
X146854064Y-113041340D01*
X146903205Y-113036500D01*
X147096795Y-113036500D01*
X147145936Y-113041340D01*
G37*
G36*
X135451000Y-114651000D02*
G01*
X133149000Y-114651000D01*
X133149000Y-113349000D01*
X135451000Y-113349000D01*
X135451000Y-114651000D01*
G37*
G36*
X127248228Y-112981703D02*
G01*
X127403100Y-113045853D01*
X127542481Y-113138985D01*
X127661015Y-113257519D01*
X127754147Y-113396900D01*
X127818297Y-113551772D01*
X127851000Y-113716184D01*
X127851000Y-113883816D01*
X127818297Y-114048228D01*
X127754147Y-114203100D01*
X127661015Y-114342481D01*
X127542481Y-114461015D01*
X127403100Y-114554147D01*
X127248228Y-114618297D01*
X127083816Y-114651000D01*
X126916184Y-114651000D01*
X126751772Y-114618297D01*
X126596900Y-114554147D01*
X126457519Y-114461015D01*
X126338985Y-114342481D01*
X126245853Y-114203100D01*
X126181703Y-114048228D01*
X126149000Y-113883816D01*
X126149000Y-113716184D01*
X126181703Y-113551772D01*
X126245853Y-113396900D01*
X126338985Y-113257519D01*
X126457519Y-113138985D01*
X126596900Y-113045853D01*
X126751772Y-112981703D01*
X126916184Y-112949000D01*
X127083816Y-112949000D01*
X127248228Y-112981703D01*
G37*
G36*
X105976778Y-112090547D02*
G01*
X106143224Y-112159491D01*
X106293022Y-112259583D01*
X106420417Y-112386978D01*
X106520509Y-112536776D01*
X106589453Y-112703222D01*
X106624600Y-112879918D01*
X106624600Y-113060082D01*
X106589453Y-113236778D01*
X106520509Y-113403224D01*
X106420417Y-113553022D01*
X106293022Y-113680417D01*
X106143224Y-113780509D01*
X105976778Y-113849453D01*
X105800082Y-113884600D01*
X105619918Y-113884600D01*
X105443222Y-113849453D01*
X105276776Y-113780509D01*
X105126978Y-113680417D01*
X104999583Y-113553022D01*
X104899491Y-113403224D01*
X104830547Y-113236778D01*
X104795400Y-113060082D01*
X104795400Y-112879918D01*
X104830547Y-112703222D01*
X104899491Y-112536776D01*
X104999583Y-112386978D01*
X105126978Y-112259583D01*
X105276776Y-112159491D01*
X105443222Y-112090547D01*
X105619918Y-112055400D01*
X105800082Y-112055400D01*
X105976778Y-112090547D01*
G37*
G36*
X98016778Y-112090547D02*
G01*
X98183224Y-112159491D01*
X98333022Y-112259583D01*
X98460417Y-112386978D01*
X98560509Y-112536776D01*
X98629453Y-112703222D01*
X98664600Y-112879918D01*
X98664600Y-113060082D01*
X98629453Y-113236778D01*
X98560509Y-113403224D01*
X98460417Y-113553022D01*
X98333022Y-113680417D01*
X98183224Y-113780509D01*
X98016778Y-113849453D01*
X97840082Y-113884600D01*
X97659918Y-113884600D01*
X97483222Y-113849453D01*
X97316776Y-113780509D01*
X97166978Y-113680417D01*
X97039583Y-113553022D01*
X96939491Y-113403224D01*
X96870547Y-113236778D01*
X96835400Y-113060082D01*
X96835400Y-112879918D01*
X96870547Y-112703222D01*
X96939491Y-112536776D01*
X97039583Y-112386978D01*
X97166978Y-112259583D01*
X97316776Y-112159491D01*
X97483222Y-112090547D01*
X97659918Y-112055400D01*
X97840082Y-112055400D01*
X98016778Y-112090547D01*
G37*
G36*
X95476778Y-112090547D02*
G01*
X95643224Y-112159491D01*
X95793022Y-112259583D01*
X95920417Y-112386978D01*
X96020509Y-112536776D01*
X96089453Y-112703222D01*
X96124600Y-112879918D01*
X96124600Y-113060082D01*
X96089453Y-113236778D01*
X96020509Y-113403224D01*
X95920417Y-113553022D01*
X95793022Y-113680417D01*
X95643224Y-113780509D01*
X95476778Y-113849453D01*
X95300082Y-113884600D01*
X95119918Y-113884600D01*
X94943222Y-113849453D01*
X94776776Y-113780509D01*
X94626978Y-113680417D01*
X94499583Y-113553022D01*
X94399491Y-113403224D01*
X94330547Y-113236778D01*
X94295400Y-113060082D01*
X94295400Y-112879918D01*
X94330547Y-112703222D01*
X94399491Y-112536776D01*
X94499583Y-112386978D01*
X94626978Y-112259583D01*
X94776776Y-112159491D01*
X94943222Y-112090547D01*
X95119918Y-112055400D01*
X95300082Y-112055400D01*
X95476778Y-112090547D01*
G37*
G36*
X108516778Y-112090547D02*
G01*
X108683224Y-112159491D01*
X108833022Y-112259583D01*
X108960417Y-112386978D01*
X109060509Y-112536776D01*
X109129453Y-112703222D01*
X109164600Y-112879918D01*
X109164600Y-113060082D01*
X109129453Y-113236778D01*
X109060509Y-113403224D01*
X108960417Y-113553022D01*
X108833022Y-113680417D01*
X108683224Y-113780509D01*
X108516778Y-113849453D01*
X108340082Y-113884600D01*
X108159918Y-113884600D01*
X107983222Y-113849453D01*
X107816776Y-113780509D01*
X107666978Y-113680417D01*
X107539583Y-113553022D01*
X107439491Y-113403224D01*
X107370547Y-113236778D01*
X107335400Y-113060082D01*
X107335400Y-112879918D01*
X107370547Y-112703222D01*
X107439491Y-112536776D01*
X107539583Y-112386978D01*
X107666978Y-112259583D01*
X107816776Y-112159491D01*
X107983222Y-112090547D01*
X108159918Y-112055400D01*
X108340082Y-112055400D01*
X108516778Y-112090547D01*
G37*
G36*
X148051000Y-112503500D02*
G01*
X145949000Y-112503500D01*
X145949000Y-110496500D01*
X148051000Y-110496500D01*
X148051000Y-112503500D01*
G37*
G36*
X135451000Y-112371000D02*
G01*
X133149000Y-112371000D01*
X133149000Y-111069000D01*
X135451000Y-111069000D01*
X135451000Y-112371000D01*
G37*
G36*
X127851000Y-110851000D02*
G01*
X126149000Y-110851000D01*
X126149000Y-109149000D01*
X127851000Y-109149000D01*
X127851000Y-110851000D01*
G37*
G36*
X60877114Y-108639176D02*
G01*
X60971168Y-108648439D01*
X61172299Y-108709451D01*
X61258110Y-108755318D01*
X61357661Y-108808529D01*
X61520133Y-108941867D01*
X61653471Y-109104339D01*
X61706682Y-109203890D01*
X61752549Y-109289701D01*
X61813561Y-109490832D01*
X61834162Y-109700000D01*
X61813561Y-109909168D01*
X61752549Y-110110299D01*
X61706682Y-110196110D01*
X61653471Y-110295661D01*
X61520133Y-110458133D01*
X61357661Y-110591471D01*
X61258110Y-110644682D01*
X61172299Y-110690549D01*
X60971168Y-110751561D01*
X60877114Y-110760824D01*
X60814413Y-110767000D01*
X59185587Y-110767000D01*
X59122886Y-110760824D01*
X59028832Y-110751561D01*
X58827701Y-110690549D01*
X58741890Y-110644682D01*
X58642339Y-110591471D01*
X58479867Y-110458133D01*
X58346529Y-110295661D01*
X58293318Y-110196110D01*
X58247451Y-110110299D01*
X58186439Y-109909168D01*
X58165838Y-109700000D01*
X58186439Y-109490832D01*
X58247451Y-109289701D01*
X58293318Y-109203890D01*
X58346529Y-109104339D01*
X58479867Y-108941867D01*
X58642339Y-108808529D01*
X58741890Y-108755318D01*
X58827701Y-108709451D01*
X59028832Y-108648439D01*
X59122886Y-108639176D01*
X59185587Y-108633000D01*
X60814413Y-108633000D01*
X60877114Y-108639176D01*
G37*
G36*
X118551000Y-110551000D02*
G01*
X116449000Y-110551000D01*
X116449000Y-108449000D01*
X118551000Y-108449000D01*
X118551000Y-110551000D01*
G37*
G36*
X83551000Y-107051000D02*
G01*
X81449000Y-107051000D01*
X81449000Y-104949000D01*
X83551000Y-104949000D01*
X83551000Y-107051000D01*
G37*
G36*
X87806564Y-104989389D02*
G01*
X87997833Y-105068615D01*
X87997835Y-105068616D01*
X88169973Y-105183635D01*
X88316365Y-105330027D01*
X88420505Y-105485883D01*
X88431385Y-105502167D01*
X88510611Y-105693436D01*
X88551000Y-105896484D01*
X88551000Y-106103516D01*
X88510611Y-106306564D01*
X88431385Y-106497833D01*
X88431384Y-106497835D01*
X88316365Y-106669973D01*
X88169973Y-106816365D01*
X87997835Y-106931384D01*
X87997834Y-106931385D01*
X87997833Y-106931385D01*
X87806564Y-107010611D01*
X87603516Y-107051000D01*
X87396484Y-107051000D01*
X87193436Y-107010611D01*
X87002167Y-106931385D01*
X87002166Y-106931385D01*
X87002165Y-106931384D01*
X86830027Y-106816365D01*
X86683635Y-106669973D01*
X86568616Y-106497835D01*
X86568615Y-106497833D01*
X86489389Y-106306564D01*
X86449000Y-106103516D01*
X86449000Y-105896484D01*
X86489389Y-105693436D01*
X86568615Y-105502167D01*
X86579496Y-105485883D01*
X86683635Y-105330027D01*
X86830027Y-105183635D01*
X87002165Y-105068616D01*
X87002167Y-105068615D01*
X87193436Y-104989389D01*
X87396484Y-104949000D01*
X87603516Y-104949000D01*
X87806564Y-104989389D01*
G37*
G36*
X147145936Y-104101340D02*
G01*
X147244220Y-104111020D01*
X147433381Y-104168401D01*
X147607712Y-104261583D01*
X147760515Y-104386985D01*
X147885917Y-104539788D01*
X147979099Y-104714119D01*
X148036480Y-104903280D01*
X148055855Y-105100000D01*
X148036480Y-105296720D01*
X147979099Y-105485881D01*
X147885917Y-105660212D01*
X147760515Y-105813015D01*
X147607712Y-105938417D01*
X147433381Y-106031599D01*
X147244220Y-106088980D01*
X147145936Y-106098660D01*
X147096795Y-106103500D01*
X146903205Y-106103500D01*
X146854064Y-106098660D01*
X146755780Y-106088980D01*
X146566619Y-106031599D01*
X146392288Y-105938417D01*
X146239485Y-105813015D01*
X146114083Y-105660212D01*
X146020901Y-105485881D01*
X145963520Y-105296720D01*
X145944145Y-105100000D01*
X145963520Y-104903280D01*
X146020901Y-104714119D01*
X146114083Y-104539788D01*
X146239485Y-104386985D01*
X146392288Y-104261583D01*
X146566619Y-104168401D01*
X146755780Y-104111020D01*
X146854064Y-104101340D01*
X146903205Y-104096500D01*
X147096795Y-104096500D01*
X147145936Y-104101340D01*
G37*
G36*
X60877114Y-103939176D02*
G01*
X60971168Y-103948439D01*
X61172299Y-104009451D01*
X61258110Y-104055318D01*
X61357661Y-104108529D01*
X61520133Y-104241867D01*
X61653471Y-104404339D01*
X61706682Y-104503890D01*
X61752549Y-104589701D01*
X61813561Y-104790832D01*
X61834162Y-105000000D01*
X61813561Y-105209168D01*
X61752549Y-105410299D01*
X61712149Y-105485881D01*
X61653471Y-105595661D01*
X61520133Y-105758133D01*
X61357661Y-105891471D01*
X61269830Y-105938417D01*
X61172299Y-105990549D01*
X60971168Y-106051561D01*
X60877114Y-106060824D01*
X60814413Y-106067000D01*
X59185587Y-106067000D01*
X59122886Y-106060824D01*
X59028832Y-106051561D01*
X58827701Y-105990549D01*
X58730170Y-105938417D01*
X58642339Y-105891471D01*
X58479867Y-105758133D01*
X58346529Y-105595661D01*
X58287851Y-105485881D01*
X58247451Y-105410299D01*
X58186439Y-105209168D01*
X58165838Y-105000000D01*
X58186439Y-104790832D01*
X58247451Y-104589701D01*
X58293318Y-104503890D01*
X58346529Y-104404339D01*
X58479867Y-104241867D01*
X58642339Y-104108529D01*
X58741890Y-104055318D01*
X58827701Y-104009451D01*
X59028832Y-103948439D01*
X59122886Y-103939176D01*
X59185587Y-103933000D01*
X60814413Y-103933000D01*
X60877114Y-103939176D01*
G37*
G36*
X147145936Y-101561340D02*
G01*
X147244220Y-101571020D01*
X147433381Y-101628401D01*
X147607712Y-101721583D01*
X147760515Y-101846985D01*
X147885917Y-101999788D01*
X147979099Y-102174119D01*
X148036480Y-102363280D01*
X148055855Y-102560000D01*
X148036480Y-102756720D01*
X148006445Y-102855732D01*
X147979098Y-102945883D01*
X147976976Y-102949853D01*
X147885917Y-103120212D01*
X147760515Y-103273015D01*
X147607712Y-103398417D01*
X147433381Y-103491599D01*
X147244220Y-103548980D01*
X147145936Y-103558660D01*
X147096795Y-103563500D01*
X146903205Y-103563500D01*
X146854064Y-103558660D01*
X146755780Y-103548980D01*
X146566619Y-103491599D01*
X146392288Y-103398417D01*
X146239485Y-103273015D01*
X146114083Y-103120212D01*
X146023024Y-102949853D01*
X146020902Y-102945883D01*
X145993555Y-102855732D01*
X145963520Y-102756720D01*
X145944145Y-102560000D01*
X145963520Y-102363280D01*
X146020901Y-102174119D01*
X146114083Y-101999788D01*
X146239485Y-101846985D01*
X146392288Y-101721583D01*
X146566619Y-101628401D01*
X146755780Y-101571020D01*
X146854064Y-101561340D01*
X146903205Y-101556500D01*
X147096795Y-101556500D01*
X147145936Y-101561340D01*
G37*
G36*
X140679059Y-101777860D02*
G01*
X140815732Y-101834472D01*
X140938735Y-101916660D01*
X141043340Y-102021265D01*
X141125528Y-102144268D01*
X141182140Y-102280941D01*
X141211000Y-102426033D01*
X141211000Y-102573967D01*
X141182140Y-102719059D01*
X141125528Y-102855732D01*
X141043340Y-102978735D01*
X140938735Y-103083340D01*
X140815732Y-103165528D01*
X140815731Y-103165529D01*
X140815730Y-103165529D01*
X140679059Y-103222140D01*
X140533968Y-103251000D01*
X140386032Y-103251000D01*
X140240941Y-103222140D01*
X140104270Y-103165529D01*
X140104269Y-103165529D01*
X140104268Y-103165528D01*
X139981265Y-103083340D01*
X139876660Y-102978735D01*
X139794472Y-102855732D01*
X139737860Y-102719059D01*
X139709000Y-102573967D01*
X139709000Y-102426033D01*
X139737860Y-102280941D01*
X139794472Y-102144268D01*
X139876660Y-102021265D01*
X139981265Y-101916660D01*
X140104268Y-101834472D01*
X140240941Y-101777860D01*
X140386032Y-101749000D01*
X140533968Y-101749000D01*
X140679059Y-101777860D01*
G37*
G36*
X143219059Y-101777860D02*
G01*
X143355732Y-101834472D01*
X143478735Y-101916660D01*
X143583340Y-102021265D01*
X143665528Y-102144268D01*
X143722140Y-102280941D01*
X143751000Y-102426033D01*
X143751000Y-102573967D01*
X143722140Y-102719059D01*
X143665528Y-102855732D01*
X143583340Y-102978735D01*
X143478735Y-103083340D01*
X143355732Y-103165528D01*
X143355731Y-103165529D01*
X143355730Y-103165529D01*
X143219059Y-103222140D01*
X143073968Y-103251000D01*
X142926032Y-103251000D01*
X142780941Y-103222140D01*
X142644270Y-103165529D01*
X142644269Y-103165529D01*
X142644268Y-103165528D01*
X142521265Y-103083340D01*
X142416660Y-102978735D01*
X142334472Y-102855732D01*
X142277860Y-102719059D01*
X142249000Y-102573967D01*
X142249000Y-102426033D01*
X142277860Y-102280941D01*
X142334472Y-102144268D01*
X142416660Y-102021265D01*
X142521265Y-101916660D01*
X142644268Y-101834472D01*
X142780941Y-101777860D01*
X142926032Y-101749000D01*
X143073968Y-101749000D01*
X143219059Y-101777860D01*
G37*
G36*
X111273512Y-101353927D02*
G01*
X111422812Y-101383624D01*
X111586784Y-101451544D01*
X111734354Y-101550147D01*
X111859853Y-101675646D01*
X111958456Y-101823216D01*
X112026376Y-101987188D01*
X112061000Y-102161259D01*
X112061000Y-102338741D01*
X112026376Y-102512812D01*
X111958456Y-102676784D01*
X111859853Y-102824354D01*
X111734354Y-102949853D01*
X111586784Y-103048456D01*
X111422812Y-103116376D01*
X111273512Y-103146073D01*
X111248742Y-103151000D01*
X111071258Y-103151000D01*
X111046488Y-103146073D01*
X110897188Y-103116376D01*
X110733216Y-103048456D01*
X110585646Y-102949853D01*
X110460147Y-102824354D01*
X110361544Y-102676784D01*
X110293624Y-102512812D01*
X110259000Y-102338741D01*
X110259000Y-102161259D01*
X110293624Y-101987188D01*
X110361544Y-101823216D01*
X110460147Y-101675646D01*
X110585646Y-101550147D01*
X110733216Y-101451544D01*
X110897188Y-101383624D01*
X111046488Y-101353927D01*
X111071258Y-101349000D01*
X111248742Y-101349000D01*
X111273512Y-101353927D01*
G37*
G36*
X108733512Y-101353927D02*
G01*
X108882812Y-101383624D01*
X109046784Y-101451544D01*
X109194354Y-101550147D01*
X109319853Y-101675646D01*
X109418456Y-101823216D01*
X109486376Y-101987188D01*
X109521000Y-102161259D01*
X109521000Y-102338741D01*
X109486376Y-102512812D01*
X109418456Y-102676784D01*
X109319853Y-102824354D01*
X109194354Y-102949853D01*
X109046784Y-103048456D01*
X108882812Y-103116376D01*
X108733512Y-103146073D01*
X108708742Y-103151000D01*
X108531258Y-103151000D01*
X108506488Y-103146073D01*
X108357188Y-103116376D01*
X108193216Y-103048456D01*
X108045646Y-102949853D01*
X107920147Y-102824354D01*
X107821544Y-102676784D01*
X107753624Y-102512812D01*
X107719000Y-102338741D01*
X107719000Y-102161259D01*
X107753624Y-101987188D01*
X107821544Y-101823216D01*
X107920147Y-101675646D01*
X108045646Y-101550147D01*
X108193216Y-101451544D01*
X108357188Y-101383624D01*
X108506488Y-101353927D01*
X108531258Y-101349000D01*
X108708742Y-101349000D01*
X108733512Y-101353927D01*
G37*
G36*
X98573512Y-101353927D02*
G01*
X98722812Y-101383624D01*
X98886784Y-101451544D01*
X99034354Y-101550147D01*
X99159853Y-101675646D01*
X99258456Y-101823216D01*
X99326376Y-101987188D01*
X99361000Y-102161259D01*
X99361000Y-102338741D01*
X99326376Y-102512812D01*
X99258456Y-102676784D01*
X99159853Y-102824354D01*
X99034354Y-102949853D01*
X98886784Y-103048456D01*
X98722812Y-103116376D01*
X98573512Y-103146073D01*
X98548742Y-103151000D01*
X98371258Y-103151000D01*
X98346488Y-103146073D01*
X98197188Y-103116376D01*
X98033216Y-103048456D01*
X97885646Y-102949853D01*
X97760147Y-102824354D01*
X97661544Y-102676784D01*
X97593624Y-102512812D01*
X97559000Y-102338741D01*
X97559000Y-102161259D01*
X97593624Y-101987188D01*
X97661544Y-101823216D01*
X97760147Y-101675646D01*
X97885646Y-101550147D01*
X98033216Y-101451544D01*
X98197188Y-101383624D01*
X98346488Y-101353927D01*
X98371258Y-101349000D01*
X98548742Y-101349000D01*
X98573512Y-101353927D01*
G37*
G36*
X101113512Y-101353927D02*
G01*
X101262812Y-101383624D01*
X101426784Y-101451544D01*
X101574354Y-101550147D01*
X101699853Y-101675646D01*
X101798456Y-101823216D01*
X101866376Y-101987188D01*
X101901000Y-102161259D01*
X101901000Y-102338741D01*
X101866376Y-102512812D01*
X101798456Y-102676784D01*
X101699853Y-102824354D01*
X101574354Y-102949853D01*
X101426784Y-103048456D01*
X101262812Y-103116376D01*
X101113512Y-103146073D01*
X101088742Y-103151000D01*
X100911258Y-103151000D01*
X100886488Y-103146073D01*
X100737188Y-103116376D01*
X100573216Y-103048456D01*
X100425646Y-102949853D01*
X100300147Y-102824354D01*
X100201544Y-102676784D01*
X100133624Y-102512812D01*
X100099000Y-102338741D01*
X100099000Y-102161259D01*
X100133624Y-101987188D01*
X100201544Y-101823216D01*
X100300147Y-101675646D01*
X100425646Y-101550147D01*
X100573216Y-101451544D01*
X100737188Y-101383624D01*
X100886488Y-101353927D01*
X100911258Y-101349000D01*
X101088742Y-101349000D01*
X101113512Y-101353927D01*
G37*
G36*
X94281000Y-103151000D02*
G01*
X92479000Y-103151000D01*
X92479000Y-101349000D01*
X94281000Y-101349000D01*
X94281000Y-103151000D01*
G37*
G36*
X103653512Y-101353927D02*
G01*
X103802812Y-101383624D01*
X103966784Y-101451544D01*
X104114354Y-101550147D01*
X104239853Y-101675646D01*
X104338456Y-101823216D01*
X104406376Y-101987188D01*
X104441000Y-102161259D01*
X104441000Y-102338741D01*
X104406376Y-102512812D01*
X104338456Y-102676784D01*
X104239853Y-102824354D01*
X104114354Y-102949853D01*
X103966784Y-103048456D01*
X103802812Y-103116376D01*
X103653512Y-103146073D01*
X103628742Y-103151000D01*
X103451258Y-103151000D01*
X103426488Y-103146073D01*
X103277188Y-103116376D01*
X103113216Y-103048456D01*
X102965646Y-102949853D01*
X102840147Y-102824354D01*
X102741544Y-102676784D01*
X102673624Y-102512812D01*
X102639000Y-102338741D01*
X102639000Y-102161259D01*
X102673624Y-101987188D01*
X102741544Y-101823216D01*
X102840147Y-101675646D01*
X102965646Y-101550147D01*
X103113216Y-101451544D01*
X103277188Y-101383624D01*
X103426488Y-101353927D01*
X103451258Y-101349000D01*
X103628742Y-101349000D01*
X103653512Y-101353927D01*
G37*
G36*
X106193512Y-101353927D02*
G01*
X106342812Y-101383624D01*
X106506784Y-101451544D01*
X106654354Y-101550147D01*
X106779853Y-101675646D01*
X106878456Y-101823216D01*
X106946376Y-101987188D01*
X106981000Y-102161259D01*
X106981000Y-102338741D01*
X106946376Y-102512812D01*
X106878456Y-102676784D01*
X106779853Y-102824354D01*
X106654354Y-102949853D01*
X106506784Y-103048456D01*
X106342812Y-103116376D01*
X106193512Y-103146073D01*
X106168742Y-103151000D01*
X105991258Y-103151000D01*
X105966488Y-103146073D01*
X105817188Y-103116376D01*
X105653216Y-103048456D01*
X105505646Y-102949853D01*
X105380147Y-102824354D01*
X105281544Y-102676784D01*
X105213624Y-102512812D01*
X105179000Y-102338741D01*
X105179000Y-102161259D01*
X105213624Y-101987188D01*
X105281544Y-101823216D01*
X105380147Y-101675646D01*
X105505646Y-101550147D01*
X105653216Y-101451544D01*
X105817188Y-101383624D01*
X105966488Y-101353927D01*
X105991258Y-101349000D01*
X106168742Y-101349000D01*
X106193512Y-101353927D01*
G37*
G36*
X96033512Y-101353927D02*
G01*
X96182812Y-101383624D01*
X96346784Y-101451544D01*
X96494354Y-101550147D01*
X96619853Y-101675646D01*
X96718456Y-101823216D01*
X96786376Y-101987188D01*
X96821000Y-102161259D01*
X96821000Y-102338741D01*
X96786376Y-102512812D01*
X96718456Y-102676784D01*
X96619853Y-102824354D01*
X96494354Y-102949853D01*
X96346784Y-103048456D01*
X96182812Y-103116376D01*
X96033512Y-103146073D01*
X96008742Y-103151000D01*
X95831258Y-103151000D01*
X95806488Y-103146073D01*
X95657188Y-103116376D01*
X95493216Y-103048456D01*
X95345646Y-102949853D01*
X95220147Y-102824354D01*
X95121544Y-102676784D01*
X95053624Y-102512812D01*
X95019000Y-102338741D01*
X95019000Y-102161259D01*
X95053624Y-101987188D01*
X95121544Y-101823216D01*
X95220147Y-101675646D01*
X95345646Y-101550147D01*
X95493216Y-101451544D01*
X95657188Y-101383624D01*
X95806488Y-101353927D01*
X95831258Y-101349000D01*
X96008742Y-101349000D01*
X96033512Y-101353927D01*
G37*
G36*
X60877114Y-99239176D02*
G01*
X60971168Y-99248439D01*
X61172299Y-99309451D01*
X61258110Y-99355318D01*
X61357661Y-99408529D01*
X61520133Y-99541867D01*
X61653471Y-99704339D01*
X61680094Y-99754148D01*
X61752549Y-99889701D01*
X61813561Y-100090832D01*
X61834162Y-100300000D01*
X61813561Y-100509168D01*
X61752549Y-100710299D01*
X61706682Y-100796110D01*
X61653471Y-100895661D01*
X61520133Y-101058133D01*
X61357661Y-101191471D01*
X61258110Y-101244682D01*
X61172299Y-101290549D01*
X60971168Y-101351561D01*
X60877114Y-101360824D01*
X60814413Y-101367000D01*
X59185587Y-101367000D01*
X59122886Y-101360824D01*
X59028832Y-101351561D01*
X58827701Y-101290549D01*
X58741890Y-101244682D01*
X58642339Y-101191471D01*
X58479867Y-101058133D01*
X58346529Y-100895661D01*
X58293318Y-100796110D01*
X58247451Y-100710299D01*
X58186439Y-100509168D01*
X58165838Y-100300000D01*
X58186439Y-100090832D01*
X58247451Y-99889701D01*
X58319906Y-99754148D01*
X58346529Y-99704339D01*
X58479867Y-99541867D01*
X58642339Y-99408529D01*
X58741890Y-99355318D01*
X58827701Y-99309451D01*
X59028832Y-99248439D01*
X59122886Y-99239176D01*
X59185587Y-99233000D01*
X60814413Y-99233000D01*
X60877114Y-99239176D01*
G37*
G36*
X148051000Y-101023500D02*
G01*
X145949000Y-101023500D01*
X145949000Y-99016500D01*
X148051000Y-99016500D01*
X148051000Y-101023500D01*
G37*
G36*
X54327395Y-98585546D02*
G01*
X54500466Y-98657234D01*
X54500467Y-98657235D01*
X54656227Y-98761310D01*
X54788690Y-98893773D01*
X54788691Y-98893775D01*
X54892766Y-99049534D01*
X54964454Y-99222605D01*
X55001000Y-99406333D01*
X55001000Y-99593667D01*
X54964454Y-99777395D01*
X54892766Y-99950466D01*
X54892765Y-99950467D01*
X54788690Y-100106227D01*
X54656227Y-100238690D01*
X54577818Y-100291081D01*
X54500466Y-100342766D01*
X54327395Y-100414454D01*
X54143667Y-100451000D01*
X53956333Y-100451000D01*
X53772605Y-100414454D01*
X53599534Y-100342766D01*
X53522182Y-100291081D01*
X53443773Y-100238690D01*
X53311310Y-100106227D01*
X53207235Y-99950467D01*
X53207234Y-99950466D01*
X53135546Y-99777395D01*
X53099000Y-99593667D01*
X53099000Y-99406333D01*
X53135546Y-99222605D01*
X53207234Y-99049534D01*
X53311309Y-98893775D01*
X53311310Y-98893773D01*
X53443773Y-98761310D01*
X53599533Y-98657235D01*
X53599534Y-98657234D01*
X53772605Y-98585546D01*
X53956333Y-98549000D01*
X54143667Y-98549000D01*
X54327395Y-98585546D01*
G37*
G36*
X138351000Y-99851000D02*
G01*
X136649000Y-99851000D01*
X136649000Y-98149000D01*
X138351000Y-98149000D01*
X138351000Y-99851000D01*
G37*
G36*
X130128228Y-98181703D02*
G01*
X130283100Y-98245853D01*
X130422481Y-98338985D01*
X130541015Y-98457519D01*
X130634147Y-98596900D01*
X130698297Y-98751772D01*
X130731000Y-98916184D01*
X130731000Y-99083816D01*
X130698297Y-99248228D01*
X130634147Y-99403100D01*
X130541015Y-99542481D01*
X130422481Y-99661015D01*
X130283100Y-99754147D01*
X130128228Y-99818297D01*
X129963816Y-99851000D01*
X129796184Y-99851000D01*
X129631772Y-99818297D01*
X129476900Y-99754147D01*
X129337519Y-99661015D01*
X129218985Y-99542481D01*
X129125853Y-99403100D01*
X129061703Y-99248228D01*
X129029000Y-99083816D01*
X129029000Y-98916184D01*
X129061703Y-98751772D01*
X129125853Y-98596900D01*
X129218985Y-98457519D01*
X129337519Y-98338985D01*
X129476900Y-98245853D01*
X129631772Y-98181703D01*
X129796184Y-98149000D01*
X129963816Y-98149000D01*
X130128228Y-98181703D01*
G37*
G36*
X66248228Y-96261703D02*
G01*
X66403100Y-96325853D01*
X66542481Y-96418985D01*
X66661015Y-96537519D01*
X66754147Y-96676900D01*
X66818297Y-96831772D01*
X66851000Y-96996184D01*
X66851000Y-97163816D01*
X66818297Y-97328228D01*
X66754147Y-97483100D01*
X66661015Y-97622481D01*
X66542481Y-97741015D01*
X66403100Y-97834147D01*
X66248228Y-97898297D01*
X66083816Y-97931000D01*
X65916184Y-97931000D01*
X65751772Y-97898297D01*
X65596900Y-97834147D01*
X65457519Y-97741015D01*
X65338985Y-97622481D01*
X65245853Y-97483100D01*
X65181703Y-97328228D01*
X65149000Y-97163816D01*
X65149000Y-96996184D01*
X65181703Y-96831772D01*
X65245853Y-96676900D01*
X65338985Y-96537519D01*
X65457519Y-96418985D01*
X65596900Y-96325853D01*
X65751772Y-96261703D01*
X65916184Y-96229000D01*
X66083816Y-96229000D01*
X66248228Y-96261703D01*
G37*
G36*
X58628228Y-96261703D02*
G01*
X58783100Y-96325853D01*
X58922481Y-96418985D01*
X59041015Y-96537519D01*
X59134147Y-96676900D01*
X59198297Y-96831772D01*
X59231000Y-96996184D01*
X59231000Y-97163816D01*
X59198297Y-97328228D01*
X59134147Y-97483100D01*
X59041015Y-97622481D01*
X58922481Y-97741015D01*
X58783100Y-97834147D01*
X58628228Y-97898297D01*
X58463816Y-97931000D01*
X58296184Y-97931000D01*
X58131772Y-97898297D01*
X57976900Y-97834147D01*
X57837519Y-97741015D01*
X57718985Y-97622481D01*
X57625853Y-97483100D01*
X57561703Y-97328228D01*
X57529000Y-97163816D01*
X57529000Y-96996184D01*
X57561703Y-96831772D01*
X57625853Y-96676900D01*
X57718985Y-96537519D01*
X57837519Y-96418985D01*
X57976900Y-96325853D01*
X58131772Y-96261703D01*
X58296184Y-96229000D01*
X58463816Y-96229000D01*
X58628228Y-96261703D01*
G37*
G36*
X137748228Y-95641703D02*
G01*
X137903100Y-95705853D01*
X138042481Y-95798985D01*
X138161015Y-95917519D01*
X138254147Y-96056900D01*
X138318297Y-96211772D01*
X138351000Y-96376184D01*
X138351000Y-96543816D01*
X138318297Y-96708228D01*
X138254147Y-96863100D01*
X138161015Y-97002481D01*
X138042481Y-97121015D01*
X137903100Y-97214147D01*
X137748228Y-97278297D01*
X137583816Y-97311000D01*
X137416184Y-97311000D01*
X137251772Y-97278297D01*
X137096900Y-97214147D01*
X136957519Y-97121015D01*
X136838985Y-97002481D01*
X136745853Y-96863100D01*
X136681703Y-96708228D01*
X136649000Y-96543816D01*
X136649000Y-96376184D01*
X136681703Y-96211772D01*
X136745853Y-96056900D01*
X136838985Y-95917519D01*
X136957519Y-95798985D01*
X137096900Y-95705853D01*
X137251772Y-95641703D01*
X137416184Y-95609000D01*
X137583816Y-95609000D01*
X137748228Y-95641703D01*
G37*
G36*
X130128228Y-95641703D02*
G01*
X130283100Y-95705853D01*
X130422481Y-95798985D01*
X130541015Y-95917519D01*
X130634147Y-96056900D01*
X130698297Y-96211772D01*
X130731000Y-96376184D01*
X130731000Y-96543816D01*
X130698297Y-96708228D01*
X130634147Y-96863100D01*
X130541015Y-97002481D01*
X130422481Y-97121015D01*
X130283100Y-97214147D01*
X130128228Y-97278297D01*
X129963816Y-97311000D01*
X129796184Y-97311000D01*
X129631772Y-97278297D01*
X129476900Y-97214147D01*
X129337519Y-97121015D01*
X129218985Y-97002481D01*
X129125853Y-96863100D01*
X129061703Y-96708228D01*
X129029000Y-96543816D01*
X129029000Y-96376184D01*
X129061703Y-96211772D01*
X129125853Y-96056900D01*
X129218985Y-95917519D01*
X129337519Y-95798985D01*
X129476900Y-95705853D01*
X129631772Y-95641703D01*
X129796184Y-95609000D01*
X129963816Y-95609000D01*
X130128228Y-95641703D01*
G37*
G36*
X84863855Y-94102140D02*
G01*
X84927618Y-94108420D01*
X85018404Y-94135960D01*
X85050336Y-94145646D01*
X85163425Y-94206094D01*
X85262554Y-94287446D01*
X85343906Y-94386575D01*
X85404354Y-94499664D01*
X85404355Y-94499668D01*
X85441580Y-94622382D01*
X85454149Y-94750000D01*
X85441580Y-94877618D01*
X85425999Y-94928980D01*
X85404354Y-95000336D01*
X85343906Y-95113425D01*
X85262554Y-95212554D01*
X85163425Y-95293906D01*
X85050336Y-95354354D01*
X85018404Y-95364040D01*
X84927618Y-95391580D01*
X84863855Y-95397860D01*
X84831974Y-95401000D01*
X83968026Y-95401000D01*
X83936145Y-95397860D01*
X83872382Y-95391580D01*
X83781596Y-95364040D01*
X83749664Y-95354354D01*
X83636575Y-95293906D01*
X83537446Y-95212554D01*
X83456094Y-95113425D01*
X83395646Y-95000336D01*
X83374001Y-94928980D01*
X83358420Y-94877618D01*
X83345851Y-94750000D01*
X83358420Y-94622382D01*
X83395645Y-94499668D01*
X83395646Y-94499664D01*
X83456094Y-94386575D01*
X83537446Y-94287446D01*
X83636575Y-94206094D01*
X83749664Y-94145646D01*
X83781596Y-94135960D01*
X83872382Y-94108420D01*
X83936145Y-94102140D01*
X83968026Y-94099000D01*
X84831974Y-94099000D01*
X84863855Y-94102140D01*
G37*
G36*
X102213855Y-94102140D02*
G01*
X102277618Y-94108420D01*
X102368404Y-94135960D01*
X102400336Y-94145646D01*
X102513425Y-94206094D01*
X102612554Y-94287446D01*
X102693906Y-94386575D01*
X102754354Y-94499664D01*
X102754355Y-94499668D01*
X102791580Y-94622382D01*
X102804149Y-94750000D01*
X102791580Y-94877618D01*
X102775999Y-94928980D01*
X102754354Y-95000336D01*
X102693906Y-95113425D01*
X102612554Y-95212554D01*
X102513425Y-95293906D01*
X102400336Y-95354354D01*
X102368404Y-95364040D01*
X102277618Y-95391580D01*
X102213855Y-95397860D01*
X102181974Y-95401000D01*
X101318026Y-95401000D01*
X101286145Y-95397860D01*
X101222382Y-95391580D01*
X101131596Y-95364040D01*
X101099664Y-95354354D01*
X100986575Y-95293906D01*
X100887446Y-95212554D01*
X100806094Y-95113425D01*
X100745646Y-95000336D01*
X100724001Y-94928980D01*
X100708420Y-94877618D01*
X100695851Y-94750000D01*
X100708420Y-94622382D01*
X100745645Y-94499668D01*
X100745646Y-94499664D01*
X100806094Y-94386575D01*
X100887446Y-94287446D01*
X100986575Y-94206094D01*
X101099664Y-94145646D01*
X101131596Y-94135960D01*
X101222382Y-94108420D01*
X101286145Y-94102140D01*
X101318026Y-94099000D01*
X102181974Y-94099000D01*
X102213855Y-94102140D01*
G37*
G36*
X147145936Y-92941340D02*
G01*
X147244220Y-92951020D01*
X147433381Y-93008401D01*
X147607712Y-93101583D01*
X147760515Y-93226985D01*
X147885917Y-93379788D01*
X147979099Y-93554119D01*
X148036480Y-93743280D01*
X148055855Y-93940000D01*
X148036480Y-94136720D01*
X147979099Y-94325881D01*
X147885917Y-94500212D01*
X147760515Y-94653015D01*
X147607712Y-94778417D01*
X147433381Y-94871599D01*
X147244220Y-94928980D01*
X147145936Y-94938660D01*
X147096795Y-94943500D01*
X146903205Y-94943500D01*
X146854064Y-94938660D01*
X146755780Y-94928980D01*
X146566619Y-94871599D01*
X146392288Y-94778417D01*
X146239485Y-94653015D01*
X146114083Y-94500212D01*
X146020901Y-94325881D01*
X145963520Y-94136720D01*
X145944145Y-93940000D01*
X145963520Y-93743280D01*
X146020901Y-93554119D01*
X146114083Y-93379788D01*
X146239485Y-93226985D01*
X146392288Y-93101583D01*
X146566619Y-93008401D01*
X146755780Y-92951020D01*
X146854064Y-92941340D01*
X146903205Y-92936500D01*
X147096795Y-92936500D01*
X147145936Y-92941340D01*
G37*
G36*
X137748228Y-93101703D02*
G01*
X137903100Y-93165853D01*
X138042481Y-93258985D01*
X138161015Y-93377519D01*
X138254147Y-93516900D01*
X138318297Y-93671772D01*
X138351000Y-93836184D01*
X138351000Y-94003816D01*
X138318297Y-94168228D01*
X138254147Y-94323100D01*
X138161015Y-94462481D01*
X138042481Y-94581015D01*
X137903100Y-94674147D01*
X137748228Y-94738297D01*
X137583816Y-94771000D01*
X137416184Y-94771000D01*
X137251772Y-94738297D01*
X137096900Y-94674147D01*
X136957519Y-94581015D01*
X136838985Y-94462481D01*
X136745853Y-94323100D01*
X136681703Y-94168228D01*
X136649000Y-94003816D01*
X136649000Y-93836184D01*
X136681703Y-93671772D01*
X136745853Y-93516900D01*
X136838985Y-93377519D01*
X136957519Y-93258985D01*
X137096900Y-93165853D01*
X137251772Y-93101703D01*
X137416184Y-93069000D01*
X137583816Y-93069000D01*
X137748228Y-93101703D01*
G37*
G36*
X130128228Y-93101703D02*
G01*
X130283100Y-93165853D01*
X130422481Y-93258985D01*
X130541015Y-93377519D01*
X130634147Y-93516900D01*
X130698297Y-93671772D01*
X130731000Y-93836184D01*
X130731000Y-94003816D01*
X130698297Y-94168228D01*
X130634147Y-94323100D01*
X130541015Y-94462481D01*
X130422481Y-94581015D01*
X130283100Y-94674147D01*
X130128228Y-94738297D01*
X129963816Y-94771000D01*
X129796184Y-94771000D01*
X129631772Y-94738297D01*
X129476900Y-94674147D01*
X129337519Y-94581015D01*
X129218985Y-94462481D01*
X129125853Y-94323100D01*
X129061703Y-94168228D01*
X129029000Y-94003816D01*
X129029000Y-93836184D01*
X129061703Y-93671772D01*
X129125853Y-93516900D01*
X129218985Y-93377519D01*
X129337519Y-93258985D01*
X129476900Y-93165853D01*
X129631772Y-93101703D01*
X129796184Y-93069000D01*
X129963816Y-93069000D01*
X130128228Y-93101703D01*
G37*
G36*
X52277395Y-91085546D02*
G01*
X52450466Y-91157234D01*
X52450467Y-91157235D01*
X52606227Y-91261310D01*
X52738690Y-91393773D01*
X52781284Y-91457520D01*
X52842766Y-91549534D01*
X52914454Y-91722605D01*
X52951000Y-91906333D01*
X52951000Y-92093667D01*
X52914454Y-92277395D01*
X52842766Y-92450466D01*
X52842765Y-92450467D01*
X52738690Y-92606227D01*
X52606227Y-92738690D01*
X52583092Y-92754148D01*
X52450466Y-92842766D01*
X52277395Y-92914454D01*
X52093667Y-92951000D01*
X51906333Y-92951000D01*
X51722605Y-92914454D01*
X51549534Y-92842766D01*
X51416908Y-92754148D01*
X51393773Y-92738690D01*
X51261310Y-92606227D01*
X51157235Y-92450467D01*
X51157234Y-92450466D01*
X51085546Y-92277395D01*
X51049000Y-92093667D01*
X51049000Y-91906333D01*
X51085546Y-91722605D01*
X51157234Y-91549534D01*
X51218716Y-91457520D01*
X51261310Y-91393773D01*
X51393773Y-91261310D01*
X51549533Y-91157235D01*
X51549534Y-91157234D01*
X51722605Y-91085546D01*
X51906333Y-91049000D01*
X52093667Y-91049000D01*
X52277395Y-91085546D01*
G37*
G36*
X66851000Y-92851000D02*
G01*
X65149000Y-92851000D01*
X65149000Y-91149000D01*
X66851000Y-91149000D01*
X66851000Y-92851000D01*
G37*
G36*
X58628228Y-91181703D02*
G01*
X58783100Y-91245853D01*
X58922481Y-91338985D01*
X59041015Y-91457519D01*
X59134147Y-91596900D01*
X59198297Y-91751772D01*
X59231000Y-91916184D01*
X59231000Y-92083816D01*
X59198297Y-92248228D01*
X59134147Y-92403100D01*
X59041015Y-92542481D01*
X58922481Y-92661015D01*
X58783100Y-92754147D01*
X58628228Y-92818297D01*
X58463816Y-92851000D01*
X58296184Y-92851000D01*
X58131772Y-92818297D01*
X57976900Y-92754147D01*
X57837519Y-92661015D01*
X57718985Y-92542481D01*
X57625853Y-92403100D01*
X57561703Y-92248228D01*
X57529000Y-92083816D01*
X57529000Y-91916184D01*
X57561703Y-91751772D01*
X57625853Y-91596900D01*
X57718985Y-91457519D01*
X57837519Y-91338985D01*
X57976900Y-91245853D01*
X58131772Y-91181703D01*
X58296184Y-91149000D01*
X58463816Y-91149000D01*
X58628228Y-91181703D01*
G37*
G36*
X147145936Y-90401340D02*
G01*
X147244220Y-90411020D01*
X147433381Y-90468401D01*
X147607712Y-90561583D01*
X147760515Y-90686985D01*
X147885917Y-90839788D01*
X147979099Y-91014119D01*
X148036480Y-91203280D01*
X148055855Y-91400000D01*
X148036480Y-91596720D01*
X147979099Y-91785881D01*
X147885917Y-91960212D01*
X147760515Y-92113015D01*
X147607712Y-92238417D01*
X147433381Y-92331599D01*
X147244220Y-92388980D01*
X147145936Y-92398660D01*
X147096795Y-92403500D01*
X146903205Y-92403500D01*
X146854064Y-92398660D01*
X146755780Y-92388980D01*
X146566619Y-92331599D01*
X146392288Y-92238417D01*
X146239485Y-92113015D01*
X146114083Y-91960212D01*
X146020901Y-91785881D01*
X145963520Y-91596720D01*
X145944145Y-91400000D01*
X145963520Y-91203280D01*
X146020901Y-91014119D01*
X146114083Y-90839788D01*
X146239485Y-90686985D01*
X146392288Y-90561583D01*
X146566619Y-90468401D01*
X146755780Y-90411020D01*
X146854064Y-90401340D01*
X146903205Y-90396500D01*
X147096795Y-90396500D01*
X147145936Y-90401340D01*
G37*
G36*
X140679059Y-90777860D02*
G01*
X140815732Y-90834472D01*
X140938735Y-90916660D01*
X141043340Y-91021265D01*
X141117178Y-91131772D01*
X141125529Y-91144270D01*
X141182140Y-91280941D01*
X141211000Y-91426032D01*
X141211000Y-91573968D01*
X141206438Y-91596903D01*
X141182140Y-91719059D01*
X141125528Y-91855732D01*
X141043340Y-91978735D01*
X140938735Y-92083340D01*
X140815732Y-92165528D01*
X140815731Y-92165529D01*
X140815730Y-92165529D01*
X140679059Y-92222140D01*
X140533968Y-92251000D01*
X140386032Y-92251000D01*
X140240941Y-92222140D01*
X140104270Y-92165529D01*
X140104269Y-92165529D01*
X140104268Y-92165528D01*
X139981265Y-92083340D01*
X139876660Y-91978735D01*
X139794472Y-91855732D01*
X139737860Y-91719059D01*
X139713562Y-91596903D01*
X139709000Y-91573968D01*
X139709000Y-91426032D01*
X139737860Y-91280941D01*
X139794471Y-91144270D01*
X139802822Y-91131772D01*
X139876660Y-91021265D01*
X139981265Y-90916660D01*
X140104268Y-90834472D01*
X140240941Y-90777860D01*
X140386032Y-90749000D01*
X140533968Y-90749000D01*
X140679059Y-90777860D01*
G37*
G36*
X143219059Y-90777860D02*
G01*
X143355732Y-90834472D01*
X143478735Y-90916660D01*
X143583340Y-91021265D01*
X143657178Y-91131772D01*
X143665529Y-91144270D01*
X143722140Y-91280941D01*
X143751000Y-91426032D01*
X143751000Y-91573968D01*
X143746438Y-91596903D01*
X143722140Y-91719059D01*
X143665528Y-91855732D01*
X143583340Y-91978735D01*
X143478735Y-92083340D01*
X143355732Y-92165528D01*
X143355731Y-92165529D01*
X143355730Y-92165529D01*
X143219059Y-92222140D01*
X143073968Y-92251000D01*
X142926032Y-92251000D01*
X142780941Y-92222140D01*
X142644270Y-92165529D01*
X142644269Y-92165529D01*
X142644268Y-92165528D01*
X142521265Y-92083340D01*
X142416660Y-91978735D01*
X142334472Y-91855732D01*
X142277860Y-91719059D01*
X142253562Y-91596903D01*
X142249000Y-91573968D01*
X142249000Y-91426032D01*
X142277860Y-91280941D01*
X142334471Y-91144270D01*
X142342822Y-91131772D01*
X142416660Y-91021265D01*
X142521265Y-90916660D01*
X142644268Y-90834472D01*
X142780941Y-90777860D01*
X142926032Y-90749000D01*
X143073968Y-90749000D01*
X143219059Y-90777860D01*
G37*
G36*
X130128228Y-90561703D02*
G01*
X130283100Y-90625853D01*
X130422481Y-90718985D01*
X130541015Y-90837519D01*
X130634147Y-90976900D01*
X130698297Y-91131772D01*
X130731000Y-91296184D01*
X130731000Y-91463816D01*
X130698297Y-91628228D01*
X130634147Y-91783100D01*
X130541015Y-91922481D01*
X130422481Y-92041015D01*
X130283100Y-92134147D01*
X130128228Y-92198297D01*
X129963816Y-92231000D01*
X129796184Y-92231000D01*
X129631772Y-92198297D01*
X129476900Y-92134147D01*
X129337519Y-92041015D01*
X129218985Y-91922481D01*
X129125853Y-91783100D01*
X129061703Y-91628228D01*
X129029000Y-91463816D01*
X129029000Y-91296184D01*
X129061703Y-91131772D01*
X129125853Y-90976900D01*
X129218985Y-90837519D01*
X129337519Y-90718985D01*
X129476900Y-90625853D01*
X129631772Y-90561703D01*
X129796184Y-90529000D01*
X129963816Y-90529000D01*
X130128228Y-90561703D01*
G37*
G36*
X137748228Y-90561703D02*
G01*
X137903100Y-90625853D01*
X138042481Y-90718985D01*
X138161015Y-90837519D01*
X138254147Y-90976900D01*
X138318297Y-91131772D01*
X138351000Y-91296184D01*
X138351000Y-91463816D01*
X138318297Y-91628228D01*
X138254147Y-91783100D01*
X138161015Y-91922481D01*
X138042481Y-92041015D01*
X137903100Y-92134147D01*
X137748228Y-92198297D01*
X137583816Y-92231000D01*
X137416184Y-92231000D01*
X137251772Y-92198297D01*
X137096900Y-92134147D01*
X136957519Y-92041015D01*
X136838985Y-91922481D01*
X136745853Y-91783100D01*
X136681703Y-91628228D01*
X136649000Y-91463816D01*
X136649000Y-91296184D01*
X136681703Y-91131772D01*
X136745853Y-90976900D01*
X136838985Y-90837519D01*
X136957519Y-90718985D01*
X137096900Y-90625853D01*
X137251772Y-90561703D01*
X137416184Y-90529000D01*
X137583816Y-90529000D01*
X137748228Y-90561703D01*
G37*
G36*
X148051000Y-89863500D02*
G01*
X145949000Y-89863500D01*
X145949000Y-87856500D01*
X148051000Y-87856500D01*
X148051000Y-89863500D01*
G37*
G36*
X66901000Y-88901000D02*
G01*
X65099000Y-88901000D01*
X65099000Y-87099000D01*
X66901000Y-87099000D01*
X66901000Y-88901000D01*
G37*
G36*
X74401000Y-88901000D02*
G01*
X72599000Y-88901000D01*
X72599000Y-87099000D01*
X74401000Y-87099000D01*
X74401000Y-88901000D01*
G37*
G36*
X73613512Y-84563927D02*
G01*
X73762812Y-84593624D01*
X73926784Y-84661544D01*
X74074354Y-84760147D01*
X74199853Y-84885646D01*
X74298456Y-85033216D01*
X74366376Y-85197188D01*
X74401000Y-85371259D01*
X74401000Y-85548741D01*
X74366376Y-85722812D01*
X74298456Y-85886784D01*
X74199853Y-86034354D01*
X74074354Y-86159853D01*
X73926784Y-86258456D01*
X73762812Y-86326376D01*
X73613512Y-86356073D01*
X73588742Y-86361000D01*
X73411258Y-86361000D01*
X73386488Y-86356073D01*
X73237188Y-86326376D01*
X73073216Y-86258456D01*
X72925646Y-86159853D01*
X72800147Y-86034354D01*
X72701544Y-85886784D01*
X72633624Y-85722812D01*
X72599000Y-85548741D01*
X72599000Y-85371259D01*
X72633624Y-85197188D01*
X72701544Y-85033216D01*
X72800147Y-84885646D01*
X72925646Y-84760147D01*
X73073216Y-84661544D01*
X73237188Y-84593624D01*
X73386488Y-84563927D01*
X73411258Y-84559000D01*
X73588742Y-84559000D01*
X73613512Y-84563927D01*
G37*
G36*
X66113512Y-84563927D02*
G01*
X66262812Y-84593624D01*
X66426784Y-84661544D01*
X66574354Y-84760147D01*
X66699853Y-84885646D01*
X66798456Y-85033216D01*
X66866376Y-85197188D01*
X66901000Y-85371259D01*
X66901000Y-85548741D01*
X66866376Y-85722812D01*
X66798456Y-85886784D01*
X66699853Y-86034354D01*
X66574354Y-86159853D01*
X66426784Y-86258456D01*
X66262812Y-86326376D01*
X66113512Y-86356073D01*
X66088742Y-86361000D01*
X65911258Y-86361000D01*
X65886488Y-86356073D01*
X65737188Y-86326376D01*
X65573216Y-86258456D01*
X65425646Y-86159853D01*
X65300147Y-86034354D01*
X65201544Y-85886784D01*
X65133624Y-85722812D01*
X65099000Y-85548741D01*
X65099000Y-85371259D01*
X65133624Y-85197188D01*
X65201544Y-85033216D01*
X65300147Y-84885646D01*
X65425646Y-84760147D01*
X65573216Y-84661544D01*
X65737188Y-84593624D01*
X65886488Y-84563927D01*
X65911258Y-84559000D01*
X66088742Y-84559000D01*
X66113512Y-84563927D01*
G37*
G36*
X117819059Y-84777860D02*
G01*
X117955732Y-84834472D01*
X118078735Y-84916660D01*
X118183340Y-85021265D01*
X118265528Y-85144268D01*
X118322140Y-85280941D01*
X118351000Y-85426033D01*
X118351000Y-85573967D01*
X118322140Y-85719059D01*
X118265528Y-85855732D01*
X118183340Y-85978735D01*
X118078735Y-86083340D01*
X117955732Y-86165528D01*
X117955731Y-86165529D01*
X117955730Y-86165529D01*
X117819059Y-86222140D01*
X117673968Y-86251000D01*
X117526032Y-86251000D01*
X117380941Y-86222140D01*
X117244270Y-86165529D01*
X117244269Y-86165529D01*
X117244268Y-86165528D01*
X117121265Y-86083340D01*
X117016660Y-85978735D01*
X116934472Y-85855732D01*
X116877860Y-85719059D01*
X116849000Y-85573967D01*
X116849000Y-85426033D01*
X116877860Y-85280941D01*
X116934472Y-85144268D01*
X117016660Y-85021265D01*
X117121265Y-84916660D01*
X117244268Y-84834472D01*
X117380941Y-84777860D01*
X117526032Y-84749000D01*
X117673968Y-84749000D01*
X117819059Y-84777860D01*
G37*
G36*
X113519059Y-84777860D02*
G01*
X113655732Y-84834472D01*
X113778735Y-84916660D01*
X113883340Y-85021265D01*
X113965528Y-85144268D01*
X114022140Y-85280941D01*
X114051000Y-85426033D01*
X114051000Y-85573967D01*
X114022140Y-85719059D01*
X113965528Y-85855732D01*
X113883340Y-85978735D01*
X113778735Y-86083340D01*
X113655732Y-86165528D01*
X113655731Y-86165529D01*
X113655730Y-86165529D01*
X113519059Y-86222140D01*
X113373968Y-86251000D01*
X113226032Y-86251000D01*
X113080941Y-86222140D01*
X112944270Y-86165529D01*
X112944269Y-86165529D01*
X112944268Y-86165528D01*
X112821265Y-86083340D01*
X112716660Y-85978735D01*
X112634472Y-85855732D01*
X112577860Y-85719059D01*
X112549000Y-85573967D01*
X112549000Y-85426033D01*
X112577860Y-85280941D01*
X112634472Y-85144268D01*
X112716660Y-85021265D01*
X112821265Y-84916660D01*
X112944268Y-84834472D01*
X113080941Y-84777860D01*
X113226032Y-84749000D01*
X113373968Y-84749000D01*
X113519059Y-84777860D01*
G37*
G36*
X109219059Y-84777860D02*
G01*
X109355732Y-84834472D01*
X109478735Y-84916660D01*
X109583340Y-85021265D01*
X109665528Y-85144268D01*
X109722140Y-85280941D01*
X109751000Y-85426033D01*
X109751000Y-85573967D01*
X109722140Y-85719059D01*
X109665528Y-85855732D01*
X109583340Y-85978735D01*
X109478735Y-86083340D01*
X109355732Y-86165528D01*
X109355731Y-86165529D01*
X109355730Y-86165529D01*
X109219059Y-86222140D01*
X109073968Y-86251000D01*
X108926032Y-86251000D01*
X108780941Y-86222140D01*
X108644270Y-86165529D01*
X108644269Y-86165529D01*
X108644268Y-86165528D01*
X108521265Y-86083340D01*
X108416660Y-85978735D01*
X108334472Y-85855732D01*
X108277860Y-85719059D01*
X108249000Y-85573967D01*
X108249000Y-85426033D01*
X108277860Y-85280941D01*
X108334472Y-85144268D01*
X108416660Y-85021265D01*
X108521265Y-84916660D01*
X108644268Y-84834472D01*
X108780941Y-84777860D01*
X108926032Y-84749000D01*
X109073968Y-84749000D01*
X109219059Y-84777860D01*
G37*
G36*
X130719059Y-84777860D02*
G01*
X130855732Y-84834472D01*
X130978735Y-84916660D01*
X131083340Y-85021265D01*
X131165528Y-85144268D01*
X131222140Y-85280941D01*
X131251000Y-85426033D01*
X131251000Y-85573967D01*
X131222140Y-85719059D01*
X131165528Y-85855732D01*
X131083340Y-85978735D01*
X130978735Y-86083340D01*
X130855732Y-86165528D01*
X130855731Y-86165529D01*
X130855730Y-86165529D01*
X130719059Y-86222140D01*
X130573968Y-86251000D01*
X130426032Y-86251000D01*
X130280941Y-86222140D01*
X130144270Y-86165529D01*
X130144269Y-86165529D01*
X130144268Y-86165528D01*
X130021265Y-86083340D01*
X129916660Y-85978735D01*
X129834472Y-85855732D01*
X129777860Y-85719059D01*
X129749000Y-85573967D01*
X129749000Y-85426033D01*
X129777860Y-85280941D01*
X129834472Y-85144268D01*
X129916660Y-85021265D01*
X130021265Y-84916660D01*
X130144268Y-84834472D01*
X130280941Y-84777860D01*
X130426032Y-84749000D01*
X130573968Y-84749000D01*
X130719059Y-84777860D01*
G37*
G36*
X122119059Y-84777860D02*
G01*
X122255732Y-84834472D01*
X122378735Y-84916660D01*
X122483340Y-85021265D01*
X122565528Y-85144268D01*
X122622140Y-85280941D01*
X122651000Y-85426033D01*
X122651000Y-85573967D01*
X122622140Y-85719059D01*
X122565528Y-85855732D01*
X122483340Y-85978735D01*
X122378735Y-86083340D01*
X122255732Y-86165528D01*
X122255731Y-86165529D01*
X122255730Y-86165529D01*
X122119059Y-86222140D01*
X121973968Y-86251000D01*
X121826032Y-86251000D01*
X121680941Y-86222140D01*
X121544270Y-86165529D01*
X121544269Y-86165529D01*
X121544268Y-86165528D01*
X121421265Y-86083340D01*
X121316660Y-85978735D01*
X121234472Y-85855732D01*
X121177860Y-85719059D01*
X121149000Y-85573967D01*
X121149000Y-85426033D01*
X121177860Y-85280941D01*
X121234472Y-85144268D01*
X121316660Y-85021265D01*
X121421265Y-84916660D01*
X121544268Y-84834472D01*
X121680941Y-84777860D01*
X121826032Y-84749000D01*
X121973968Y-84749000D01*
X122119059Y-84777860D01*
G37*
G36*
X126419059Y-84777860D02*
G01*
X126555732Y-84834472D01*
X126678735Y-84916660D01*
X126783340Y-85021265D01*
X126865528Y-85144268D01*
X126922140Y-85280941D01*
X126951000Y-85426033D01*
X126951000Y-85573967D01*
X126922140Y-85719059D01*
X126865528Y-85855732D01*
X126783340Y-85978735D01*
X126678735Y-86083340D01*
X126555732Y-86165528D01*
X126555731Y-86165529D01*
X126555730Y-86165529D01*
X126419059Y-86222140D01*
X126273968Y-86251000D01*
X126126032Y-86251000D01*
X125980941Y-86222140D01*
X125844270Y-86165529D01*
X125844269Y-86165529D01*
X125844268Y-86165528D01*
X125721265Y-86083340D01*
X125616660Y-85978735D01*
X125534472Y-85855732D01*
X125477860Y-85719059D01*
X125449000Y-85573967D01*
X125449000Y-85426033D01*
X125477860Y-85280941D01*
X125534472Y-85144268D01*
X125616660Y-85021265D01*
X125721265Y-84916660D01*
X125844268Y-84834472D01*
X125980941Y-84777860D01*
X126126032Y-84749000D01*
X126273968Y-84749000D01*
X126419059Y-84777860D01*
G37*
G36*
X61317395Y-84085546D02*
G01*
X61490466Y-84157234D01*
X61490467Y-84157235D01*
X61646227Y-84261310D01*
X61778690Y-84393773D01*
X61778691Y-84393775D01*
X61882766Y-84549534D01*
X61954454Y-84722605D01*
X61991000Y-84906333D01*
X61991000Y-85093667D01*
X61954454Y-85277395D01*
X61882766Y-85450466D01*
X61882765Y-85450467D01*
X61778690Y-85606227D01*
X61646227Y-85738690D01*
X61567818Y-85791081D01*
X61490466Y-85842766D01*
X61317395Y-85914454D01*
X61133667Y-85951000D01*
X60946333Y-85951000D01*
X60762605Y-85914454D01*
X60589534Y-85842766D01*
X60512182Y-85791081D01*
X60433773Y-85738690D01*
X60301310Y-85606227D01*
X60197235Y-85450467D01*
X60197234Y-85450466D01*
X60125546Y-85277395D01*
X60089000Y-85093667D01*
X60089000Y-84906333D01*
X60125546Y-84722605D01*
X60197234Y-84549534D01*
X60301309Y-84393775D01*
X60301310Y-84393773D01*
X60433773Y-84261310D01*
X60589533Y-84157235D01*
X60589534Y-84157234D01*
X60762605Y-84085546D01*
X60946333Y-84049000D01*
X61133667Y-84049000D01*
X61317395Y-84085546D01*
G37*
G36*
X59451000Y-85951000D02*
G01*
X57549000Y-85951000D01*
X57549000Y-84049000D01*
X59451000Y-84049000D01*
X59451000Y-85951000D01*
G37*
G36*
X66113512Y-82023927D02*
G01*
X66262812Y-82053624D01*
X66426784Y-82121544D01*
X66574354Y-82220147D01*
X66699853Y-82345646D01*
X66798456Y-82493216D01*
X66866376Y-82657188D01*
X66901000Y-82831259D01*
X66901000Y-83008741D01*
X66866376Y-83182812D01*
X66798456Y-83346784D01*
X66699853Y-83494354D01*
X66574354Y-83619853D01*
X66426784Y-83718456D01*
X66262812Y-83786376D01*
X66113512Y-83816073D01*
X66088742Y-83821000D01*
X65911258Y-83821000D01*
X65886488Y-83816073D01*
X65737188Y-83786376D01*
X65573216Y-83718456D01*
X65425646Y-83619853D01*
X65300147Y-83494354D01*
X65201544Y-83346784D01*
X65133624Y-83182812D01*
X65099000Y-83008741D01*
X65099000Y-82831259D01*
X65133624Y-82657188D01*
X65201544Y-82493216D01*
X65300147Y-82345646D01*
X65425646Y-82220147D01*
X65573216Y-82121544D01*
X65737188Y-82053624D01*
X65886488Y-82023927D01*
X65911258Y-82019000D01*
X66088742Y-82019000D01*
X66113512Y-82023927D01*
G37*
G36*
X73613512Y-82023927D02*
G01*
X73762812Y-82053624D01*
X73926784Y-82121544D01*
X74074354Y-82220147D01*
X74199853Y-82345646D01*
X74298456Y-82493216D01*
X74366376Y-82657188D01*
X74401000Y-82831259D01*
X74401000Y-83008741D01*
X74366376Y-83182812D01*
X74298456Y-83346784D01*
X74199853Y-83494354D01*
X74074354Y-83619853D01*
X73926784Y-83718456D01*
X73762812Y-83786376D01*
X73613512Y-83816073D01*
X73588742Y-83821000D01*
X73411258Y-83821000D01*
X73386488Y-83816073D01*
X73237188Y-83786376D01*
X73073216Y-83718456D01*
X72925646Y-83619853D01*
X72800147Y-83494354D01*
X72701544Y-83346784D01*
X72633624Y-83182812D01*
X72599000Y-83008741D01*
X72599000Y-82831259D01*
X72633624Y-82657188D01*
X72701544Y-82493216D01*
X72800147Y-82345646D01*
X72925646Y-82220147D01*
X73073216Y-82121544D01*
X73237188Y-82053624D01*
X73386488Y-82023927D01*
X73411258Y-82019000D01*
X73588742Y-82019000D01*
X73613512Y-82023927D01*
G37*
G36*
X145531000Y-83541000D02*
G01*
X141469000Y-83541000D01*
X141469000Y-81459000D01*
X145531000Y-81459000D01*
X145531000Y-83541000D01*
G37*
G36*
X73613512Y-79483927D02*
G01*
X73762812Y-79513624D01*
X73926784Y-79581544D01*
X74074354Y-79680147D01*
X74199853Y-79805646D01*
X74298456Y-79953216D01*
X74366376Y-80117188D01*
X74401000Y-80291259D01*
X74401000Y-80468741D01*
X74366376Y-80642812D01*
X74298456Y-80806784D01*
X74199853Y-80954354D01*
X74074354Y-81079853D01*
X73926784Y-81178456D01*
X73762812Y-81246376D01*
X73613512Y-81276073D01*
X73588742Y-81281000D01*
X73411258Y-81281000D01*
X73386488Y-81276073D01*
X73237188Y-81246376D01*
X73073216Y-81178456D01*
X72925646Y-81079853D01*
X72800147Y-80954354D01*
X72701544Y-80806784D01*
X72633624Y-80642812D01*
X72599000Y-80468741D01*
X72599000Y-80291259D01*
X72633624Y-80117188D01*
X72701544Y-79953216D01*
X72800147Y-79805646D01*
X72925646Y-79680147D01*
X73073216Y-79581544D01*
X73237188Y-79513624D01*
X73386488Y-79483927D01*
X73411258Y-79479000D01*
X73588742Y-79479000D01*
X73613512Y-79483927D01*
G37*
G36*
X66113512Y-79483927D02*
G01*
X66262812Y-79513624D01*
X66426784Y-79581544D01*
X66574354Y-79680147D01*
X66699853Y-79805646D01*
X66798456Y-79953216D01*
X66866376Y-80117188D01*
X66901000Y-80291259D01*
X66901000Y-80468741D01*
X66866376Y-80642812D01*
X66798456Y-80806784D01*
X66699853Y-80954354D01*
X66574354Y-81079853D01*
X66426784Y-81178456D01*
X66262812Y-81246376D01*
X66113512Y-81276073D01*
X66088742Y-81281000D01*
X65911258Y-81281000D01*
X65886488Y-81276073D01*
X65737188Y-81246376D01*
X65573216Y-81178456D01*
X65425646Y-81079853D01*
X65300147Y-80954354D01*
X65201544Y-80806784D01*
X65133624Y-80642812D01*
X65099000Y-80468741D01*
X65099000Y-80291259D01*
X65133624Y-80117188D01*
X65201544Y-79953216D01*
X65300147Y-79805646D01*
X65425646Y-79680147D01*
X65573216Y-79581544D01*
X65737188Y-79513624D01*
X65886488Y-79483927D01*
X65911258Y-79479000D01*
X66088742Y-79479000D01*
X66113512Y-79483927D01*
G37*
G36*
X109219059Y-79697860D02*
G01*
X109355732Y-79754472D01*
X109478735Y-79836660D01*
X109583340Y-79941265D01*
X109665528Y-80064268D01*
X109665529Y-80064270D01*
X109722140Y-80200941D01*
X109751000Y-80346032D01*
X109751000Y-80493968D01*
X109739656Y-80551000D01*
X109722140Y-80639059D01*
X109665528Y-80775732D01*
X109583340Y-80898735D01*
X109478735Y-81003340D01*
X109355732Y-81085528D01*
X109355731Y-81085529D01*
X109355730Y-81085529D01*
X109219059Y-81142140D01*
X109073968Y-81171000D01*
X108926032Y-81171000D01*
X108780941Y-81142140D01*
X108644270Y-81085529D01*
X108644269Y-81085529D01*
X108644268Y-81085528D01*
X108521265Y-81003340D01*
X108416660Y-80898735D01*
X108334472Y-80775732D01*
X108277860Y-80639059D01*
X108260344Y-80551000D01*
X108249000Y-80493968D01*
X108249000Y-80346032D01*
X108277860Y-80200941D01*
X108334471Y-80064270D01*
X108334472Y-80064268D01*
X108416660Y-79941265D01*
X108521265Y-79836660D01*
X108644268Y-79754472D01*
X108780941Y-79697860D01*
X108926032Y-79669000D01*
X109073968Y-79669000D01*
X109219059Y-79697860D01*
G37*
G36*
X122119059Y-79697860D02*
G01*
X122255732Y-79754472D01*
X122378735Y-79836660D01*
X122483340Y-79941265D01*
X122565528Y-80064268D01*
X122565529Y-80064270D01*
X122622140Y-80200941D01*
X122651000Y-80346032D01*
X122651000Y-80493968D01*
X122639656Y-80551000D01*
X122622140Y-80639059D01*
X122565528Y-80775732D01*
X122483340Y-80898735D01*
X122378735Y-81003340D01*
X122255732Y-81085528D01*
X122255731Y-81085529D01*
X122255730Y-81085529D01*
X122119059Y-81142140D01*
X121973968Y-81171000D01*
X121826032Y-81171000D01*
X121680941Y-81142140D01*
X121544270Y-81085529D01*
X121544269Y-81085529D01*
X121544268Y-81085528D01*
X121421265Y-81003340D01*
X121316660Y-80898735D01*
X121234472Y-80775732D01*
X121177860Y-80639059D01*
X121160344Y-80551000D01*
X121149000Y-80493968D01*
X121149000Y-80346032D01*
X121177860Y-80200941D01*
X121234471Y-80064270D01*
X121234472Y-80064268D01*
X121316660Y-79941265D01*
X121421265Y-79836660D01*
X121544268Y-79754472D01*
X121680941Y-79697860D01*
X121826032Y-79669000D01*
X121973968Y-79669000D01*
X122119059Y-79697860D01*
G37*
G36*
X126419059Y-79697860D02*
G01*
X126555732Y-79754472D01*
X126678735Y-79836660D01*
X126783340Y-79941265D01*
X126865528Y-80064268D01*
X126865529Y-80064270D01*
X126922140Y-80200941D01*
X126951000Y-80346032D01*
X126951000Y-80493968D01*
X126939656Y-80551000D01*
X126922140Y-80639059D01*
X126865528Y-80775732D01*
X126783340Y-80898735D01*
X126678735Y-81003340D01*
X126555732Y-81085528D01*
X126555731Y-81085529D01*
X126555730Y-81085529D01*
X126419059Y-81142140D01*
X126273968Y-81171000D01*
X126126032Y-81171000D01*
X125980941Y-81142140D01*
X125844270Y-81085529D01*
X125844269Y-81085529D01*
X125844268Y-81085528D01*
X125721265Y-81003340D01*
X125616660Y-80898735D01*
X125534472Y-80775732D01*
X125477860Y-80639059D01*
X125460344Y-80551000D01*
X125449000Y-80493968D01*
X125449000Y-80346032D01*
X125477860Y-80200941D01*
X125534471Y-80064270D01*
X125534472Y-80064268D01*
X125616660Y-79941265D01*
X125721265Y-79836660D01*
X125844268Y-79754472D01*
X125980941Y-79697860D01*
X126126032Y-79669000D01*
X126273968Y-79669000D01*
X126419059Y-79697860D01*
G37*
G36*
X117819059Y-79697860D02*
G01*
X117955732Y-79754472D01*
X118078735Y-79836660D01*
X118183340Y-79941265D01*
X118265528Y-80064268D01*
X118265529Y-80064270D01*
X118322140Y-80200941D01*
X118351000Y-80346032D01*
X118351000Y-80493968D01*
X118339656Y-80551000D01*
X118322140Y-80639059D01*
X118265528Y-80775732D01*
X118183340Y-80898735D01*
X118078735Y-81003340D01*
X117955732Y-81085528D01*
X117955731Y-81085529D01*
X117955730Y-81085529D01*
X117819059Y-81142140D01*
X117673968Y-81171000D01*
X117526032Y-81171000D01*
X117380941Y-81142140D01*
X117244270Y-81085529D01*
X117244269Y-81085529D01*
X117244268Y-81085528D01*
X117121265Y-81003340D01*
X117016660Y-80898735D01*
X116934472Y-80775732D01*
X116877860Y-80639059D01*
X116860344Y-80551000D01*
X116849000Y-80493968D01*
X116849000Y-80346032D01*
X116877860Y-80200941D01*
X116934471Y-80064270D01*
X116934472Y-80064268D01*
X117016660Y-79941265D01*
X117121265Y-79836660D01*
X117244268Y-79754472D01*
X117380941Y-79697860D01*
X117526032Y-79669000D01*
X117673968Y-79669000D01*
X117819059Y-79697860D01*
G37*
G36*
X113519059Y-79697860D02*
G01*
X113655732Y-79754472D01*
X113778735Y-79836660D01*
X113883340Y-79941265D01*
X113965528Y-80064268D01*
X113965529Y-80064270D01*
X114022140Y-80200941D01*
X114051000Y-80346032D01*
X114051000Y-80493968D01*
X114039656Y-80551000D01*
X114022140Y-80639059D01*
X113965528Y-80775732D01*
X113883340Y-80898735D01*
X113778735Y-81003340D01*
X113655732Y-81085528D01*
X113655731Y-81085529D01*
X113655730Y-81085529D01*
X113519059Y-81142140D01*
X113373968Y-81171000D01*
X113226032Y-81171000D01*
X113080941Y-81142140D01*
X112944270Y-81085529D01*
X112944269Y-81085529D01*
X112944268Y-81085528D01*
X112821265Y-81003340D01*
X112716660Y-80898735D01*
X112634472Y-80775732D01*
X112577860Y-80639059D01*
X112560344Y-80551000D01*
X112549000Y-80493968D01*
X112549000Y-80346032D01*
X112577860Y-80200941D01*
X112634471Y-80064270D01*
X112634472Y-80064268D01*
X112716660Y-79941265D01*
X112821265Y-79836660D01*
X112944268Y-79754472D01*
X113080941Y-79697860D01*
X113226032Y-79669000D01*
X113373968Y-79669000D01*
X113519059Y-79697860D01*
G37*
G36*
X130719059Y-79697860D02*
G01*
X130855732Y-79754472D01*
X130978735Y-79836660D01*
X131083340Y-79941265D01*
X131165528Y-80064268D01*
X131165529Y-80064270D01*
X131222140Y-80200941D01*
X131251000Y-80346032D01*
X131251000Y-80493968D01*
X131239656Y-80551000D01*
X131222140Y-80639059D01*
X131165528Y-80775732D01*
X131083340Y-80898735D01*
X130978735Y-81003340D01*
X130855732Y-81085528D01*
X130855731Y-81085529D01*
X130855730Y-81085529D01*
X130719059Y-81142140D01*
X130573968Y-81171000D01*
X130426032Y-81171000D01*
X130280941Y-81142140D01*
X130144270Y-81085529D01*
X130144269Y-81085529D01*
X130144268Y-81085528D01*
X130021265Y-81003340D01*
X129916660Y-80898735D01*
X129834472Y-80775732D01*
X129777860Y-80639059D01*
X129760344Y-80551000D01*
X129749000Y-80493968D01*
X129749000Y-80346032D01*
X129777860Y-80200941D01*
X129834471Y-80064270D01*
X129834472Y-80064268D01*
X129916660Y-79941265D01*
X130021265Y-79836660D01*
X130144268Y-79754472D01*
X130280941Y-79697860D01*
X130426032Y-79669000D01*
X130573968Y-79669000D01*
X130719059Y-79697860D01*
G37*
G36*
X56853097Y-78454069D02*
G01*
X56956032Y-78464207D01*
X57154146Y-78524305D01*
X57154149Y-78524306D01*
X57250975Y-78576061D01*
X57336729Y-78621897D01*
X57496765Y-78753235D01*
X57628103Y-78913271D01*
X57673939Y-78999025D01*
X57725694Y-79095851D01*
X57725695Y-79095854D01*
X57785793Y-79293968D01*
X57806085Y-79500000D01*
X57785793Y-79706032D01*
X57746167Y-79836659D01*
X57725694Y-79904149D01*
X57705855Y-79941265D01*
X57628103Y-80086729D01*
X57496765Y-80246765D01*
X57336729Y-80378103D01*
X57250975Y-80423939D01*
X57154149Y-80475694D01*
X57154146Y-80475695D01*
X56956032Y-80535793D01*
X56853097Y-80545931D01*
X56801631Y-80551000D01*
X55198369Y-80551000D01*
X55146903Y-80545931D01*
X55043968Y-80535793D01*
X54845854Y-80475695D01*
X54845851Y-80475694D01*
X54749025Y-80423939D01*
X54663271Y-80378103D01*
X54503235Y-80246765D01*
X54371897Y-80086729D01*
X54294145Y-79941265D01*
X54274306Y-79904149D01*
X54253833Y-79836659D01*
X54214207Y-79706032D01*
X54193915Y-79500000D01*
X54214207Y-79293968D01*
X54274305Y-79095854D01*
X54274306Y-79095851D01*
X54326061Y-78999025D01*
X54371897Y-78913271D01*
X54503235Y-78753235D01*
X54663271Y-78621897D01*
X54749025Y-78576061D01*
X54845851Y-78524306D01*
X54845854Y-78524305D01*
X55043968Y-78464207D01*
X55146903Y-78454069D01*
X55198369Y-78449000D01*
X56801631Y-78449000D01*
X56853097Y-78454069D01*
G37*
G36*
X144592112Y-76464021D02*
G01*
X144694072Y-76474063D01*
X144890301Y-76533589D01*
X144890303Y-76533590D01*
X145071145Y-76630252D01*
X145229660Y-76760340D01*
X145359747Y-76918854D01*
X145456411Y-77099699D01*
X145515937Y-77295928D01*
X145536036Y-77500000D01*
X145515937Y-77704072D01*
X145456411Y-77900301D01*
X145456410Y-77900303D01*
X145359748Y-78081145D01*
X145229660Y-78239660D01*
X145071145Y-78369748D01*
X144890303Y-78466410D01*
X144890301Y-78466411D01*
X144694072Y-78525937D01*
X144592112Y-78535979D01*
X144541133Y-78541000D01*
X142458867Y-78541000D01*
X142407888Y-78535979D01*
X142305928Y-78525937D01*
X142109699Y-78466411D01*
X142109697Y-78466410D01*
X141928855Y-78369748D01*
X141770340Y-78239660D01*
X141640252Y-78081145D01*
X141543590Y-77900303D01*
X141543589Y-77900301D01*
X141484063Y-77704072D01*
X141463964Y-77500000D01*
X141484063Y-77295928D01*
X141543589Y-77099699D01*
X141640253Y-76918854D01*
X141770340Y-76760340D01*
X141928855Y-76630252D01*
X142109697Y-76533590D01*
X142109699Y-76533589D01*
X142305928Y-76474063D01*
X142407888Y-76464021D01*
X142458867Y-76459000D01*
X144541133Y-76459000D01*
X144592112Y-76464021D01*
G37*
G36*
X64051000Y-77051000D02*
G01*
X61949000Y-77051000D01*
X61949000Y-72949000D01*
X64051000Y-72949000D01*
X64051000Y-77051000D01*
G37*
G36*
X57206032Y-73314207D02*
G01*
X57404146Y-73374305D01*
X57404149Y-73374306D01*
X57500975Y-73426061D01*
X57586729Y-73471897D01*
X57746765Y-73603235D01*
X57878103Y-73763271D01*
X57923939Y-73849025D01*
X57975694Y-73945851D01*
X57975695Y-73945854D01*
X58035793Y-74143968D01*
X58051000Y-74298370D01*
X58051000Y-75701630D01*
X58035793Y-75856032D01*
X57975695Y-76054145D01*
X57975694Y-76054149D01*
X57923939Y-76150975D01*
X57878103Y-76236729D01*
X57746765Y-76396765D01*
X57586729Y-76528103D01*
X57470030Y-76590479D01*
X57404148Y-76625694D01*
X57404145Y-76625695D01*
X57206031Y-76685793D01*
X57000000Y-76706085D01*
X56793968Y-76685793D01*
X56595854Y-76625695D01*
X56595851Y-76625694D01*
X56423537Y-76533590D01*
X56413271Y-76528103D01*
X56253235Y-76396765D01*
X56121897Y-76236729D01*
X56024307Y-76054149D01*
X56024306Y-76054148D01*
X56024305Y-76054145D01*
X55964207Y-75856031D01*
X55949000Y-75701629D01*
X55949000Y-74298369D01*
X55964207Y-74143970D01*
X56024305Y-73945853D01*
X56099184Y-73805765D01*
X56121898Y-73763271D01*
X56253236Y-73603235D01*
X56413272Y-73471897D01*
X56499026Y-73426061D01*
X56595852Y-73374306D01*
X56595855Y-73374305D01*
X56793969Y-73314207D01*
X57000000Y-73293915D01*
X57206032Y-73314207D01*
G37*
G36*
X54248228Y-74181703D02*
G01*
X54403100Y-74245853D01*
X54542481Y-74338985D01*
X54661015Y-74457519D01*
X54754147Y-74596900D01*
X54818297Y-74751772D01*
X54851000Y-74916184D01*
X54851000Y-75083816D01*
X54818297Y-75248228D01*
X54754147Y-75403100D01*
X54661015Y-75542481D01*
X54542481Y-75661015D01*
X54403100Y-75754147D01*
X54248228Y-75818297D01*
X54083816Y-75851000D01*
X53916184Y-75851000D01*
X53751772Y-75818297D01*
X53596900Y-75754147D01*
X53457519Y-75661015D01*
X53338985Y-75542481D01*
X53245853Y-75403100D01*
X53181703Y-75248228D01*
X53149000Y-75083816D01*
X53149000Y-74916184D01*
X53181703Y-74751772D01*
X53245853Y-74596900D01*
X53338985Y-74457519D01*
X53457519Y-74338985D01*
X53596900Y-74245853D01*
X53751772Y-74181703D01*
X53916184Y-74149000D01*
X54083816Y-74149000D01*
X54248228Y-74181703D01*
G37*
G36*
X144592112Y-71464021D02*
G01*
X144694072Y-71474063D01*
X144890301Y-71533589D01*
X144890303Y-71533590D01*
X145071145Y-71630252D01*
X145229660Y-71760340D01*
X145359747Y-71918854D01*
X145456411Y-72099699D01*
X145515937Y-72295928D01*
X145536036Y-72500000D01*
X145515937Y-72704072D01*
X145456411Y-72900301D01*
X145456410Y-72900303D01*
X145359748Y-73081145D01*
X145229660Y-73239660D01*
X145071145Y-73369748D01*
X144890303Y-73466410D01*
X144890301Y-73466411D01*
X144694072Y-73525937D01*
X144592112Y-73535979D01*
X144541133Y-73541000D01*
X142458867Y-73541000D01*
X142407888Y-73535979D01*
X142305928Y-73525937D01*
X142109699Y-73466411D01*
X142109697Y-73466410D01*
X141928855Y-73369748D01*
X141770340Y-73239660D01*
X141640252Y-73081145D01*
X141543590Y-72900303D01*
X141543589Y-72900301D01*
X141484063Y-72704072D01*
X141463964Y-72500000D01*
X141484063Y-72295928D01*
X141543589Y-72099699D01*
X141640253Y-71918854D01*
X141770340Y-71760340D01*
X141928855Y-71630252D01*
X142109697Y-71533590D01*
X142109699Y-71533589D01*
X142305928Y-71474063D01*
X142407888Y-71464021D01*
X142458867Y-71459000D01*
X144541133Y-71459000D01*
X144592112Y-71464021D01*
G37*
G36*
X56853097Y-69454069D02*
G01*
X56956032Y-69464207D01*
X57154146Y-69524305D01*
X57154149Y-69524306D01*
X57250975Y-69576061D01*
X57336729Y-69621897D01*
X57496765Y-69753235D01*
X57628103Y-69913271D01*
X57654445Y-69962554D01*
X57725694Y-70095851D01*
X57725695Y-70095854D01*
X57785793Y-70293968D01*
X57806085Y-70500000D01*
X57785793Y-70706032D01*
X57725695Y-70904146D01*
X57725694Y-70904149D01*
X57673939Y-71000975D01*
X57628103Y-71086729D01*
X57496765Y-71246765D01*
X57336729Y-71378103D01*
X57250975Y-71423939D01*
X57154149Y-71475694D01*
X57154146Y-71475695D01*
X56956032Y-71535793D01*
X56853097Y-71545931D01*
X56801631Y-71551000D01*
X55198369Y-71551000D01*
X55146903Y-71545931D01*
X55043968Y-71535793D01*
X54845854Y-71475695D01*
X54845851Y-71475694D01*
X54749025Y-71423939D01*
X54663271Y-71378103D01*
X54503235Y-71246765D01*
X54371897Y-71086729D01*
X54326061Y-71000975D01*
X54274306Y-70904149D01*
X54274305Y-70904146D01*
X54214207Y-70706032D01*
X54193915Y-70500000D01*
X54214207Y-70293968D01*
X54274305Y-70095854D01*
X54274306Y-70095851D01*
X54345555Y-69962554D01*
X54371897Y-69913271D01*
X54503235Y-69753235D01*
X54663271Y-69621897D01*
X54749025Y-69576061D01*
X54845851Y-69524306D01*
X54845854Y-69524305D01*
X55043968Y-69464207D01*
X55146903Y-69454069D01*
X55198369Y-69449000D01*
X56801631Y-69449000D01*
X56853097Y-69454069D01*
G37*
G36*
X116863855Y-68852140D02*
G01*
X116927618Y-68858420D01*
X117018404Y-68885960D01*
X117050336Y-68895646D01*
X117163425Y-68956094D01*
X117262554Y-69037446D01*
X117343906Y-69136575D01*
X117404354Y-69249664D01*
X117404355Y-69249668D01*
X117441580Y-69372382D01*
X117454149Y-69500000D01*
X117441580Y-69627618D01*
X117414040Y-69718404D01*
X117404354Y-69750336D01*
X117343906Y-69863425D01*
X117262554Y-69962554D01*
X117163425Y-70043906D01*
X117050336Y-70104354D01*
X117018404Y-70114040D01*
X116927618Y-70141580D01*
X116863855Y-70147860D01*
X116831974Y-70151000D01*
X115968026Y-70151000D01*
X115936145Y-70147860D01*
X115872382Y-70141580D01*
X115781596Y-70114040D01*
X115749664Y-70104354D01*
X115636575Y-70043906D01*
X115537446Y-69962554D01*
X115456094Y-69863425D01*
X115395646Y-69750336D01*
X115385960Y-69718404D01*
X115358420Y-69627618D01*
X115345851Y-69500000D01*
X115358420Y-69372382D01*
X115395645Y-69249668D01*
X115395646Y-69249664D01*
X115456094Y-69136575D01*
X115537446Y-69037446D01*
X115636575Y-68956094D01*
X115749664Y-68895646D01*
X115781596Y-68885960D01*
X115872382Y-68858420D01*
X115936145Y-68852140D01*
X115968026Y-68849000D01*
X116831974Y-68849000D01*
X116863855Y-68852140D01*
G37*
G36*
X126063855Y-68852140D02*
G01*
X126127618Y-68858420D01*
X126218404Y-68885960D01*
X126250336Y-68895646D01*
X126363425Y-68956094D01*
X126462554Y-69037446D01*
X126543906Y-69136575D01*
X126604354Y-69249664D01*
X126604355Y-69249668D01*
X126641580Y-69372382D01*
X126654149Y-69500000D01*
X126641580Y-69627618D01*
X126614040Y-69718404D01*
X126604354Y-69750336D01*
X126543906Y-69863425D01*
X126462554Y-69962554D01*
X126363425Y-70043906D01*
X126250336Y-70104354D01*
X126218404Y-70114040D01*
X126127618Y-70141580D01*
X126063855Y-70147860D01*
X126031974Y-70151000D01*
X125168026Y-70151000D01*
X125136145Y-70147860D01*
X125072382Y-70141580D01*
X124981596Y-70114040D01*
X124949664Y-70104354D01*
X124836575Y-70043906D01*
X124737446Y-69962554D01*
X124656094Y-69863425D01*
X124595646Y-69750336D01*
X124585960Y-69718404D01*
X124558420Y-69627618D01*
X124545851Y-69500000D01*
X124558420Y-69372382D01*
X124595645Y-69249668D01*
X124595646Y-69249664D01*
X124656094Y-69136575D01*
X124737446Y-69037446D01*
X124836575Y-68956094D01*
X124949664Y-68895646D01*
X124981596Y-68885960D01*
X125072382Y-68858420D01*
X125136145Y-68852140D01*
X125168026Y-68849000D01*
X126031974Y-68849000D01*
X126063855Y-68852140D01*
G37*
G36*
X65134239Y-63311467D02*
G01*
X65448282Y-63373934D01*
X66039926Y-63619001D01*
X66572392Y-63974784D01*
X67025216Y-64427608D01*
X67380999Y-64960074D01*
X67626066Y-65551718D01*
X67626066Y-65551719D01*
X67751000Y-66179803D01*
X67751000Y-66820197D01*
X67712928Y-67011598D01*
X67626066Y-67448282D01*
X67380999Y-68039926D01*
X67025216Y-68572392D01*
X66572392Y-69025216D01*
X66039926Y-69380999D01*
X65448282Y-69626066D01*
X65134239Y-69688533D01*
X64820197Y-69751000D01*
X64179803Y-69751000D01*
X63865761Y-69688533D01*
X63551718Y-69626066D01*
X62960074Y-69380999D01*
X62427608Y-69025216D01*
X61974784Y-68572392D01*
X61619001Y-68039926D01*
X61373934Y-67448282D01*
X61287072Y-67011598D01*
X61249000Y-66820197D01*
X61249000Y-66179803D01*
X61373934Y-65551719D01*
X61373934Y-65551718D01*
X61619001Y-64960074D01*
X61974784Y-64427608D01*
X62427608Y-63974784D01*
X62960074Y-63619001D01*
X63551718Y-63373934D01*
X63865761Y-63311467D01*
X64179803Y-63249000D01*
X64820197Y-63249000D01*
X65134239Y-63311467D01*
G37*
G36*
X146645936Y-65081340D02*
G01*
X146744220Y-65091020D01*
X146933381Y-65148401D01*
X147107712Y-65241583D01*
X147260515Y-65366985D01*
X147385917Y-65519788D01*
X147479099Y-65694119D01*
X147536480Y-65883280D01*
X147555855Y-66080000D01*
X147536480Y-66276720D01*
X147479099Y-66465881D01*
X147385917Y-66640212D01*
X147260515Y-66793015D01*
X147107712Y-66918417D01*
X146933381Y-67011599D01*
X146744220Y-67068980D01*
X146645936Y-67078660D01*
X146596795Y-67083500D01*
X146403205Y-67083500D01*
X146354064Y-67078660D01*
X146255780Y-67068980D01*
X146066619Y-67011599D01*
X145892288Y-66918417D01*
X145739485Y-66793015D01*
X145614083Y-66640212D01*
X145520901Y-66465881D01*
X145463520Y-66276720D01*
X145444145Y-66080000D01*
X145463520Y-65883280D01*
X145520901Y-65694119D01*
X145614083Y-65519788D01*
X145739485Y-65366985D01*
X145892288Y-65241583D01*
X146066619Y-65148401D01*
X146255780Y-65091020D01*
X146354064Y-65081340D01*
X146403205Y-65076500D01*
X146596795Y-65076500D01*
X146645936Y-65081340D01*
G37*
G36*
X146645936Y-62541340D02*
G01*
X146744220Y-62551020D01*
X146933381Y-62608401D01*
X147107712Y-62701583D01*
X147260515Y-62826985D01*
X147385917Y-62979788D01*
X147479099Y-63154119D01*
X147536480Y-63343280D01*
X147555855Y-63540000D01*
X147536480Y-63736720D01*
X147479099Y-63925881D01*
X147385917Y-64100212D01*
X147260515Y-64253015D01*
X147107712Y-64378417D01*
X146933381Y-64471599D01*
X146744220Y-64528980D01*
X146645936Y-64538660D01*
X146596795Y-64543500D01*
X146403205Y-64543500D01*
X146354064Y-64538660D01*
X146255780Y-64528980D01*
X146066619Y-64471599D01*
X145892288Y-64378417D01*
X145739485Y-64253015D01*
X145614083Y-64100212D01*
X145520901Y-63925881D01*
X145463520Y-63736720D01*
X145444145Y-63540000D01*
X145463520Y-63343280D01*
X145520901Y-63154119D01*
X145614083Y-62979788D01*
X145739485Y-62826985D01*
X145892288Y-62701583D01*
X146066619Y-62608401D01*
X146255780Y-62551020D01*
X146354064Y-62541340D01*
X146403205Y-62536500D01*
X146596795Y-62536500D01*
X146645936Y-62541340D01*
G37*
G36*
X56853097Y-61954069D02*
G01*
X56956032Y-61964207D01*
X57154146Y-62024305D01*
X57154149Y-62024306D01*
X57250975Y-62076061D01*
X57336729Y-62121897D01*
X57496765Y-62253235D01*
X57628103Y-62413271D01*
X57673939Y-62499025D01*
X57725694Y-62595851D01*
X57725695Y-62595854D01*
X57785793Y-62793968D01*
X57806085Y-63000000D01*
X57785793Y-63206032D01*
X57744158Y-63343282D01*
X57725694Y-63404149D01*
X57673939Y-63500975D01*
X57628103Y-63586729D01*
X57496765Y-63746765D01*
X57336729Y-63878103D01*
X57250975Y-63923939D01*
X57154149Y-63975694D01*
X57154146Y-63975695D01*
X56956032Y-64035793D01*
X56853097Y-64045931D01*
X56801631Y-64051000D01*
X55198369Y-64051000D01*
X55146903Y-64045931D01*
X55043968Y-64035793D01*
X54845854Y-63975695D01*
X54845851Y-63975694D01*
X54749025Y-63923939D01*
X54663271Y-63878103D01*
X54503235Y-63746765D01*
X54371897Y-63586729D01*
X54326061Y-63500975D01*
X54274306Y-63404149D01*
X54255842Y-63343282D01*
X54214207Y-63206032D01*
X54193915Y-63000000D01*
X54214207Y-62793968D01*
X54274305Y-62595854D01*
X54274306Y-62595851D01*
X54326061Y-62499025D01*
X54371897Y-62413271D01*
X54503235Y-62253235D01*
X54663271Y-62121897D01*
X54749025Y-62076061D01*
X54845851Y-62024306D01*
X54845854Y-62024305D01*
X55043968Y-61964207D01*
X55146903Y-61954069D01*
X55198369Y-61949000D01*
X56801631Y-61949000D01*
X56853097Y-61954069D01*
G37*
G36*
X147551000Y-62003500D02*
G01*
X145449000Y-62003500D01*
X145449000Y-59996500D01*
X147551000Y-59996500D01*
X147551000Y-62003500D01*
G37*
G36*
X64051000Y-60551000D02*
G01*
X61949000Y-60551000D01*
X61949000Y-56449000D01*
X64051000Y-56449000D01*
X64051000Y-60551000D01*
G37*
G36*
X57206032Y-56814207D02*
G01*
X57404146Y-56874305D01*
X57404149Y-56874306D01*
X57472209Y-56910685D01*
X57586729Y-56971897D01*
X57746765Y-57103235D01*
X57878103Y-57263271D01*
X57880870Y-57268448D01*
X57975694Y-57445851D01*
X57975695Y-57445854D01*
X58035793Y-57643968D01*
X58051000Y-57798370D01*
X58051000Y-59201630D01*
X58035793Y-59356032D01*
X57975695Y-59554145D01*
X57975694Y-59554149D01*
X57923939Y-59650975D01*
X57878103Y-59736729D01*
X57746765Y-59896765D01*
X57586729Y-60028103D01*
X57470030Y-60090479D01*
X57404148Y-60125694D01*
X57404145Y-60125695D01*
X57206031Y-60185793D01*
X57000000Y-60206085D01*
X56793968Y-60185793D01*
X56595854Y-60125695D01*
X56595851Y-60125694D01*
X56499025Y-60073939D01*
X56413271Y-60028103D01*
X56253235Y-59896765D01*
X56121897Y-59736729D01*
X56024307Y-59554149D01*
X56024306Y-59554148D01*
X56024305Y-59554145D01*
X55964207Y-59356031D01*
X55949000Y-59201629D01*
X55949000Y-57798370D01*
X55953733Y-57750314D01*
X55964207Y-57643970D01*
X56024305Y-57445853D01*
X56119131Y-57268448D01*
X56121898Y-57263271D01*
X56253236Y-57103235D01*
X56413272Y-56971897D01*
X56527792Y-56910685D01*
X56595852Y-56874306D01*
X56595855Y-56874305D01*
X56793969Y-56814207D01*
X57000000Y-56793915D01*
X57206032Y-56814207D01*
G37*
G36*
X54248228Y-57681703D02*
G01*
X54403100Y-57745853D01*
X54542481Y-57838985D01*
X54661015Y-57957519D01*
X54754147Y-58096900D01*
X54818297Y-58251772D01*
X54851000Y-58416184D01*
X54851000Y-58583816D01*
X54818297Y-58748228D01*
X54754147Y-58903100D01*
X54661015Y-59042481D01*
X54542481Y-59161015D01*
X54403100Y-59254147D01*
X54248228Y-59318297D01*
X54083816Y-59351000D01*
X53916184Y-59351000D01*
X53751772Y-59318297D01*
X53596900Y-59254147D01*
X53457519Y-59161015D01*
X53338985Y-59042481D01*
X53245853Y-58903100D01*
X53181703Y-58748228D01*
X53149000Y-58583816D01*
X53149000Y-58416184D01*
X53181703Y-58251772D01*
X53245853Y-58096900D01*
X53338985Y-57957519D01*
X53457519Y-57838985D01*
X53596900Y-57745853D01*
X53751772Y-57681703D01*
X53916184Y-57649000D01*
X54083816Y-57649000D01*
X54248228Y-57681703D01*
G37*
G36*
X76634239Y-51811467D02*
G01*
X76948282Y-51873934D01*
X77539926Y-52119001D01*
X78072392Y-52474784D01*
X78525216Y-52927608D01*
X78880999Y-53460074D01*
X79126066Y-54051718D01*
X79156761Y-54206032D01*
X79251000Y-54679803D01*
X79251000Y-55320197D01*
X79222510Y-55463425D01*
X79126066Y-55948282D01*
X78880999Y-56539926D01*
X78525216Y-57072392D01*
X78072392Y-57525216D01*
X77539926Y-57880999D01*
X76948282Y-58126066D01*
X76634239Y-58188533D01*
X76320197Y-58251000D01*
X75679803Y-58251000D01*
X75365761Y-58188533D01*
X75051718Y-58126066D01*
X74460074Y-57880999D01*
X73927608Y-57525216D01*
X73474784Y-57072392D01*
X73119001Y-56539926D01*
X72873934Y-55948282D01*
X72777490Y-55463425D01*
X72749000Y-55320197D01*
X72749000Y-54679803D01*
X72843239Y-54206032D01*
X72873934Y-54051718D01*
X73119001Y-53460074D01*
X73474784Y-52927608D01*
X73927608Y-52474784D01*
X74460074Y-52119001D01*
X75051718Y-51873934D01*
X75365761Y-51811467D01*
X75679803Y-51749000D01*
X76320197Y-51749000D01*
X76634239Y-51811467D01*
G37*
G36*
X146634239Y-51811467D02*
G01*
X146948282Y-51873934D01*
X147539926Y-52119001D01*
X148072392Y-52474784D01*
X148525216Y-52927608D01*
X148880999Y-53460074D01*
X149126066Y-54051718D01*
X149156761Y-54206032D01*
X149251000Y-54679803D01*
X149251000Y-55320197D01*
X149222510Y-55463425D01*
X149126066Y-55948282D01*
X148880999Y-56539926D01*
X148525216Y-57072392D01*
X148072392Y-57525216D01*
X147539926Y-57880999D01*
X146948282Y-58126066D01*
X146634239Y-58188533D01*
X146320197Y-58251000D01*
X145679803Y-58251000D01*
X145365761Y-58188533D01*
X145051718Y-58126066D01*
X144460074Y-57880999D01*
X143927608Y-57525216D01*
X143474784Y-57072392D01*
X143119001Y-56539926D01*
X142873934Y-55948282D01*
X142777490Y-55463425D01*
X142749000Y-55320197D01*
X142749000Y-54679803D01*
X142843239Y-54206032D01*
X142873934Y-54051718D01*
X143119001Y-53460074D01*
X143474784Y-52927608D01*
X143927608Y-52474784D01*
X144460074Y-52119001D01*
X145051718Y-51873934D01*
X145365761Y-51811467D01*
X145679803Y-51749000D01*
X146320197Y-51749000D01*
X146634239Y-51811467D01*
G37*
G36*
X84863855Y-54452140D02*
G01*
X84927618Y-54458420D01*
X85018404Y-54485960D01*
X85050336Y-54495646D01*
X85163425Y-54556094D01*
X85262554Y-54637446D01*
X85343906Y-54736575D01*
X85404354Y-54849664D01*
X85410052Y-54868448D01*
X85441580Y-54972382D01*
X85454149Y-55100000D01*
X85441580Y-55227618D01*
X85423416Y-55287496D01*
X85404354Y-55350336D01*
X85343906Y-55463425D01*
X85262554Y-55562554D01*
X85163425Y-55643906D01*
X85050336Y-55704354D01*
X85018404Y-55714040D01*
X84927618Y-55741580D01*
X84863855Y-55747860D01*
X84831974Y-55751000D01*
X83968026Y-55751000D01*
X83936145Y-55747860D01*
X83872382Y-55741580D01*
X83781596Y-55714040D01*
X83749664Y-55704354D01*
X83636575Y-55643906D01*
X83537446Y-55562554D01*
X83456094Y-55463425D01*
X83395646Y-55350336D01*
X83376584Y-55287496D01*
X83358420Y-55227618D01*
X83345851Y-55100000D01*
X83358420Y-54972382D01*
X83389948Y-54868448D01*
X83395646Y-54849664D01*
X83456094Y-54736575D01*
X83537446Y-54637446D01*
X83636575Y-54556094D01*
X83749664Y-54495646D01*
X83781596Y-54485960D01*
X83872382Y-54458420D01*
X83936145Y-54452140D01*
X83968026Y-54449000D01*
X84831974Y-54449000D01*
X84863855Y-54452140D01*
G37*
G36*
X102213855Y-54452140D02*
G01*
X102277618Y-54458420D01*
X102368404Y-54485960D01*
X102400336Y-54495646D01*
X102513425Y-54556094D01*
X102612554Y-54637446D01*
X102693906Y-54736575D01*
X102754354Y-54849664D01*
X102760052Y-54868448D01*
X102791580Y-54972382D01*
X102804149Y-55100000D01*
X102791580Y-55227618D01*
X102773416Y-55287496D01*
X102754354Y-55350336D01*
X102693906Y-55463425D01*
X102612554Y-55562554D01*
X102513425Y-55643906D01*
X102400336Y-55704354D01*
X102368404Y-55714040D01*
X102277618Y-55741580D01*
X102213855Y-55747860D01*
X102181974Y-55751000D01*
X101318026Y-55751000D01*
X101286145Y-55747860D01*
X101222382Y-55741580D01*
X101131596Y-55714040D01*
X101099664Y-55704354D01*
X100986575Y-55643906D01*
X100887446Y-55562554D01*
X100806094Y-55463425D01*
X100745646Y-55350336D01*
X100726584Y-55287496D01*
X100708420Y-55227618D01*
X100695851Y-55100000D01*
X100708420Y-54972382D01*
X100739948Y-54868448D01*
X100745646Y-54849664D01*
X100806094Y-54736575D01*
X100887446Y-54637446D01*
X100986575Y-54556094D01*
X101099664Y-54495646D01*
X101131596Y-54485960D01*
X101222382Y-54458420D01*
X101286145Y-54452140D01*
X101318026Y-54449000D01*
X102181974Y-54449000D01*
X102213855Y-54452140D01*
G37*
G36*
X126063855Y-53852140D02*
G01*
X126127618Y-53858420D01*
X126218404Y-53885960D01*
X126250336Y-53895646D01*
X126363425Y-53956094D01*
X126462554Y-54037446D01*
X126543906Y-54136575D01*
X126604354Y-54249664D01*
X126604355Y-54249668D01*
X126641580Y-54372382D01*
X126654149Y-54500000D01*
X126641580Y-54627618D01*
X126622187Y-54691548D01*
X126604354Y-54750336D01*
X126543906Y-54863425D01*
X126462554Y-54962554D01*
X126363425Y-55043906D01*
X126250336Y-55104354D01*
X126218404Y-55114040D01*
X126127618Y-55141580D01*
X126063855Y-55147860D01*
X126031974Y-55151000D01*
X125168026Y-55151000D01*
X125136145Y-55147860D01*
X125072382Y-55141580D01*
X124981596Y-55114040D01*
X124949664Y-55104354D01*
X124836575Y-55043906D01*
X124737446Y-54962554D01*
X124656094Y-54863425D01*
X124595646Y-54750336D01*
X124577813Y-54691548D01*
X124558420Y-54627618D01*
X124545851Y-54500000D01*
X124558420Y-54372382D01*
X124595645Y-54249668D01*
X124595646Y-54249664D01*
X124656094Y-54136575D01*
X124737446Y-54037446D01*
X124836575Y-53956094D01*
X124949664Y-53895646D01*
X124981596Y-53885960D01*
X125072382Y-53858420D01*
X125136145Y-53852140D01*
X125168026Y-53849000D01*
X126031974Y-53849000D01*
X126063855Y-53852140D01*
G37*
G36*
X116863855Y-53852140D02*
G01*
X116927618Y-53858420D01*
X117018404Y-53885960D01*
X117050336Y-53895646D01*
X117163425Y-53956094D01*
X117262554Y-54037446D01*
X117343906Y-54136575D01*
X117404354Y-54249664D01*
X117404355Y-54249668D01*
X117441580Y-54372382D01*
X117454149Y-54500000D01*
X117441580Y-54627618D01*
X117422187Y-54691548D01*
X117404354Y-54750336D01*
X117343906Y-54863425D01*
X117262554Y-54962554D01*
X117163425Y-55043906D01*
X117050336Y-55104354D01*
X117018404Y-55114040D01*
X116927618Y-55141580D01*
X116863855Y-55147860D01*
X116831974Y-55151000D01*
X115968026Y-55151000D01*
X115936145Y-55147860D01*
X115872382Y-55141580D01*
X115781596Y-55114040D01*
X115749664Y-55104354D01*
X115636575Y-55043906D01*
X115537446Y-54962554D01*
X115456094Y-54863425D01*
X115395646Y-54750336D01*
X115377813Y-54691548D01*
X115358420Y-54627618D01*
X115345851Y-54500000D01*
X115358420Y-54372382D01*
X115395645Y-54249668D01*
X115395646Y-54249664D01*
X115456094Y-54136575D01*
X115537446Y-54037446D01*
X115636575Y-53956094D01*
X115749664Y-53895646D01*
X115781596Y-53885960D01*
X115872382Y-53858420D01*
X115936145Y-53852140D01*
X115968026Y-53849000D01*
X116831974Y-53849000D01*
X116863855Y-53852140D01*
G37*
G36*
X56814972Y-52950314D02*
G01*
X56956032Y-52964207D01*
X57154146Y-53024305D01*
X57154149Y-53024306D01*
X57250975Y-53076061D01*
X57336729Y-53121897D01*
X57496765Y-53253235D01*
X57628103Y-53413271D01*
X57657396Y-53468075D01*
X57725694Y-53595851D01*
X57725695Y-53595854D01*
X57785793Y-53793968D01*
X57806085Y-54000000D01*
X57785793Y-54206032D01*
X57735330Y-54372384D01*
X57725694Y-54404149D01*
X57676788Y-54495645D01*
X57628103Y-54586729D01*
X57496765Y-54746765D01*
X57336729Y-54878103D01*
X57250975Y-54923939D01*
X57154149Y-54975694D01*
X57154146Y-54975695D01*
X56956032Y-55035793D01*
X56868439Y-55044420D01*
X56801631Y-55051000D01*
X55198369Y-55051000D01*
X55131561Y-55044420D01*
X55043968Y-55035793D01*
X54845854Y-54975695D01*
X54845851Y-54975694D01*
X54749025Y-54923939D01*
X54663271Y-54878103D01*
X54503235Y-54746765D01*
X54371897Y-54586729D01*
X54323212Y-54495645D01*
X54274306Y-54404149D01*
X54264670Y-54372384D01*
X54214207Y-54206032D01*
X54193915Y-54000000D01*
X54214207Y-53793968D01*
X54274305Y-53595854D01*
X54274306Y-53595851D01*
X54342604Y-53468075D01*
X54371897Y-53413271D01*
X54503235Y-53253235D01*
X54663271Y-53121897D01*
X54749025Y-53076061D01*
X54845851Y-53024306D01*
X54845854Y-53024305D01*
X55043968Y-52964207D01*
X55185028Y-52950314D01*
X55198369Y-52949000D01*
X56801631Y-52949000D01*
X56814972Y-52950314D01*
G37*
G36*
X107963674Y-53253465D02*
G01*
X108001367Y-53264899D01*
X108036103Y-53283466D01*
X108066548Y-53308452D01*
X108091534Y-53338897D01*
X108110101Y-53373633D01*
X108121535Y-53411326D01*
X108126000Y-53456661D01*
X108126000Y-54543339D01*
X108121535Y-54588674D01*
X108110101Y-54626367D01*
X108091534Y-54661103D01*
X108066548Y-54691548D01*
X108036103Y-54716534D01*
X108001367Y-54735101D01*
X107963674Y-54746535D01*
X107918339Y-54751000D01*
X107081661Y-54751000D01*
X107036326Y-54746535D01*
X106998633Y-54735101D01*
X106963897Y-54716534D01*
X106933452Y-54691548D01*
X106908466Y-54661103D01*
X106889899Y-54626367D01*
X106878465Y-54588674D01*
X106874000Y-54543339D01*
X106874000Y-53456661D01*
X106878465Y-53411326D01*
X106889899Y-53373633D01*
X106908466Y-53338897D01*
X106933452Y-53308452D01*
X106963897Y-53283466D01*
X106998633Y-53264899D01*
X107036326Y-53253465D01*
X107081661Y-53249000D01*
X107918339Y-53249000D01*
X107963674Y-53253465D01*
G37*
G36*
X110013674Y-53253465D02*
G01*
X110051367Y-53264899D01*
X110086103Y-53283466D01*
X110116548Y-53308452D01*
X110141534Y-53338897D01*
X110160101Y-53373633D01*
X110171535Y-53411326D01*
X110176000Y-53456661D01*
X110176000Y-54543339D01*
X110171535Y-54588674D01*
X110160101Y-54626367D01*
X110141534Y-54661103D01*
X110116548Y-54691548D01*
X110086103Y-54716534D01*
X110051367Y-54735101D01*
X110013674Y-54746535D01*
X109968339Y-54751000D01*
X109131661Y-54751000D01*
X109086326Y-54746535D01*
X109048633Y-54735101D01*
X109013897Y-54716534D01*
X108983452Y-54691548D01*
X108958466Y-54661103D01*
X108939899Y-54626367D01*
X108928465Y-54588674D01*
X108924000Y-54543339D01*
X108924000Y-53456661D01*
X108928465Y-53411326D01*
X108939899Y-53373633D01*
X108958466Y-53338897D01*
X108983452Y-53308452D01*
X109013897Y-53283466D01*
X109048633Y-53264899D01*
X109086326Y-53253465D01*
X109131661Y-53249000D01*
X109968339Y-53249000D01*
X110013674Y-53253465D01*
G37*
G36*
X110013674Y-50753465D02*
G01*
X110051367Y-50764899D01*
X110086103Y-50783466D01*
X110116548Y-50808452D01*
X110141534Y-50838897D01*
X110160101Y-50873633D01*
X110171535Y-50911326D01*
X110176000Y-50956661D01*
X110176000Y-52043339D01*
X110171535Y-52088674D01*
X110160101Y-52126367D01*
X110141534Y-52161103D01*
X110116548Y-52191548D01*
X110086103Y-52216534D01*
X110051367Y-52235101D01*
X110013674Y-52246535D01*
X109968339Y-52251000D01*
X109131661Y-52251000D01*
X109086326Y-52246535D01*
X109048633Y-52235101D01*
X109013897Y-52216534D01*
X108983452Y-52191548D01*
X108958466Y-52161103D01*
X108939899Y-52126367D01*
X108928465Y-52088674D01*
X108924000Y-52043339D01*
X108924000Y-50956661D01*
X108928465Y-50911326D01*
X108939899Y-50873633D01*
X108958466Y-50838897D01*
X108983452Y-50808452D01*
X109013897Y-50783466D01*
X109048633Y-50764899D01*
X109086326Y-50753465D01*
X109131661Y-50749000D01*
X109968339Y-50749000D01*
X110013674Y-50753465D01*
G37*
G36*
X107963674Y-50753465D02*
G01*
X108001367Y-50764899D01*
X108036103Y-50783466D01*
X108066548Y-50808452D01*
X108091534Y-50838897D01*
X108110101Y-50873633D01*
X108121535Y-50911326D01*
X108126000Y-50956661D01*
X108126000Y-52043339D01*
X108121535Y-52088674D01*
X108110101Y-52126367D01*
X108091534Y-52161103D01*
X108066548Y-52191548D01*
X108036103Y-52216534D01*
X108001367Y-52235101D01*
X107963674Y-52246535D01*
X107918339Y-52251000D01*
X107081661Y-52251000D01*
X107036326Y-52246535D01*
X106998633Y-52235101D01*
X106963897Y-52216534D01*
X106933452Y-52191548D01*
X106908466Y-52161103D01*
X106889899Y-52126367D01*
X106878465Y-52088674D01*
X106874000Y-52043339D01*
X106874000Y-50956661D01*
X106878465Y-50911326D01*
X106889899Y-50873633D01*
X106908466Y-50838897D01*
X106933452Y-50808452D01*
X106963897Y-50783466D01*
X106998633Y-50764899D01*
X107036326Y-50753465D01*
X107081661Y-50749000D01*
X107918339Y-50749000D01*
X107963674Y-50753465D01*
G37*
M02*
