%TF.GenerationSoftware,KiCad,Pcbnew,(5.1.5)-3*%
%TF.CreationDate,2020-03-17T21:37:30+01:00*%
%TF.ProjectId,KicadJE-EuroPowerSupply2-Faceplate,4b696361-644a-4452-9d45-75726f506f77,Rev A*%
%TF.SameCoordinates,Original*%
%TF.FileFunction,Legend,Top*%
%TF.FilePolarity,Positive*%
%FSLAX46Y46*%
G04 Gerber Fmt 4.6, Leading zero omitted, Abs format (unit mm)*
G04 Created by KiCad (PCBNEW (5.1.5)-3) date 2020-03-17 21:37:30*
%MOMM*%
%LPD*%
G04 APERTURE LIST*
%ADD10C,0.500000*%
%ADD11C,0.120000*%
%ADD12C,0.375000*%
%ADD13C,0.050000*%
%ADD14C,1.000000*%
%ADD15C,0.010000*%
%ADD16C,0.150000*%
G04 APERTURE END LIST*
D10*
X-47619Y-112857142D02*
X-238095Y-112714285D01*
X-333333Y-112571428D01*
X-428571Y-112285714D01*
X-428571Y-111428571D01*
X-333333Y-111142857D01*
X-238095Y-111000000D01*
X-47619Y-110857142D01*
X238095Y-110857142D01*
X428571Y-111000000D01*
X523809Y-111142857D01*
X619047Y-111428571D01*
X619047Y-112285714D01*
X523809Y-112571428D01*
X428571Y-112714285D01*
X238095Y-112857142D01*
X-47619Y-112857142D01*
X1476190Y-110857142D02*
X1476190Y-112857142D01*
X1476190Y-111142857D02*
X1571428Y-111000000D01*
X1761904Y-110857142D01*
X2047619Y-110857142D01*
X2238095Y-111000000D01*
X2333333Y-111285714D01*
X2333333Y-112857142D01*
D11*
X1000000Y-58500000D02*
X-6000000Y-58500000D01*
X-6000000Y-58500000D02*
X-6000000Y-55500000D01*
X-6000000Y-75000000D02*
X-6000000Y-72000000D01*
X1000000Y-75000000D02*
X-6000000Y-75000000D01*
D12*
X-1500000Y-125142857D02*
X-357142Y-125142857D01*
X-928571Y-125904761D02*
X-928571Y-124380952D01*
X1142857Y-125904761D02*
X285714Y-125904761D01*
X714285Y-125904761D02*
X714285Y-123904761D01*
X571428Y-124190476D01*
X428571Y-124380952D01*
X285714Y-124476190D01*
X1714285Y-124095238D02*
X1785714Y-124000000D01*
X1928571Y-123904761D01*
X2285714Y-123904761D01*
X2428571Y-124000000D01*
X2499999Y-124095238D01*
X2571428Y-124285714D01*
X2571428Y-124476190D01*
X2499999Y-124761904D01*
X1642857Y-125904761D01*
X2571428Y-125904761D01*
X-285714Y-135142857D02*
X857142Y-135142857D01*
X285714Y-135904761D02*
X285714Y-134380952D01*
X2285714Y-133904761D02*
X1571428Y-133904761D01*
X1499999Y-134857142D01*
X1571428Y-134761904D01*
X1714285Y-134666666D01*
X2071428Y-134666666D01*
X2214285Y-134761904D01*
X2285714Y-134857142D01*
X2357142Y-135047619D01*
X2357142Y-135523809D01*
X2285714Y-135714285D01*
X2214285Y-135809523D01*
X2071428Y-135904761D01*
X1714285Y-135904761D01*
X1571428Y-135809523D01*
X1499999Y-135714285D01*
X-1500000Y-145142857D02*
X-357142Y-145142857D01*
X1142857Y-145904761D02*
X285714Y-145904761D01*
X714285Y-145904761D02*
X714285Y-143904761D01*
X571428Y-144190476D01*
X428571Y-144380952D01*
X285714Y-144476190D01*
X1714285Y-144095238D02*
X1785714Y-144000000D01*
X1928571Y-143904761D01*
X2285714Y-143904761D01*
X2428571Y-144000000D01*
X2499999Y-144095238D01*
X2571428Y-144285714D01*
X2571428Y-144476190D01*
X2499999Y-144761904D01*
X1642857Y-145904761D01*
X2571428Y-145904761D01*
D10*
X-5904761Y-54357142D02*
X-5904761Y-51357142D01*
X-4952380Y-52357142D02*
X-4952380Y-54357142D01*
X-4952380Y-52642857D02*
X-4857142Y-52500000D01*
X-4666666Y-52357142D01*
X-4380952Y-52357142D01*
X-4190476Y-52500000D01*
X-4095238Y-52785714D01*
X-4095238Y-54357142D01*
X-7166666Y-68357142D02*
X-6785714Y-68357142D01*
X-6595238Y-68500000D01*
X-6404761Y-68785714D01*
X-6309523Y-69357142D01*
X-6309523Y-70357142D01*
X-6404761Y-70928571D01*
X-6595238Y-71214285D01*
X-6785714Y-71357142D01*
X-7166666Y-71357142D01*
X-7357142Y-71214285D01*
X-7547619Y-70928571D01*
X-7642857Y-70357142D01*
X-7642857Y-69357142D01*
X-7547619Y-68785714D01*
X-7357142Y-68500000D01*
X-7166666Y-68357142D01*
X-4595238Y-69357142D02*
X-4595238Y-71357142D01*
X-5452380Y-69357142D02*
X-5452380Y-70928571D01*
X-5357142Y-71214285D01*
X-5166666Y-71357142D01*
X-4880952Y-71357142D01*
X-4690476Y-71214285D01*
X-4595238Y-71071428D01*
X-3928571Y-69357142D02*
X-3166666Y-69357142D01*
X-3642857Y-68357142D02*
X-3642857Y-70928571D01*
X-3547619Y-71214285D01*
X-3357142Y-71357142D01*
X-3166666Y-71357142D01*
D13*
X-9000000Y-164000000D02*
X-9000000Y-36000000D01*
X11000000Y-164000000D02*
X-9000000Y-164000000D01*
X11000000Y-36000000D02*
X11000000Y-164000000D01*
X-9000000Y-36000000D02*
X11000000Y-36000000D01*
D14*
X-5738095Y-48714285D02*
X-5738095Y-42714285D01*
X-4214285Y-42714285D01*
X-3833333Y-43000000D01*
X-3642857Y-43285714D01*
X-3452380Y-43857142D01*
X-3452380Y-44714285D01*
X-3642857Y-45285714D01*
X-3833333Y-45571428D01*
X-4214285Y-45857142D01*
X-5738095Y-45857142D01*
X-2119047Y-42714285D02*
X-1166666Y-48714285D01*
X-404761Y-44428571D01*
X357142Y-48714285D01*
X1309523Y-42714285D01*
X5119047Y-48714285D02*
X3785714Y-45857142D01*
X2833333Y-48714285D02*
X2833333Y-42714285D01*
X4357142Y-42714285D01*
X4738095Y-43000000D01*
X4928571Y-43285714D01*
X5119047Y-43857142D01*
X5119047Y-44714285D01*
X4928571Y-45285714D01*
X4738095Y-45571428D01*
X4357142Y-45857142D01*
X2833333Y-45857142D01*
X6642857Y-43285714D02*
X6833333Y-43000000D01*
X7214285Y-42714285D01*
X8166666Y-42714285D01*
X8547619Y-43000000D01*
X8738095Y-43285714D01*
X8928571Y-43857142D01*
X8928571Y-44428571D01*
X8738095Y-45285714D01*
X6452380Y-48714285D01*
X8928571Y-48714285D01*
D15*
G36*
X6791200Y-154399800D02*
G01*
X6676900Y-154399800D01*
X6676900Y-154272800D01*
X6791200Y-154272800D01*
X6791200Y-154399800D01*
G37*
X6791200Y-154399800D02*
X6676900Y-154399800D01*
X6676900Y-154272800D01*
X6791200Y-154272800D01*
X6791200Y-154399800D01*
G36*
X3743200Y-154399800D02*
G01*
X3628900Y-154399800D01*
X3628900Y-154272800D01*
X3743200Y-154272800D01*
X3743200Y-154399800D01*
G37*
X3743200Y-154399800D02*
X3628900Y-154399800D01*
X3628900Y-154272800D01*
X3743200Y-154272800D01*
X3743200Y-154399800D01*
G36*
X7438114Y-154442318D02*
G01*
X7473195Y-154459123D01*
X7492674Y-154474926D01*
X7534150Y-154511953D01*
X7538239Y-154703526D01*
X7542329Y-154895100D01*
X7438900Y-154895100D01*
X7438900Y-154730907D01*
X7438314Y-154659817D01*
X7436253Y-154609877D01*
X7432258Y-154576854D01*
X7425870Y-154556520D01*
X7418942Y-154546757D01*
X7385287Y-154528974D01*
X7345560Y-154530874D01*
X7306502Y-154550204D01*
X7274851Y-154584714D01*
X7268062Y-154597154D01*
X7256927Y-154633806D01*
X7250505Y-154688629D01*
X7248400Y-154765050D01*
X7248400Y-154895100D01*
X7146800Y-154895100D01*
X7146800Y-154450600D01*
X7197600Y-154450600D01*
X7230192Y-154452142D01*
X7244681Y-154460281D01*
X7248330Y-154480282D01*
X7248400Y-154487430D01*
X7248400Y-154524260D01*
X7291580Y-154481080D01*
X7323768Y-154453238D01*
X7354315Y-154440684D01*
X7392979Y-154437900D01*
X7438114Y-154442318D01*
G37*
X7438114Y-154442318D02*
X7473195Y-154459123D01*
X7492674Y-154474926D01*
X7534150Y-154511953D01*
X7538239Y-154703526D01*
X7542329Y-154895100D01*
X7438900Y-154895100D01*
X7438900Y-154730907D01*
X7438314Y-154659817D01*
X7436253Y-154609877D01*
X7432258Y-154576854D01*
X7425870Y-154556520D01*
X7418942Y-154546757D01*
X7385287Y-154528974D01*
X7345560Y-154530874D01*
X7306502Y-154550204D01*
X7274851Y-154584714D01*
X7268062Y-154597154D01*
X7256927Y-154633806D01*
X7250505Y-154688629D01*
X7248400Y-154765050D01*
X7248400Y-154895100D01*
X7146800Y-154895100D01*
X7146800Y-154450600D01*
X7197600Y-154450600D01*
X7230192Y-154452142D01*
X7244681Y-154460281D01*
X7248330Y-154480282D01*
X7248400Y-154487430D01*
X7248400Y-154524260D01*
X7291580Y-154481080D01*
X7323768Y-154453238D01*
X7354315Y-154440684D01*
X7392979Y-154437900D01*
X7438114Y-154442318D01*
G36*
X6791200Y-154806200D02*
G01*
X6842000Y-154806200D01*
X6874525Y-154807545D01*
X6888979Y-154815854D01*
X6892686Y-154837533D01*
X6892800Y-154850650D01*
X6892800Y-154895100D01*
X6588000Y-154895100D01*
X6588000Y-154850650D01*
X6589965Y-154820858D01*
X6601057Y-154808640D01*
X6629066Y-154806205D01*
X6632450Y-154806200D01*
X6676900Y-154806200D01*
X6676900Y-154539500D01*
X6632450Y-154539500D01*
X6602658Y-154537534D01*
X6590440Y-154526442D01*
X6588005Y-154498433D01*
X6588000Y-154495050D01*
X6588000Y-154450600D01*
X6791200Y-154450600D01*
X6791200Y-154806200D01*
G37*
X6791200Y-154806200D02*
X6842000Y-154806200D01*
X6874525Y-154807545D01*
X6888979Y-154815854D01*
X6892686Y-154837533D01*
X6892800Y-154850650D01*
X6892800Y-154895100D01*
X6588000Y-154895100D01*
X6588000Y-154850650D01*
X6589965Y-154820858D01*
X6601057Y-154808640D01*
X6629066Y-154806205D01*
X6632450Y-154806200D01*
X6676900Y-154806200D01*
X6676900Y-154539500D01*
X6632450Y-154539500D01*
X6602658Y-154537534D01*
X6590440Y-154526442D01*
X6588005Y-154498433D01*
X6588000Y-154495050D01*
X6588000Y-154450600D01*
X6791200Y-154450600D01*
X6791200Y-154806200D01*
G36*
X6333699Y-154440912D02*
G01*
X6358516Y-154450885D01*
X6365016Y-154470931D01*
X6358113Y-154499630D01*
X6347462Y-154525131D01*
X6333608Y-154535481D01*
X6307593Y-154535040D01*
X6290351Y-154532606D01*
X6229116Y-154533141D01*
X6175228Y-154551791D01*
X6135106Y-154585879D01*
X6125293Y-154601368D01*
X6112681Y-154641577D01*
X6106047Y-154697735D01*
X6105400Y-154723019D01*
X6105400Y-154806200D01*
X6156200Y-154806200D01*
X6188725Y-154807545D01*
X6203179Y-154815854D01*
X6206886Y-154837533D01*
X6207000Y-154850650D01*
X6207000Y-154895100D01*
X5902200Y-154895100D01*
X5902200Y-154850650D01*
X5903737Y-154822190D01*
X5913233Y-154809542D01*
X5938010Y-154806299D01*
X5953000Y-154806200D01*
X6003800Y-154806200D01*
X6003800Y-154526800D01*
X5953000Y-154526800D01*
X5920426Y-154525295D01*
X5905946Y-154517142D01*
X5902280Y-154496881D01*
X5902200Y-154488700D01*
X5902200Y-154450600D01*
X6105400Y-154450600D01*
X6105400Y-154532890D01*
X6138393Y-154497307D01*
X6182463Y-154460769D01*
X6233745Y-154442216D01*
X6287201Y-154438094D01*
X6333699Y-154440912D01*
G37*
X6333699Y-154440912D02*
X6358516Y-154450885D01*
X6365016Y-154470931D01*
X6358113Y-154499630D01*
X6347462Y-154525131D01*
X6333608Y-154535481D01*
X6307593Y-154535040D01*
X6290351Y-154532606D01*
X6229116Y-154533141D01*
X6175228Y-154551791D01*
X6135106Y-154585879D01*
X6125293Y-154601368D01*
X6112681Y-154641577D01*
X6106047Y-154697735D01*
X6105400Y-154723019D01*
X6105400Y-154806200D01*
X6156200Y-154806200D01*
X6188725Y-154807545D01*
X6203179Y-154815854D01*
X6206886Y-154837533D01*
X6207000Y-154850650D01*
X6207000Y-154895100D01*
X5902200Y-154895100D01*
X5902200Y-154850650D01*
X5903737Y-154822190D01*
X5913233Y-154809542D01*
X5938010Y-154806299D01*
X5953000Y-154806200D01*
X6003800Y-154806200D01*
X6003800Y-154526800D01*
X5953000Y-154526800D01*
X5920426Y-154525295D01*
X5905946Y-154517142D01*
X5902280Y-154496881D01*
X5902200Y-154488700D01*
X5902200Y-154450600D01*
X6105400Y-154450600D01*
X6105400Y-154532890D01*
X6138393Y-154497307D01*
X6182463Y-154460769D01*
X6233745Y-154442216D01*
X6287201Y-154438094D01*
X6333699Y-154440912D01*
G36*
X4390114Y-154442318D02*
G01*
X4425195Y-154459123D01*
X4444674Y-154474926D01*
X4486150Y-154511953D01*
X4490239Y-154703526D01*
X4494329Y-154895100D01*
X4390900Y-154895100D01*
X4390900Y-154730907D01*
X4390314Y-154659817D01*
X4388253Y-154609877D01*
X4384258Y-154576854D01*
X4377870Y-154556520D01*
X4370942Y-154546757D01*
X4337287Y-154528974D01*
X4297560Y-154530874D01*
X4258502Y-154550204D01*
X4226851Y-154584714D01*
X4220062Y-154597154D01*
X4208927Y-154633806D01*
X4202505Y-154688629D01*
X4200400Y-154765050D01*
X4200400Y-154895100D01*
X4098800Y-154895100D01*
X4098800Y-154450600D01*
X4149600Y-154450600D01*
X4182192Y-154452142D01*
X4196681Y-154460281D01*
X4200330Y-154480282D01*
X4200400Y-154487430D01*
X4200400Y-154524260D01*
X4243580Y-154481080D01*
X4275768Y-154453238D01*
X4306315Y-154440684D01*
X4344979Y-154437900D01*
X4390114Y-154442318D01*
G37*
X4390114Y-154442318D02*
X4425195Y-154459123D01*
X4444674Y-154474926D01*
X4486150Y-154511953D01*
X4490239Y-154703526D01*
X4494329Y-154895100D01*
X4390900Y-154895100D01*
X4390900Y-154730907D01*
X4390314Y-154659817D01*
X4388253Y-154609877D01*
X4384258Y-154576854D01*
X4377870Y-154556520D01*
X4370942Y-154546757D01*
X4337287Y-154528974D01*
X4297560Y-154530874D01*
X4258502Y-154550204D01*
X4226851Y-154584714D01*
X4220062Y-154597154D01*
X4208927Y-154633806D01*
X4202505Y-154688629D01*
X4200400Y-154765050D01*
X4200400Y-154895100D01*
X4098800Y-154895100D01*
X4098800Y-154450600D01*
X4149600Y-154450600D01*
X4182192Y-154452142D01*
X4196681Y-154460281D01*
X4200330Y-154480282D01*
X4200400Y-154487430D01*
X4200400Y-154524260D01*
X4243580Y-154481080D01*
X4275768Y-154453238D01*
X4306315Y-154440684D01*
X4344979Y-154437900D01*
X4390114Y-154442318D01*
G36*
X3743200Y-154806200D02*
G01*
X3794000Y-154806200D01*
X3826525Y-154807545D01*
X3840979Y-154815854D01*
X3844686Y-154837533D01*
X3844800Y-154850650D01*
X3844800Y-154895100D01*
X3540000Y-154895100D01*
X3540000Y-154850650D01*
X3541965Y-154820858D01*
X3553057Y-154808640D01*
X3581066Y-154806205D01*
X3584450Y-154806200D01*
X3628900Y-154806200D01*
X3628900Y-154539500D01*
X3584450Y-154539500D01*
X3554658Y-154537534D01*
X3542440Y-154526442D01*
X3540005Y-154498433D01*
X3540000Y-154495050D01*
X3540000Y-154450600D01*
X3743200Y-154450600D01*
X3743200Y-154806200D01*
G37*
X3743200Y-154806200D02*
X3794000Y-154806200D01*
X3826525Y-154807545D01*
X3840979Y-154815854D01*
X3844686Y-154837533D01*
X3844800Y-154850650D01*
X3844800Y-154895100D01*
X3540000Y-154895100D01*
X3540000Y-154850650D01*
X3541965Y-154820858D01*
X3553057Y-154808640D01*
X3581066Y-154806205D01*
X3584450Y-154806200D01*
X3628900Y-154806200D01*
X3628900Y-154539500D01*
X3584450Y-154539500D01*
X3554658Y-154537534D01*
X3542440Y-154526442D01*
X3540005Y-154498433D01*
X3540000Y-154495050D01*
X3540000Y-154450600D01*
X3743200Y-154450600D01*
X3743200Y-154806200D01*
G36*
X2561314Y-154442318D02*
G01*
X2596395Y-154459123D01*
X2615874Y-154474926D01*
X2657350Y-154511953D01*
X2661439Y-154703526D01*
X2665529Y-154895100D01*
X2562100Y-154895100D01*
X2562100Y-154730907D01*
X2561514Y-154659817D01*
X2559453Y-154609877D01*
X2555458Y-154576854D01*
X2549070Y-154556520D01*
X2542142Y-154546757D01*
X2508487Y-154528974D01*
X2468760Y-154530874D01*
X2429702Y-154550204D01*
X2398051Y-154584714D01*
X2391262Y-154597154D01*
X2380127Y-154633806D01*
X2373705Y-154688629D01*
X2371600Y-154765050D01*
X2371600Y-154895100D01*
X2270000Y-154895100D01*
X2270000Y-154450600D01*
X2320800Y-154450600D01*
X2353392Y-154452142D01*
X2367881Y-154460281D01*
X2371530Y-154480282D01*
X2371600Y-154487430D01*
X2371600Y-154524260D01*
X2414780Y-154481080D01*
X2446968Y-154453238D01*
X2477515Y-154440684D01*
X2516179Y-154437900D01*
X2561314Y-154442318D01*
G37*
X2561314Y-154442318D02*
X2596395Y-154459123D01*
X2615874Y-154474926D01*
X2657350Y-154511953D01*
X2661439Y-154703526D01*
X2665529Y-154895100D01*
X2562100Y-154895100D01*
X2562100Y-154730907D01*
X2561514Y-154659817D01*
X2559453Y-154609877D01*
X2555458Y-154576854D01*
X2549070Y-154556520D01*
X2542142Y-154546757D01*
X2508487Y-154528974D01*
X2468760Y-154530874D01*
X2429702Y-154550204D01*
X2398051Y-154584714D01*
X2391262Y-154597154D01*
X2380127Y-154633806D01*
X2373705Y-154688629D01*
X2371600Y-154765050D01*
X2371600Y-154895100D01*
X2270000Y-154895100D01*
X2270000Y-154450600D01*
X2320800Y-154450600D01*
X2353392Y-154452142D01*
X2367881Y-154460281D01*
X2371530Y-154480282D01*
X2371600Y-154487430D01*
X2371600Y-154524260D01*
X2414780Y-154481080D01*
X2446968Y-154453238D01*
X2477515Y-154440684D01*
X2516179Y-154437900D01*
X2561314Y-154442318D01*
G36*
X2054100Y-154361700D02*
G01*
X1762000Y-154361700D01*
X1762000Y-154539500D01*
X1990600Y-154539500D01*
X1990600Y-154628400D01*
X1762000Y-154628400D01*
X1762000Y-154806200D01*
X2054100Y-154806200D01*
X2054100Y-154895100D01*
X1660400Y-154895100D01*
X1660400Y-154272800D01*
X2054100Y-154272800D01*
X2054100Y-154361700D01*
G37*
X2054100Y-154361700D02*
X1762000Y-154361700D01*
X1762000Y-154539500D01*
X1990600Y-154539500D01*
X1990600Y-154628400D01*
X1762000Y-154628400D01*
X1762000Y-154806200D01*
X2054100Y-154806200D01*
X2054100Y-154895100D01*
X1660400Y-154895100D01*
X1660400Y-154272800D01*
X2054100Y-154272800D01*
X2054100Y-154361700D01*
G36*
X745214Y-154442318D02*
G01*
X780295Y-154459123D01*
X799774Y-154474926D01*
X841250Y-154511953D01*
X845339Y-154703526D01*
X849429Y-154895100D01*
X746000Y-154895100D01*
X746000Y-154730907D01*
X745414Y-154659817D01*
X743353Y-154609877D01*
X739358Y-154576854D01*
X732970Y-154556520D01*
X726042Y-154546757D01*
X692387Y-154528974D01*
X652660Y-154530874D01*
X613602Y-154550204D01*
X581951Y-154584714D01*
X575162Y-154597154D01*
X564027Y-154633806D01*
X557605Y-154688629D01*
X555500Y-154765050D01*
X555500Y-154895100D01*
X453900Y-154895100D01*
X453900Y-154450600D01*
X504700Y-154450600D01*
X537292Y-154452142D01*
X551781Y-154460281D01*
X555430Y-154480282D01*
X555500Y-154487430D01*
X555500Y-154524260D01*
X598680Y-154481080D01*
X630868Y-154453238D01*
X661415Y-154440684D01*
X700079Y-154437900D01*
X745214Y-154442318D01*
G37*
X745214Y-154442318D02*
X780295Y-154459123D01*
X799774Y-154474926D01*
X841250Y-154511953D01*
X845339Y-154703526D01*
X849429Y-154895100D01*
X746000Y-154895100D01*
X746000Y-154730907D01*
X745414Y-154659817D01*
X743353Y-154609877D01*
X739358Y-154576854D01*
X732970Y-154556520D01*
X726042Y-154546757D01*
X692387Y-154528974D01*
X652660Y-154530874D01*
X613602Y-154550204D01*
X581951Y-154584714D01*
X575162Y-154597154D01*
X564027Y-154633806D01*
X557605Y-154688629D01*
X555500Y-154765050D01*
X555500Y-154895100D01*
X453900Y-154895100D01*
X453900Y-154450600D01*
X504700Y-154450600D01*
X537292Y-154452142D01*
X551781Y-154460281D01*
X555430Y-154480282D01*
X555500Y-154487430D01*
X555500Y-154524260D01*
X598680Y-154481080D01*
X630868Y-154453238D01*
X661415Y-154440684D01*
X700079Y-154437900D01*
X745214Y-154442318D01*
G36*
X-1083586Y-154442318D02*
G01*
X-1048505Y-154459123D01*
X-1029026Y-154474926D01*
X-987550Y-154511953D01*
X-983461Y-154703526D01*
X-979371Y-154895100D01*
X-1082800Y-154895100D01*
X-1082800Y-154730907D01*
X-1083386Y-154659817D01*
X-1085447Y-154609877D01*
X-1089442Y-154576854D01*
X-1095830Y-154556520D01*
X-1102758Y-154546757D01*
X-1136413Y-154528974D01*
X-1176140Y-154530874D01*
X-1215198Y-154550204D01*
X-1246849Y-154584714D01*
X-1253638Y-154597154D01*
X-1264773Y-154633806D01*
X-1271195Y-154688629D01*
X-1273300Y-154765050D01*
X-1273300Y-154895100D01*
X-1374900Y-154895100D01*
X-1374900Y-154450600D01*
X-1324100Y-154450600D01*
X-1291508Y-154452142D01*
X-1277019Y-154460281D01*
X-1273370Y-154480282D01*
X-1273300Y-154487430D01*
X-1273300Y-154524260D01*
X-1230120Y-154481080D01*
X-1197932Y-154453238D01*
X-1167385Y-154440684D01*
X-1128721Y-154437900D01*
X-1083586Y-154442318D01*
G37*
X-1083586Y-154442318D02*
X-1048505Y-154459123D01*
X-1029026Y-154474926D01*
X-987550Y-154511953D01*
X-983461Y-154703526D01*
X-979371Y-154895100D01*
X-1082800Y-154895100D01*
X-1082800Y-154730907D01*
X-1083386Y-154659817D01*
X-1085447Y-154609877D01*
X-1089442Y-154576854D01*
X-1095830Y-154556520D01*
X-1102758Y-154546757D01*
X-1136413Y-154528974D01*
X-1176140Y-154530874D01*
X-1215198Y-154550204D01*
X-1246849Y-154584714D01*
X-1253638Y-154597154D01*
X-1264773Y-154633806D01*
X-1271195Y-154688629D01*
X-1273300Y-154765050D01*
X-1273300Y-154895100D01*
X-1374900Y-154895100D01*
X-1374900Y-154450600D01*
X-1324100Y-154450600D01*
X-1291508Y-154452142D01*
X-1277019Y-154460281D01*
X-1273370Y-154480282D01*
X-1273300Y-154487430D01*
X-1273300Y-154524260D01*
X-1230120Y-154481080D01*
X-1197932Y-154453238D01*
X-1167385Y-154440684D01*
X-1128721Y-154437900D01*
X-1083586Y-154442318D01*
G36*
X-2492500Y-154527200D02*
G01*
X-2456821Y-154487268D01*
X-2427389Y-154460600D01*
X-2393523Y-154446655D01*
X-2357035Y-154441176D01*
X-2316057Y-154439143D01*
X-2288191Y-154445321D01*
X-2261577Y-154463284D01*
X-2249839Y-154473485D01*
X-2206750Y-154511953D01*
X-2202661Y-154703526D01*
X-2198571Y-154895100D01*
X-2302000Y-154895100D01*
X-2302000Y-154730907D01*
X-2302586Y-154659817D01*
X-2304647Y-154609877D01*
X-2308642Y-154576854D01*
X-2315030Y-154556520D01*
X-2321958Y-154546757D01*
X-2355613Y-154528974D01*
X-2395340Y-154530874D01*
X-2434398Y-154550204D01*
X-2466049Y-154584714D01*
X-2472838Y-154597154D01*
X-2483973Y-154633806D01*
X-2490395Y-154688629D01*
X-2492500Y-154765050D01*
X-2492500Y-154895100D01*
X-2594100Y-154895100D01*
X-2594100Y-154272800D01*
X-2492500Y-154272800D01*
X-2492500Y-154527200D01*
G37*
X-2492500Y-154527200D02*
X-2456821Y-154487268D01*
X-2427389Y-154460600D01*
X-2393523Y-154446655D01*
X-2357035Y-154441176D01*
X-2316057Y-154439143D01*
X-2288191Y-154445321D01*
X-2261577Y-154463284D01*
X-2249839Y-154473485D01*
X-2206750Y-154511953D01*
X-2202661Y-154703526D01*
X-2198571Y-154895100D01*
X-2302000Y-154895100D01*
X-2302000Y-154730907D01*
X-2302586Y-154659817D01*
X-2304647Y-154609877D01*
X-2308642Y-154576854D01*
X-2315030Y-154556520D01*
X-2321958Y-154546757D01*
X-2355613Y-154528974D01*
X-2395340Y-154530874D01*
X-2434398Y-154550204D01*
X-2466049Y-154584714D01*
X-2472838Y-154597154D01*
X-2483973Y-154633806D01*
X-2490395Y-154688629D01*
X-2492500Y-154765050D01*
X-2492500Y-154895100D01*
X-2594100Y-154895100D01*
X-2594100Y-154272800D01*
X-2492500Y-154272800D01*
X-2492500Y-154527200D01*
G36*
X5580413Y-154445787D02*
G01*
X5642081Y-154470491D01*
X5682518Y-154503111D01*
X5717361Y-154555044D01*
X5744231Y-154623481D01*
X5755115Y-154669675D01*
X5763650Y-154717300D01*
X5382044Y-154717300D01*
X5396231Y-154748437D01*
X5422015Y-154779278D01*
X5463617Y-154803967D01*
X5511480Y-154817471D01*
X5529469Y-154818621D01*
X5563706Y-154813124D01*
X5605711Y-154799704D01*
X5619304Y-154793985D01*
X5672959Y-154769628D01*
X5698501Y-154802101D01*
X5724044Y-154834573D01*
X5692542Y-154859353D01*
X5634692Y-154890285D01*
X5564466Y-154905651D01*
X5490081Y-154904756D01*
X5419751Y-154886909D01*
X5410914Y-154883118D01*
X5354086Y-154844411D01*
X5313056Y-154790243D01*
X5288965Y-154725896D01*
X5282956Y-154656654D01*
X5292211Y-154608435D01*
X5393971Y-154608435D01*
X5404865Y-154619892D01*
X5436586Y-154626036D01*
X5491057Y-154628276D01*
X5514850Y-154628400D01*
X5574137Y-154627503D01*
X5611624Y-154624482D01*
X5630856Y-154618842D01*
X5635500Y-154611563D01*
X5626899Y-154592145D01*
X5605878Y-154566977D01*
X5602726Y-154563938D01*
X5568051Y-154541118D01*
X5523684Y-154533285D01*
X5514850Y-154533150D01*
X5467831Y-154538951D01*
X5432384Y-154559083D01*
X5426973Y-154563938D01*
X5401981Y-154590254D01*
X5393971Y-154608435D01*
X5292211Y-154608435D01*
X5296172Y-154587800D01*
X5329753Y-154524617D01*
X5332623Y-154520889D01*
X5382212Y-154476662D01*
X5444216Y-154449191D01*
X5512370Y-154438794D01*
X5580413Y-154445787D01*
G37*
X5580413Y-154445787D02*
X5642081Y-154470491D01*
X5682518Y-154503111D01*
X5717361Y-154555044D01*
X5744231Y-154623481D01*
X5755115Y-154669675D01*
X5763650Y-154717300D01*
X5382044Y-154717300D01*
X5396231Y-154748437D01*
X5422015Y-154779278D01*
X5463617Y-154803967D01*
X5511480Y-154817471D01*
X5529469Y-154818621D01*
X5563706Y-154813124D01*
X5605711Y-154799704D01*
X5619304Y-154793985D01*
X5672959Y-154769628D01*
X5698501Y-154802101D01*
X5724044Y-154834573D01*
X5692542Y-154859353D01*
X5634692Y-154890285D01*
X5564466Y-154905651D01*
X5490081Y-154904756D01*
X5419751Y-154886909D01*
X5410914Y-154883118D01*
X5354086Y-154844411D01*
X5313056Y-154790243D01*
X5288965Y-154725896D01*
X5282956Y-154656654D01*
X5292211Y-154608435D01*
X5393971Y-154608435D01*
X5404865Y-154619892D01*
X5436586Y-154626036D01*
X5491057Y-154628276D01*
X5514850Y-154628400D01*
X5574137Y-154627503D01*
X5611624Y-154624482D01*
X5630856Y-154618842D01*
X5635500Y-154611563D01*
X5626899Y-154592145D01*
X5605878Y-154566977D01*
X5602726Y-154563938D01*
X5568051Y-154541118D01*
X5523684Y-154533285D01*
X5514850Y-154533150D01*
X5467831Y-154538951D01*
X5432384Y-154559083D01*
X5426973Y-154563938D01*
X5401981Y-154590254D01*
X5393971Y-154608435D01*
X5292211Y-154608435D01*
X5296172Y-154587800D01*
X5329753Y-154524617D01*
X5332623Y-154520889D01*
X5382212Y-154476662D01*
X5444216Y-154449191D01*
X5512370Y-154438794D01*
X5580413Y-154445787D01*
G36*
X4970813Y-154445787D02*
G01*
X5032481Y-154470491D01*
X5072918Y-154503111D01*
X5107761Y-154555044D01*
X5134631Y-154623481D01*
X5145515Y-154669675D01*
X5154050Y-154717300D01*
X4772444Y-154717300D01*
X4786631Y-154748437D01*
X4812415Y-154779278D01*
X4854017Y-154803967D01*
X4901880Y-154817471D01*
X4919869Y-154818621D01*
X4954106Y-154813124D01*
X4996111Y-154799704D01*
X5009704Y-154793985D01*
X5063359Y-154769628D01*
X5088901Y-154802101D01*
X5114444Y-154834573D01*
X5082942Y-154859353D01*
X5025092Y-154890285D01*
X4954866Y-154905651D01*
X4880481Y-154904756D01*
X4810151Y-154886909D01*
X4801314Y-154883118D01*
X4744486Y-154844411D01*
X4703456Y-154790243D01*
X4679365Y-154725896D01*
X4673356Y-154656654D01*
X4682611Y-154608435D01*
X4784371Y-154608435D01*
X4795265Y-154619892D01*
X4826986Y-154626036D01*
X4881457Y-154628276D01*
X4905250Y-154628400D01*
X4964537Y-154627503D01*
X5002024Y-154624482D01*
X5021256Y-154618842D01*
X5025900Y-154611563D01*
X5017299Y-154592145D01*
X4996278Y-154566977D01*
X4993126Y-154563938D01*
X4958451Y-154541118D01*
X4914084Y-154533285D01*
X4905250Y-154533150D01*
X4858231Y-154538951D01*
X4822784Y-154559083D01*
X4817373Y-154563938D01*
X4792381Y-154590254D01*
X4784371Y-154608435D01*
X4682611Y-154608435D01*
X4686572Y-154587800D01*
X4720153Y-154524617D01*
X4723023Y-154520889D01*
X4772612Y-154476662D01*
X4834616Y-154449191D01*
X4902770Y-154438794D01*
X4970813Y-154445787D01*
G37*
X4970813Y-154445787D02*
X5032481Y-154470491D01*
X5072918Y-154503111D01*
X5107761Y-154555044D01*
X5134631Y-154623481D01*
X5145515Y-154669675D01*
X5154050Y-154717300D01*
X4772444Y-154717300D01*
X4786631Y-154748437D01*
X4812415Y-154779278D01*
X4854017Y-154803967D01*
X4901880Y-154817471D01*
X4919869Y-154818621D01*
X4954106Y-154813124D01*
X4996111Y-154799704D01*
X5009704Y-154793985D01*
X5063359Y-154769628D01*
X5088901Y-154802101D01*
X5114444Y-154834573D01*
X5082942Y-154859353D01*
X5025092Y-154890285D01*
X4954866Y-154905651D01*
X4880481Y-154904756D01*
X4810151Y-154886909D01*
X4801314Y-154883118D01*
X4744486Y-154844411D01*
X4703456Y-154790243D01*
X4679365Y-154725896D01*
X4673356Y-154656654D01*
X4682611Y-154608435D01*
X4784371Y-154608435D01*
X4795265Y-154619892D01*
X4826986Y-154626036D01*
X4881457Y-154628276D01*
X4905250Y-154628400D01*
X4964537Y-154627503D01*
X5002024Y-154624482D01*
X5021256Y-154618842D01*
X5025900Y-154611563D01*
X5017299Y-154592145D01*
X4996278Y-154566977D01*
X4993126Y-154563938D01*
X4958451Y-154541118D01*
X4914084Y-154533285D01*
X4905250Y-154533150D01*
X4858231Y-154538951D01*
X4822784Y-154559083D01*
X4817373Y-154563938D01*
X4792381Y-154590254D01*
X4784371Y-154608435D01*
X4682611Y-154608435D01*
X4686572Y-154587800D01*
X4720153Y-154524617D01*
X4723023Y-154520889D01*
X4772612Y-154476662D01*
X4834616Y-154449191D01*
X4902770Y-154438794D01*
X4970813Y-154445787D01*
G36*
X106713Y-154445787D02*
G01*
X168381Y-154470491D01*
X208818Y-154503111D01*
X243661Y-154555044D01*
X270531Y-154623481D01*
X281415Y-154669675D01*
X289950Y-154717300D01*
X-91656Y-154717300D01*
X-77469Y-154748437D01*
X-51685Y-154779278D01*
X-10083Y-154803967D01*
X37780Y-154817471D01*
X55769Y-154818621D01*
X90006Y-154813124D01*
X132011Y-154799704D01*
X145604Y-154793985D01*
X199259Y-154769628D01*
X224801Y-154802101D01*
X250344Y-154834573D01*
X218842Y-154859353D01*
X160992Y-154890285D01*
X90766Y-154905651D01*
X16381Y-154904756D01*
X-53949Y-154886909D01*
X-62786Y-154883118D01*
X-119614Y-154844411D01*
X-160644Y-154790243D01*
X-184735Y-154725896D01*
X-190744Y-154656654D01*
X-181489Y-154608435D01*
X-79729Y-154608435D01*
X-68835Y-154619892D01*
X-37114Y-154626036D01*
X17357Y-154628276D01*
X41150Y-154628400D01*
X100437Y-154627503D01*
X137924Y-154624482D01*
X157156Y-154618842D01*
X161800Y-154611563D01*
X153199Y-154592145D01*
X132178Y-154566977D01*
X129026Y-154563938D01*
X94351Y-154541118D01*
X49984Y-154533285D01*
X41150Y-154533150D01*
X-5869Y-154538951D01*
X-41316Y-154559083D01*
X-46727Y-154563938D01*
X-71719Y-154590254D01*
X-79729Y-154608435D01*
X-181489Y-154608435D01*
X-177528Y-154587800D01*
X-143947Y-154524617D01*
X-141077Y-154520889D01*
X-91488Y-154476662D01*
X-29484Y-154449191D01*
X38670Y-154438794D01*
X106713Y-154445787D01*
G37*
X106713Y-154445787D02*
X168381Y-154470491D01*
X208818Y-154503111D01*
X243661Y-154555044D01*
X270531Y-154623481D01*
X281415Y-154669675D01*
X289950Y-154717300D01*
X-91656Y-154717300D01*
X-77469Y-154748437D01*
X-51685Y-154779278D01*
X-10083Y-154803967D01*
X37780Y-154817471D01*
X55769Y-154818621D01*
X90006Y-154813124D01*
X132011Y-154799704D01*
X145604Y-154793985D01*
X199259Y-154769628D01*
X224801Y-154802101D01*
X250344Y-154834573D01*
X218842Y-154859353D01*
X160992Y-154890285D01*
X90766Y-154905651D01*
X16381Y-154904756D01*
X-53949Y-154886909D01*
X-62786Y-154883118D01*
X-119614Y-154844411D01*
X-160644Y-154790243D01*
X-184735Y-154725896D01*
X-190744Y-154656654D01*
X-181489Y-154608435D01*
X-79729Y-154608435D01*
X-68835Y-154619892D01*
X-37114Y-154626036D01*
X17357Y-154628276D01*
X41150Y-154628400D01*
X100437Y-154627503D01*
X137924Y-154624482D01*
X157156Y-154618842D01*
X161800Y-154611563D01*
X153199Y-154592145D01*
X132178Y-154566977D01*
X129026Y-154563938D01*
X94351Y-154541118D01*
X49984Y-154533285D01*
X41150Y-154533150D01*
X-5869Y-154538951D01*
X-41316Y-154559083D01*
X-46727Y-154563938D01*
X-71719Y-154590254D01*
X-79729Y-154608435D01*
X-181489Y-154608435D01*
X-177528Y-154587800D01*
X-143947Y-154524617D01*
X-141077Y-154520889D01*
X-91488Y-154476662D01*
X-29484Y-154449191D01*
X38670Y-154438794D01*
X106713Y-154445787D01*
G36*
X-499368Y-154444386D02*
G01*
X-444160Y-154458028D01*
X-404078Y-154478107D01*
X-399511Y-154481961D01*
X-390917Y-154503001D01*
X-395732Y-154528982D01*
X-409704Y-154550658D01*
X-428581Y-154558784D01*
X-434188Y-154557362D01*
X-484964Y-154541203D01*
X-539754Y-154532510D01*
X-592266Y-154531212D01*
X-636210Y-154537235D01*
X-665296Y-154550507D01*
X-672404Y-154560104D01*
X-674927Y-154576955D01*
X-665480Y-154590282D01*
X-640613Y-154601783D01*
X-596880Y-154613152D01*
X-542769Y-154623894D01*
X-466464Y-154641949D01*
X-412706Y-154664676D01*
X-378777Y-154694158D01*
X-361955Y-154732478D01*
X-358900Y-154764728D01*
X-370255Y-154815487D01*
X-401971Y-154856412D01*
X-450525Y-154886315D01*
X-512393Y-154904004D01*
X-584053Y-154908289D01*
X-661981Y-154897982D01*
X-711575Y-154883852D01*
X-749830Y-154869782D01*
X-777502Y-154858020D01*
X-786310Y-154852924D01*
X-787249Y-154837125D01*
X-779123Y-154809004D01*
X-777766Y-154805634D01*
X-768832Y-154785529D01*
X-758980Y-154775070D01*
X-742547Y-154773986D01*
X-713871Y-154782007D01*
X-667288Y-154798863D01*
X-663700Y-154800186D01*
X-589338Y-154815855D01*
X-545478Y-154815520D01*
X-493214Y-154805698D01*
X-464901Y-154790062D01*
X-460543Y-154771258D01*
X-480141Y-154751932D01*
X-523697Y-154734730D01*
X-545407Y-154729532D01*
X-615533Y-154714410D01*
X-665449Y-154701934D01*
X-699967Y-154690387D01*
X-723902Y-154678053D01*
X-742064Y-154663218D01*
X-747663Y-154657425D01*
X-773593Y-154613509D01*
X-777138Y-154566210D01*
X-760004Y-154520198D01*
X-723896Y-154480141D01*
X-672399Y-154451407D01*
X-621821Y-154440142D01*
X-561366Y-154438113D01*
X-499368Y-154444386D01*
G37*
X-499368Y-154444386D02*
X-444160Y-154458028D01*
X-404078Y-154478107D01*
X-399511Y-154481961D01*
X-390917Y-154503001D01*
X-395732Y-154528982D01*
X-409704Y-154550658D01*
X-428581Y-154558784D01*
X-434188Y-154557362D01*
X-484964Y-154541203D01*
X-539754Y-154532510D01*
X-592266Y-154531212D01*
X-636210Y-154537235D01*
X-665296Y-154550507D01*
X-672404Y-154560104D01*
X-674927Y-154576955D01*
X-665480Y-154590282D01*
X-640613Y-154601783D01*
X-596880Y-154613152D01*
X-542769Y-154623894D01*
X-466464Y-154641949D01*
X-412706Y-154664676D01*
X-378777Y-154694158D01*
X-361955Y-154732478D01*
X-358900Y-154764728D01*
X-370255Y-154815487D01*
X-401971Y-154856412D01*
X-450525Y-154886315D01*
X-512393Y-154904004D01*
X-584053Y-154908289D01*
X-661981Y-154897982D01*
X-711575Y-154883852D01*
X-749830Y-154869782D01*
X-777502Y-154858020D01*
X-786310Y-154852924D01*
X-787249Y-154837125D01*
X-779123Y-154809004D01*
X-777766Y-154805634D01*
X-768832Y-154785529D01*
X-758980Y-154775070D01*
X-742547Y-154773986D01*
X-713871Y-154782007D01*
X-667288Y-154798863D01*
X-663700Y-154800186D01*
X-589338Y-154815855D01*
X-545478Y-154815520D01*
X-493214Y-154805698D01*
X-464901Y-154790062D01*
X-460543Y-154771258D01*
X-480141Y-154751932D01*
X-523697Y-154734730D01*
X-545407Y-154729532D01*
X-615533Y-154714410D01*
X-665449Y-154701934D01*
X-699967Y-154690387D01*
X-723902Y-154678053D01*
X-742064Y-154663218D01*
X-747663Y-154657425D01*
X-773593Y-154613509D01*
X-777138Y-154566210D01*
X-760004Y-154520198D01*
X-723896Y-154480141D01*
X-672399Y-154451407D01*
X-621821Y-154440142D01*
X-561366Y-154438113D01*
X-499368Y-154444386D01*
G36*
X-1689740Y-154456458D02*
G01*
X-1636031Y-154489144D01*
X-1618333Y-154507923D01*
X-1607265Y-154523957D01*
X-1599623Y-154542230D01*
X-1594782Y-154567537D01*
X-1592116Y-154604675D01*
X-1590999Y-154658440D01*
X-1590800Y-154719012D01*
X-1590800Y-154895100D01*
X-1641600Y-154895100D01*
X-1674784Y-154893002D01*
X-1689463Y-154884441D01*
X-1692400Y-154869319D01*
X-1693572Y-154853311D01*
X-1701127Y-154851680D01*
X-1721121Y-154864802D01*
X-1730465Y-154871681D01*
X-1776756Y-154894024D01*
X-1841775Y-154905114D01*
X-1844526Y-154905321D01*
X-1887907Y-154907472D01*
X-1915796Y-154903939D01*
X-1937974Y-154891546D01*
X-1964225Y-154867115D01*
X-1965211Y-154866129D01*
X-1994457Y-154832043D01*
X-2007540Y-154800556D01*
X-2009900Y-154771764D01*
X-2006270Y-154754688D01*
X-1906332Y-154754688D01*
X-1900867Y-154788354D01*
X-1875275Y-154809379D01*
X-1832426Y-154815900D01*
X-1814150Y-154814447D01*
X-1772017Y-154803725D01*
X-1734934Y-154785989D01*
X-1731600Y-154783649D01*
X-1706820Y-154755884D01*
X-1694732Y-154725569D01*
X-1693942Y-154705397D01*
X-1702043Y-154695600D01*
X-1725232Y-154692604D01*
X-1751882Y-154692616D01*
X-1819582Y-154698505D01*
X-1869617Y-154713688D01*
X-1899343Y-154737104D01*
X-1906332Y-154754688D01*
X-2006270Y-154754688D01*
X-1998431Y-154717825D01*
X-1964622Y-154674750D01*
X-1909370Y-154643148D01*
X-1833573Y-154623630D01*
X-1783817Y-154618289D01*
X-1736121Y-154614585D01*
X-1708713Y-154609955D01*
X-1696495Y-154602538D01*
X-1694371Y-154590475D01*
X-1694917Y-154585836D01*
X-1708173Y-154560933D01*
X-1732872Y-154540309D01*
X-1762864Y-154530639D01*
X-1804089Y-154530668D01*
X-1860594Y-154540783D01*
X-1928101Y-154558898D01*
X-1950633Y-154558480D01*
X-1967253Y-154537849D01*
X-1969537Y-154533045D01*
X-1978968Y-154506525D01*
X-1975184Y-154488529D01*
X-1954407Y-154474106D01*
X-1912857Y-154458303D01*
X-1912373Y-154458138D01*
X-1832843Y-154440120D01*
X-1756988Y-154439838D01*
X-1689740Y-154456458D01*
G37*
X-1689740Y-154456458D02*
X-1636031Y-154489144D01*
X-1618333Y-154507923D01*
X-1607265Y-154523957D01*
X-1599623Y-154542230D01*
X-1594782Y-154567537D01*
X-1592116Y-154604675D01*
X-1590999Y-154658440D01*
X-1590800Y-154719012D01*
X-1590800Y-154895100D01*
X-1641600Y-154895100D01*
X-1674784Y-154893002D01*
X-1689463Y-154884441D01*
X-1692400Y-154869319D01*
X-1693572Y-154853311D01*
X-1701127Y-154851680D01*
X-1721121Y-154864802D01*
X-1730465Y-154871681D01*
X-1776756Y-154894024D01*
X-1841775Y-154905114D01*
X-1844526Y-154905321D01*
X-1887907Y-154907472D01*
X-1915796Y-154903939D01*
X-1937974Y-154891546D01*
X-1964225Y-154867115D01*
X-1965211Y-154866129D01*
X-1994457Y-154832043D01*
X-2007540Y-154800556D01*
X-2009900Y-154771764D01*
X-2006270Y-154754688D01*
X-1906332Y-154754688D01*
X-1900867Y-154788354D01*
X-1875275Y-154809379D01*
X-1832426Y-154815900D01*
X-1814150Y-154814447D01*
X-1772017Y-154803725D01*
X-1734934Y-154785989D01*
X-1731600Y-154783649D01*
X-1706820Y-154755884D01*
X-1694732Y-154725569D01*
X-1693942Y-154705397D01*
X-1702043Y-154695600D01*
X-1725232Y-154692604D01*
X-1751882Y-154692616D01*
X-1819582Y-154698505D01*
X-1869617Y-154713688D01*
X-1899343Y-154737104D01*
X-1906332Y-154754688D01*
X-2006270Y-154754688D01*
X-1998431Y-154717825D01*
X-1964622Y-154674750D01*
X-1909370Y-154643148D01*
X-1833573Y-154623630D01*
X-1783817Y-154618289D01*
X-1736121Y-154614585D01*
X-1708713Y-154609955D01*
X-1696495Y-154602538D01*
X-1694371Y-154590475D01*
X-1694917Y-154585836D01*
X-1708173Y-154560933D01*
X-1732872Y-154540309D01*
X-1762864Y-154530639D01*
X-1804089Y-154530668D01*
X-1860594Y-154540783D01*
X-1928101Y-154558898D01*
X-1950633Y-154558480D01*
X-1967253Y-154537849D01*
X-1969537Y-154533045D01*
X-1978968Y-154506525D01*
X-1975184Y-154488529D01*
X-1954407Y-154474106D01*
X-1912857Y-154458303D01*
X-1912373Y-154458138D01*
X-1832843Y-154440120D01*
X-1756988Y-154439838D01*
X-1689740Y-154456458D01*
G36*
X-2928234Y-154449125D02*
G01*
X-2863526Y-154481026D01*
X-2814138Y-154530946D01*
X-2782715Y-154596222D01*
X-2771900Y-154672850D01*
X-2783004Y-154750946D01*
X-2814658Y-154815890D01*
X-2864381Y-154865231D01*
X-2929689Y-154896521D01*
X-3008099Y-154907311D01*
X-3009618Y-154907302D01*
X-3055423Y-154903339D01*
X-3097360Y-154894004D01*
X-3108450Y-154889872D01*
X-3165573Y-154851464D01*
X-3207684Y-154796767D01*
X-3232914Y-154731225D01*
X-3238451Y-154670613D01*
X-3136311Y-154670613D01*
X-3129113Y-154721333D01*
X-3106582Y-154765316D01*
X-3070822Y-154797772D01*
X-3023940Y-154813913D01*
X-2988483Y-154813383D01*
X-2948482Y-154799561D01*
X-2912853Y-154775119D01*
X-2912283Y-154774555D01*
X-2892332Y-154749695D01*
X-2882596Y-154720658D01*
X-2879863Y-154677372D01*
X-2879850Y-154672850D01*
X-2882004Y-154628557D01*
X-2890817Y-154599009D01*
X-2909814Y-154573742D01*
X-2915064Y-154568363D01*
X-2945405Y-154544450D01*
X-2979953Y-154534461D01*
X-3008239Y-154533150D01*
X-3049347Y-154536400D01*
X-3077077Y-154549203D01*
X-3096284Y-154568125D01*
X-3126070Y-154617947D01*
X-3136311Y-154670613D01*
X-3238451Y-154670613D01*
X-3239395Y-154660283D01*
X-3225258Y-154589388D01*
X-3217797Y-154571250D01*
X-3177045Y-154506733D01*
X-3123606Y-154463869D01*
X-3055939Y-154441689D01*
X-3005616Y-154437900D01*
X-2928234Y-154449125D01*
G37*
X-2928234Y-154449125D02*
X-2863526Y-154481026D01*
X-2814138Y-154530946D01*
X-2782715Y-154596222D01*
X-2771900Y-154672850D01*
X-2783004Y-154750946D01*
X-2814658Y-154815890D01*
X-2864381Y-154865231D01*
X-2929689Y-154896521D01*
X-3008099Y-154907311D01*
X-3009618Y-154907302D01*
X-3055423Y-154903339D01*
X-3097360Y-154894004D01*
X-3108450Y-154889872D01*
X-3165573Y-154851464D01*
X-3207684Y-154796767D01*
X-3232914Y-154731225D01*
X-3238451Y-154670613D01*
X-3136311Y-154670613D01*
X-3129113Y-154721333D01*
X-3106582Y-154765316D01*
X-3070822Y-154797772D01*
X-3023940Y-154813913D01*
X-2988483Y-154813383D01*
X-2948482Y-154799561D01*
X-2912853Y-154775119D01*
X-2912283Y-154774555D01*
X-2892332Y-154749695D01*
X-2882596Y-154720658D01*
X-2879863Y-154677372D01*
X-2879850Y-154672850D01*
X-2882004Y-154628557D01*
X-2890817Y-154599009D01*
X-2909814Y-154573742D01*
X-2915064Y-154568363D01*
X-2945405Y-154544450D01*
X-2979953Y-154534461D01*
X-3008239Y-154533150D01*
X-3049347Y-154536400D01*
X-3077077Y-154549203D01*
X-3096284Y-154568125D01*
X-3126070Y-154617947D01*
X-3136311Y-154670613D01*
X-3238451Y-154670613D01*
X-3239395Y-154660283D01*
X-3225258Y-154589388D01*
X-3217797Y-154571250D01*
X-3177045Y-154506733D01*
X-3123606Y-154463869D01*
X-3055939Y-154441689D01*
X-3005616Y-154437900D01*
X-2928234Y-154449125D01*
G36*
X-3419600Y-154511409D02*
G01*
X-3419793Y-154595945D01*
X-3420646Y-154659353D01*
X-3422573Y-154705900D01*
X-3425987Y-154739855D01*
X-3431300Y-154765488D01*
X-3438927Y-154787068D01*
X-3448175Y-154806684D01*
X-3485253Y-154859147D01*
X-3521200Y-154885555D01*
X-3573660Y-154901642D01*
X-3635735Y-154906377D01*
X-3694048Y-154899199D01*
X-3711694Y-154893532D01*
X-3760888Y-154863215D01*
X-3804109Y-154817614D01*
X-3820857Y-154790955D01*
X-3835563Y-154757641D01*
X-3834023Y-154737654D01*
X-3814179Y-154723253D01*
X-3801367Y-154717617D01*
X-3764497Y-154708790D01*
X-3742418Y-154717789D01*
X-3737100Y-154735970D01*
X-3726769Y-154757685D01*
X-3701312Y-154782819D01*
X-3669037Y-154804987D01*
X-3638250Y-154817804D01*
X-3629215Y-154818900D01*
X-3595624Y-154816521D01*
X-3569712Y-154807494D01*
X-3550511Y-154788978D01*
X-3537054Y-154758134D01*
X-3528372Y-154712122D01*
X-3523497Y-154648104D01*
X-3521461Y-154563238D01*
X-3521200Y-154502030D01*
X-3521200Y-154272800D01*
X-3419600Y-154272800D01*
X-3419600Y-154511409D01*
G37*
X-3419600Y-154511409D02*
X-3419793Y-154595945D01*
X-3420646Y-154659353D01*
X-3422573Y-154705900D01*
X-3425987Y-154739855D01*
X-3431300Y-154765488D01*
X-3438927Y-154787068D01*
X-3448175Y-154806684D01*
X-3485253Y-154859147D01*
X-3521200Y-154885555D01*
X-3573660Y-154901642D01*
X-3635735Y-154906377D01*
X-3694048Y-154899199D01*
X-3711694Y-154893532D01*
X-3760888Y-154863215D01*
X-3804109Y-154817614D01*
X-3820857Y-154790955D01*
X-3835563Y-154757641D01*
X-3834023Y-154737654D01*
X-3814179Y-154723253D01*
X-3801367Y-154717617D01*
X-3764497Y-154708790D01*
X-3742418Y-154717789D01*
X-3737100Y-154735970D01*
X-3726769Y-154757685D01*
X-3701312Y-154782819D01*
X-3669037Y-154804987D01*
X-3638250Y-154817804D01*
X-3629215Y-154818900D01*
X-3595624Y-154816521D01*
X-3569712Y-154807494D01*
X-3550511Y-154788978D01*
X-3537054Y-154758134D01*
X-3528372Y-154712122D01*
X-3523497Y-154648104D01*
X-3521461Y-154563238D01*
X-3521200Y-154502030D01*
X-3521200Y-154272800D01*
X-3419600Y-154272800D01*
X-3419600Y-154511409D01*
G36*
X7982474Y-154445453D02*
G01*
X8011030Y-154457276D01*
X8036696Y-154467208D01*
X8048357Y-154464762D01*
X8048500Y-154463626D01*
X8059765Y-154455469D01*
X8087910Y-154450932D01*
X8099300Y-154450600D01*
X8150100Y-154450600D01*
X8150100Y-154702721D01*
X8149965Y-154789193D01*
X8149309Y-154854155D01*
X8147751Y-154901497D01*
X8144912Y-154935109D01*
X8140412Y-154958879D01*
X8133872Y-154976699D01*
X8124910Y-154992457D01*
X8121271Y-154997996D01*
X8075865Y-155044194D01*
X8015238Y-155073830D01*
X7944389Y-155085713D01*
X7868316Y-155078656D01*
X7829304Y-155067447D01*
X7783678Y-155047420D01*
X7753552Y-155026476D01*
X7743700Y-155009251D01*
X7750936Y-154993145D01*
X7765955Y-154972029D01*
X7788210Y-154944546D01*
X7850270Y-154971998D01*
X7911509Y-154990625D01*
X7965737Y-154991271D01*
X8009169Y-154975328D01*
X8038018Y-154944187D01*
X8048499Y-154899238D01*
X8048500Y-154899155D01*
X8048500Y-154856347D01*
X8011030Y-154875723D01*
X7950461Y-154894532D01*
X7890993Y-154890756D01*
X7836141Y-154867099D01*
X7789420Y-154826262D01*
X7754344Y-154770946D01*
X7734428Y-154703853D01*
X7731306Y-154661944D01*
X7833295Y-154661944D01*
X7839837Y-154713003D01*
X7862551Y-154758341D01*
X7897497Y-154789108D01*
X7935645Y-154800009D01*
X7981196Y-154798768D01*
X8020959Y-154786299D01*
X8030583Y-154779859D01*
X8040135Y-154759334D01*
X8046310Y-154721682D01*
X8049036Y-154674854D01*
X8048245Y-154626803D01*
X8043867Y-154585480D01*
X8035831Y-154558838D01*
X8032553Y-154554776D01*
X7991884Y-154535364D01*
X7942672Y-154531601D01*
X7907954Y-154539850D01*
X7867628Y-154568826D01*
X7842650Y-154611704D01*
X7833295Y-154661944D01*
X7731306Y-154661944D01*
X7731208Y-154660634D01*
X7741573Y-154590522D01*
X7769635Y-154530408D01*
X7811576Y-154483069D01*
X7863576Y-154451279D01*
X7921815Y-154437816D01*
X7982474Y-154445453D01*
G37*
X7982474Y-154445453D02*
X8011030Y-154457276D01*
X8036696Y-154467208D01*
X8048357Y-154464762D01*
X8048500Y-154463626D01*
X8059765Y-154455469D01*
X8087910Y-154450932D01*
X8099300Y-154450600D01*
X8150100Y-154450600D01*
X8150100Y-154702721D01*
X8149965Y-154789193D01*
X8149309Y-154854155D01*
X8147751Y-154901497D01*
X8144912Y-154935109D01*
X8140412Y-154958879D01*
X8133872Y-154976699D01*
X8124910Y-154992457D01*
X8121271Y-154997996D01*
X8075865Y-155044194D01*
X8015238Y-155073830D01*
X7944389Y-155085713D01*
X7868316Y-155078656D01*
X7829304Y-155067447D01*
X7783678Y-155047420D01*
X7753552Y-155026476D01*
X7743700Y-155009251D01*
X7750936Y-154993145D01*
X7765955Y-154972029D01*
X7788210Y-154944546D01*
X7850270Y-154971998D01*
X7911509Y-154990625D01*
X7965737Y-154991271D01*
X8009169Y-154975328D01*
X8038018Y-154944187D01*
X8048499Y-154899238D01*
X8048500Y-154899155D01*
X8048500Y-154856347D01*
X8011030Y-154875723D01*
X7950461Y-154894532D01*
X7890993Y-154890756D01*
X7836141Y-154867099D01*
X7789420Y-154826262D01*
X7754344Y-154770946D01*
X7734428Y-154703853D01*
X7731306Y-154661944D01*
X7833295Y-154661944D01*
X7839837Y-154713003D01*
X7862551Y-154758341D01*
X7897497Y-154789108D01*
X7935645Y-154800009D01*
X7981196Y-154798768D01*
X8020959Y-154786299D01*
X8030583Y-154779859D01*
X8040135Y-154759334D01*
X8046310Y-154721682D01*
X8049036Y-154674854D01*
X8048245Y-154626803D01*
X8043867Y-154585480D01*
X8035831Y-154558838D01*
X8032553Y-154554776D01*
X7991884Y-154535364D01*
X7942672Y-154531601D01*
X7907954Y-154539850D01*
X7867628Y-154568826D01*
X7842650Y-154611704D01*
X7833295Y-154661944D01*
X7731306Y-154661944D01*
X7731208Y-154660634D01*
X7741573Y-154590522D01*
X7769635Y-154530408D01*
X7811576Y-154483069D01*
X7863576Y-154451279D01*
X7921815Y-154437816D01*
X7982474Y-154445453D01*
G36*
X3105674Y-154445453D02*
G01*
X3134230Y-154457276D01*
X3159896Y-154467208D01*
X3171557Y-154464762D01*
X3171700Y-154463626D01*
X3182965Y-154455469D01*
X3211110Y-154450932D01*
X3222500Y-154450600D01*
X3273300Y-154450600D01*
X3273300Y-154702721D01*
X3273165Y-154789193D01*
X3272509Y-154854155D01*
X3270951Y-154901497D01*
X3268112Y-154935109D01*
X3263612Y-154958879D01*
X3257072Y-154976699D01*
X3248110Y-154992457D01*
X3244471Y-154997996D01*
X3199065Y-155044194D01*
X3138438Y-155073830D01*
X3067589Y-155085713D01*
X2991516Y-155078656D01*
X2952504Y-155067447D01*
X2906878Y-155047420D01*
X2876752Y-155026476D01*
X2866900Y-155009251D01*
X2874136Y-154993145D01*
X2889155Y-154972029D01*
X2911410Y-154944546D01*
X2973470Y-154971998D01*
X3034709Y-154990625D01*
X3088937Y-154991271D01*
X3132369Y-154975328D01*
X3161218Y-154944187D01*
X3171699Y-154899238D01*
X3171700Y-154899155D01*
X3171700Y-154856347D01*
X3134230Y-154875723D01*
X3073661Y-154894532D01*
X3014193Y-154890756D01*
X2959341Y-154867099D01*
X2912620Y-154826262D01*
X2877544Y-154770946D01*
X2857628Y-154703853D01*
X2854506Y-154661944D01*
X2956495Y-154661944D01*
X2963037Y-154713003D01*
X2985751Y-154758341D01*
X3020697Y-154789108D01*
X3058845Y-154800009D01*
X3104396Y-154798768D01*
X3144159Y-154786299D01*
X3153783Y-154779859D01*
X3163335Y-154759334D01*
X3169510Y-154721682D01*
X3172236Y-154674854D01*
X3171445Y-154626803D01*
X3167067Y-154585480D01*
X3159031Y-154558838D01*
X3155753Y-154554776D01*
X3115084Y-154535364D01*
X3065872Y-154531601D01*
X3031154Y-154539850D01*
X2990828Y-154568826D01*
X2965850Y-154611704D01*
X2956495Y-154661944D01*
X2854506Y-154661944D01*
X2854408Y-154660634D01*
X2864773Y-154590522D01*
X2892835Y-154530408D01*
X2934776Y-154483069D01*
X2986776Y-154451279D01*
X3045015Y-154437816D01*
X3105674Y-154445453D01*
G37*
X3105674Y-154445453D02*
X3134230Y-154457276D01*
X3159896Y-154467208D01*
X3171557Y-154464762D01*
X3171700Y-154463626D01*
X3182965Y-154455469D01*
X3211110Y-154450932D01*
X3222500Y-154450600D01*
X3273300Y-154450600D01*
X3273300Y-154702721D01*
X3273165Y-154789193D01*
X3272509Y-154854155D01*
X3270951Y-154901497D01*
X3268112Y-154935109D01*
X3263612Y-154958879D01*
X3257072Y-154976699D01*
X3248110Y-154992457D01*
X3244471Y-154997996D01*
X3199065Y-155044194D01*
X3138438Y-155073830D01*
X3067589Y-155085713D01*
X2991516Y-155078656D01*
X2952504Y-155067447D01*
X2906878Y-155047420D01*
X2876752Y-155026476D01*
X2866900Y-155009251D01*
X2874136Y-154993145D01*
X2889155Y-154972029D01*
X2911410Y-154944546D01*
X2973470Y-154971998D01*
X3034709Y-154990625D01*
X3088937Y-154991271D01*
X3132369Y-154975328D01*
X3161218Y-154944187D01*
X3171699Y-154899238D01*
X3171700Y-154899155D01*
X3171700Y-154856347D01*
X3134230Y-154875723D01*
X3073661Y-154894532D01*
X3014193Y-154890756D01*
X2959341Y-154867099D01*
X2912620Y-154826262D01*
X2877544Y-154770946D01*
X2857628Y-154703853D01*
X2854506Y-154661944D01*
X2956495Y-154661944D01*
X2963037Y-154713003D01*
X2985751Y-154758341D01*
X3020697Y-154789108D01*
X3058845Y-154800009D01*
X3104396Y-154798768D01*
X3144159Y-154786299D01*
X3153783Y-154779859D01*
X3163335Y-154759334D01*
X3169510Y-154721682D01*
X3172236Y-154674854D01*
X3171445Y-154626803D01*
X3167067Y-154585480D01*
X3159031Y-154558838D01*
X3155753Y-154554776D01*
X3115084Y-154535364D01*
X3065872Y-154531601D01*
X3031154Y-154539850D01*
X2990828Y-154568826D01*
X2965850Y-154611704D01*
X2956495Y-154661944D01*
X2854506Y-154661944D01*
X2854408Y-154660634D01*
X2864773Y-154590522D01*
X2892835Y-154530408D01*
X2934776Y-154483069D01*
X2986776Y-154451279D01*
X3045015Y-154437816D01*
X3105674Y-154445453D01*
G36*
X8935286Y-155991293D02*
G01*
X8958647Y-156032187D01*
X8960396Y-156076811D01*
X8940639Y-156117299D01*
X8933506Y-156124786D01*
X8904112Y-156152400D01*
X-4281357Y-156152400D01*
X-4307679Y-156118937D01*
X-4326231Y-156087072D01*
X-4334000Y-156057272D01*
X-4334000Y-156057150D01*
X-4326306Y-156027404D01*
X-4307793Y-155995507D01*
X-4307679Y-155995362D01*
X-4281357Y-155961900D01*
X2313157Y-155961899D01*
X8907672Y-155961899D01*
X8935286Y-155991293D01*
G37*
X8935286Y-155991293D02*
X8958647Y-156032187D01*
X8960396Y-156076811D01*
X8940639Y-156117299D01*
X8933506Y-156124786D01*
X8904112Y-156152400D01*
X-4281357Y-156152400D01*
X-4307679Y-156118937D01*
X-4326231Y-156087072D01*
X-4334000Y-156057272D01*
X-4334000Y-156057150D01*
X-4326306Y-156027404D01*
X-4307793Y-155995507D01*
X-4307679Y-155995362D01*
X-4281357Y-155961900D01*
X2313157Y-155961899D01*
X8907672Y-155961899D01*
X8935286Y-155991293D01*
G36*
X-6755957Y-155964392D02*
G01*
X-6707899Y-155973191D01*
X-6677895Y-155990281D01*
X-6662458Y-156017645D01*
X-6658100Y-156057150D01*
X-6662393Y-156096532D01*
X-6677601Y-156123780D01*
X-6707219Y-156140862D01*
X-6754743Y-156149745D01*
X-6823668Y-156152395D01*
X-6827337Y-156152400D01*
X-6884092Y-156151825D01*
X-6921508Y-156149290D01*
X-6945635Y-156143576D01*
X-6962524Y-156133466D01*
X-6973387Y-156123006D01*
X-6996748Y-156082112D01*
X-6998497Y-156037488D01*
X-6978740Y-155997000D01*
X-6971607Y-155989513D01*
X-6954426Y-155976180D01*
X-6933381Y-155967937D01*
X-6902262Y-155963612D01*
X-6854859Y-155962030D01*
X-6825557Y-155961900D01*
X-6755957Y-155964392D01*
G37*
X-6755957Y-155964392D02*
X-6707899Y-155973191D01*
X-6677895Y-155990281D01*
X-6662458Y-156017645D01*
X-6658100Y-156057150D01*
X-6662393Y-156096532D01*
X-6677601Y-156123780D01*
X-6707219Y-156140862D01*
X-6754743Y-156149745D01*
X-6823668Y-156152395D01*
X-6827337Y-156152400D01*
X-6884092Y-156151825D01*
X-6921508Y-156149290D01*
X-6945635Y-156143576D01*
X-6962524Y-156133466D01*
X-6973387Y-156123006D01*
X-6996748Y-156082112D01*
X-6998497Y-156037488D01*
X-6978740Y-155997000D01*
X-6971607Y-155989513D01*
X-6954426Y-155976180D01*
X-6933381Y-155967937D01*
X-6902262Y-155963612D01*
X-6854859Y-155962030D01*
X-6825557Y-155961900D01*
X-6755957Y-155964392D01*
G36*
X-6295443Y-155713054D02*
G01*
X-6262632Y-155732157D01*
X-6253059Y-155740516D01*
X-6245730Y-155750303D01*
X-6240293Y-155764826D01*
X-6236395Y-155787391D01*
X-6233683Y-155821307D01*
X-6231806Y-155869882D01*
X-6230411Y-155936423D01*
X-6229146Y-156024238D01*
X-6228812Y-156049571D01*
X-6224974Y-156342728D01*
X-6256810Y-156374564D01*
X-6296565Y-156401023D01*
X-6336473Y-156402725D01*
X-6373960Y-156379617D01*
X-6376487Y-156377006D01*
X-6385325Y-156366635D01*
X-6392044Y-156354549D01*
X-6396935Y-156337371D01*
X-6400286Y-156311724D01*
X-6402389Y-156274232D01*
X-6403532Y-156221520D01*
X-6404006Y-156150210D01*
X-6404100Y-156056927D01*
X-6404100Y-156055370D01*
X-6404035Y-155961929D01*
X-6403633Y-155890539D01*
X-6402587Y-155837846D01*
X-6400588Y-155800503D01*
X-6397330Y-155775156D01*
X-6392503Y-155758457D01*
X-6385800Y-155747055D01*
X-6376914Y-155737598D01*
X-6374707Y-155735513D01*
X-6335530Y-155711609D01*
X-6295443Y-155713054D01*
G37*
X-6295443Y-155713054D02*
X-6262632Y-155732157D01*
X-6253059Y-155740516D01*
X-6245730Y-155750303D01*
X-6240293Y-155764826D01*
X-6236395Y-155787391D01*
X-6233683Y-155821307D01*
X-6231806Y-155869882D01*
X-6230411Y-155936423D01*
X-6229146Y-156024238D01*
X-6228812Y-156049571D01*
X-6224974Y-156342728D01*
X-6256810Y-156374564D01*
X-6296565Y-156401023D01*
X-6336473Y-156402725D01*
X-6373960Y-156379617D01*
X-6376487Y-156377006D01*
X-6385325Y-156366635D01*
X-6392044Y-156354549D01*
X-6396935Y-156337371D01*
X-6400286Y-156311724D01*
X-6402389Y-156274232D01*
X-6403532Y-156221520D01*
X-6404006Y-156150210D01*
X-6404100Y-156056927D01*
X-6404100Y-156055370D01*
X-6404035Y-155961929D01*
X-6403633Y-155890539D01*
X-6402587Y-155837846D01*
X-6400588Y-155800503D01*
X-6397330Y-155775156D01*
X-6392503Y-155758457D01*
X-6385800Y-155747055D01*
X-6376914Y-155737598D01*
X-6374707Y-155735513D01*
X-6335530Y-155711609D01*
X-6295443Y-155713054D01*
G36*
X-4569640Y-155384148D02*
G01*
X-4562600Y-155390400D01*
X-4556882Y-155396819D01*
X-4552093Y-155405090D01*
X-4548151Y-155417365D01*
X-4544974Y-155435795D01*
X-4542478Y-155462532D01*
X-4540583Y-155499728D01*
X-4539205Y-155549533D01*
X-4538263Y-155614100D01*
X-4537674Y-155695579D01*
X-4537355Y-155796124D01*
X-4537225Y-155917884D01*
X-4537200Y-156054324D01*
X-4537278Y-156200224D01*
X-4537554Y-156322823D01*
X-4538088Y-156424218D01*
X-4538945Y-156506508D01*
X-4540185Y-156571791D01*
X-4541871Y-156622165D01*
X-4544066Y-156659728D01*
X-4546831Y-156686578D01*
X-4550229Y-156704814D01*
X-4554322Y-156716533D01*
X-4556971Y-156721074D01*
X-4586738Y-156743781D01*
X-4626267Y-156749686D01*
X-4666243Y-156738757D01*
X-4689106Y-156721505D01*
X-4694942Y-156714613D01*
X-4699829Y-156706105D01*
X-4703850Y-156693817D01*
X-4707090Y-156675586D01*
X-4709633Y-156649248D01*
X-4711563Y-156612641D01*
X-4712965Y-156563601D01*
X-4713923Y-156499964D01*
X-4714521Y-156419567D01*
X-4714844Y-156320246D01*
X-4714975Y-156199839D01*
X-4715000Y-156057150D01*
X-4714975Y-155913643D01*
X-4714842Y-155793374D01*
X-4714518Y-155694178D01*
X-4713918Y-155613891D01*
X-4712957Y-155550352D01*
X-4711553Y-155501395D01*
X-4709619Y-155464858D01*
X-4707072Y-155438577D01*
X-4703828Y-155420390D01*
X-4699801Y-155408132D01*
X-4694909Y-155399641D01*
X-4689106Y-155392794D01*
X-4652262Y-155369943D01*
X-4609207Y-155367000D01*
X-4569640Y-155384148D01*
G37*
X-4569640Y-155384148D02*
X-4562600Y-155390400D01*
X-4556882Y-155396819D01*
X-4552093Y-155405090D01*
X-4548151Y-155417365D01*
X-4544974Y-155435795D01*
X-4542478Y-155462532D01*
X-4540583Y-155499728D01*
X-4539205Y-155549533D01*
X-4538263Y-155614100D01*
X-4537674Y-155695579D01*
X-4537355Y-155796124D01*
X-4537225Y-155917884D01*
X-4537200Y-156054324D01*
X-4537278Y-156200224D01*
X-4537554Y-156322823D01*
X-4538088Y-156424218D01*
X-4538945Y-156506508D01*
X-4540185Y-156571791D01*
X-4541871Y-156622165D01*
X-4544066Y-156659728D01*
X-4546831Y-156686578D01*
X-4550229Y-156704814D01*
X-4554322Y-156716533D01*
X-4556971Y-156721074D01*
X-4586738Y-156743781D01*
X-4626267Y-156749686D01*
X-4666243Y-156738757D01*
X-4689106Y-156721505D01*
X-4694942Y-156714613D01*
X-4699829Y-156706105D01*
X-4703850Y-156693817D01*
X-4707090Y-156675586D01*
X-4709633Y-156649248D01*
X-4711563Y-156612641D01*
X-4712965Y-156563601D01*
X-4713923Y-156499964D01*
X-4714521Y-156419567D01*
X-4714844Y-156320246D01*
X-4714975Y-156199839D01*
X-4715000Y-156057150D01*
X-4714975Y-155913643D01*
X-4714842Y-155793374D01*
X-4714518Y-155694178D01*
X-4713918Y-155613891D01*
X-4712957Y-155550352D01*
X-4711553Y-155501395D01*
X-4709619Y-155464858D01*
X-4707072Y-155438577D01*
X-4703828Y-155420390D01*
X-4699801Y-155408132D01*
X-4694909Y-155399641D01*
X-4689106Y-155392794D01*
X-4652262Y-155369943D01*
X-4609207Y-155367000D01*
X-4569640Y-155384148D01*
G36*
X-5585847Y-155373366D02*
G01*
X-5583677Y-155374719D01*
X-5574101Y-155382268D01*
X-5566052Y-155392460D01*
X-5559397Y-155407408D01*
X-5554006Y-155429227D01*
X-5549745Y-155460029D01*
X-5546483Y-155501931D01*
X-5544089Y-155557044D01*
X-5542429Y-155627484D01*
X-5541372Y-155715364D01*
X-5540787Y-155822799D01*
X-5540542Y-155951902D01*
X-5540500Y-156066620D01*
X-5540527Y-156208969D01*
X-5540663Y-156328100D01*
X-5540995Y-156426193D01*
X-5541610Y-156505429D01*
X-5542594Y-156567989D01*
X-5544032Y-156616055D01*
X-5546012Y-156651807D01*
X-5548619Y-156677427D01*
X-5551940Y-156695095D01*
X-5556061Y-156706993D01*
X-5561067Y-156715301D01*
X-5566395Y-156721505D01*
X-5601291Y-156744001D01*
X-5642129Y-156749644D01*
X-5679597Y-156738462D01*
X-5698530Y-156721074D01*
X-5703044Y-156712113D01*
X-5706828Y-156697824D01*
X-5709944Y-156676107D01*
X-5712454Y-156644866D01*
X-5714420Y-156602001D01*
X-5715906Y-156545415D01*
X-5716972Y-156473009D01*
X-5717681Y-156382686D01*
X-5718095Y-156272347D01*
X-5718277Y-156139893D01*
X-5718300Y-156054324D01*
X-5718273Y-155910547D01*
X-5718134Y-155790018D01*
X-5717803Y-155690586D01*
X-5717196Y-155610100D01*
X-5716232Y-155546407D01*
X-5714827Y-155497357D01*
X-5712901Y-155460797D01*
X-5710370Y-155434577D01*
X-5707152Y-155416544D01*
X-5703165Y-155404547D01*
X-5698327Y-155396434D01*
X-5692900Y-155390400D01*
X-5660323Y-155371493D01*
X-5620356Y-155365200D01*
X-5585847Y-155373366D01*
G37*
X-5585847Y-155373366D02*
X-5583677Y-155374719D01*
X-5574101Y-155382268D01*
X-5566052Y-155392460D01*
X-5559397Y-155407408D01*
X-5554006Y-155429227D01*
X-5549745Y-155460029D01*
X-5546483Y-155501931D01*
X-5544089Y-155557044D01*
X-5542429Y-155627484D01*
X-5541372Y-155715364D01*
X-5540787Y-155822799D01*
X-5540542Y-155951902D01*
X-5540500Y-156066620D01*
X-5540527Y-156208969D01*
X-5540663Y-156328100D01*
X-5540995Y-156426193D01*
X-5541610Y-156505429D01*
X-5542594Y-156567989D01*
X-5544032Y-156616055D01*
X-5546012Y-156651807D01*
X-5548619Y-156677427D01*
X-5551940Y-156695095D01*
X-5556061Y-156706993D01*
X-5561067Y-156715301D01*
X-5566395Y-156721505D01*
X-5601291Y-156744001D01*
X-5642129Y-156749644D01*
X-5679597Y-156738462D01*
X-5698530Y-156721074D01*
X-5703044Y-156712113D01*
X-5706828Y-156697824D01*
X-5709944Y-156676107D01*
X-5712454Y-156644866D01*
X-5714420Y-156602001D01*
X-5715906Y-156545415D01*
X-5716972Y-156473009D01*
X-5717681Y-156382686D01*
X-5718095Y-156272347D01*
X-5718277Y-156139893D01*
X-5718300Y-156054324D01*
X-5718273Y-155910547D01*
X-5718134Y-155790018D01*
X-5717803Y-155690586D01*
X-5717196Y-155610100D01*
X-5716232Y-155546407D01*
X-5714827Y-155497357D01*
X-5712901Y-155460797D01*
X-5710370Y-155434577D01*
X-5707152Y-155416544D01*
X-5703165Y-155404547D01*
X-5698327Y-155396434D01*
X-5692900Y-155390400D01*
X-5660323Y-155371493D01*
X-5620356Y-155365200D01*
X-5585847Y-155373366D01*
G36*
X-4899947Y-155028088D02*
G01*
X-4878121Y-155046790D01*
X-4873799Y-155053072D01*
X-4870042Y-155061651D01*
X-4866812Y-155074239D01*
X-4864069Y-155092549D01*
X-4861773Y-155118294D01*
X-4859885Y-155153187D01*
X-4858365Y-155198939D01*
X-4857174Y-155257264D01*
X-4856271Y-155329875D01*
X-4855618Y-155418483D01*
X-4855174Y-155524802D01*
X-4854901Y-155650544D01*
X-4854758Y-155797422D01*
X-4854705Y-155967149D01*
X-4854700Y-156059134D01*
X-4854700Y-157042554D01*
X-4885873Y-157073727D01*
X-4923826Y-157099826D01*
X-4961067Y-157100608D01*
X-4998937Y-157076073D01*
X-5001328Y-157073727D01*
X-5032500Y-157042554D01*
X-5032500Y-156059134D01*
X-5032478Y-155877591D01*
X-5032384Y-155719736D01*
X-5032179Y-155583856D01*
X-5031824Y-155468238D01*
X-5031278Y-155371169D01*
X-5030503Y-155290937D01*
X-5029458Y-155225829D01*
X-5028104Y-155174133D01*
X-5026401Y-155134135D01*
X-5024310Y-155104124D01*
X-5021791Y-155082386D01*
X-5018805Y-155067209D01*
X-5015311Y-155056880D01*
X-5011270Y-155049687D01*
X-5009080Y-155046790D01*
X-4974516Y-155022461D01*
X-4943600Y-155017866D01*
X-4899947Y-155028088D01*
G37*
X-4899947Y-155028088D02*
X-4878121Y-155046790D01*
X-4873799Y-155053072D01*
X-4870042Y-155061651D01*
X-4866812Y-155074239D01*
X-4864069Y-155092549D01*
X-4861773Y-155118294D01*
X-4859885Y-155153187D01*
X-4858365Y-155198939D01*
X-4857174Y-155257264D01*
X-4856271Y-155329875D01*
X-4855618Y-155418483D01*
X-4855174Y-155524802D01*
X-4854901Y-155650544D01*
X-4854758Y-155797422D01*
X-4854705Y-155967149D01*
X-4854700Y-156059134D01*
X-4854700Y-157042554D01*
X-4885873Y-157073727D01*
X-4923826Y-157099826D01*
X-4961067Y-157100608D01*
X-4998937Y-157076073D01*
X-5001328Y-157073727D01*
X-5032500Y-157042554D01*
X-5032500Y-156059134D01*
X-5032478Y-155877591D01*
X-5032384Y-155719736D01*
X-5032179Y-155583856D01*
X-5031824Y-155468238D01*
X-5031278Y-155371169D01*
X-5030503Y-155290937D01*
X-5029458Y-155225829D01*
X-5028104Y-155174133D01*
X-5026401Y-155134135D01*
X-5024310Y-155104124D01*
X-5021791Y-155082386D01*
X-5018805Y-155067209D01*
X-5015311Y-155056880D01*
X-5011270Y-155049687D01*
X-5009080Y-155046790D01*
X-4974516Y-155022461D01*
X-4943600Y-155017866D01*
X-4899947Y-155028088D01*
G36*
X-5943716Y-155023835D02*
G01*
X-5910397Y-155043551D01*
X-5891538Y-155075566D01*
X-5890291Y-155092673D01*
X-5889100Y-155133154D01*
X-5887983Y-155194985D01*
X-5886956Y-155276140D01*
X-5886034Y-155374594D01*
X-5885235Y-155488322D01*
X-5884573Y-155615299D01*
X-5884066Y-155753499D01*
X-5883729Y-155900897D01*
X-5883579Y-156055468D01*
X-5883574Y-156073602D01*
X-5883400Y-157042554D01*
X-5914573Y-157073727D01*
X-5951065Y-157099588D01*
X-5987314Y-157101150D01*
X-6027709Y-157078601D01*
X-6027738Y-157078578D01*
X-6061200Y-157052256D01*
X-6061200Y-156068093D01*
X-6061042Y-155858810D01*
X-6060563Y-155674594D01*
X-6059760Y-155515112D01*
X-6058628Y-155380033D01*
X-6057162Y-155269025D01*
X-6055359Y-155181755D01*
X-6053213Y-155117893D01*
X-6050721Y-155077107D01*
X-6047878Y-155059064D01*
X-6047728Y-155058757D01*
X-6020356Y-155030579D01*
X-5983027Y-155019224D01*
X-5943716Y-155023835D01*
G37*
X-5943716Y-155023835D02*
X-5910397Y-155043551D01*
X-5891538Y-155075566D01*
X-5890291Y-155092673D01*
X-5889100Y-155133154D01*
X-5887983Y-155194985D01*
X-5886956Y-155276140D01*
X-5886034Y-155374594D01*
X-5885235Y-155488322D01*
X-5884573Y-155615299D01*
X-5884066Y-155753499D01*
X-5883729Y-155900897D01*
X-5883579Y-156055468D01*
X-5883574Y-156073602D01*
X-5883400Y-157042554D01*
X-5914573Y-157073727D01*
X-5951065Y-157099588D01*
X-5987314Y-157101150D01*
X-6027709Y-157078601D01*
X-6027738Y-157078578D01*
X-6061200Y-157052256D01*
X-6061200Y-156068093D01*
X-6061042Y-155858810D01*
X-6060563Y-155674594D01*
X-6059760Y-155515112D01*
X-6058628Y-155380033D01*
X-6057162Y-155269025D01*
X-6055359Y-155181755D01*
X-6053213Y-155117893D01*
X-6050721Y-155077107D01*
X-6047878Y-155059064D01*
X-6047728Y-155058757D01*
X-6020356Y-155030579D01*
X-5983027Y-155019224D01*
X-5943716Y-155023835D01*
G36*
X-5229168Y-154693784D02*
G01*
X-5223922Y-154699962D01*
X-5219713Y-154705588D01*
X-5215978Y-154712115D01*
X-5212690Y-154721013D01*
X-5209819Y-154733751D01*
X-5207337Y-154751799D01*
X-5205217Y-154776627D01*
X-5203429Y-154809703D01*
X-5201946Y-154852497D01*
X-5200738Y-154906478D01*
X-5199778Y-154973117D01*
X-5199037Y-155053882D01*
X-5198486Y-155150243D01*
X-5198098Y-155263669D01*
X-5197844Y-155395630D01*
X-5197696Y-155547596D01*
X-5197625Y-155721035D01*
X-5197602Y-155917417D01*
X-5197600Y-156062998D01*
X-5197600Y-157392572D01*
X-5226994Y-157420186D01*
X-5267058Y-157443429D01*
X-5309329Y-157444227D01*
X-5347001Y-157422590D01*
X-5349506Y-157420005D01*
X-5353639Y-157415243D01*
X-5357307Y-157409375D01*
X-5360537Y-157400941D01*
X-5363359Y-157388481D01*
X-5365798Y-157370535D01*
X-5367884Y-157345641D01*
X-5369643Y-157312341D01*
X-5371104Y-157269174D01*
X-5372295Y-157214680D01*
X-5373242Y-157147399D01*
X-5373974Y-157065870D01*
X-5374518Y-156968633D01*
X-5374903Y-156854228D01*
X-5375156Y-156721196D01*
X-5375304Y-156568075D01*
X-5375376Y-156393405D01*
X-5375399Y-156195727D01*
X-5375400Y-156056969D01*
X-5375401Y-154721727D01*
X-5346007Y-154694113D01*
X-5305943Y-154670230D01*
X-5265381Y-154670198D01*
X-5229168Y-154693784D01*
G37*
X-5229168Y-154693784D02*
X-5223922Y-154699962D01*
X-5219713Y-154705588D01*
X-5215978Y-154712115D01*
X-5212690Y-154721013D01*
X-5209819Y-154733751D01*
X-5207337Y-154751799D01*
X-5205217Y-154776627D01*
X-5203429Y-154809703D01*
X-5201946Y-154852497D01*
X-5200738Y-154906478D01*
X-5199778Y-154973117D01*
X-5199037Y-155053882D01*
X-5198486Y-155150243D01*
X-5198098Y-155263669D01*
X-5197844Y-155395630D01*
X-5197696Y-155547596D01*
X-5197625Y-155721035D01*
X-5197602Y-155917417D01*
X-5197600Y-156062998D01*
X-5197600Y-157392572D01*
X-5226994Y-157420186D01*
X-5267058Y-157443429D01*
X-5309329Y-157444227D01*
X-5347001Y-157422590D01*
X-5349506Y-157420005D01*
X-5353639Y-157415243D01*
X-5357307Y-157409375D01*
X-5360537Y-157400941D01*
X-5363359Y-157388481D01*
X-5365798Y-157370535D01*
X-5367884Y-157345641D01*
X-5369643Y-157312341D01*
X-5371104Y-157269174D01*
X-5372295Y-157214680D01*
X-5373242Y-157147399D01*
X-5373974Y-157065870D01*
X-5374518Y-156968633D01*
X-5374903Y-156854228D01*
X-5375156Y-156721196D01*
X-5375304Y-156568075D01*
X-5375376Y-156393405D01*
X-5375399Y-156195727D01*
X-5375400Y-156056969D01*
X-5375401Y-154721727D01*
X-5346007Y-154694113D01*
X-5305943Y-154670230D01*
X-5265381Y-154670198D01*
X-5229168Y-154693784D01*
D16*
X5500000Y-146952380D02*
X5690476Y-146952380D01*
X5785714Y-147000000D01*
X5880952Y-147095238D01*
X5928571Y-147285714D01*
X5928571Y-147619047D01*
X5880952Y-147809523D01*
X5785714Y-147904761D01*
X5690476Y-147952380D01*
X5500000Y-147952380D01*
X5404761Y-147904761D01*
X5309523Y-147809523D01*
X5261904Y-147619047D01*
X5261904Y-147285714D01*
X5309523Y-147095238D01*
X5404761Y-147000000D01*
X5500000Y-146952380D01*
X6833333Y-147952380D02*
X6357142Y-147952380D01*
X6357142Y-146952380D01*
X-4619047Y-146952380D02*
X-4428571Y-146952380D01*
X-4333333Y-147000000D01*
X-4238095Y-147095238D01*
X-4190476Y-147285714D01*
X-4190476Y-147619047D01*
X-4238095Y-147809523D01*
X-4333333Y-147904761D01*
X-4428571Y-147952380D01*
X-4619047Y-147952380D01*
X-4714285Y-147904761D01*
X-4809523Y-147809523D01*
X-4857142Y-147619047D01*
X-4857142Y-147285714D01*
X-4809523Y-147095238D01*
X-4714285Y-147000000D01*
X-4619047Y-146952380D01*
X-3761904Y-147952380D02*
X-3761904Y-146952380D01*
X-3190476Y-147952380D01*
X-3190476Y-146952380D01*
X5500000Y-136952380D02*
X5690476Y-136952380D01*
X5785714Y-137000000D01*
X5880952Y-137095238D01*
X5928571Y-137285714D01*
X5928571Y-137619047D01*
X5880952Y-137809523D01*
X5785714Y-137904761D01*
X5690476Y-137952380D01*
X5500000Y-137952380D01*
X5404761Y-137904761D01*
X5309523Y-137809523D01*
X5261904Y-137619047D01*
X5261904Y-137285714D01*
X5309523Y-137095238D01*
X5404761Y-137000000D01*
X5500000Y-136952380D01*
X6833333Y-137952380D02*
X6357142Y-137952380D01*
X6357142Y-136952380D01*
X-4619047Y-136952380D02*
X-4428571Y-136952380D01*
X-4333333Y-137000000D01*
X-4238095Y-137095238D01*
X-4190476Y-137285714D01*
X-4190476Y-137619047D01*
X-4238095Y-137809523D01*
X-4333333Y-137904761D01*
X-4428571Y-137952380D01*
X-4619047Y-137952380D01*
X-4714285Y-137904761D01*
X-4809523Y-137809523D01*
X-4857142Y-137619047D01*
X-4857142Y-137285714D01*
X-4809523Y-137095238D01*
X-4714285Y-137000000D01*
X-4619047Y-136952380D01*
X-3761904Y-137952380D02*
X-3761904Y-136952380D01*
X-3190476Y-137952380D01*
X-3190476Y-136952380D01*
X5500000Y-126952380D02*
X5690476Y-126952380D01*
X5785714Y-127000000D01*
X5880952Y-127095238D01*
X5928571Y-127285714D01*
X5928571Y-127619047D01*
X5880952Y-127809523D01*
X5785714Y-127904761D01*
X5690476Y-127952380D01*
X5500000Y-127952380D01*
X5404761Y-127904761D01*
X5309523Y-127809523D01*
X5261904Y-127619047D01*
X5261904Y-127285714D01*
X5309523Y-127095238D01*
X5404761Y-127000000D01*
X5500000Y-126952380D01*
X6833333Y-127952380D02*
X6357142Y-127952380D01*
X6357142Y-126952380D01*
X-4619047Y-126952380D02*
X-4428571Y-126952380D01*
X-4333333Y-127000000D01*
X-4238095Y-127095238D01*
X-4190476Y-127285714D01*
X-4190476Y-127619047D01*
X-4238095Y-127809523D01*
X-4333333Y-127904761D01*
X-4428571Y-127952380D01*
X-4619047Y-127952380D01*
X-4714285Y-127904761D01*
X-4809523Y-127809523D01*
X-4857142Y-127619047D01*
X-4857142Y-127285714D01*
X-4809523Y-127095238D01*
X-4714285Y-127000000D01*
X-4619047Y-126952380D01*
X-3761904Y-127952380D02*
X-3761904Y-126952380D01*
X-3190476Y-127952380D01*
X-3190476Y-126952380D01*
X380952Y-86952380D02*
X571428Y-86952380D01*
X666666Y-87000000D01*
X761904Y-87095238D01*
X809523Y-87285714D01*
X809523Y-87619047D01*
X761904Y-87809523D01*
X666666Y-87904761D01*
X571428Y-87952380D01*
X380952Y-87952380D01*
X285714Y-87904761D01*
X190476Y-87809523D01*
X142857Y-87619047D01*
X142857Y-87285714D01*
X190476Y-87095238D01*
X285714Y-87000000D01*
X380952Y-86952380D01*
X1238095Y-87952380D02*
X1238095Y-86952380D01*
X1809523Y-87952380D01*
X1809523Y-86952380D01*
M02*
