%TF.GenerationSoftware,KiCad,Pcbnew,(5.1.5)-3*%
%TF.CreationDate,2020-03-17T21:37:30+01:00*%
%TF.ProjectId,KicadJE-EuroPowerSupply2-Faceplate,4b696361-644a-4452-9d45-75726f506f77,Rev A*%
%TF.SameCoordinates,Original*%
%TF.FileFunction,Soldermask,Bot*%
%TF.FilePolarity,Negative*%
%FSLAX46Y46*%
G04 Gerber Fmt 4.6, Leading zero omitted, Abs format (unit mm)*
G04 Created by KiCad (PCBNEW (5.1.5)-3) date 2020-03-17 21:37:30*
%MOMM*%
%LPD*%
G04 APERTURE LIST*
%ADD10C,0.050000*%
%ADD11C,0.150000*%
G04 APERTURE END LIST*
D10*
X-9000000Y-164000000D02*
X-9000000Y-36000000D01*
X11000000Y-164000000D02*
X-9000000Y-164000000D01*
X11000000Y-36000000D02*
X11000000Y-164000000D01*
X-9000000Y-36000000D02*
X11000000Y-36000000D01*
D11*
G36*
X-798811Y-158958892D02*
G01*
X-597934Y-158978677D01*
X-211319Y-159095955D01*
X-211316Y-159095956D01*
X144983Y-159286402D01*
X144986Y-159286404D01*
X144987Y-159286405D01*
X457293Y-159542707D01*
X713595Y-159855013D01*
X713598Y-159855017D01*
X904044Y-160211316D01*
X904045Y-160211319D01*
X1021323Y-160597934D01*
X1060923Y-161000000D01*
X1021323Y-161402066D01*
X904045Y-161788681D01*
X904044Y-161788684D01*
X713598Y-162144983D01*
X713596Y-162144986D01*
X713595Y-162144987D01*
X457293Y-162457293D01*
X144987Y-162713595D01*
X144983Y-162713598D01*
X-211316Y-162904044D01*
X-211319Y-162904045D01*
X-597934Y-163021323D01*
X-798811Y-163041108D01*
X-899249Y-163051000D01*
X-4100751Y-163051000D01*
X-4201189Y-163041108D01*
X-4402066Y-163021323D01*
X-4788681Y-162904045D01*
X-4788684Y-162904044D01*
X-5144983Y-162713598D01*
X-5144987Y-162713595D01*
X-5457293Y-162457293D01*
X-5713595Y-162144987D01*
X-5713596Y-162144986D01*
X-5713598Y-162144983D01*
X-5904044Y-161788684D01*
X-5904045Y-161788681D01*
X-6021323Y-161402066D01*
X-6060923Y-161000000D01*
X-6021323Y-160597934D01*
X-5904045Y-160211319D01*
X-5904044Y-160211316D01*
X-5713598Y-159855017D01*
X-5713595Y-159855013D01*
X-5457293Y-159542707D01*
X-5144987Y-159286405D01*
X-5144986Y-159286404D01*
X-5144983Y-159286402D01*
X-4788684Y-159095956D01*
X-4788681Y-159095955D01*
X-4402066Y-158978677D01*
X-4201189Y-158958892D01*
X-4100751Y-158949000D01*
X-899249Y-158949000D01*
X-798811Y-158958892D01*
G37*
G36*
X6302585Y-143478802D02*
G01*
X6452410Y-143508604D01*
X6734674Y-143625521D01*
X6988705Y-143795259D01*
X7204741Y-144011295D01*
X7374479Y-144265326D01*
X7491396Y-144547590D01*
X7551000Y-144847240D01*
X7551000Y-145152760D01*
X7491396Y-145452410D01*
X7374479Y-145734674D01*
X7204741Y-145988705D01*
X6988705Y-146204741D01*
X6734674Y-146374479D01*
X6452410Y-146491396D01*
X6302585Y-146521198D01*
X6152761Y-146551000D01*
X5847239Y-146551000D01*
X5697415Y-146521198D01*
X5547590Y-146491396D01*
X5265326Y-146374479D01*
X5011295Y-146204741D01*
X4795259Y-145988705D01*
X4625521Y-145734674D01*
X4508604Y-145452410D01*
X4449000Y-145152760D01*
X4449000Y-144847240D01*
X4508604Y-144547590D01*
X4625521Y-144265326D01*
X4795259Y-144011295D01*
X5011295Y-143795259D01*
X5265326Y-143625521D01*
X5547590Y-143508604D01*
X5697415Y-143478802D01*
X5847239Y-143449000D01*
X6152761Y-143449000D01*
X6302585Y-143478802D01*
G37*
G36*
X-3697415Y-143478802D02*
G01*
X-3547590Y-143508604D01*
X-3265326Y-143625521D01*
X-3011295Y-143795259D01*
X-2795259Y-144011295D01*
X-2625521Y-144265326D01*
X-2508604Y-144547590D01*
X-2449000Y-144847240D01*
X-2449000Y-145152760D01*
X-2508604Y-145452410D01*
X-2625521Y-145734674D01*
X-2795259Y-145988705D01*
X-3011295Y-146204741D01*
X-3265326Y-146374479D01*
X-3547590Y-146491396D01*
X-3697415Y-146521198D01*
X-3847239Y-146551000D01*
X-4152761Y-146551000D01*
X-4302585Y-146521198D01*
X-4452410Y-146491396D01*
X-4734674Y-146374479D01*
X-4988705Y-146204741D01*
X-5204741Y-145988705D01*
X-5374479Y-145734674D01*
X-5491396Y-145452410D01*
X-5551000Y-145152760D01*
X-5551000Y-144847240D01*
X-5491396Y-144547590D01*
X-5374479Y-144265326D01*
X-5204741Y-144011295D01*
X-4988705Y-143795259D01*
X-4734674Y-143625521D01*
X-4452410Y-143508604D01*
X-4302585Y-143478802D01*
X-4152761Y-143449000D01*
X-3847239Y-143449000D01*
X-3697415Y-143478802D01*
G37*
G36*
X6302585Y-133478802D02*
G01*
X6452410Y-133508604D01*
X6734674Y-133625521D01*
X6988705Y-133795259D01*
X7204741Y-134011295D01*
X7374479Y-134265326D01*
X7491396Y-134547590D01*
X7551000Y-134847240D01*
X7551000Y-135152760D01*
X7491396Y-135452410D01*
X7374479Y-135734674D01*
X7204741Y-135988705D01*
X6988705Y-136204741D01*
X6734674Y-136374479D01*
X6452410Y-136491396D01*
X6302585Y-136521198D01*
X6152761Y-136551000D01*
X5847239Y-136551000D01*
X5697415Y-136521198D01*
X5547590Y-136491396D01*
X5265326Y-136374479D01*
X5011295Y-136204741D01*
X4795259Y-135988705D01*
X4625521Y-135734674D01*
X4508604Y-135452410D01*
X4449000Y-135152760D01*
X4449000Y-134847240D01*
X4508604Y-134547590D01*
X4625521Y-134265326D01*
X4795259Y-134011295D01*
X5011295Y-133795259D01*
X5265326Y-133625521D01*
X5547590Y-133508604D01*
X5697415Y-133478802D01*
X5847239Y-133449000D01*
X6152761Y-133449000D01*
X6302585Y-133478802D01*
G37*
G36*
X-3697415Y-133478802D02*
G01*
X-3547590Y-133508604D01*
X-3265326Y-133625521D01*
X-3011295Y-133795259D01*
X-2795259Y-134011295D01*
X-2625521Y-134265326D01*
X-2508604Y-134547590D01*
X-2449000Y-134847240D01*
X-2449000Y-135152760D01*
X-2508604Y-135452410D01*
X-2625521Y-135734674D01*
X-2795259Y-135988705D01*
X-3011295Y-136204741D01*
X-3265326Y-136374479D01*
X-3547590Y-136491396D01*
X-3697415Y-136521198D01*
X-3847239Y-136551000D01*
X-4152761Y-136551000D01*
X-4302585Y-136521198D01*
X-4452410Y-136491396D01*
X-4734674Y-136374479D01*
X-4988705Y-136204741D01*
X-5204741Y-135988705D01*
X-5374479Y-135734674D01*
X-5491396Y-135452410D01*
X-5551000Y-135152760D01*
X-5551000Y-134847240D01*
X-5491396Y-134547590D01*
X-5374479Y-134265326D01*
X-5204741Y-134011295D01*
X-4988705Y-133795259D01*
X-4734674Y-133625521D01*
X-4452410Y-133508604D01*
X-4302585Y-133478802D01*
X-4152761Y-133449000D01*
X-3847239Y-133449000D01*
X-3697415Y-133478802D01*
G37*
G36*
X6302585Y-123478802D02*
G01*
X6452410Y-123508604D01*
X6734674Y-123625521D01*
X6988705Y-123795259D01*
X7204741Y-124011295D01*
X7374479Y-124265326D01*
X7491396Y-124547590D01*
X7551000Y-124847240D01*
X7551000Y-125152760D01*
X7491396Y-125452410D01*
X7374479Y-125734674D01*
X7204741Y-125988705D01*
X6988705Y-126204741D01*
X6734674Y-126374479D01*
X6452410Y-126491396D01*
X6302585Y-126521198D01*
X6152761Y-126551000D01*
X5847239Y-126551000D01*
X5697415Y-126521198D01*
X5547590Y-126491396D01*
X5265326Y-126374479D01*
X5011295Y-126204741D01*
X4795259Y-125988705D01*
X4625521Y-125734674D01*
X4508604Y-125452410D01*
X4449000Y-125152760D01*
X4449000Y-124847240D01*
X4508604Y-124547590D01*
X4625521Y-124265326D01*
X4795259Y-124011295D01*
X5011295Y-123795259D01*
X5265326Y-123625521D01*
X5547590Y-123508604D01*
X5697415Y-123478802D01*
X5847239Y-123449000D01*
X6152761Y-123449000D01*
X6302585Y-123478802D01*
G37*
G36*
X-3697415Y-123478802D02*
G01*
X-3547590Y-123508604D01*
X-3265326Y-123625521D01*
X-3011295Y-123795259D01*
X-2795259Y-124011295D01*
X-2625521Y-124265326D01*
X-2508604Y-124547590D01*
X-2449000Y-124847240D01*
X-2449000Y-125152760D01*
X-2508604Y-125452410D01*
X-2625521Y-125734674D01*
X-2795259Y-125988705D01*
X-3011295Y-126204741D01*
X-3265326Y-126374479D01*
X-3547590Y-126491396D01*
X-3697415Y-126521198D01*
X-3847239Y-126551000D01*
X-4152761Y-126551000D01*
X-4302585Y-126521198D01*
X-4452410Y-126491396D01*
X-4734674Y-126374479D01*
X-4988705Y-126204741D01*
X-5204741Y-125988705D01*
X-5374479Y-125734674D01*
X-5491396Y-125452410D01*
X-5551000Y-125152760D01*
X-5551000Y-124847240D01*
X-5491396Y-124547590D01*
X-5374479Y-124265326D01*
X-5204741Y-124011295D01*
X-4988705Y-123795259D01*
X-4734674Y-123625521D01*
X-4452410Y-123508604D01*
X-4302585Y-123478802D01*
X-4152761Y-123449000D01*
X-3847239Y-123449000D01*
X-3697415Y-123478802D01*
G37*
G36*
X1962865Y-101825855D02*
G01*
X2563608Y-102074691D01*
X2563610Y-102074692D01*
X3104265Y-102435946D01*
X3564054Y-102895735D01*
X3925308Y-103436390D01*
X3925309Y-103436392D01*
X4174145Y-104037135D01*
X4301000Y-104674879D01*
X4301000Y-105325121D01*
X4174145Y-105962865D01*
X3925309Y-106563608D01*
X3925308Y-106563610D01*
X3564054Y-107104265D01*
X3104265Y-107564054D01*
X2563610Y-107925308D01*
X2563609Y-107925309D01*
X2563608Y-107925309D01*
X1962865Y-108174145D01*
X1325121Y-108301000D01*
X674879Y-108301000D01*
X37135Y-108174145D01*
X-563608Y-107925309D01*
X-563609Y-107925309D01*
X-563610Y-107925308D01*
X-1104265Y-107564054D01*
X-1564054Y-107104265D01*
X-1925308Y-106563610D01*
X-1925309Y-106563608D01*
X-2174145Y-105962865D01*
X-2301000Y-105325121D01*
X-2301000Y-104674879D01*
X-2174145Y-104037135D01*
X-1925309Y-103436392D01*
X-1925308Y-103436390D01*
X-1564054Y-102895735D01*
X-1104265Y-102435946D01*
X-563610Y-102074692D01*
X-563608Y-102074691D01*
X37135Y-101825855D01*
X674879Y-101699000D01*
X1325121Y-101699000D01*
X1962865Y-101825855D01*
G37*
G36*
X1302585Y-83478802D02*
G01*
X1452410Y-83508604D01*
X1734674Y-83625521D01*
X1988705Y-83795259D01*
X2204741Y-84011295D01*
X2374479Y-84265326D01*
X2491396Y-84547590D01*
X2551000Y-84847240D01*
X2551000Y-85152760D01*
X2491396Y-85452410D01*
X2374479Y-85734674D01*
X2204741Y-85988705D01*
X1988705Y-86204741D01*
X1734674Y-86374479D01*
X1452410Y-86491396D01*
X1302585Y-86521198D01*
X1152761Y-86551000D01*
X847239Y-86551000D01*
X697415Y-86521198D01*
X547590Y-86491396D01*
X265326Y-86374479D01*
X11295Y-86204741D01*
X-204741Y-85988705D01*
X-374479Y-85734674D01*
X-491396Y-85452410D01*
X-551000Y-85152760D01*
X-551000Y-84847240D01*
X-491396Y-84547590D01*
X-374479Y-84265326D01*
X-204741Y-84011295D01*
X11295Y-83795259D01*
X265326Y-83625521D01*
X547590Y-83508604D01*
X697415Y-83478802D01*
X847239Y-83449000D01*
X1152761Y-83449000D01*
X1302585Y-83478802D01*
G37*
G36*
X1962865Y-71825855D02*
G01*
X2563608Y-72074691D01*
X2563610Y-72074692D01*
X3104265Y-72435946D01*
X3564054Y-72895735D01*
X3925308Y-73436390D01*
X3925309Y-73436392D01*
X4174145Y-74037135D01*
X4301000Y-74674879D01*
X4301000Y-75325121D01*
X4174145Y-75962865D01*
X3925309Y-76563608D01*
X3925308Y-76563610D01*
X3564054Y-77104265D01*
X3104265Y-77564054D01*
X2563610Y-77925308D01*
X2563609Y-77925309D01*
X2563608Y-77925309D01*
X1962865Y-78174145D01*
X1325121Y-78301000D01*
X674879Y-78301000D01*
X37135Y-78174145D01*
X-563608Y-77925309D01*
X-563609Y-77925309D01*
X-563610Y-77925308D01*
X-1104265Y-77564054D01*
X-1564054Y-77104265D01*
X-1925308Y-76563610D01*
X-1925309Y-76563608D01*
X-2174145Y-75962865D01*
X-2301000Y-75325121D01*
X-2301000Y-74674879D01*
X-2174145Y-74037135D01*
X-1925309Y-73436392D01*
X-1925308Y-73436390D01*
X-1564054Y-72895735D01*
X-1104265Y-72435946D01*
X-563610Y-72074692D01*
X-563608Y-72074691D01*
X37135Y-71825855D01*
X674879Y-71699000D01*
X1325121Y-71699000D01*
X1962865Y-71825855D01*
G37*
G36*
X1962865Y-55325855D02*
G01*
X2563608Y-55574691D01*
X2563610Y-55574692D01*
X3104265Y-55935946D01*
X3564054Y-56395735D01*
X3925308Y-56936390D01*
X3925309Y-56936392D01*
X4174145Y-57537135D01*
X4301000Y-58174879D01*
X4301000Y-58825121D01*
X4174145Y-59462865D01*
X3925309Y-60063608D01*
X3925308Y-60063610D01*
X3564054Y-60604265D01*
X3104265Y-61064054D01*
X2563610Y-61425308D01*
X2563609Y-61425309D01*
X2563608Y-61425309D01*
X1962865Y-61674145D01*
X1325121Y-61801000D01*
X674879Y-61801000D01*
X37135Y-61674145D01*
X-563608Y-61425309D01*
X-563609Y-61425309D01*
X-563610Y-61425308D01*
X-1104265Y-61064054D01*
X-1564054Y-60604265D01*
X-1925308Y-60063610D01*
X-1925309Y-60063608D01*
X-2174145Y-59462865D01*
X-2301000Y-58825121D01*
X-2301000Y-58174879D01*
X-2174145Y-57537135D01*
X-1925309Y-56936392D01*
X-1925308Y-56936390D01*
X-1564054Y-56395735D01*
X-1104265Y-55935946D01*
X-563610Y-55574692D01*
X-563608Y-55574691D01*
X37135Y-55325855D01*
X674879Y-55199000D01*
X1325121Y-55199000D01*
X1962865Y-55325855D01*
G37*
G36*
X-798811Y-36958892D02*
G01*
X-597934Y-36978677D01*
X-211319Y-37095955D01*
X-211316Y-37095956D01*
X144983Y-37286402D01*
X144986Y-37286404D01*
X144987Y-37286405D01*
X457293Y-37542707D01*
X713595Y-37855013D01*
X713598Y-37855017D01*
X904044Y-38211316D01*
X904045Y-38211319D01*
X1021323Y-38597934D01*
X1060923Y-39000000D01*
X1021323Y-39402066D01*
X904045Y-39788681D01*
X904044Y-39788684D01*
X713598Y-40144983D01*
X713596Y-40144986D01*
X713595Y-40144987D01*
X457293Y-40457293D01*
X144987Y-40713595D01*
X144983Y-40713598D01*
X-211316Y-40904044D01*
X-211319Y-40904045D01*
X-597934Y-41021323D01*
X-798811Y-41041108D01*
X-899249Y-41051000D01*
X-4100751Y-41051000D01*
X-4201189Y-41041108D01*
X-4402066Y-41021323D01*
X-4788681Y-40904045D01*
X-4788684Y-40904044D01*
X-5144983Y-40713598D01*
X-5144987Y-40713595D01*
X-5457293Y-40457293D01*
X-5713595Y-40144987D01*
X-5713596Y-40144986D01*
X-5713598Y-40144983D01*
X-5904044Y-39788684D01*
X-5904045Y-39788681D01*
X-6021323Y-39402066D01*
X-6060923Y-39000000D01*
X-6021323Y-38597934D01*
X-5904045Y-38211319D01*
X-5904044Y-38211316D01*
X-5713598Y-37855017D01*
X-5713595Y-37855013D01*
X-5457293Y-37542707D01*
X-5144987Y-37286405D01*
X-5144986Y-37286404D01*
X-5144983Y-37286402D01*
X-4788684Y-37095956D01*
X-4788681Y-37095955D01*
X-4402066Y-36978677D01*
X-4201189Y-36958892D01*
X-4100751Y-36949000D01*
X-899249Y-36949000D01*
X-798811Y-36958892D01*
G37*
M02*
