%TF.GenerationSoftware,KiCad,Pcbnew,(5.1.5)-3*%
%TF.CreationDate,2020-03-17T21:37:30+01:00*%
%TF.ProjectId,KicadJE-EuroPowerSupply2-Faceplate,4b696361-644a-4452-9d45-75726f506f77,Rev A*%
%TF.SameCoordinates,Original*%
%TF.FileFunction,Legend,Bot*%
%TF.FilePolarity,Positive*%
%FSLAX46Y46*%
G04 Gerber Fmt 4.6, Leading zero omitted, Abs format (unit mm)*
G04 Created by KiCad (PCBNEW (5.1.5)-3) date 2020-03-17 21:37:30*
%MOMM*%
%LPD*%
G04 APERTURE LIST*
%ADD10C,0.200000*%
%ADD11C,0.250000*%
%ADD12C,0.050000*%
G04 APERTURE END LIST*
D10*
X9898571Y-162507142D02*
X9898571Y-163150000D01*
X9941428Y-163278571D01*
X10027142Y-163364285D01*
X10155714Y-163407142D01*
X10241428Y-163407142D01*
X9041428Y-163407142D02*
X9470000Y-163407142D01*
X9470000Y-162507142D01*
X8227142Y-163321428D02*
X8270000Y-163364285D01*
X8398571Y-163407142D01*
X8484285Y-163407142D01*
X8612857Y-163364285D01*
X8698571Y-163278571D01*
X8741428Y-163192857D01*
X8784285Y-163021428D01*
X8784285Y-162892857D01*
X8741428Y-162721428D01*
X8698571Y-162635714D01*
X8612857Y-162550000D01*
X8484285Y-162507142D01*
X8398571Y-162507142D01*
X8270000Y-162550000D01*
X8227142Y-162592857D01*
X7584285Y-162507142D02*
X7584285Y-163150000D01*
X7627142Y-163278571D01*
X7712857Y-163364285D01*
X7841428Y-163407142D01*
X7927142Y-163407142D01*
X6727142Y-163407142D02*
X7155714Y-163407142D01*
X7155714Y-162507142D01*
X5912857Y-163321428D02*
X5955714Y-163364285D01*
X6084285Y-163407142D01*
X6170000Y-163407142D01*
X6298571Y-163364285D01*
X6384285Y-163278571D01*
X6427142Y-163192857D01*
X6469999Y-163021428D01*
X6469999Y-162892857D01*
X6427142Y-162721428D01*
X6384285Y-162635714D01*
X6298571Y-162550000D01*
X6170000Y-162507142D01*
X6084285Y-162507142D01*
X5955714Y-162550000D01*
X5912857Y-162592857D01*
X5270000Y-162507142D02*
X5270000Y-163150000D01*
X5312857Y-163278571D01*
X5398571Y-163364285D01*
X5527142Y-163407142D01*
X5612857Y-163407142D01*
X4412857Y-163407142D02*
X4841428Y-163407142D01*
X4841428Y-162507142D01*
X3598571Y-163321428D02*
X3641428Y-163364285D01*
X3770000Y-163407142D01*
X3855714Y-163407142D01*
X3984285Y-163364285D01*
X4070000Y-163278571D01*
X4112857Y-163192857D01*
X4155714Y-163021428D01*
X4155714Y-162892857D01*
X4112857Y-162721428D01*
X4070000Y-162635714D01*
X3984285Y-162550000D01*
X3855714Y-162507142D01*
X3770000Y-162507142D01*
X3641428Y-162550000D01*
X3598571Y-162592857D01*
X2955714Y-162507142D02*
X2955714Y-163150000D01*
X2998571Y-163278571D01*
X3084285Y-163364285D01*
X3212857Y-163407142D01*
X3298571Y-163407142D01*
X2098571Y-163407142D02*
X2527142Y-163407142D01*
X2527142Y-162507142D01*
X1284285Y-163321428D02*
X1327142Y-163364285D01*
X1455714Y-163407142D01*
X1541428Y-163407142D01*
X1670000Y-163364285D01*
X1755714Y-163278571D01*
X1798571Y-163192857D01*
X1841428Y-163021428D01*
X1841428Y-162892857D01*
X1798571Y-162721428D01*
X1755714Y-162635714D01*
X1670000Y-162550000D01*
X1541428Y-162507142D01*
X1455714Y-162507142D01*
X1327142Y-162550000D01*
X1284285Y-162592857D01*
D11*
X8813690Y-92702380D02*
X8813690Y-93416666D01*
X8861309Y-93559523D01*
X8956547Y-93654761D01*
X9099404Y-93702380D01*
X9194642Y-93702380D01*
X8194642Y-93702380D02*
X8289880Y-93654761D01*
X8337500Y-93607142D01*
X8385119Y-93511904D01*
X8385119Y-93226190D01*
X8337500Y-93130952D01*
X8289880Y-93083333D01*
X8194642Y-93035714D01*
X8051785Y-93035714D01*
X7956547Y-93083333D01*
X7908928Y-93130952D01*
X7861309Y-93226190D01*
X7861309Y-93511904D01*
X7908928Y-93607142D01*
X7956547Y-93654761D01*
X8051785Y-93702380D01*
X8194642Y-93702380D01*
X7432738Y-93702380D02*
X7432738Y-92702380D01*
X7004166Y-93702380D02*
X7004166Y-93178571D01*
X7051785Y-93083333D01*
X7147023Y-93035714D01*
X7289880Y-93035714D01*
X7385119Y-93083333D01*
X7432738Y-93130952D01*
X6099404Y-93702380D02*
X6099404Y-93178571D01*
X6147023Y-93083333D01*
X6242261Y-93035714D01*
X6432738Y-93035714D01*
X6527976Y-93083333D01*
X6099404Y-93654761D02*
X6194642Y-93702380D01*
X6432738Y-93702380D01*
X6527976Y-93654761D01*
X6575595Y-93559523D01*
X6575595Y-93464285D01*
X6527976Y-93369047D01*
X6432738Y-93321428D01*
X6194642Y-93321428D01*
X6099404Y-93273809D01*
X5623214Y-93035714D02*
X5623214Y-93702380D01*
X5623214Y-93130952D02*
X5575595Y-93083333D01*
X5480357Y-93035714D01*
X5337500Y-93035714D01*
X5242261Y-93083333D01*
X5194642Y-93178571D01*
X5194642Y-93702380D01*
X4766071Y-93654761D02*
X4670833Y-93702380D01*
X4480357Y-93702380D01*
X4385119Y-93654761D01*
X4337500Y-93559523D01*
X4337500Y-93511904D01*
X4385119Y-93416666D01*
X4480357Y-93369047D01*
X4623214Y-93369047D01*
X4718452Y-93321428D01*
X4766071Y-93226190D01*
X4766071Y-93178571D01*
X4718452Y-93083333D01*
X4623214Y-93035714D01*
X4480357Y-93035714D01*
X4385119Y-93083333D01*
X3527976Y-93654761D02*
X3623214Y-93702380D01*
X3813690Y-93702380D01*
X3908928Y-93654761D01*
X3956547Y-93559523D01*
X3956547Y-93178571D01*
X3908928Y-93083333D01*
X3813690Y-93035714D01*
X3623214Y-93035714D01*
X3527976Y-93083333D01*
X3480357Y-93178571D01*
X3480357Y-93273809D01*
X3956547Y-93369047D01*
X3051785Y-93035714D02*
X3051785Y-93702380D01*
X3051785Y-93130952D02*
X3004166Y-93083333D01*
X2908928Y-93035714D01*
X2766071Y-93035714D01*
X2670833Y-93083333D01*
X2623214Y-93178571D01*
X2623214Y-93702380D01*
X1385119Y-93178571D02*
X1051785Y-93178571D01*
X908928Y-93702380D02*
X1385119Y-93702380D01*
X1385119Y-92702380D01*
X908928Y-92702380D01*
X480357Y-93035714D02*
X480357Y-93702380D01*
X480357Y-93130952D02*
X432738Y-93083333D01*
X337500Y-93035714D01*
X194642Y-93035714D01*
X99404Y-93083333D01*
X51785Y-93178571D01*
X51785Y-93702380D01*
X-852976Y-93035714D02*
X-852976Y-93845238D01*
X-805357Y-93940476D01*
X-757738Y-93988095D01*
X-662499Y-94035714D01*
X-519642Y-94035714D01*
X-424404Y-93988095D01*
X-852976Y-93654761D02*
X-757738Y-93702380D01*
X-567261Y-93702380D01*
X-472023Y-93654761D01*
X-424404Y-93607142D01*
X-376785Y-93511904D01*
X-376785Y-93226190D01*
X-424404Y-93130952D01*
X-472023Y-93083333D01*
X-567261Y-93035714D01*
X-757738Y-93035714D01*
X-852976Y-93083333D01*
X-1329166Y-93702380D02*
X-1329166Y-93035714D01*
X-1329166Y-92702380D02*
X-1281547Y-92750000D01*
X-1329166Y-92797619D01*
X-1376785Y-92750000D01*
X-1329166Y-92702380D01*
X-1329166Y-92797619D01*
X-1805357Y-93035714D02*
X-1805357Y-93702380D01*
X-1805357Y-93130952D02*
X-1852976Y-93083333D01*
X-1948214Y-93035714D01*
X-2091071Y-93035714D01*
X-2186309Y-93083333D01*
X-2233928Y-93178571D01*
X-2233928Y-93702380D01*
X-3091071Y-93654761D02*
X-2995833Y-93702380D01*
X-2805357Y-93702380D01*
X-2710119Y-93654761D01*
X-2662499Y-93559523D01*
X-2662499Y-93178571D01*
X-2710119Y-93083333D01*
X-2805357Y-93035714D01*
X-2995833Y-93035714D01*
X-3091071Y-93083333D01*
X-3138690Y-93178571D01*
X-3138690Y-93273809D01*
X-2662499Y-93369047D01*
X-3948214Y-93654761D02*
X-3852976Y-93702380D01*
X-3662499Y-93702380D01*
X-3567261Y-93654761D01*
X-3519642Y-93559523D01*
X-3519642Y-93178571D01*
X-3567261Y-93083333D01*
X-3662499Y-93035714D01*
X-3852976Y-93035714D01*
X-3948214Y-93083333D01*
X-3995833Y-93178571D01*
X-3995833Y-93273809D01*
X-3519642Y-93369047D01*
X-4424404Y-93702380D02*
X-4424404Y-93035714D01*
X-4424404Y-93226190D02*
X-4472023Y-93130952D01*
X-4519642Y-93083333D01*
X-4614880Y-93035714D01*
X-4710119Y-93035714D01*
X-5043452Y-93702380D02*
X-5043452Y-93035714D01*
X-5043452Y-92702380D02*
X-4995833Y-92750000D01*
X-5043452Y-92797619D01*
X-5091071Y-92750000D01*
X-5043452Y-92702380D01*
X-5043452Y-92797619D01*
X-5519642Y-93035714D02*
X-5519642Y-93702380D01*
X-5519642Y-93130952D02*
X-5567261Y-93083333D01*
X-5662499Y-93035714D01*
X-5805357Y-93035714D01*
X-5900595Y-93083333D01*
X-5948214Y-93178571D01*
X-5948214Y-93702380D01*
X-6852976Y-93035714D02*
X-6852976Y-93845238D01*
X-6805357Y-93940476D01*
X-6757738Y-93988095D01*
X-6662499Y-94035714D01*
X-6519642Y-94035714D01*
X-6424404Y-93988095D01*
X-6852976Y-93654761D02*
X-6757738Y-93702380D01*
X-6567261Y-93702380D01*
X-6472023Y-93654761D01*
X-6424404Y-93607142D01*
X-6376785Y-93511904D01*
X-6376785Y-93226190D01*
X-6424404Y-93130952D01*
X-6472023Y-93083333D01*
X-6567261Y-93035714D01*
X-6757738Y-93035714D01*
X-6852976Y-93083333D01*
X9099404Y-95452380D02*
X9099404Y-94452380D01*
X8718452Y-94452380D01*
X8623214Y-94500000D01*
X8575595Y-94547619D01*
X8527976Y-94642857D01*
X8527976Y-94785714D01*
X8575595Y-94880952D01*
X8623214Y-94928571D01*
X8718452Y-94976190D01*
X9099404Y-94976190D01*
X8194642Y-94452380D02*
X7956547Y-95452380D01*
X7766071Y-94738095D01*
X7575595Y-95452380D01*
X7337500Y-94452380D01*
X6385119Y-95452380D02*
X6718452Y-94976190D01*
X6956547Y-95452380D02*
X6956547Y-94452380D01*
X6575595Y-94452380D01*
X6480357Y-94500000D01*
X6432738Y-94547619D01*
X6385119Y-94642857D01*
X6385119Y-94785714D01*
X6432738Y-94880952D01*
X6480357Y-94928571D01*
X6575595Y-94976190D01*
X6956547Y-94976190D01*
X6004166Y-94547619D02*
X5956547Y-94500000D01*
X5861309Y-94452380D01*
X5623214Y-94452380D01*
X5527976Y-94500000D01*
X5480357Y-94547619D01*
X5432738Y-94642857D01*
X5432738Y-94738095D01*
X5480357Y-94880952D01*
X6051785Y-95452380D01*
X5432738Y-95452380D01*
X4242261Y-95071428D02*
X3480357Y-95071428D01*
X1670833Y-95452380D02*
X2004166Y-94976190D01*
X2242261Y-95452380D02*
X2242261Y-94452380D01*
X1861309Y-94452380D01*
X1766071Y-94500000D01*
X1718452Y-94547619D01*
X1670833Y-94642857D01*
X1670833Y-94785714D01*
X1718452Y-94880952D01*
X1766071Y-94928571D01*
X1861309Y-94976190D01*
X2242261Y-94976190D01*
X861309Y-95404761D02*
X956547Y-95452380D01*
X1147023Y-95452380D01*
X1242261Y-95404761D01*
X1289880Y-95309523D01*
X1289880Y-94928571D01*
X1242261Y-94833333D01*
X1147023Y-94785714D01*
X956547Y-94785714D01*
X861309Y-94833333D01*
X813690Y-94928571D01*
X813690Y-95023809D01*
X1289880Y-95119047D01*
X480357Y-94785714D02*
X242261Y-95452380D01*
X4166Y-94785714D01*
X-1091071Y-95166666D02*
X-1567261Y-95166666D01*
X-995833Y-95452380D02*
X-1329166Y-94452380D01*
X-1662500Y-95452380D01*
X8575595Y-97202380D02*
X9147023Y-97202380D01*
X8861309Y-97202380D02*
X8861309Y-96202380D01*
X8956547Y-96345238D01*
X9051785Y-96440476D01*
X9147023Y-96488095D01*
X7670833Y-96202380D02*
X8147023Y-96202380D01*
X8194642Y-96678571D01*
X8147023Y-96630952D01*
X8051785Y-96583333D01*
X7813690Y-96583333D01*
X7718452Y-96630952D01*
X7670833Y-96678571D01*
X7623214Y-96773809D01*
X7623214Y-97011904D01*
X7670833Y-97107142D01*
X7718452Y-97154761D01*
X7813690Y-97202380D01*
X8051785Y-97202380D01*
X8147023Y-97154761D01*
X8194642Y-97107142D01*
X6480357Y-96154761D02*
X7337500Y-97440476D01*
X5956547Y-96202380D02*
X5861309Y-96202380D01*
X5766071Y-96250000D01*
X5718452Y-96297619D01*
X5670833Y-96392857D01*
X5623214Y-96583333D01*
X5623214Y-96821428D01*
X5670833Y-97011904D01*
X5718452Y-97107142D01*
X5766071Y-97154761D01*
X5861309Y-97202380D01*
X5956547Y-97202380D01*
X6051785Y-97154761D01*
X6099404Y-97107142D01*
X6147023Y-97011904D01*
X6194642Y-96821428D01*
X6194642Y-96583333D01*
X6147023Y-96392857D01*
X6099404Y-96297619D01*
X6051785Y-96250000D01*
X5956547Y-96202380D01*
X5289880Y-96202380D02*
X4670833Y-96202380D01*
X5004166Y-96583333D01*
X4861309Y-96583333D01*
X4766071Y-96630952D01*
X4718452Y-96678571D01*
X4670833Y-96773809D01*
X4670833Y-97011904D01*
X4718452Y-97107142D01*
X4766071Y-97154761D01*
X4861309Y-97202380D01*
X5147023Y-97202380D01*
X5242261Y-97154761D01*
X5289880Y-97107142D01*
X4242261Y-96821428D02*
X3480357Y-96821428D01*
X3051785Y-96297619D02*
X3004166Y-96250000D01*
X2908928Y-96202380D01*
X2670833Y-96202380D01*
X2575595Y-96250000D01*
X2527976Y-96297619D01*
X2480357Y-96392857D01*
X2480357Y-96488095D01*
X2527976Y-96630952D01*
X3099404Y-97202380D01*
X2480357Y-97202380D01*
X1861309Y-96202380D02*
X1766071Y-96202380D01*
X1670833Y-96250000D01*
X1623214Y-96297619D01*
X1575595Y-96392857D01*
X1527976Y-96583333D01*
X1527976Y-96821428D01*
X1575595Y-97011904D01*
X1623214Y-97107142D01*
X1670833Y-97154761D01*
X1766071Y-97202380D01*
X1861309Y-97202380D01*
X1956547Y-97154761D01*
X2004166Y-97107142D01*
X2051785Y-97011904D01*
X2099404Y-96821428D01*
X2099404Y-96583333D01*
X2051785Y-96392857D01*
X2004166Y-96297619D01*
X1956547Y-96250000D01*
X1861309Y-96202380D01*
X1147023Y-96297619D02*
X1099404Y-96250000D01*
X1004166Y-96202380D01*
X766071Y-96202380D01*
X670833Y-96250000D01*
X623214Y-96297619D01*
X575595Y-96392857D01*
X575595Y-96488095D01*
X623214Y-96630952D01*
X1194642Y-97202380D01*
X575595Y-97202380D01*
X-43452Y-96202380D02*
X-138690Y-96202380D01*
X-233928Y-96250000D01*
X-281547Y-96297619D01*
X-329166Y-96392857D01*
X-376785Y-96583333D01*
X-376785Y-96821428D01*
X-329166Y-97011904D01*
X-281547Y-97107142D01*
X-233928Y-97154761D01*
X-138690Y-97202380D01*
X-43452Y-97202380D01*
X51785Y-97154761D01*
X99404Y-97107142D01*
X147023Y-97011904D01*
X194642Y-96821428D01*
X194642Y-96583333D01*
X147023Y-96392857D01*
X99404Y-96297619D01*
X51785Y-96250000D01*
X-43452Y-96202380D01*
D12*
X-9000000Y-164000000D02*
X-9000000Y-36000000D01*
X11000000Y-164000000D02*
X-9000000Y-164000000D01*
X11000000Y-36000000D02*
X11000000Y-164000000D01*
X-9000000Y-36000000D02*
X11000000Y-36000000D01*
M02*
